/* XPM */
static char *result[] = {
/* columns rows colors chars-per-pixel */
"93 98 78 1 ",
"  c #1B1C1E",
". c #1F201F",
"X c #20201F",
"o c #1D1F20",
"O c #1E2122",
"+ c #252626",
"@ c #282627",
"# c #262826",
"$ c #282827",
"% c #262628",
"& c #282728",
"* c #262929",
"= c #2A2B2B",
"- c #2D2F30",
"; c #2E3132",
": c #323434",
"> c #383637",
", c #363835",
"< c #383A37",
"1 c #363738",
"2 c #363939",
"3 c #3A3B3B",
"4 c #3D403F",
"5 c #3D3F40",
"6 c #3F4243",
"7 c #444545",
"8 c #484647",
"9 c #454847",
"0 c #464749",
"q c #474949",
"w c #4B4C4C",
"e c #4D4F50",
"r c #4E5152",
"t c #535555",
"y c #555758",
"u c #595758",
"i c #56595A",
"p c #5B5D5D",
"a c #5E605E",
"s c #5D5E60",
"d c #605F61",
"f c #5E6161",
"g c #626364",
"h c #686667",
"j c #646867",
"k c #656768",
"l c #696768",
"z c #6C6C6C",
"x c #706E6F",
"c c #747474",
"v c #787677",
"b c #777778",
"n c #7C7B7B",
"m c #838383",
"M c #888788",
"N c #878888",
"B c #8C8C8C",
"V c #939393",
"C c #999798",
"Z c #9B9B9B",
"A c #A19F9F",
"S c #9FA0A0",
"D c #A4A4A4",
"F c #A8A6A6",
"G c #ACABAC",
"H c #B1AFAF",
"J c #AFB0B0",
"K c #B3B3B3",
"L c #B8B7B7",
"P c #BCBCBC",
"I c #C1BFC0",
"U c #C4C4C4",
"Y c #C8C6C7",
"T c #C9C7C8",
"R c #CCCCCC",
"E c #D0CECF",
"W c #D1CFD0",
"Q c #D1D1D1",
/* pixels */
"+OOOOOOO*-6;5;5;;::;;::::::;;:::::,,;,;,,,,,,;4#44=4;:1;::;::;;155%5-55--5-55%55%55O%    O O ",
"OOO%OOO;666fiiiissssssiiipisaiayaauiaiaiuatutaattiitpppsssspsssssiyiyrsiyyyrsiyyyey555O   OOO",
"OOOOO;;666jjffffssssssispaspiaaaaaaaaaaaaaaaaaaaaiaafffffssssssssssdsssisissyiisiyyyr555%OOOO",
" OOo*6rffi6666665555555233434444,4<44<4<4444444444443434552525555555555555555555555rifs55-OOO",
"O OO6rfff66;**-*===%=&=&******===#=#*=*=$$$$$$$$##====*=====*--*%%-%%%%%%%-%%%%O*-55rsfse5%O ",
"OO=6rff66;-*O***+%%%%+++#O.+##.##.##+O#XX#######.#O##O##O%O%OO%O%%%O%%%%%%O%%%%%O*%;55esse5O ",
"OO:rffr6-**O*OO*%o%Oo%ooO....#.##.X##XXXXXXXX#XX.#...#OO%o+o%OOO%o%o%o%oOOO%%%%%**OOO*5rss55o",
"O-6ff6;;*OO*OO*O%+OO%O+XO+O+..XX#.X#XXX##X#X#X#X#..##O#Oo%O%OO%%O%o%o%o%O%%O%%%%***O%%-5eks5%",
"*56fr5***OO**O**O%++O%o+#X$XXXX$..#.X#XX#X#XX$X#+oX+%oo%%%o%%o%o%%%%%oo%+OO%%%=&-%%%%%*-5sf55",
"-esi6;%***O*O*O*%%%O++++#$XX$=XX##X#####X###$X#X++++@%%oo%%%%%%%%%%%%%%%%%%O%%%%%%%O%O%%5rsr5",
"5rfr65O***OOO%*O%+%%+o+oX#$$$X$XX##X#X#X$XX#$X$X++o@o%%@%%%%%%%%%%&%%%%%%%%%%%%%%%%%%%%%5err5",
"5if6-%**O***%%%*%O%+%+++X#X$$XX$#X###X##X#$XX$X$+X@X@@%o%%%o%%%%%&%&%%%%%O%%+%%%%%%%%%%%%5rr0",
"5sf5**%O*O%%%%%O%%%+++++#X++X@XXX#X##X#X$#$X$XX$++++@+o%o%%+%%%%@%@%@%%%%%%++%%%%%%%%%%%-50ie",
"*ss5O%%%%%%O%%%%%%O++++X++X+@X$XX##XX#X##XX$X$$$+X+X%o%%%%+%%%%%%@%&%%%%%+o%%%%%%%%%%%%%*5eir",
"5ss5O%O%%O%%%%%%++++++++++++X@@X#X####X##$#X$X$X+X+X%@%o%%%%%%%%@%%%%%%%%o%%+%%%%%%%%%5%-55ir",
"%yy5O**%%*%%O%%O+++@@X+X+X+++@X+X#X#X##XXXX$X$X$++++o+%%%o%O%%%%%%%@%%%%%%%%+%%%%%%%-%O%555yr",
"-yi5%%%%+++++%@@@+%+@%%O@X@@@X+XX+X++#X++@##++++o+X@+++@o%%o%%@@+%%%%%+@+@+%+@++%%%%&===:38tw",
"5is;%OO%@@+@+%#%@+++++++@X@XX@XXXX++XX+X+@&@#@X@@+++X+o%@%++%%@@+@%%##@@++%+@@@@#@@%&$$$=38uw",
"*ii5*%**#@@#%%%#@@+@@+++@@X@@@+XX++X+X+++$@&#@+XX+X+X@X++@+++++o+@+@@@@@@@@@@@@@@@@#@&$$;38ue",
"-is5*%%*&#%%%%%%+@%@@@+@@@@@@@@+X++X+#$$$@@++++X+@X+++++o@++++@@+@%@@%#@@%+@#%@#@##@$$$$;<8ue",
";pp<%*%#&#@@%%%@@@@@++++@@@@@=@++$;49qwe83,=@#++++++o@o@+++++o@@@+@#%#%@%%&@#&&@@&#@$@$+=48ue",
";pp2%%#%#%&##%%@@@++@+++X@@X@&@++;wvBVBBmzu3&@++@oX+++++X@X+++++++#@#%#@%%#&&##%%#@%@$+$;<8ue",
":pp2&##%@@#&%#+*@@+@@@++@@@@@&@+=4gALPLLFVc7=#+++@++XX@X+@++X+++@@&#@%@#%%@###&@&##@$$$=;38tw",
";up2$%#@#&@#@&@@@@@@+++@X@@@@@@@<unDPYYYIHMq&#X++XX+@+++X+++@+++@@#&#@#@%##&&@#@%&#@$$$X=<8ue",
":aa,@#%#&#&@+@@@@@+@@+@@@@+@@@@@7cAHUEERRPZi;*X++X++o+X++@+++@++++@+@+@#@##&&#%@@#@#&&#@=<8uw",
":uu,&##&#&&#@++%@++@@+@++@@+@@@@8MHITTRRRUGz7-+XX++o+X++X++++X+++@++@+#@%@&##@@#@@%@@#@%;3wuw",
":ia<#%#%#%#@@@+@@@@@@@@@@@@@@@@-tAPTEETERTJmp,+++@+++X+X+X+@+@++++X++@#@@#%@&##&#&##@##&=38uw",
";ia<&#%#%@@@+@@@@@@@@@@@@@@@@@=>dAYTEWWERRPSc7$#@@@@@@+++++oX@X+++@+++@##&@#&@@&&#@&%&#@;<8tw",
":ua,##%#@#@@@@@@@@@@+@@@@@@@X@>wvGYRREEERTIJMw&@@==&@@@X+@+++++o++++@@#&&&#@&#@#@##&@@#&;<wte",
";aa<$####@%@@@@@@++@@@@@@@@@@@7dVLRRTUURETUICe@++&=@o+++XX+X++@@+X++@@&#@#%@#@%@%&@##&@#=38ue",
";ya,$#+*&%#@@#@@@@+@%@@@@@@@@@7mGIRRIGGURRTTFd>@+&&@X+++++@+X+++++++++#@@#@##&#&@##@#&%@=39yw",
":aa:##$+#@%#+%%#+@@+@+@@@X@@@@8VIYRRJmmJTRRRLMu:+o+++@X@o+X+++++++++@+@%@&#&@%@#@&@%@#%#=49te",
";pp<*+%##%#%%##%@@+++@@#+++$=,aSYRRYDjjZPRQQISc4#XX#@+++X@@+++++X@+++@#@##%##&##@%#%#%#@=49tw",
":pp<#*++%#%##%###@+++++@+++=<rbJRRRUZrwmJUQRUJm9X##XX+X@X+X+X+++++++++@@@%#@&#@&#@@%%#@#=49tw",
":ip2#*+*#@#%%#*#@#++++++++#$4jVPRRTPB4<xZPQRTPVt=$#XX@+++X@+X+++++@X@+@#@@@%@@@#&&###%%#-49tw",
":up2##*##%#%#%+*#@++++O++$=*7nSUQQUDv4:umJRRRTDa<=$XXX+X+++X@@@O++++++#@%#&##@%&#@@%%@#%=49ie",
";ua<+*O##+%++%#+@@++#+++++$=9NKUQQPVg,=7zDURQRJce,#+X++++@@X+++++++++@@+@##@#@#&@##%###+=49tw",
";aa<*#**@%%%*#+*#@++$**#++=,aZURERHve:$$rCPTRRLBg3@@+++XXX++X@++@X++++#@#&@#%@@##@%#@%%%#49te",
":ii<*#+***+%*+*+#%+##$$#+#;8zGYRRTDg3=XX4BKURRUDn7$$++X+++O@++++++++@++@@@++@+#%&@#%*++%=46te",
";ia<##*+#*O#+*+$%##%#.OX+$3aNJURTICt-$$X4nSPQQRUVe$$++++X+++X+@X++++++++@@+@++%#&#%##%+%-4wtw",
";aa,####*+#**#*+#%#%@  +X$7vALYRUJN9#XXX,jBLRQQRFd>@++++++X@+++++++@@+++X+++@+@+#@@+####=<qye",
";ip<##%##*O*+%+*%#%#+X ++X7BLUYTPAv4X.X.=wvHRQQQKnt>+@X+@O+@++X++++OX+++@++++++@#@+@##++=<9yw",
":ua,##+****+*+#+##%%+++X$=eZPTTRPDmgew99eamJRQQQIVh3+++XOX@X++@+@+++@++@++++++X@+++++X+#-<9yw",
";aa,**#+O#+*+*%$%#@#++X+=3jDUTRTUILGDDDSDGJYQRQRIDn5@X+X@++@++++X+++@+X+X++X++++++++++##=<9re",
";ip<##+*%+%+###&%#@#++X+,ynGURRRRRRQQRQQERRRQRRRULBw@@+++XX+X+++++X+@XX++@++@+++X@+++++O-<9yw",
":pp<#**O+%#%@%@##%@@+X+@4xCLRRQQQQRRRRRQQRRRRRRRRYAi;&++++@+@+++++@+++@@+X+XX+++++++++++-<9tw",
":ip<*#**%+#%%#%@&@@#@XX#qmJURRRRTTUYTUTTYYYYRRRRREJz3-@XO@+++++X+++++++O@X+X++++++++++++=<9tw",
";pp2#%#+@#%#%@#%@##@@+X#eCIRRRUIPLLLPLLKKLLPIRRRRRKmu:++@O+X++@@@X+@@O+X++++X++@++X@++O+=<9yw",
";ua<$#%#%##%#@#&$+$@+X$>hFEEEYPAVBBBBVBMMBBVSPTRERPCx4#+X++++++@#@@@+++X++X++++@##.#O#O#446tr",
",ua<%##%#%%#%#@#+$@+$X>umHEEEEHxtw88wqw79888jZUREEUGn7#+++++++$+##@+++++++++@@+X.########46ie",
",ii<$##%%%#%#%%#$@@@@@3xCLREEUAu=#@@@#@@++++7mHUQQTPVt;*++++$@+$@@@#+++++@+++X++##O##OO##46p6",
";ia<%#%###&#@#@&@$@@$$8nFIEEULB8++XX++X++++#4xCPRQQTFz4;++++@$+$#@#$+++++X++++++X########44ir",
";ai<*$%$@%##&%@#@@@@@>uBLYEEPFm4 X+XX+++++++>umHRQQQLmt,++##$$@$@$@@++++++@@++X@#X##O####44rr",
";ia<$$#$##%+#@#&@@@@=>dAIEERLCx4@#+XXXX@++@+-7zGRRQQPZz4+@@@$@@#$@$@+@++++X+++++##X####O#46t6",
";ia<##$+@@+@+@@&@@@@>wvHREEEKmu3@@+  +@#@@$$=,uZUYRRUGm6++#&&##@+$@+@+@+X+++++++######OO#46pe",
":au<##++@@+@+@@@@@@@>hBHYRETFh3;&@++++@###$$&@8BKURRRPVw++#$&@@#@+@@@+X+@+++X@++##X#O##O444ir",
";pp<+@+++++++@@@@@@@4lMAHHHHVw=@=@X@@+@@##@&@+3cVFHHKGBw@#@#@@@+++@+@+++++++++++#X#.#O###46i6",
":pp<+@X+++++@X+@@XX@>uxvnnnnl3@@@@+@@+@@%#%#@+:tzvnmmmx8:=@@##@+@+++++++X+++++++######++#46ir",
";up2#++++++@@@++@@@@>8teutee8:@@#+++++@@@+#@++=5qwetyue3;=&@X+++++@X++X+++++++X+##X##O#O=46tr",
";pp2%+++X++X+X+@@X@X@->>>>>>:@@X@+++@@@@@#@@+@&=:::,,>,==&&@++++++++++@++++++X++#####+##=4qt6",
";ua,@+++X++@X+++@@X@@@@@X@@@X@@@+X++++@@@#@+@@++++X+@@@+@@+++X+++++++++@+++++++++#O+###+=29t6",
":aa<+++o@@XX@@@X@X@@@@X@@@X@@@@++++++@@@#@@++XoXX+@XX+++@X+++++++@+++++X++X+++++X##++OO+=39y0",
":ii<++@X+X@+@X@+@@@@@@@@@@@@++@++++++@#@@#+++oX+X++XX@X+++++@X+++X++++++++++++++########-10t0",
";ia<++++++X+++++@X@@@X@@X@@@@+++@+++@@@##@@+++@@%#@@+@##@+++++++++++@X++++++X++++#O#+O+#=20ye",
":ua<#++O+X#+O+++++++@@@+@@+@@@+%@++++#&#@#@#@@@%&%@+++@#@+++++++++@+++++X@++++++++++++++&2qtw",
";ai,##+####++++++++++@+@@+@@+@%%@@@++@#%@%@&&##@@#@@+++@+++XX+@X++X+++@X++++X++@++++++++=<8tw",
";ua,#+#+#OO#+#+#++++@+%#@+%@@%%#&@@###@##%#&&@@#@##@+X++++@O@O@++@++++++++X+@++X++++@+++=3qtw",
";ya,###O+###+++X++++###$%%%###@%#@%&#@@%&@@##@%&#&#@++++@X++++@+X@++X+++++@+@+++++++X+++=3qtw",
";ip2++O#O####++#++#####+@#%##%#&%@#@#&@%@#&#@@#@+@@++++X+X@+X++++++@@+++@+++@@+@X+++++++=>8tw",
":ip<##+#++#XO++#X+X++#+$%%#%%##@@#&#&#@@#&@##%&##@+++++@@X+X+++@+++X++O+X++++X+@++++X+@X-38tw",
";up<##+#######O##+#++#+##%+#@#@%@&@%#@&#@@#&&&#%#%@++++X@+X++++X+X++@X@@+++@+++O+++@@+++=37tw",
";ap2###OO+#O++++#++++##+++@#@#%##&#@#&#@@%&##@@@@#++++@+O++@X++++@++@++++++X+++++++X++++=3qtw",
":aa,##O+O#O#+#+#X#X####X++#+##+$#&##@%#&@@@##@%@%@@@@+++X++X+X@+++++O@@X@+++X@++++++++X+=38tw",
":ua<#+#+#+O+#OO##########++##+#+@&@&#@@#%#&&&&#@#%+@+++++++@++@+++@X++++@+@X+++++@X++@@+=38tw",
",ii<$#O+#O#++#####X##X########$#@#&#&&#@#@&##@&#@###+@++++++++X+++++++@X++++++@X+++++X++=38tw",
";ia4#+##++#O#O+##X#########++###%@#@#@@%&##@@%#@%@#@+@+XX+++++@+X+++++++X++++++++++++@++=48uw",
":pa2*#+OO##.##+O############+##@#@%&@@@#@%@##@@&#@#&@@++@++++X++@++X@+++@++++X++X+++@@X+=<8tw",
":aa3*+#OO+#.#O+##X#X#####$X+++##&#@#%#&&#&#@&#%##%@#@@+++++++@++++++++++++++@@++@+++$X$+=<8tw",
",ia3*+++##+++###.########X#$+##@&@@##&&#@@&@&@@%&&#%+@++++X++++@+X@+++X+++X+++++++++@@$X=38tw",
":aa<#+O#+OO#O#+O###XX#####+++##@#@%&@##@%#&##&#@#@@@++++++@++++X++@+++@+++@+++X@++@X$X@@=38uw",
"1pf2+++*###OO#######X############&##&#&#@#&@#&#@%@%@++@@+++@+@@#++++@+@@@+@@+@+@@+@+@+@@&28tw",
"1fs1O%OOOO####.##.#X############&#&@%&@#%@&#@&&#@###@@+@@@+@+@@##@+@++@@+@@#++++++@+@@++=2qtw",
"2fs:O*O*###.#X#..################@%%@@#&@&#@@#&##&@%##@%##@%###&%#@@##@%#@&#%%@@@$@+#&#&-38yw",
"2ss2+++%#O#O#######.#X#####X###X%%%%#@&###@%%@#@@##@#@@##@#@#@@@#%#@#@#&@#%%%%@@$$+$%@@#-38ue",
":ss2%%OO++O##X#.##.########$####@@+@+@%@&##&@##&%&@#@@#&@%#@@#@#@&@##&###@@%+@%@@@@#@@&@-39uw",
":ss5=#%%O#O+#X###.##X######X####@@*@&%@@%@%@%@@%@##&#%&#%##%@##@%##&@@&@@#%#@@@@@$#@@##%=39tw",
"-ss6;*+##O#+##.##########X######@@%&@@@+@#%#@#&@#&@%@@#&@@&##@$+#@@%@#&##@#%@%@@$@###&@@-38ue",
";ps6;*OO++#OO####.#.#X##########@@@+&+%+@@@@#@@#&#@@#&@#%#&@@##+&&#@%@#@&%@#+@@@@#@@@##@=38uw",
"-ts02-+O#####.######X#X#########%%%++%%%+++@+++@@@+@+++@#+++++++@@+@+++@@+@+++%@%@%%%%&&:7ee8",
"-0yy0;+O..#O##O###X#####X###X#$X%%O+++++%%+++++++++@+++++#+++++++++@+++++@++++%%%%o%%%&=<uu8:",
"%50it5=%###########X##X###XX####o%%%+O%+%OO@+OO++X+XX++X.##O+X+++X+XX++Xo@o@+@+oo@%%%%-;7au>&",
"O=5yse5;#.##############X#####X#%%%%%+%%++++@@++++@+@+++####++++++@+@+++@@@@+o%%%%%%%&;8tpu:X",
"OO;6ssr54#.#############$$XXX##X%%OO+%%%%%%%++++O+++++++##.###OOO+++++++@%@oo%%%%%%o-55yut8&X",
"OO*50fky44#######X##XXX#X$XX#XX#%o+++o%o%o%o+@O++++++O+OO.#.#OO +++#+O+Oooo@@%ooo@o@-wuhd7-o ",
"OOO*5yfst99<444,4<,,,,,,4,,,,,<<1111111111112,11:,>211,:4;;44444:,1>>1,:;5>55-5>-5>>6udde:X  ",
"OOOOO50yaajjaaaaaaaaaaaaaaauaaaassssssssssssssppppspppspaaiaitpppppsppspdduudddudddduu85-@   ",
"O*OOOO16rffffffsffpipppppiiaiaiipipasssfifsssfsiiiiipfiiiippiipippppappappppppspspsst01%oooo ",
"OOOOOOO-;::25;:;::;4=4=44--4*44;4;4;:;;22:2;:;;44:4;;44;4;;44;4;::;:;:;;;;;::;:;:----=%ooo   "
};
