/* XPM */
static char *result[] = {
/* columns rows colors chars-per-pixel */
"93 98 82 1 ",
"  c #131617",
". c #141718",
"X c #16191A",
"o c #1B1C1D",
"O c #1D1F20",
"+ c #1E2222",
"@ c #242525",
"# c #252826",
"$ c #282927",
"% c #262628",
"& c #282628",
"* c #262929",
"= c #2B2B2C",
"- c #2E312E",
"; c #30302F",
": c #2D2F30",
"> c #2F3131",
", c #323334",
"< c #353837",
"1 c #383937",
"2 c #363738",
"3 c #363939",
"4 c #3C3D3D",
"5 c #41413F",
"6 c #3E3E40",
"7 c #403F40",
"8 c #3E4141",
"9 c #434444",
"0 c #454846",
"q c #454748",
"w c #47494A",
"e c #4B4B4C",
"r c #4F504F",
"t c #50504F",
"y c #4D4F50",
"u c #4D5151",
"i c #545455",
"p c #585756",
"a c #565857",
"s c #585956",
"d c #555758",
"f c #58575A",
"g c #565959",
"h c #5B5C5D",
"j c #5C605E",
"k c #61615F",
"l c #5D5E60",
"z c #5E6161",
"x c #636364",
"c c #666867",
"v c #696967",
"b c #6B6B6B",
"n c #71716F",
"m c #737473",
"M c #7C7C7B",
"N c #80807F",
"B c #848484",
"V c #8C8C8B",
"C c #939393",
"Z c #989797",
"A c #999997",
"S c #9C9C9B",
"D c #A09F9F",
"F c #A4A4A3",
"G c #A9A9A7",
"H c #ABABAB",
"J c #B0AFAF",
"K c #B0B0AF",
"L c #B4B4B4",
"P c #B9B9B7",
"I c #B9B7B8",
"U c #BCBCBB",
"Y c #BFC0BF",
"T c #C4C4C4",
"R c #C9C7C7",
"E c #C7C8C6",
"W c #C9C9C7",
"Q c #C9C7C8",
"! c #CCCCCC",
"~ c #CFD0CE",
"^ c #CFD0D0",
"/ c #D1D1D1",
/* pixels */
"XXXXXXXOO+*:>>>>::*-:*3::>:*:*::*:*:::*:=====--=-=-==-=-=--$-=-=::*:*::=:*::*:***:%+O.O.O O O",
"X.. ..X+=3888duuuuuuuu8u8uu8wyyw8yyuwuwuerreuewrwrrer0rwreerreeeyyyyeyeyeyeyyyyyy766OO O O O.",
".. .O+=28uuuggjjgggjgjgjddggldgglgggggggsassaaaarjaajssssssspsssggddfdfddldldglgldy66*%OOOOOO",
".  o*3yfzzgduud8uuww8u8u8uu88yw88u8uwuu8rwewwewreeewweee0eeweeeewywywywyqewqywwwyullll86OO OO",
".Xo&6yflluu68688844851558666666666666666444444444414444447444444666844446666666666uglxly6OO.O",
"Xo&4gxfe66666*::=-==--$$::::*+::****:::*=------=------$-;==;=;=;::**----:::::=::6:666uxlw6OOO",
"X@2yxly4*%%+%++*+##+++#+++++*+%++*+*+*+*#@#@@@@#####@@##@@&@@@@@#######+O+**++**+%*::6lllw*OO",
"o=ylgy2:*%%%%**+@#+#+#+@+*+*+**+++*+**+*@@#@@@@##+@@@@@@@@@@@@@@##+##+$+%%%+*%*++%***:6yzl6%O",
"o6fx76&%%%%+%+%%+@@@+#+@@@@@@@@@**+*@#@@#@#@#@@@#@@#@#@@@@@@@@@@@#+@@########+@#*%%*+*:6llw6+",
"&7lf6&%%+%%%%%%+@@@+@@@+o$o@@@@@++*+@@@@@@@@@##@@@@@@@##@@@@&@@$@###@#+##+#####@%++O%*%6wll8*",
"67li6OO%%%%%%%%%@@+@+@@#$@@@o$@@#++*##@@@@@#@@@$@@@@#@@@@@@$@@@@#@######@#+###@@+%+%%++:6yld:",
"6yf76&%O+%%+%+%%$+$@@@#+o@o@@@@@##*++#@#@@@@#@@@@@#@@@#@@$@@@$@@@@#+@@@@#+@##+@#**+O%%O**6ll>",
"7iy7,&%%%%%%%%+%@@@$$oo$@@@@@@@o+##@#@@@#@@@$@$@@@$@@#+@@@#@@@@@#@@#@##@##@@#+$$**OO%%@O+6ll:",
"yfy7:%%%%%%%%%%%$o$o+$$$@@o@@@@@###+#+@#@@@@$@@@@@$@#@####@@@$@@@#@@@#+#@@+#$++$*%%+%+++O2lg:",
"7fy6:%%%%%%%%%%%$$$+$+@o@@$@@@@@+#@@#@@@@@@@@@@$@#@##@@@@@@@@@@@+##@#+@@#@##$#+$%++O++*%+2ll:",
"il76&%%%%%%%%%%O$o$$+$@@@@@@@@@@###@@##@#@@@@@@@@@@@#+##@#@@@$$@#@@@####+@#@+$$++*%%+*+*+6ll:",
"7ly6:O&&&&&&&@&@@@@@@@@@@@@@@@@@@#@@@@@@@@&@@@@@##@@#+$#@#####+###++$+$#+$$++$##+#@@@#%+O,lf:",
"7fy6:%&&&&&@&&@&&o@@@@@@@@@@@@@@@@@$@@@@@@@@@@$@@@@#$+###+##+###$+$##$+#$+#$$$+$##+#@+@@&6lf:",
"if76&%&&&&&&@@@@&@@@@@@@@@@@@@@@@@@@@@@$&@@@@&@@@#@###@@##+++##++$$+++$$$++$$++#@@@++##@O2ll,",
"yfy7:%&&&&@&@&@&&&@@@@@@@@@@@@@@@@@@@@@$@@&@@@&@@@@#$+@#+#####+#####$##+#$+#+#$$#+#+@@+%@2ll:",
"qfe7:%%%&&@@@&&&@@@@@@@@@$@@@@$$;5555tttteq971;&#@#+######+###+###+$$+#$+$+$#+#+@+#@@@@+&,fl,",
"qfe7&%%&&@&@&@@&$$@$$@@@$$$$$@@1snNNVDFFDZCVmk7,$##+##+##########$$+#$+++##$#$$+#@@#@@@@%2lf:",
"efe7&%&&&&&@@@&o@@@@$@@$$$$$$;5pNNKYUR!~RYIJDVvi5<$#+###+########++#+$$#$$++++$$@@@#@@%%%,ll,",
"qfe7:%&&@&@@&@&&@$@@@@$@$$$;5kNAKYYERQ~~QRTYULFVnr<++#+#+#$+#+#+$+$$+$+#$+$#$#+$###+O%%%O6ll:",
"qfe6&&&&&&&&@o&o@@$@$@@@@;;tvNGPWW~~~~~~~!QQ!!QIAm0-#+##$##+$$+$@@@#+#+$@@@@@@@@@@#@@#+#O2ll2",
"efe6&&&&&&&&@@&&@@$@@@@$$;sMDPPWW~~~WW~W!!!!///!YSv5$###$+$+#++#@@@@+##$@@@@@@@@+###@@##&2lf;",
"qfe6&&&&&&O&@@&o@$@@@$$$;tMGYWWW~WYPKGFFHJIT!///~YNs<####$##$+$##@@@$$++@#@#@@@@#@#+#@#@&2xf,",
"qfe6&&&&O&&O@@&&@@@@$$$;5vAPW~~~~PGNNvssvMCGT///EYFM1++##++$##$+@@@@#+$##+##+#@@#@@@@##+&2kf,",
"efe7:&&&&&&o&&o&@@@@@$$1kNPW~~~WPDNk55$;4tbVHY!~EYYAs$$#+#+#++$+@$@@@@@@@@@@@@@+@@@@@#+#&,fk;",
"qfe7&&&&&&&o&&&&@@@$$$$5MGY~~W~PNN51;-@$-<5sBGY~~WEGnr-#$$$#$$#$@$@@@+@@@@@@@@@@@@@@@@@@&2kf;",
"efe6:&&&&&&&&&&&@@@@$$;pNPWW~WRGN5;$@oo@@@#4jBYE~~~YNv;###$$$++$@@@@@@@@@@@@@@@@@@@@@@@@&;kf;",
"efe6:&&&&o&&o&&o@@o$$$5kK~W~~WKNs5@@@@o@++##>jFYE~~YAn5$$++#$$+$@@@@@@@@@@@+@@@+@@@@+@+@&2fk;",
"9pe5$@&$&@@&@@@&@@@@$1rmJ!!Q^YSn5;@@@@@@o@o@@5VIIRIJZn5&&&$@@@@$@@@@@@@@@@@@@@@@@@@@@@@@&;fp;",
"tpt5;&$$@@@@&&@@@O@$$1kVL!Q!!LMt5$@@+@$$@@oo@5MAGGDVMk1&&&$@@@@@@@@&@@@@@@@@@@@@@@o@@@@@&2fk;",
"ept5$&&$$@@&@@@@@@@$$5nAI!Q!!Gc4;$$@+@$$&@@o&1pnNNnvpt;@&&&@@@@@@@@@@@@@@@@@@@@@@@@@@@@@&;kf;",
"ept5$&$$$@&@@@@@@@@@$5MGY!!QTSh,$@$@+@$$&@@@@$1575111;&@$&&@$@$@@@@@@@@@@@@@@@@@@@@@@@@@&;kp;",
"epe1;&&&$@@@@@@&@O@@#qBJT^!RUCi=@@$$+@@$&@&&&@oo@@@@@@@@@@$@@@@#@@@@@@@@@@@@@@@o@@@@@@@@&;pk;",
"ept7$&&&$@@@@@@@@@@&@wVPT^!RICe$@@$@@@@@@@@@@@@@@@o@@@@@$@@$@#@@@@@@@@@@@o@@@@@@@@@@@@@@&1kp;",
"ept7;@$$@&@@&@@@@@@@&wVLR^!RPCe$@@@@@@@@o@@@@@@@@@@@@&&@@@@@@$$@@@@@@@@@@@@@@@@@@@@@@@@@&;kp;",
"epe7$@&$&@@&@@@@@@@@&yVIT!!RICe&@@@@@@@@@@@@@@@@o&@@o@@@@@@@@@@@@@@@@@@o@@@@@@@@@@@@@@@o&;kk;",
"ept7&&&&@@@@@@@@@O@@@eVIQ!!TICe&@@@@@@@@@@@@@@@@@@@O@@@@@@@@@@@@@@@@@@@@@@@@@@@@@@@@@@@o@;kp;",
"7pt7;&&&@@&@@&@&@@@@&qVIQ!!QICe&@@@@@@@@@o@@@@o@@@@@o@@@@$@@@&&@@@@@@@@@@o@@@@@@@@o@@@@@@;kp;",
"tpt7;@&&@@@@@@@@@@@@&eVIQ!!RIVe&@@@@@@@o&o@@@@@&@@@@@@@@@@@@@&@@@@@@@@@@@@@@@@@@@@@@@@@@&1kp;",
"ep77&@&&@@@@@@@@@@@@&eVIR!/QICe&@@@@&@@@@@@@@@@&@@@@@@@@@@@@@@@@@@o@@@@@@@@@@@@@@@@@@@@@&1kp;",
"7pe5&@&&@@@@@@@@&@O@$eNKR!/QYZt;@@@@$@@@@@@&@&1557t7e5$@@@@@@@@@@@@@@@@o@@@@@o@@@@@@@@@@@;kp;",
"epe5;@&&@o@@@@@@$@@@@5MFU//!QFk1$@@&$$@@o@@@@;pmBCCZCm5O@@@@@&@@@@@@@@@@@@@@@@@@@@@@@@@@&;pk;",
"epe5$@@&@@@@@@@@&@@O&5vVU///QJMt;@@@&&@@@@@@@5mDJIIIICqO@@@&@&&@@@@@@@@@@@@@@@@@@@@@@@@@&;kp;",
"7pe5$@@@@@@@@o@@&@O@&1pNI/QQ!IZb1@@@$$@ooo@@&5BJUTTTUZeO@@@@@@@@@@@@@@@@@@@@@@@@@@@@o@@@&;pk;",
"tpe7;@@@@@O@@O@@@&@o&;5nJ/QQ~TJVt;&@@@@@oo@&;pZUQQQQUCq@@@@@@@@@@@@@@@@@@@@@@@@@@@@O@@@@@<jf,",
"ete4&@@@@@@@@@@@@@@@&&;kGQQ/QQYDv5;&&@&&oo@;7vGQ~//RJN7@@@@@@@@@@@@@o@@@@@@@@@@@@@@@@@@+@<hh-",
"ete5&@@&@@@@@@@@&@@@@@&5ZIQ~/QQJBve1&@&@@@;7kNIQ///YDn1@@@@@@@@@@@@o@@@@@@@@@@@@@@@@@@@@+1hh-",
"7pe1&@@@@@@@o@@@o@@@@@@5mDIQ~/QTJZmt,@o@@;7vCJY!Q~QLNp;O@@@@@@@@@@@@@@@@@@@@@@@@@@@@@O@@@<jf,",
"tpe4&@@&@@@@@@@@@@@@@@&;pNGYQQQQRIZMhe777kmCIRRQQRIDk5=@O@@@@@@@@@@@&o@@o@@@@@@@@@@@+@@@@1jh-",
"ete7&@@@@@@@@@@@@@o&@@@&1pVJQQQQRTUJGDZZFHJIQQQ!QIDmq;=&&@@@@@@@&o@@@@@@@@@@@@o@@@@@@@@++;hh>",
"epe4&@@&@@@o@@o&@@o@@@@@@1vCJYRQ!///!QYTQ//QQQ/QYDmi;&$$&@@@@@@@@@@@@@@@@@@@@@@@@@@@@@@+@,hh>",
"ete4;@@@@@@@@@@@@@@@@@@oo&5kCITQ/////!QQ~///RRRIGBt,&@@@@@@O@@o@@@@@@@&o@@@@@@@@@@@o@@@@@1hh-",
"epe5$@@@&@@@@@@@@@@@@@@@o@&7bVHIR!!^/^!!//~RIIGZNk;@@@@@o@@@@@@@@@@@@o&&@@@@@@@@@@@@@o@@#2hg>",
"ep55$@@&@@&@@@@@@@@@@@@@@@@=7tnVFIYQ!!!QQQQRJAMkt1;&&&&@@&o@@o@o@@@@@@o@@&o@@@@@@@@@@@@@+3hh>",
"9pe1$&&@&@@@&@@@o@@@@@@@&&&&@=7vMVZDFFDDDDDABnp5&&@&&&&&@@@@@@@@@@@@@@@@@@@@@o@@@o@@@@@@+3lg>",
"epe5$@@@@@@@@@@@@@@@@@o@@@&&@@;;47tttteettttt51;&&@@@@@@@@o@@&o@@o@@@@@@@@@@@@@@@@@@o@@@+,ll>",
"9tt1$&&@&@@@@@&@@@@@o@@@@@@&@oooO@&&&@@O@@@&$$&@@@@@o@@@@@@@o@@@@o&@@@@@o@@@@o@@@@@@@@@@+6gl>",
"epe5$@@&&@&@@@@@@@@@@@@@@@@@@O@@@@@@@@@@@@@&&&@o@@@o@@@@@@@o&@@@@@@@@@@@&&o@@@@@@@@@@@@@+>lg>",
"epe1$@@&&@@@@@@@&@@@@@@@@@@@@@@@@@O@@@@@@@@o@@@@@@@@@oo@@@@@@@o@@@o@@@@@@@&@@@@@@o@@o@@@+6lg>",
"9tt7$@@@&@@@@&@@@@@@&@@@@@@@@@@@@@@@@@@@@@@@@@@@@@@@@@&@@@@@@@@@@@&@@@@o@@@@@@@@@@@@@@@@O6lj>",
"epe7&@@@@@@@@@@&@@@@@&@@@@@o@@@@@@@o&@@@@o&@@@@@@@@@@@@@@@@@@@@@@@@@@@@@@@@@@@@@@@@@@@@@@;pk;",
"ete1&&@&$@@&&@@@@@@@@@@@@@@@@@@@@&@@@@@@@@@@@@@@o@&o@@@@@@@@@@@@@o@@@@@@@@@@@@@@@@@o@@@@&;kk;",
"epe7&@@&@@@@@@&@@@@&@@@&@@@@@@@o@o@@@@o@@@@@@o@@&@o@&o@@@@@@@@@@@@@@@@@@@@@@@@@@@@@@@@@@&;kp;",
"7pe5&@@@&@&@@@@@@@@@@@@@@@@@@@@&@@@&@@&@@@@@@@@@@@&&@@@@@@@@@@@@@@@@o@@@@@@@@@@@@@@@@@@@@;kp;",
"epe5&@@&&@@@@@@@@@@&@@@@@@@@@@@o@@@@@@@@@@o&@@@@@@@@@@@@@@@@@@@@@@@@@@@@@@@@@@@@@@@@@@@@&2kf;",
"ete5;@@@$@@@@@@@&@@@@@@@@@@@@@@&@@@@@@@@@@@@@@@@@@@@@@@@&@@@@@@@@@@@&@@@@@@@@@@@@@@@@@@@&2kk;",
"5pe1&@@&@@$@&@&@@@@@@@@@@@@&@@@&&@@@@@@@@@@&@@@@@@@&@@@@@@@@@@&@@@@@@@@@@$@@@@@@@@@@&@@@&2kf;",
"9pe5$@@&$@@@@@@@@@@&&@@&@@@@@@@@@@@@@@@&@@@@@&@@&@@@@@@@@@&@@&@@@&&@@@@@@@@@@@@&@@@@@@@&&2kk;",
"7p75&&@&@@@@@@@@$@@@&@@@@@@@@@@@@@@@@@@@@@@@@@@@@@@@@@&@@@@@@@@@@&@@&@@&@@@&&@@@@#@##@%@&2xf2",
"tpt5&@&@&@&@@&@@@@@&@@@@@&@&@&@@@&@@@&@@@@@@@&@@@@@&@@@@&@@&@&&@@@@@@@@@@@@@@@@@@@%#@@@@&2fk,",
"7p75&&@@@$@@@@@&@@@@@@@@@&@@@@@&@@@@@@@@&@&@@@@@@@@@&@@&@@@@@@&@&@@&@@@@@@@@@@@@&##+#@@%&2kf;",
"ept7&@@&&@@@@@@@@@@@@@@&@@@@@@@@@@@@@@@&@@@@@@&@&@@@@@@@@&@@@@@@@@@@@&@@&@@&&@@&@@@@#@@@&;fk,",
"7pe7&@@&@@@@@@@@$@@@@@@@@&@@@&@@@@@@@@@@@@@@@@&@@@@@$@@@@&@@@@@@@@&@@@@&@@@@&@&@#+##@@@@&2ll,",
"ept7&@@&&@@@@@@@@@@@&@@@@@@@@@@@&@@&@&@@@@@&@@@@@@@@@@@@@@@&@&&@&@@@@@@@@@@@@@@@@#@@@@%@O7lf:",
"7pe7&@@@@@@$@@@&@@@&@@@@@@@$@&@@@@@@@@@@@@@@&@@&@@@@@@@&@&@@@&@@@@@@&@@@@@@@@@@@###@@@@@&2ll,",
"tp77;@@@$@@@@@@@@@@@@&@@@&@@@@@@@@&@@&@&@@@@@@@@@@&@@&@@@@@@@@@@@@&@@@&@&@@&$@@@@+#@&+@@&2ff,",
"epe4$@@@@@@@@@&@@&@@@@@@@@&@@@&@@@@@@@&@@@@@@&@@@@@@@@@@@@&@@@@@@@@$@@@@##+####+#+##+###+<jj-",
"qte4&@@&&&@@@@@@@@@@@@@&&@@@@@@@@&@&@@@@@@@@@@@@@&@@@&@@@@@@@@@@$@@@@@@@#####+##@@+###+##<jj-",
"ete4;@&&@@@@@@@@@@@@@@@@@@@@@@@&@@@@&@@@@@&@&@@@@@@@@@&@$@@@&@&@@@@@@@@#+#+###+##+##+####<jj-",
"qpe4$@$&@@@@@&&@@&@@&@@@@@&@@@@@@@&@@@@@@@@@@@@&@@@@@&@@@@@@@@@@@@@$@@@@#+##+######+#+#++<jj>",
"epe1;@&$&@@@@&@@@@@@@@@@@@@$@&@@@@@@@@O%@@@@@@@@@@@@@@@@@@@@@@@@@@@@####+###+##++########<jj<",
"qpt5&@&&&@@@@@@@@&&@@&@@$@@@@@@@@@@&@@&&@&@&@@@@@&@@@@&@&@&@@&@@$@$@##+######+##+#+#+##+#<jj>",
"qpt5;@&&&@@@&@@@@&@@@@@&@@@@&@@@&@@@&@@@@@@@@@@&@@@&@&&@@@@@@@@@@@@@#+####+###+#######+##<jj>",
"qpi7;&&&&@@@@@@&@@@@@@@@@@@@@@@@@@@@@@@@@@@@&@@@@@@@@@@@@&@@@@@@#@@@##+#++#######++##+##*3jj<",
"5tpe;@&&&@@@@@@@@@@@@@@@$@@@@@@@@@@@@@@&&@@&&@@@&@@&@@@@@@%%@@@%@@@@##+#+#############**<0jj-",
",ekp2@=&&&@@@@@@&@@@@@&@@@@&&@@&@@@&@@@@@@@@@@%@@@@@@@@@@@@@@%@@@##@@@@###+##++###+#+#+-0uju-",
"$7kk7;=$&O@O@@@@@@@@@@&&@@@@@@@@@@@@&@@@@@@@@@@@@@@@@@@&@@@@@@@@@@@@###@#+#+#+###+####*>ujj0#",
"o;fxt4=@@&@%&@&@&@&@@&o&@&@@@&@@%@%%@@&@@@@@&@@%@@&@@&@@%@%%@%%@##@#@+#@###*###+##+###*3jju<#",
"X&wfft2=&&&%@&&&@&@@&o&&&&o&@@@@%@@@@%@%@%@@@@@@@@@&@@@@@@@*#**+#*#+@#@@#*+*+**++###*>30jj0-#",
"o@:9hkt7&O%%o@o&o@&o&&o&@o&&@@@@@@+@@O@@@O+@@@+@+@+&@@@@#++++++++++++++++++++++++++*38gjg0<++",
"oOO:ylfy7222;;22;;&;;;;;&;;;;;&;,::,:::,,::,:,,,:::::;;;>>>>>>>>,>>>>-,,>>>><>-->><30ujj0<#++",
"ooO%29fzxliif77t7tttttttttttttttyyyyyyyyyyyyyyyyytyyttteyuuyuyuuuuuuuuuuuuuuuuuuuugjjg08>*+++",
"oooO%:7illldddiilidludlidddddddddfddfdddgdggfggdgggggggggggdddddggggggddddgggzggzjjjd86*+++XX",
"XoXXXX@=26qqqwewwwqqwwwwqqwwwwwwwwwwwwqwwqwwqqqqwwqqqqwwqqwqwwww00u8u88uu8u888888888>:++OXOXX"
};
