/* XPM */
static char *result[] = {
/* columns rows colors chars-per-pixel */
"127 98 70 1 ",
"  c #0D0F11",
". c #0F1315",
"X c #111416",
"o c #141719",
"O c #15191A",
"+ c #1C1D1E",
"@ c #201F1F",
"# c #1C1F21",
"$ c #211F20",
"% c #1E2122",
"& c #242424",
"* c #282627",
"= c #252827",
"- c #252628",
"; c #282729",
": c #26292A",
"> c #2A2B2C",
", c #2D312F",
"< c #2C2E30",
"1 c #2E3032",
"2 c #323334",
"3 c #353836",
"4 c #353639",
"5 c #383738",
"6 c #36393A",
"7 c #3A3A3B",
"8 c #403F3F",
"9 c #3C403E",
"0 c #3C3F41",
"q c #413F40",
"w c #3E4141",
"e c #444445",
"r c #454748",
"t c #484748",
"y c #454849",
"u c #4B4B4C",
"i c #4D504F",
"p c #4D4F50",
"a c #4F5152",
"s c #535454",
"d c #545857",
"f c #555758",
"g c #565A5B",
"h c #5A5C5C",
"j c #5C605F",
"k c #5D5F60",
"l c #5E6062",
"z c #636363",
"x c #666769",
"c c #696768",
"v c #6D6D6D",
"b c #706F70",
"n c #737373",
"m c #787676",
"M c #7D7D7D",
"N c #848383",
"B c #8D8C8D",
"V c #908F90",
"C c #929292",
"Z c #9D9C9C",
"A c #A3A3A3",
"S c #ACACAC",
"D c #B0AEAE",
"F c #B4B4B4",
"G c #BBBBBB",
"H c #C4C4C4",
"J c #CCCCCC",
"K c #D0CECF",
"L c #D1CFD0",
"P c #D1D1D1",
/* pixels */
"OoooXO##<<<<<<:<:<<:<<<<<<:<<<<<<-<<<<:<,*,,*,*,**,*=,,,*,,,*,*,><><>><>>>>>;;>*>>*>>***,=,,*=*,***,====,=,=,,===,=,=,9+OOO.OOO",
"OOOOOO<0agkggggggfggggggfgggggggggggggggdddhhdhdhhhhjddddhddhhhhgggghhhggkhghhhhhhhshhhhddddhddddjddddjdddddddddddjddii9,OOOOOO",
"OOO+:0wwkllkkkgkkkkkggggkkkkkkkkkkgggakkjjjjjjjzjzjjjjjjjzhzhdhjkkkkkkkkkkkkkkkkkhhshhhjdjjjjjhhjhjjjjjdjjjjjjjjdjddjddd9,=OOOO",
"OOO%wflgpw004444104000004440404440400000333333333333333333338838444454544755355582888228333333333333333333333333,99999ijjy9%#OO",
"OO%1alla0<:-%-%-%-%%%:%=-%%-%---%-%-#--%&&&&&&&&*@&&&@=&%=&&@&&&--%--&&--$--&&&&&&&&$&&&@=@@@==@=*=@==@==++==@=@=%=+%=9djj99+OO",
"O%<wggw1<-%%%:--:%--:%:%%---%-%-----#%%-&&&&&&&&&*&&@*&&==@=&&&&%--&#-&&--$-$&&&&&&&$$&$=@===@==&@@&=@@=+==+====@%%==%99idji,OO",
"O%widi1:%#%%%-%::---%:---%-%-%---%-$-$-$&&&&&&&&&&&&*&&&@==&&&&&%-----&-$$---&&&&&&&&&&&@==@@==@&&&@@==@==+==++=%=@%=%%,9izj9%O",
"O<dlw0<::%%%%%--%--:%-%--------%---$--$-@&&&&&&&&&&&&&&&@==&&&&&--$$-&&&---$&&&&&&&&$&$&=@@=@=@=&&&&=@@==+==@==@=@===%%=99jj9,#",
"o0kk0:<:-%#-#----&--%==----==%-%%-%-&&&&$&&&$**&&&&&==%&===%=&&&&&&&&&&&=$&&@=&&&&&&&&$&&&&@@=@==@=@@=@@=+==@==+%&&&%=+%<6pdy0%",
"%0ff4-::%%-:---%-=-&%-%&%%-%--&---%-&&&&*&&$&&$*&&&=@@=&=@%&===&*&&&&&&&*==&*&&&&&&&&$&&@&&&=@=@@=@==@====+==+==&&%&%=&%%<wyar<",
"<wfa1$:-%%:------&-&=---=--&&%&=&---&&&&&&&&&&&&&&=@==&&@@=&%==%&&&&===&*&=&@*&&*$&&&&&&@&&&&@@&===@=@=@++===++=&%&%=&&&%>1wfa<",
"0wfp0::--%%-%%---&---%%==%-%-=&&%-%&&&&&$&&&$&&&&&=@=@&====&=%==&&&&&=&&&&*@=&&&&$&&&$&&&&&@&&&@=@@=@==@===+@==@=%&=======%4kf<",
"00fa1-::-%%%-%----&--=&--=--&&&&--$--&&&&&&&&&&&&&&&&&&&%&&&%&&&&&&*&*&&&&&&=@*&&&&&&$&$&&&&&@&*@==@==@==@====@=&&%&=:=====9gg2",
"00ga0---%-%%#---&-=&&%-%&%-%&&&&-$&&&&&&&&&&&$&&&&&&&&&&&&&&=&&&&&&&&&&&&&&&&*&&&&&&&&&&&&@&&&$&=@@=@==@@=@@=@@=&&&&=%=:%=%6kk2",
"0yga1---%-%-%%-%-&-&-%---%-%==&&&&&&$&&&&&&&&&&&&&&&&&&&&&&&&&&&&&&&&&&&&&&&*@*=$&&&&&&&&&&&&&&&@====@======@==@&&&---:==:=6kk2",
"00fa0-##-%%-----&&&-&-%-&-&-&&&&&&&&&&&&&&&&&&&&&&&&&&&&&&&&&&&&&&&&&&&&$&&&@=@@*&&&&&&&&&&&&&$&===@=@=@=@=@==@=&&&&-%:%=:%7zh<",
"00fp1%$-&&=&=&=**@&&=&=&&&&@=&&&*@@**=&&=@@**==@&&&&&&&&&&&$&&&$=*@@=@=*@=*@@=**&&*@@*=@@=*@@**=@=@=@@=&=*@*&@*@=*&&==&&---6lk1",
"00fp1--#&&&==&@*===*&&&&&&==&&&&@*==@@=&**==@@**&@&&&&&&&&&&&&&&@*=*&*@*=@*=*=@=&*@===@*=&&&==@@@==@==&&@*=@&*@*=@&&====%-&6lk1",
"<0fp4$$-=&=@=*@**@=*&=&&&=**&*&&*==@=*@*@==@=@@=&&&&&&&&&&&&*&&&@=&*&@==@*@==@@*&&*@*@@==*&&*@=*====&&&&@=*=&&==@&&*&===&--7lk<",
"00kp1#--&&=*====***@&&===&@$&&*&*@@*=@=@=@&&&*=&&&&&&&&&&&&&&&&&=&&@&=*@*=@*@*===&=@*=*==@&*@=@==@@=&&&&*=@@&&@=*&=@&&&=---6lk<",
"4rfa4---@==*&&*&**&&=&&&&&&*&&&&==@=@=****@=@*&&&&&&&&&&&&&&&&&$*@==@==@@=@=*@*@@@=*&=@@*@=@=*@@&@&&&&&&*@==@**=&&&&=&=*&--7lh1",
"4tfa<$$-**==**&*$*=*@=&&&&$**&&&@*&&*=@=@=@*=@&&&&&&&&&&&&&&&&&&@**@*@***@*=*==@=*=@&&=*@*&*@*=*&&&&&&&&=@*@==@@&&&=&==*--&6lh1",
"4rfa<&--*@&*&*&*=*&&&&&&&&&&@*&&@=@*=@&&@*=*@**=&&&&&&&&*$*$&&*&==&&&&@=&&&@@*&=&&*@@*=@@*&&@=&&&&&&&&&&=*&&*@&=&&&&&===-&-7ll1",
"2rfp2&&-*&*&*&*&$*&&&&&&&&&&&&&&**@=&&&&*@=@*=@@&&&&&&&@&&&&&&&$@=&&*@*=&&&==@&&&*@==@**==@==&&&&&&&&&&&@=&*@=&&&&&&&&=&-&-7lh1",
"4rfp1&&&&&*&*&****&*&&&&&&&&&&&&=@&&&&&&&&&&&@=*&&&&&&$=&&*&&&&&=@*&=@*@=&&&*==@=@*@==*@&&&==*&&&&&&&&&==*@=*@*&&@&===&=&=%7lk1",
"4rfp2&&*&*&*&****&*&*&@*&&&&&&@*&*&*&&&&&&&&==@*&&&&&&*$**@*@=&&@*&&*==@@&&&@@***==@*@*=&&&@=@*@&&&&*@=@*@@*@=&&&&&&===&=&=7lk<",
"4rfa1&*&=*&&*&&***&*@*&&&&&&&&&&&&&@=@&&&&&&**@=&&*&&&*=@&&&&&*@@=*=@@===*@*=*@=@@==@&@=&&&&**@=&&&&&&@*=&=@*@=@&&&&===&---6zg<",
"2rsa2&&&&&&&&&**&*&&*&&&&&&&&&&&&&&&==&&&&&&@==@&&$&&&$=*&&&&=@**=@@=**@=@*@=@=@=**@*&*@&&&&@=*@&&&&*@==@&&*=@**&&&&&=&=%--6lh1",
"4rsp1-*&***&&&*@***&&&&&&&@*&&&&==&&*=*@&&@&&&*@&$*&$=$$=@$=&@=*&&&=@*=@**@=@=**=@@=&&=@*&&&*@@&&&@=*@*@=*&=@=@=&&&&=&=&==-6lg<",
"2qsp1&&&&&**&&****&**&&&*@*&&&&**=***@@=&&*&@&&=&&&&=$*=$*=@&&=@&*&&==@*@=*@*=@=**=&&&==@&&&==*=&&*=*==@=@&&@**=&&&&&=&=--=6kk<",
"2rap1&-*&&=&&***&*@&&@*&&&&&&&&&@**=**=*&&*@*=@*&&&&=**==*=*$=*@*@*=*@@=*=&&=@*@@=&&@**@&&&&@*=@&&@@@=****@*==*@&&@&&&=&-==6kh<",
"2rsp1&&&&=&&&**$****&&&&&&&&&&@&&@&@@@=@*@==*@&&&&*@$=$$=$@*=@*=@=@@*=*=@@=&&&&=@**@==@*&&&*@=*@&&===@@=@==@*@@=&&*=&=**-%-6hg>",
"3esi3&=**&&*&*****&&&&&&&&&&$**$&@&@&&&&&&&&&&*=@@*=&&&&&&@=**@=&&&*&&&&@@*=&&@@=*=*@@=*@=&@*=*=&&&&&&&&&*&&&&&&&&&&-=--%=%6lg<",
"38si,=@**&*&***$$*&&&&&&&&&&**$$=***&&&&&*@*&&@&*==@&&&&=@*=@==@&&&@*&&&*=*@&&===@@*=*=@=*&&*@@=&&&&&&&$&$$&&&&&&&&&&%--:=:6lg<",
"38si,$=@*@&*&*****&*&*&&*&&&&@**=,,**&&&&&@*&&&&@=@*&&&&&&&@*=*@&&&&@@*=&&=@&&&&**@=&&*@=@@*==@*&&*&*&*&&&&&&&&&&&&&--===:%wjd<",
"3edi,*&**=*&*&**$**&*&&&&&&&@&**,333*&&&&$**@*&&**@=&&&&&&&=@@*=&&&**&=@&&&*&&&&@==@&&***@*&@*&@&*&&&&&&&&&&&&&&&&&&-&%-%-%4lg:",
"3esi,@*&*=***&*****&*&**&**,88usdzzjsut8,**,3eetttttuuuttettttt8,,38eettttuttee933,*===,3t8tt8*&&*&&&&&&&&$*&&&&&&&&-%=-:-%7lg:",
"38si3**&@=@*&*$**$&*&***&*2tbBZAAAAAACNct,*3zMNBBBBCCCCBBBCBBCCm83zMNBBBBBBBBBBmzt,*=**3cmNBBm3&*&&*&&&&&&&&&&&&&&&&&-----%7lg<",
"3tsi,@==*==**&*****&***,,8smZGHJKJJHJHDCmi,eMADGGFGGHHGGGFGGGGGCe8MADFGFFGGGFFDZBvd3***tMADFFC8*&&&&&&&&&&&&&&&&&&&&---=-=:6jd<",
"3tdi3@*@*@**&*****&****2qzVDGHJKKKJJJHHFAMetBGHHHJHJHJHHHHJHHHHZieNDGHHHHHHJHHHHGACv3**tBDGGHZu@&&@&$&&&&&&&&&&&&&&&:%-:%==6jd<",
"2efu2&&&*&*&*&*$$**@@**3zNFJJJJJHHGHHJJHHAjhCDGHGHHHJJJHHHHGHHGCitNDHJJJHGGGGHHPJHFCi,*tCFHJJZu*&@@@&&&&&$=&&$&&&&&&==-&:%:6lg:",
"3efs2&&&&&&*&**&****@@*eMAGJJHJGDAAAGHJJJFNmNCZAAAAFHJJHGFAZZZZm8tBGHPPHAZZZZSHHJKJAv83tCGHJKAi*&@@&&&&&&&&&&&&&&&&&&&-=:%:wgg<",
"3egu2&&&*&&**&****$$@$,dCGHJHGSCNMmNZDHKKGANmvnmmMBZGJJHFZMmmmnj3uCFHJPFNnnnmNSGJKKDMd3uCFHJPSi*@&&&&&&&=&&&&&&&&&&&-=-&%:%6lg<",
"5efs2&*&&&**&***$***@3iMDJKHGZmhi88ivBFJJGDNs898eicNFJJHANd88893=tBGHPJAz888ejNAHKJGCc8uBGJKPSi@&&**&&&&$&&&&&&&&&&&-%-=::%6gg<",
"4rga2&&&*$*******$$**3cBGJKHSNu8,**,tvAFDDZm8*&&=3dMDPPHZm8====@&tBGHJHZi&&&=enZGJJGCv8iBGJPPAi&&&**&&&&&&&&&&&&&&&%&=-%::%6ld<",
"4rga1&&&*$*@@*@******8vZGJJGBc8*&&**,iNCBNmh3**&=3sMDPPGZm8*=*@*@tCGHJJAi*@@@9vCGJJGBv3tCGJPKAu@@&&*&&&&&&&&&&=&&&==-%-=%::wjd<",
"4rgp2$&&**$**@*$$*$**qmAGJKFMs8@@@*,*3zvcjdt3**&@3sMFPPGZm8=*=*&&tCGJJJSz8999sMAGJJDNd3tBGJPJZu@&&&$&&&&&&&&&&%=&&=&%:%=%%%4jg<",
"4rgp2$&&$**@**$*@****tNDHKKDmu2*******383333**&&@3dMDPPGZn8*=*=@@tCGHJPGBmvnmBDGHKKDne,iCGJJJAi*&&&&&$&&&&&&&%&==%%-=%:%:%%9gg<",
"6yga2$---$**$*$*$*$**tBDHKKFmq8***==&&****,==**&*,dMFJPHZm8***&&=eCGJPPHSZZZADHJJJHZh3,uCGHJJAi&&&*&&&&&&&&&&=&&&&&%=%=%==%6ld:",
"4yfa<--$-*$**$$****$*qBFHKLDmu****,=**=&**@=**@&@3dMFKPGZm8*=*&&@tBGPPPJHGGGGHJPJGAMt*@tCGHJJAi**&&&&&&&&&&&&&&&&%&&==%==%%6lg:",
"6yga2$$&$*-$$**$*$***tNDHKKFmq8$=&**&=***=&@=*&&@3sNFJPGZn9&*=&&@tBGJPJPHHHHHJPPJFNd,**tCGHJJAi$&&*&&&&&&&&&=&@==&==%=%%:%:6jd<",
"6yfa2$-&*$$***$*$*$$*qMAGJKFMq8$@@*=@@@*=@*@@=&&@3sMFKKGZn8***&@&eCGHJJHGGFGHHKPPAz3***iCGHJJZi&&&&&@&&&&&&&@=@==%&%=%==%:%6lg:",
"6yfa1%&--;$-$;$;*$**$8mZGJJDBz8@&@=,*3tiiui8,*@&*3sMFKKHZn8*=*&@&eCGHJJGABBZSGJPJSz3*&*tBGHJJAt@@&**=*&&&==&=@===%=&=%%%%:=6lg<",
"4yfa1-&&$$;$*$;$$*$*@8mAGJJGZb8$@=@,3hCDAAAN8**=@3sMDKKGZn8**=&&@tBGHKJScetjNDHPJDMi,@=iBGHJKZt@@&===@&&@@&&===@&&&&--=-%:%6lg:",
"6yfa1&-&;*--;$$;$**@@8cCGJJHDBs8,**3iNGPKJHZu@&&@3iMDKKHZv8&*=&@@tCGJKJAi=@3vZGJJGZv3@@tBGHPJZt@@&**@@@@&&&===@=%=%&&-=-:=%6lg<",
"6yfa1&&-**;$;;;$*@*@@*umDJJHHDNc83,tvZHPKHGCt&&**3iMFKKGZn8===@&@tBGHPJAi@@3iMDJJHDBe@&tBGHJJZi$&&&&@@@@@@&=@=@=&==&=%%-%::6gg<",
"4tfa<-$-$*$---$**$**@*5jZGJKKGDCnhhvCDHPJHSM8&&&@3sMDKPGZn8=&&@&@eCGJKJZu***3zZHHHHZd3*tBFJJJSmiiiitttut83,&@@==&&%&%=%=-#$4kk:",
"4tfa4$---**$$-*-*&*$***tNDHKJJHGDADFGHKPKGBj3$&&@3sMFKKGZv8==&&@@tBGJKJZu$@**tBDGJJDNd8iBGHPKGDAZZAAAAACMj3@===@=%===&-&---4kf<",
"0qfa<$-$----$-*$&&&***&5zBDHJKPKJHPPJJJJHAvt,$*&*3sMDKKGZv8&*=&@$tBGHKJAi$$$$8mZGJJGZn8uBDJPKKKKJHJJJJKHZn8====@&=%=%&&=-%$0kf<",
"0rfp<-$-$-$--$**&&&&*$$*3dNAHKPKHJJJJJJGZmu,**&*@3dMDKKHZn8&@&=@$tBGJKHZu**$*8zBGJJHAN8eBFJPKJKJKJJJJJPGZm8&@@==&&=&=&=%--#0kf<",
"4rfa<----$$---*$*&*&*$$$*3jNAFGHGFGGDDSCmi,*&&*$*,uvZDGABc3==&@@$8NADFFBt*$*,3ubZDDDZm88mZDDFDFDDDDDDDDANz3&=&&&&&%&=%-%--%4kf<",
"4qfp<-$-----$-**&&&&*$=$$*3uvNBCZZZZBMvhe3*$@$$*@,8ivNNmzi,@&@@=*3jmMNNc3*$&**3tvMNNmz3,dmMNMMMMMMmNNNMmjt,&&&&&&&&&-&-&%--4kh;",
"0rfp<$---$$---$-&&&*@=*$$$@,tszvvmmvzst3,@@&&@@****3tssit3=&=@&&$,qidhhi,$&&***3usddst,*8uisssissssddhst83=&&&&&&&&&&%---%-4kf<",
"4rap<-$$----$-$-&&&=@*$**$$*3333883833,,==@@@&*$****,333,,*@&*&&**333333*&&&***,333333***333383838338333,*&&@&&&&&&&-=%&---4kh;",
"4qfp<-#-=%&==&&&--&&&&&&&&&&&*&&&&@@*=&&&&@@@&@&&&&@&@&&&&&&*&**==&&&**&&@&&==,=*==,**=@@@*=**,****=======&&&&&&&&&&&&&&--$0ff<",
"0rfr<-#-%==%&&--%--&&&&&&&&&&$&$&&***&&&@@&@@@&&@&&&&&&@@&&&***=*&&&@@@@&&&&&&&&***=***=@=*,*&&&&&****&&****&&&&&&&&&&&&-#-0kf<",
"<qfp<---=&==&=&%-%%-&&&&&&&&&&$$@*,*=&&&&@&@@@@&&&&&*=&@&$&****>*&&@%@@@&&&==&@@=*@*=*=*@@=*&&@&@&&$**&&&&=*&&&&&&&&&&*&$-$0hg<",
"00fp<#-#&&&%&%&-&-&&&&&&&&&&*=&$&****&=*===&&&@@@&&&*=***&&&&&**==@@@@&&@@&&&&&&*=&@*=**@&*=&&&@&$&&=*@@@@&*&&&&&&&&&&&&--$<kf;",
"0qfp<---&=%===%=%-&%&&&&&&&***&&&&***&&&==*=&$@&@==***=**&&$@&**=&@@@@@=@=@@&&&=@&@&&=*=@@&&&@&&&&&&**@@+@@&&&&&&&&&&&==**-0hh*",
"0qff<--#%=&&=@=&&&==&&&&&&&&=&&&&&&*&&&&=*=&&&&&*=@@=&=*&&$&*@&&*=&&@=&&&@=&@&@&&&&&&&*=&&&*&&&&&&&&&&@@@@@&&&&&&&&&&&&&*$$0kh<",
"00fq0##-&=&&%&%=&&=%&&&&&&&&=&&&*&&&&&&&&&&&&&&&@**=@&&@$&&$@***&&&&&@@&@=&&&&&@@&@&&===*&*@@*&=&&&&&&&&@&&&&&&&&&&&&&=&$*$5hh<",
"0qfq;$--%==&&&==%&&&&&&&&&&&&&*&**$&&&&&&&&&&&&&@=@=*&&**$&&@&@*&&&&&&&&&@&&@&&&&&&&&&*@&&=@*==@&&&&&@&$&&@&&&&&&&&&&&&&**$8hh<",
"0qfp1-&%&&&%&%%=&&&&&&&&&&$&&&&*&*&&&&&$&&&&&&&**=@*&&&&&$&&@*&&&&&&@&&&@&@&@&&@@=@=@*=@&&=@==*@&&&&$&&&@&@&&&&&&&&&*-$$-;-4kh*",
"<0fp<%&-&&&=&&=%&&&&&&&&&&&&&*&&&&&&&&&&&&$&&&&$=@@=&&$&&&$&***&&&&&&&&@=$&@&=&&=@*==@**&&=@*@*=&&&&$&&$&&&&&&&&&&&&$----$-4kf<",
"0qap2&-#%&&&&&=@&&&&&&*&&&&&&*&*&*&&&$&$&&&&&&&&=@*=&*&&&&&&*@*@&&&&@&&@@&&&&@=@@==@@=@=&&&&=@@=&&&&&&$&&&&&&&&&&&&&$-$---$7kh<",
"0qfp<#--===%&&&=&&&&&&$$&&&&&&&&&*&&&&&&&&&&&&&&@=*@&&&&&$&&*$&*&&&&*@&*&&&@=@&@@*@@*=*=&&&&**=@&&&&&&&&@&@&&&$&&&&&----$$*4kh;",
"00fp<%--&&&&&&@=&&&&&&&&&&&&*&&&&*$&&&&&&&&&$*****&&*&*$$*&$**$*&&*@&&$*&&&&&@@=@&&&@=@@*=@*@@=*&&&*&&$&&&&&&&&&&&&&&&-$;-;0kf<",
"0qfp<-$-%==%&%==&&&&&&&&&&&&&&&&&*&&&&&&&&&&**$*&&&**&&*$&*$*$**&&&&&&&&&&&&=====&&&*==*@@*==*=@*$&$&&&&&&&&&&&&&&&&&&-$-$$4kf<",
"0qgp1$--=&%&=%=@&&&&&&&&&&&&&&&&&$&&&&&*&&&&$*;$&&&$$&*$**&&***$&$*&$&&&&&&&@@=@&=&&*@=&=@@=&*@*&&*&&&@*&&&&&&&&&&&&&&----$4kh>",
"<0fp1-$-&&==&&&=&&&&&&&&&&&&*&&&&&&&*@&&&&@**;$;&&&&**$**$*&*@@*&*&*$*&$=&&=====&&&&==@&&*=&&@&&&&$&&&&&&&&&&&&&&&&&&&&&$--0kf>",
"3tdi,=@=@======&&%%=&&&&&&&&&&&&--$&&&&&&&&&;$;$*$$*-$-$$*$*-$$**&&&=@===@@====@&@==&&&&&&&&&&&&&&&&&&&&$&&&&&&**$-*$----;$0kh>",
"3tdi9@====@@@@=@&&%=&&&@&&&&&&&&-$-&$&&&&&*$;$$;$**-**-*-----*-*@&&&==@@====@@===&=@&&&&&&&&&&@&&&$*&&&&*&&&&&&$$-$$*-$$$$$5kh>",
"3ydi,@=@=====@&==@==&&&&&&&&&&&&$;;$*&&&&&&&$;$;*$*$*$---*$-*$*$=*&&@===@==@=@@====@&&&&&&&&&&&&&&&&&&&&&&&&&&&--$$-----;-$5kh<",
"3ydi,=%==@@%==%====@&&&&&&&&&&&&-;$:&&&&&&&&;$;$**-$*-$*-$**--***@&&&&=@===@====@@==&&&&&&&&&&&&&&&-&&&&&&&&&&&$$--$-$-$$-$8hf<",
"3rsp9%%====%%=&=@=@==@&&&&&&&&&&;$;$*$--&&-&&$$;$-*$-*$*-$--*$*$*&&&====@@====@@===@==&&=@@=&&&&;-$$:$:$&&&-$*----$;-$----;qkf<",
"1rsu,==@=@=@=%&&@=====&&&=@&&&&@$;$;--$$&&*$$*;$*$*--$--**$*$***&&&&@=@====@@===@==@=@&&**=&&&&&$---$:$-*$&--&$-$;$--*$-$;0qks;",
"<efa,%@====+%%&&==@@=@==&&&&&&&&-$$-$---*&--;$:;-$*$-*--*----*$****&@=@====@@=@======@=&@=&&&&&&$;$-:;-$*&&$$$-;$-;----$-<0qkp;",
"-6kg9==+%=@=&&&&@===@=@=&&&&&&&&$-$-$-$-$*$*$;$;-*---$*$*$**$*-$$$&&====@@=======@@=@==&@*&&&&&&:$:$;$--&&&----$-;$---$$-0qqfr$",
"O2kkw1:&%&&&&@=&&&&&@&*@@=&&&=@**$-*-$$--$$----#*$--*-*$-$*$*$*****@*&&&==@@===@===@&&&&=@&&&&&&$-$:$:-$-$-$--------;-$->7afp0$",
"X<akaw<-&&&===@=&&=&=&&*&&&&@*@=*$-$--------------$*$---**--***$*$&&&&&&=@===@@=@@==&&&&&=&=&&&&-$:$$--$----$-$$-$$---$-<qzzq<#",
".&wfga6>&$======&&&&*@@*&&&&@==&-*-$$$---#$-#---*-$-$***$;----***&&&&&&&==@===@===@&&&&=&&&&===@-$$$:;$-$-$------------<0pxl0$+",
".#2yxzr3*===&%&@&&&@*=*@&&@***@&$-$---#-----#--#$------$--$$$*$-@*&&&&&&@===@==@=@=@==&&&&&&@@==$---$:-------$-$$-$---;0pkkp<OX",
"Xo%0gxar9,,>=&=@&&&=**$**$**=&*&--*--#---#------$-----*$$;;--$-$$****&&*===@======@=&**&&&&*=&&=*-$-$--$-$---$----;:100qkgp4%XX",
".X#%0alldu93=*=@==&=*********==*--$---------------------:$-;:--#****&**@=====@======&*&*========$$-*--------###--;00qfkxgp<+oXX",
".XX#:6akjdi89999393955333355833344044040044440044040044055050000383333333933333933333393333939330000000240040<00000ppkkkp4# .XX",
"XXXoO%:1tissjjjjjjjjjjzzjzjjjjjzkkkkkkkkkkllkkkkkkkkkkkkkkkkkkkkjjjzzjjzjjjjjjjjjjjjjjjjzjjjjjjjkhfkkhkkkkkkkkfkkkkfsu00>#XXXXX",
"XXX....#<wyagfkfggkggghhhhhhhhhhhhhhhhgggkgkffkkgkggggggkggkkggkhhhhhhhdjhddjdhdddhdddddhddhddjdjhhdhhjhhhjgghhhgfpur0<%o.XXXXX",
"XXXXoXXX#%%%<<:<><>>>>>>>>>*>>;>;<>;<>>>>>:<<<::<:<<<<::<:<:<:::*,***,*,,*,**,,,=,,,,,,*,*,,,**,=,=,=,>>>*>*>><>>>:--###XXXXXXX"
};
