/* XPM */
static char *result[] = {
/* columns rows colors chars-per-pixel */
"93 98 71 1 ",
"  c #151717",
". c #171A1A",
"X c #1A1C1D",
"o c #21221F",
"O c #1D1F21",
"+ c #1E2122",
"@ c #242525",
"# c #282624",
"$ c #252826",
"% c #292927",
"& c #262729",
"* c #28272A",
"= c #26282A",
"- c #2A2B2B",
"; c #2E312F",
": c #31322F",
"> c #2D2F30",
", c #2F3131",
"< c #323334",
"1 c #383734",
"2 c #373836",
"3 c #383835",
"4 c #363738",
"5 c #363939",
"6 c #3B3C3C",
"7 c #3E403F",
"8 c #40413F",
"9 c #3D3F40",
"0 c #3F4142",
"q c #444444",
"w c #454749",
"e c #47494A",
"r c #4A4B4C",
"t c #504F4D",
"y c #50504E",
"u c #4D4F50",
"i c #4F5152",
"p c #545555",
"a c #595754",
"s c #565857",
"d c #595854",
"f c #545758",
"g c #56595A",
"h c #5B5D5D",
"j c #5C605E",
"k c #5D5E60",
"l c #5E6161",
"z c #626364",
"x c #6C6C6C",
"c c #737373",
"v c #7B7B7A",
"b c #82817F",
"n c #828281",
"m c #888887",
"M c #8B8B8B",
"N c #939393",
"B c #9C9C9C",
"V c #A1A19F",
"C c #A4A4A3",
"Z c #ACACAC",
"A c #AFB0AE",
"S c #B1B1AE",
"D c #B5B5B4",
"F c #B8B6B4",
"G c #BCBCBC",
"H c #C4C4C4",
"J c #C9C8C7",
"K c #CDCCCC",
"L c #D1CFCD",
"P c #D1D0CF",
"I c #D1D1D1",
/* pixels */
"..OO.+++=,,,,,,,,,,>>,,,44,,,,,,,,,,,>,,>>>>>>>>>>>>>>>>>>>>>>><>,,>>,>>>>><>><><>>>*OOOOO.OX",
"......+,00ijlljjgkkkglggkgklkkkkkkfkkkkkkkkkkkkkkkkkkfkkkkfkkkkkfkkkkkfkkkkkfkkkkkfe9*OO.OO..",
"...O=>90gfjllljfkkkkllkllgklkkkkkkkkkkkkkkkkkkkkkkkkkkkkkkkkkgkgkkkkkkkkkkkkkkkkzzkfw9>*OOO..",
"OOO+00fjjf00044444444444949444944444,94<44<9<444<<9<9<<99>9>9>99444444444444<9<99wufkku9&...X",
"OO+4illji054==+++=&@@@+=++====&&&=O=O&&O&&&+&@&@O**O=*O*+&*+O+*+&&O&+&&@&+&&+*+&*<9wikfu4=O.O",
"++9ell00,>===+=====&===@=========**====*&=&&&&&&======*&*********====&&&*&&&&&&&=**>99fff0>OO",
"+>0gxg0==++++=+===&&=&===========&****==*=&&&&==**=**==&*=******&&&&====&&&&&&&&O=O**<wikf4&+",
"+,klf0>+++++=++=+&+@@&@$===+&&&&=OO&=O&&+&&&&+@=O=*OO=&&+&+*+*+*&+&&&&=+*&+*&&&&*+*O**>9fk9>&",
"=0lz0,=++++++=+=+@++@$@@@&&&$&$@&&&+&+==@=+==@++=+==@==+&&&&+=+==@++=+==&&&&@@@*==O=&&+<ugi9=",
"90jl0,>====+=+++@@$@@@@@@@@@@@@$&O&&=+@++==++===@=++=+@=&++&&+=++&=&@=+@OO&*@@@@=OO&+&+>9eki>",
"00g00>===+===+=++$$++@$@@&@&@&$$&++&=@&===@+=+@=+=@@+==+&&++=++=+=&+@=+=&&O+@&O*=O=&+&@=,0kg>",
"0if0,===+==++=+=$@@@$@+$@@@@@@$$&&+&+=++++@==+@++@=+=+=++&&&&=+&@=+&+==+O&&&*O**&&=O&&+&=4kf>",
"0f00,===+==+=+=+@@@$@@@@@#@@@@@#&+&+@@&@=+=@+==@==+=&+=@=+&@++&++&&@&&+&&&&OO**OO&&+&&+&+4ff,",
"glf0>==+=+====+=@++$@@@@@@@&@$@@&&&++@+&@=+@+=+==++@@=+=@=+=&&&&&++&++&&&O&&@*O*&&&+@+@&&4kg,",
"ij00=+===++=====@@@@@@@@#@@@$$o#&&&&&+&=@=+==@++@===@++=+=&++&+&@&@+&&&+&+@O*O*O+&&&&&++&4kk<",
"0g00>=++====++=+@@+@@@@@&@@#%o%#@O+&@&@++==++===@+=+=+==+@+&&&+&&+&&&+&+&@&&@*O*&++&+&&&=9lk<",
"if00>+===@==+==$@@@@@@@@#o##$$o#@@@@@@@@@@&@@@@@+@@+@@@@@+@@+@@@@@@*@@@*@*O*@*O@@@+@@@@@&6zl<",
"0f00>=+==++=@=+$@@@@@@$oo####o$$@*@@*@@@&&@&*@@@@@@&@@@@@@@@@@@@*O@O*@O*@@*@@@*@@@@@@@@@$5zh<",
"fg00>====&===$@@@@@@@oo@###%###$@@@@@@@@@&&@&&@o@@@@@@@@@@@@@@@@###OO@@#@*@@@**@@@@@@@@@@3jj,",
"0li0>====+&++=@@@@$@@@oo#o##$oo$@@@O@@@@#@o@@&@@@@@@o@@@@@@@@@@@O@#@@@O#@@@@@@@#@@o@@@@@$5hh<",
"if00>+===&@@@@$$$$@#@%;188888888qqqqwwwqq93<*&&@&@@@@o@@@@O@@@@@@O#@@@@@@@@@@@@@@@@@@o@@$4kh,",
"igi0>===@&&&&$$$%%%@o:8jbbNNNNNbMMMMMMMmvczp4*&&@@@@@@@o@@#@@O@@##@@@O@@@@@@@#@@@@o@@@@@@3lg<",
"0g00>===@=&&$$@$--#@o:ycVFFFFFFFDDFFDDDSCBNvke99*@@@@@@@O#@@@@O@@O@@@@@@#@@*@*@#@@@@@@@@$2hh-",
"ig05>====@@@$$$$-%%#o:tvCHHJJJHJHHHHHHHHHGGSCNvk4@@@@o@@@#@@@@@@##O@@@@@@@#@@@@@@@@@@@@@$5hh<",
"if00>===$=+=$$$@$$#@#:yvSJJLJLJJJJJJJJKKKKKKJGCna3-@####@O@@@O@#@@@@@@@@@@@@*@*@o@@@@@@@$3hh<",
"efe0>===+==$$=$$$@#@o:dvSJJJLJJJJKHHJKKKKKIIKKHZNx8**#**@*@@@#@@@@@o@@@@@@@@#@@@@@@@@@@o$2hh,",
"ife0>=====+===$=o@@oo1dbSJLJLHCVCVBBVCZDFGJLIIIHSMh3-****#@@@@@@o#*o@o@@@*@@#@@@@@@@@@@@$2kh:",
"efe5>==$=+=++$++#o@#o1ybSJJLLSxattrrtkcmNCFHKKKKHZmk1@***#@#*@@@@@o*@@@@@@@@#@@@@@o@@@@@$2jg>",
"efe0>==$+==+=+$+o@o#o3dbFJLJLVd#%#oo#1ehxbNCGKIIJGZvq****@#*@@*#o@@o@#@@@##@@@@@#o@@@@@@$2hh;",
"ife0,===+=+===+$@o@#o3dbSKJJPV8#%-oo#--19wtcZHKIIJGBa>***O#@@@@#@@@@@@@@@*O#@#@@@@@@o@@@$5jh,",
"ife5,====+=++$+$oo#o%1dbFKJJPC8#%%o@##XX@*>uMDHIILLZxq*###@@@@#@@@@@@OO@@@@@@@@@@@#@@@@@$2jh,",
"efe0>========$=+##@#o7dbFLKKLCd#o#@##ooo***9zMDJJKIGMa<O#O@@@@@O@@@#@@##@@*@@@#@@@o@@o@@#5hg,",
"rfw9*****@O*@*O#o####1abFLLLLCt##o##@oo@*@@-qxZHHKLHBx6O**@o#o*o#O#O*##O*@@@#*@#O##@@O*#$2hh<",
"rfw9>***O**@@@@##o###1abFLLJLVt#o#@@o#o@@#@@>aBHKKLHZn9O@O@@o*o*#O#@#O*O##*@O*@@@@O#@@@@$2jh-",
"ufe9>*****@*@@*#o####1abFLLLLVto##o#%o###@oO@wNGHLLHDmqO@#@@*#*o@@O#@@O@@@@@@@@#@O#*##@@@2kh<",
"rfw9>***O**@@*O##o###1abFLLLLCt#o##oo@o@@@oooqMFHLLHDmqOO@o@ooO*@@*#@@##@@#@#@@@@@#O@O@@$2kg<",
"ufe9>****#*OO**#oo###1abFLLLLCto%oo%%%o%@@oo@9nAHKIHDmqOOO@Oo@@o#@OO#O@@#@#@*@@@@#@@O@@@$3hh>",
"rfw9<*******#*#######1amFLLLLCt#oo%ooo@oo@@@O9vCGKIHDmw+#@@@@o@@#O*##@@@*@@@@@@*O#O@#@@@*3kh<",
"efe9*******#**#*o####1abFLLJLVtoo%%oo%@oo@@@@9vCGKKHDm0OO#@@@@@O@@O#O*O#O@@@@#@@##@@#O@@@3kh>",
"ufw9****@*O*O*####o##1abFLLLLVt#%ooo%oo%@o@@*qvCHKKJDMwOO#@@Oo@@@@#*O##*#*@#@@@@*O#O#@@@@1hh<",
"rfw9*****O**#O#Oo###o1abFLKLKVtoooo%%ooo%o##@qbCGKLHFMq@#@O#OO#@#@OO###O@@#@@@@@#@@@O##@@1kk>",
"ufw9>****#O*#*##oo###1abFLKLLCt#o%%oo%%%%%%#oqmDHKKHSmqO@@@@##@@#O*#O@#O#@@@@#@#O#O@@@@@@<ka<",
"efe9>***O*O*##O#oo#o#1abFLLKLCt#%oo%ooo%$%%$+wMGJLLHSMq@O@@@##O#@@##*@O@@@#@@*@@O@*#@@@@#4kk>",
"ufr9>*****O#O#*Oo#o##:abFLLLLVt#oo%o%o%o@@@@*uNHKLLHFmq###O#@O@#@*OO@@##@@@@@@@@*##O#O@@*6ka>",
"rpq9>***O*O#####o#o#o:abFLLKLCr#%o%o%oo%@oo*3kCHKIIHZnqO#O@@O@O*##@#@@@@#@*@@#@*#OO##O@@*<ka<",
"rpw9****#**OOO#ooooo#:abFLKKKCt@%oooo#%oo@o1tvZKKIIHVc9*#@@*##@@O@O*O@@@@@@@@@@@@##*@*@@@4kh>",
"rfe9*@***OO##Oo#ooo##1tbFLKKLVt@#oo%%%oooo@6xNFKLLIGMz1*O##O#O@O@@O###O@@#@#*@@#@O#O@O#@@3kh>",
"efe9***@O*#O###oo#o#o1abFLLLKCr@o%%ooo%o@@#emAHIKKLDct>O@#*O#@##@@##O@@@*@@@@@@@@@#@@@#@*<kh<",
"rpe9>***@@O#O#@O@Ooo#<avFLLLKCu*O#*o*OO**4wxCHLIKKHCk6*#o#@O@@@@*o*@o#@@@@@@@@@@@o@@@@@@$2hh,",
"rfq9-*##@@@#@@@#oO###1abFLLLKBeOOOO@OO**9gvBGLIIKHDMr*#o@@@@@@@@o*o@@@@@@@@@@*#@@#@@@@@#$2jh;",
"rpw9-***@@@#@@@@O##o@<abDILIKZk96666669wznCGHLLLKDBx6ooO@@@@@@@@*o@@@@@@*@@@@@@@@o@o@o@o$3kh,",
"rpw4**#@@@@O@@@@@o@@@1abDKILIDMvvvcvvvvnBDHHKKLJHCce<*@@@@o@@@@@o#o@@@@o@@@*@@#@@@@@@@@@$2jg,",
"rpw6**#@@@@@@@@@@O#@*<pbDKKKKHZCCCCCCCCZGJKLKJHGCnu4***o#O#O@@O#@@@@#@@O@@@@@*@#@@@@@@@@$5hh;",
"rpq6*#*@@@@@o@#oo@@@#<abDKIKKJHGGGGGGGGHKLKKLJGCvk6***#o#@#@@@@@@@@o@@@@*@@#@@@@@@o#o@@@@1hh<",
"wpq6-##@@@@o@@@o@o@@@<anDIIKKKKKKKLLKKKKLLJHGSNvf4*O****O#@@O#@@@@O@@@#@@@#@@@@@@@@@@@@@$5jh,",
"rpw6:#@@@O@@@@@#oo@##<abDIIIIKKILKLLIKIKIKHDBba94******#@#@@##O@@@#@@@@@@@@@@#@*@@@@@@@@$5hh,",
"waq3****@@@@@@@O@@@@@:tcCDDFDDDDDDDDDDDDZCCMxa*#@@@@**#@O*O#@@O#@@@@@OO@@@#@@@@@o@@@o@@@$2hh,",
"rat6*@##@**@@@##@@O##*3acnnnnnvnvnnnvnvvxkat6>#o@*@#**@@@##@*@@#@@@@@###@&@@#@@*@@@@@@@@$5hh:",
"rpq6>*##*@@@*@@#@@@@@#*6rpppppaapapapapuq1*#@OO#@@#*##*@@*@@@@*@o#@#@O#O#@@@@@@@@@@@@@o@$2hh,",
"rpr6-###@@#@@@@@@@@@@@**<<<<4<<<444<444<***@O@OO@@**##@##@@@#@@@@@@o@@#@@@@&#@@@@@@@@@@@$2hh,",
"rpw6-****@@@@#@@@@@@@@@#@@@@@@@@@#@***@*@@OOoOooO@##@*#@*@@@@#*O@o@@@@@@&@@@@@@#@@@@o@@@@2jh>",
"raq6-*##@@#@@@*@@@@@O@@@@@*@@#*#@*@@*##*@@@@@@@o##@****@@@@@@@*#@@@@@@@@@##@@@@@@@@@@@@@$5jh>",
"rar6**#*@#@@#@@@@@#@*#@@@@@**#@#*@#@@#*@@@@o@@o@@@@**@@##@*@@#@@o@@@@@@@@#&@@@@@@@@o@@@@@5kg>",
"raq6*@*@@@@@@@@@@@@@@#@@@#*@*@@#*@@@*@@@@@@@@@@@@@@@@@**@@#@@@@@@@@@@@@@@@@@@@@@@@@@@@o@@5kk,",
"rpq6*#*#@@@@@@@@@##@#@@#@*@*@@#@@@@@@@@@O@@@@@O@#@@@@*@@*##@@@*#O#*#O#O@@@@@#&$@@@@@+$$$$7js7",
"rpq6<#**@@@@#O@@O#O@*O@@@@#*@@@@@@@@@@@@##@#@@#@@**@O#@@#OO#O#O###O####@@&@##@@$@@@@$++$.7jj$",
"rpw6*@*##@@@@##@#O#@#@*O@#@@@@#*@@@@@@@#@@@@#*##@#@@@@O#*#O#@@@*O@@*#@O@@@@$$$@@+@@@$$+$o7sj;",
"rpr6*#*##O@@@OO##@@@#O##@@@@@@@@O@@@@@@O#@@##*OOO#O#O#O#O##*@@#O@@@OO@@@@@@#@@$@$@@++$+$$7ss;",
"raq6:**#@@@Oo@o#@OO##@O#@#@@@@@*@@@o@@@#@@@@@@@@@@#@#O#@*#OO*OO##OO***#O@#&#@$@@@@$+$++$$,jj7",
"rar6>**#@O@@#o@O##@#*O#*@@@@#@@@@@@@o@@o@@#@*#@@@@OOO##OO*##O#####*O#O##@@@@@@@@$+$++$$++7jj$",
"rar6>#*#@@@o@o@@@@@##@@O@@#*@@@@#@@#@@@@##*@@@@@@###O@O*#O*O*##O#O@#@OO@@@@$$@@&$$+$$$$$$5js;",
"rar6-**#@O@@@@o@O*@OO#@@@*O*#@#@o@@o@@@@*O@@@@O#@OO@##O@#O##*O#O@@@@@##@@@@@@$&@$+$++$o$$5js;",
"rar6-*#*#@@@#@O@#OO@#OO@@@@@#@@#@@@@@@@@@@@@@@@@@@#O##O####Oo#####O#O*###@*@@@@@$+$++$$+$5jj;",
"raw6:**#@@@oO@@@##*###*#@#*#@@*@@@@*@@@@*@@*@#@@@@##O##O#O####O#O*O###O#O@@#@@@@$$+$$+$$+5jj;",
"raw6:#**@@o@@@O#O*O#O*O#@#@O#@@@@@@@#@@*##@@@@#@##O@O##O##O##O#O#@@@#O*O##@#*@@*+$+$+$$$$5js;",
"rar6:*##@o@oO#@@@@@@@@@@@@@*@@@@@@@#@@@@#@@@@@*@O@@@##o#O#O##o##O@@@*O#@@*O#@@@@$$$$+$+$$5jj;",
"rar6>*#*@@@O#O#O@#@O#@O@#@#@@#*O##O#@@*@@@@@@@@@@@@#O#o####o#####*O*#O@@@@@@*@@@++$$$+$$$5jf;",
"tpr6:*-#@@@@##@@O####O#@@@@@@@@**@@*@@#@@@@@#@@@@@@O###o#Oo##oo##O####@@@#@#@@@@$$+$+$$+$5jj;",
"rgr6:***#@@o@##@@#@O@@O@*O@@@@#@@@@@@@@@@@@@@@@*@*##OO###o#ooo####OOOO#O**@@@##O$+$$$+$$$5jj;",
"rpr6****@@@@@O@O@O#*@@#@*#*@@#@@@*@*@@*@@@*@@#@@#OO####Oo#o###o#O#*#*###O#@@@@*@$$$+$+$+$5jj;",
"rar6:***#O@@@@@#@O*#O*@@#@@#@@@@&@&&&&&@&+&&@@*@@@#@@####o#o#o#o@@@@@@@@@$$o$$@$$$+$$$+$$;jj;",
"rat8-##**@@@@@O@#@@@@##@*@@@*@*@@@@&@&&&@&&+@*@@o#@@##oo###%#@##@@@@@#@@@@$$@+$@+$$$$+$$$5jj;",
"rpr8-***#@@@@@@@#O@#@@@@O@@@@*@@@&@&&@&&@@&@@@@*####@@@@@#%o#@o%@@@$@$$@@@@@$@$@$$+$$$$$$5jj;",
"rar8:##*#@@@@@@O**@@@@#@#*@#@#O*&@&++@@&*@&@@@#@####o@#@#@o%@@$%@@@#@@#@@@$@$@@$$$+$$$+$$5jj;",
"rptq:***@@@@#O@#@@O#*@@*@@O*@@*@&O&&&&&&@&+*@**@###o##@#@#@o%$oo@@@#@#$$@@$@@$+@$$o$$$$+$5jj5",
"wptq<*##@@#@@@*##@*#@@@@@*##@#@@&&&&@@&+&@*@@@@@###@@##@#@@%o%%$#@@@@$@@$@@$$@$$$o$$$$$$$5jj;",
"qptw<*@*o*@@O#@@@@@@@@@@@@@@@@*O&&&&&@@*@@*@@@@@#@@###o@#%$o%o%o@@@@#@@@$@$$$@@$$$$$+$++$5jj;",
"qptw<*#o*#@@*@##@*@@#*@@*#@@*@#**O&&O&&&&&@**@@@@@#######o$%%o$$#@@#@@@$@@o$@$@@$oo$$$$$$7jj;",
"6tat4**#@@@@@@@**O*O@@*O@@#O*#@***&&O&+&@@*@@@#@#@#@#####@@o%@%@&@#@@@@@@@$@@$@$$$$=$$+=;ejf;",
"*0kk6*#####@#@@@@*#***@*O****@O*O&&&&&&&**@**@@@@###O*O#@#@%o$o%@@@@@##@$$@$$@$$==+$+++=0sje$",
"@4kzq<*@#oO@O@@O@@*#@O*@*@**#**@**&*&&O&@@@@@@@@#####o##o###%%o#@@@@@@&@@@$$@$@$+=++$$+7sji5$",
"O>raar>OOO@@@@@*O*O*O**OO*OOOO*OO&OOO&&+@@@@@@o@o@@O@@#o@#o#oo%o@@@@@@@@+@@++@@+++=$+=70jj5$+",
".@6tzh8>**##@@*O#*O*O*@@@*O***OOO@@*@O*OO@O@@@+@@o@oooo#o#oooo@o@o@@o@@o+@+@$+++++==,70fji;..",
" X@6axkt6>*#OOO*O**O**O*OO***O***+*O@*+**@@@@@@@@@@#@@@@#o#o#@o@@@@$@@@@@@$@$=++=++,0fzzi7$..",
"   *wazktq66<<<<44<44444444444<49<>99<9>>99933414311111111113311115543432255554444000ljg0,$..",
"   o*4razzzkkhaakkkkkkkkkkkkkkkkkkkkkkkkkkkfkkkkkkkkkkhhjjjjjjjjhhkhkhkkjjjjjjllglllji07;$$..",
"... .o1wsjjhhhppghhkhgkkkkkkkkgkkgkkkgkkkgkkkkkfkghghgjgjsjdjdjhhghhhhghhgghhhhgggzgr9>@+OOO.",
"...X.X@$,,,,,,;,,,,,,,,,>,>>>>,,>>>>>>>>>>,>>>>>>>>,;;;;;;;;;;;;;,-;;<;;;,,,,>,,-><>*&+OOOO.."
};
