/* XPM */
static char *result[] = {
/* columns rows colors chars-per-pixel */
"93 98 80 1 ",
"  c #15161A",
". c #161A1B",
"X c #1D201F",
"o c #21211F",
"O c #1C1E21",
"+ c #1E2121",
"@ c #242525",
"# c #282726",
"$ c #252827",
"% c #282827",
"& c #262628",
"* c #282728",
"= c #262929",
"- c #2A2A2B",
"; c #2D312F",
": c #2D2F31",
"> c #302E30",
", c #2E3132",
"< c #323434",
"1 c #353837",
"2 c #383835",
"3 c #36373A",
"4 c #36393A",
"5 c #3A3C3B",
"6 c #3C403E",
"7 c #41413F",
"8 c #3E3F41",
"9 c #3E4041",
"0 c #434445",
"q c #454947",
"w c #454648",
"e c #464A49",
"r c #4A4C4D",
"t c #504E4F",
"y c #4C504F",
"u c #4E4E51",
"i c #504F51",
"p c #4E5152",
"a c #535555",
"s c #545857",
"d c #565759",
"f c #56595A",
"g c #5B5D5D",
"h c #5D605F",
"j c #5C5E61",
"k c #5F6160",
"l c #616262",
"z c #6B6B6B",
"x c #71716F",
"c c #747475",
"v c #7D7D7E",
"b c #838383",
"n c #878888",
"m c #8D8D8E",
"M c #8F928F",
"N c #90918F",
"B c #8F8E90",
"V c #918F92",
"C c #8F9191",
"Z c #9C9C9C",
"A c #9FA09F",
"S c #9F9FA0",
"D c #A09FA0",
"F c #A3A3A4",
"G c #A8A7A8",
"H c #ACACAC",
"J c #B5B5B5",
"K c #B8BAB7",
"L c #B7B7B9",
"P c #B8B7B8",
"I c #BABABB",
"U c #BFC0BE",
"Y c #BFBFC1",
"T c #C0BFC1",
"R c #C4C4C5",
"E c #C7C6C8",
"W c #C8C7CA",
"Q c #CBCCCC",
"! c #CFCED0",
"~ c #D0D0D1",
/* pixels */
"OO  .OO&:>3333<<>>>>>>>>>>>>>>>><,::,8::8&88:::3:::::::::3::3::38&88&8:8::::,,,,,,33:=OO.....",
"OO..O@3wajjkjjgdddgdjjdgjjdjdgjdjjjjjfjddjpdjdddjjjjjjjjjjdjjjdjjjuddpdddjjjjjjffjjjp43OO.OO.",
"OOOO:8udjlllljjgdjjdjjggjjjjjjjjjjjjjfjjpdjfjdddjjjjjjjjjjjjjjjjpdjfjdddjjjjjjjjjjjjjpw3OO.OO",
"OOO:rgjdr8884<333333<3<3<3<<33>3338,8:88888888888:88333833333333888888883333333333wwpjjp:O...",
"O+:8flju8:&&@@@@o&&o*OO*@@+@@@&O&===O&O=&&&&&&&+OO&&O&&O&&&&&&&O&&&&&&&&O&O&&O&&&=,3wpjj9,OOO",
"O&9ajd8<=&&@@@@@&*O&&&**&+@@&O&oOO&OO&O=+&&+&+&&O&&O&&&&&&O&O&&&&&O&O&++&&&&O&&=&&=:33wpjp,OO",
"O:ijdw:@&@&&@@@@*oo*o&*O@@@@@@o@=&=&O&==&&+&+&+&&&O&&&&&O&O&&&&&&+&+&&&&&&&&:&OOO&&&&:39jj4OO",
"+3jj9:&@&&@&@@@@*O*o*oo*@@o@@@@@=OO&=&=O+&&&+&&&&&&&O&&O&&&&O&O&&+&&&++@O&O&&&=&&&O&&&=3pfe4=",
":0jj<@&O&&@&@@@@o**o*o*oO&o*ooo*O&O=&+=&&&+=&&++&&&&&&&&&O&O&&O&&&++&&@@@@&&&&&+OO====O:9ppw,",
"8ijd<&@&O&&&@&@@*oo*o*o*o&*o***o==O=&+&++=+&+&&&OO&O&O&O&&&&&&&&+&&&&+@+@&++++&&=&=OO==:3wjf,",
"rjju>&&&&&&&@@@@o*o***oo*o**o*o*+&==&&+&&&=+&+&+*&&&&&&&&&&&&O&&&&&&&&+&@+&&&&&&===OO=&=:9jj,",
"uja0-Oo&&&&+@@@@*o*o*oo*o*oo*o*o&&O&+&&+++&&&+&&O&&&&OO&&OO&&&&OO&+&+&@&@&+&&+O@OO====O==4jj,",
"ufu8*o&&###@@*@*o*oo*oo**o*o*o**&&&&+&&&=&&&+=+&*O**O&&&&O&&&O&&@@+&+&@O&&O&&O&@=&&O=&O=O4jf,",
"udu8*#&o@#o@@@@@*******o*****o*o&&&&&&&&+&+&&&&&&&&&&&&&&&&&&&&&&&@@&&&&@&@&@&&&O&:O&&===4ff,",
"udr8>*@#@@@##o@@o*o*o*****o****o&&&&&&&+&&+&+&&&O&O*&&&&&&O&&&&&&@+&&&&&&&&&&@&&:&&&O=&O=4jf,",
"udw8>*@o#@#@##@@****o**o*o**o***+&&+&+&&&&&&&&&&*&**&&&&&O&&&&&O&&&&@&&&&@&@&&&*&O&&=&O:=4jf,",
"uar8>@@@@@##o#o###o###o#*****o**@@&&&&&&&&&&@&@@*&O**o*&&o@@&&&&%%%%o%$$@@%%@@@*=+=+=+=++4gf:",
"udr8:@@@@@@@@###@@######o**o**o*&&&+&&&&+&&&&@@@*****o*&&**o&&&oo%o%$$$%@@@@@@*@&=&&=&&==4jf,",
"udu8>@@@@@@@o#oo##o#@#@@********@&&&+&&&&&&@@@##&&*O##*o&&o&**&&%o%ooo%o@@@@*@@@&&==&+===4gf,",
"rar8:@@@@@@@####@@##@#@@*****o*o@&@&&&&=&&@&@&##&***##*#o***&o*o%%o%%%o%#@@@@@@@&&+&==+&+8jf,",
"rdr6,%@@@@@@@##@o##o#@@#*>8ttiiduiiiuuuuuuiuttitww03>*#o*oo#o@@@o%%%%%o#@##@#@#@&$&&&+$$=4kf,",
"rsr9:%@@@@@@@@#@#@##@##o*8cVSDFHDDDDFFDDSDDDDDGFDVcj>#######*@o#%%o%oo%%@@@@@@@@+&@&&@$$=8kf,",
"rdr5;$@@@@@@@@@@@##@@###*wVTTTT~!!!!!WWW!!!!~Q!!TTDz8o*##oo#o###%oo%%%#o#@@###o@&@&@&$&$=4jf:",
"rsr6;$@@@@@#@@@@*o@@@@@@*tVTT!!!!!!!WW!!!!!!!~!~~TDc2#**#######o%o%o%o%o@@@@@@#@@@@@$$+$=4jj<",
"ydr6;$$+$@@@$@@@*@@@@@@o*wVP!!T!!!TTTTTTT!WWWWWWQKZx2o##o#o###o#o#o##o%######o#o@@@@@@$$=5jf,",
"rsr6,$+$$$@$@$$@@@@@&*&&*tVTTT~!TTYYYLYYPPIIPPPPKGNx7#oo*o##o#o####oo%o#oo#o####@@@@%@@@&8jg<",
"rsy6,$$$@@@$+$@$*o@#@o@&*wVPT!TTTHSVVVmBVVmVVmVmNbxs2#o#o#o#o##o#o##%########o##@@@%$$@$-5jg<",
"ysr6,=+++$@@@$@@***o@@@@*tVPT!~TDnjuww0wrwrrrrrwt772#oo###########oo#oo%#o#o##o#@@@@$+@$=5kf,",
"rsr9,$$&$$@&+$$@*@*&&o&&*tVPTT!TDc0*&OO&#*@@#########o###o#o##o##o######o##oo###@@@$@$@$=8jg<",
"ysr9,$$+$@@&@&@&@@o&*@@&*wVYT!TTDc0*&&Ooo#@@#o#oo###o####o##o#o##o#oo#oo#o####o#@@@@@@&$&5jg<",
"rsu8,=&&&&@@&@&$@@&&@@&&*wVPT!!TDc8**@@oo##oooo#####oo###o#o###o##o######%#o#o@@@@@@@$@$-8jf>",
"psu8,$&&@&&@@$+$@&&&@@&&*tVTT~!TDc8o@@oOoooo#oo#oo####o#####oo##o###o##%oo##@@@#@#@$@$+&-5jj<",
"udu8,&@&&&o&@&@&@@&&=+&==ynUUQQUDc5o*@Oooo*o@@o**##@#####%##oo##o##########o####o#@@@#@*=5jg,",
"udu8,&&&O&&@&&&@@@@@$@&$=9MUUQQUDc5oo@o&##*#@****o**##%-%%%####o###o##o#o####oo###@@@@@@=8jj<",
"rfu8,=&&&&&&@@&@&&@&&@+$=yMUU~QUDnj000wwwrrtrrrrr7>#-#--->#%#####o##o#o####o##o#####@@@@=5jg<",
"udu8,=&&&&@&@&@@@@&&@$@&+yMUU~~UTDZVVVVVmmmmmmmmmx7@o#---%%%###o##o#####o###o####oo#@@@*=5kg,",
"ufr9>=&&&@&O&o@&@@@&+$$@=rCIRQQQUUPPIIPPJJPPPPIPPVqo#@###---#####o#oo##*####o#o#@@@@@@@@=8jg1",
"rdr8>&&&&&&*&&@@&&&&$@&$=yCKUQQQERREWQWWEEEEEWWTWDt@o@##---->####oo###oo#oo##o##@@@@@@@@&5jf,",
"rdr8>*&&o&&&&&&*@&+&&@+$$rCIRQQQWWQ!~~~~~QQ~~~!!!Gi#@@@#--*-####o#@ooo*#o##o#o#o@@@@@@@@=5jg,",
"udr9>*O&&@&&&&@O@$@@@$$$$rCKURQQQQQ!~~!~Q~~Q~~!!QFa-#@@##-**###@##o#o#oo#oo#o#o#@o@@+@@&=5gg,",
"rfr8:=+&&@&*&&&&&+$@@$$$$qMUUQQQRUJJJJJJJJJJPPJPJVt****o-#***&@@@o#o@o@#o@@@@*@o@@o@@+$@$5jg,",
"udr8:=&&@&&O&&&&$$@$$+@@$yMUURQUHDnvbbvvvvbvvvvvvz5*@*****@@&&o@@@o#o#o##@@@oo@@@@@@@$@$$5jf,",
"rdr8,=+&@&&&@&&@$@$$$+$$$qMKRQQUFnzfddddaataididdw>*@***#@@@&O@@o@@o#oooo#@@*o&@@@o@@++@=5jg,",
"udr8:&&&@&&&&@@&&@@+$$@@$yMKRQQUFbt7225422>23><>>>*@&o*O@@@@o&o@*o@*o#*##o*o@*o@@o@@@@@@=5jf,",
"uju8:=&&&&&&@&&@$@@@@$@@$yMKUQRUDvt>o##*@oo@@Ooo#@#@*o**&oO&&&O&&o*oo*o@oo*#@o&&o@@@@o@@=5jg,",
"udw8:&&&&&O&&&@@@@$$@@@@%qMKUQQUDc7>#o@@@@&@@@@@@o*oO*O*&&&&O&@&@oo@*o*@*@*o&o@o@@@@@@@+&5jg,",
"udu88&&&&&&&&@$@@$+$$o@$$yMKRQQUDc7%#ooo@@@@@@o@&O&o&O**o&&O@@o&@&@*o@*o**o*&@o@o@@o@@@@=5jf,",
"udw8&&&+&&&&&@$$$+$@$$$o$qMUUQRUDc7oo#o@o@@&o&@o@@*&Oo&O&&@@@@@&@@oo@@o&oo*oo@&@@@@@@@@@=5jf,",
"udw8:&&&&O&&&&&O$o%o$$$$%yMUUQQUDc7oo@oo@*&*@*&&@***@&&*&@@@&&@@&@o&@o*o&*@o@o@@o@@@+$+$+9kh,",
"udu8:&&&&&&&&&&&$o$$$oo$$7MUUQQUDc8o@o@@*-&&&-&&***&**@@&o&*O*O&o@*o@&o@@o@&@@@o@$+$$+$$=4ff,",
"udu8&&&&&&&&&&&&%$$o$$$$;7MURQQUFbdw00qrurrrituuttw8>**@&@@O*O*@o&@@oo&&&oo&@@@@@@$++$+$=9hf,",
"wdu88&&+&&&O&&O&o$$$o$o$$7MJUQQUPGZmmVmmBVVVVVVVVmvj3*@@o&@@&&&@&@o@*@@o@*o@o@@@@@$+$$+$+4kh,",
"udu88O&&&&@@&&+&$o%%$$$$$7MKUQQQRUPPLLLPLLLLYYYYPHDv8&@&&o&&&o*&@@@o@@o@o*o&@o@+Xo$@$+$$=6kf<",
"ud98:&&&@@&&&&&@%o$oo$o%%yMUQQQQWERREEERRREETTTTTTJn0&@@o&ooO&&oo@@@@@@@o@@&@*@@$$X@$++$=9kf;",
"udu8:&O+@@@@@@@@$$%o$$$o$7MKR~~Q!QEEQQQQQQ!Q!!!!~TTV0*#@&oo&&ooo@@@@@o@@&&@o@@@o@@$$+$$++6ff;",
"wdu8:&&&@@@@@@@@%o$$%o%o$7MJR~~~~~QQ!!!QQ!!!!!!!~THb0*@@o&&oo&o&@@o@@@@o@oo*@@@@X@$X$+$$$6kf;",
"ysy66$$+@@$$@$$o$o%%o%$$@5zmZFFGGFAFFFFFDDDDGGGDDZbz7#ooo&@o@o@o@@@@@o@@$o$X$o$$$$$+$$$$$6hh;",
"ysq6$$$$@@$oo$$$%o$oo$o$@>50rtiittrrttttuudiiiiiit02#oooOoo@o@o@o@o@@@@@o$o$$$+o$XX$$X$X$1hs;",
"ysq6$$o$@@@$%oo$%%o%%o$$@@@@oo@@o#oo#%@@&o&&&&&&##oo##o oo@oo@@o@@@@@@@@$$o$+$$$@$X$$+$$$6hh;",
"ysq6;$$o@@+$$$$oo$%o$$$o@o@ooo@*%###@%%@&&&*&*****#o###oo*o@@o#oo@@oo@@o$o$+$++$+$$++$X$$2hf;",
"ysy6;$$$$$o$oo$$o%$$##@@@o@OOo@**&@@@&@*&&&*&&****#@#####o#ooo#oo@@@@@@@@@@@o$+o$+$$$++$$6hf,",
"qsq6;$$oo$$$$$%o$%o%oo@@o@@o@o@@@&&@@=@@o&&O&&&&*#@##o#oo#o##oo#@@@@@@o@o@o@$o$$$$+++$$$$5hs,",
"ysy6;$$$$$$o$$$o#oo###@@@@@@@@@@@&&@@&@&@@+@@@@@@@@@o######o*o#oo#@@@oo#@o@@$$$oo$+$+$+$$5hg;",
"ysq6;$X$o$$o$o$%@@@#o##o@o@@@@+@@&@&&&@@@&&&+&@@o@@@#o#o#oo#o#o#@@o@@@#@@@@@+$o$$+$+$+$$$1gf,",
"ysy6;$$$$o$$$o$o$$$o%$oo%o@o##o#@&@@&@O&&&+&&&Oo&o*@oo*##o#oo##o##o*o*o**@oo&@@@o@@@$+$$$6hf;",
"ysq6;$X$$o$o$$$$$o$%o$%$$$@@@@@@@@&&&&&&&+&+&&*&&&o@**#o#oo##oo##o*o*oo*o@&@@@@O@@@@$++$+6hf;",
"ysq6;$$$$$o$$$oo$%$oo%%oo@@@@@@@@@&@@&O&&@@@&O@@o&oo@@#@o#o#o#o#ooo#*o*oo&#o@@@@@+@++$+$$6hs<",
"ysy6;$X$o$$$o$$$oo$%%%o$$@o@@@o@@&@&&@&&O&&+&@@@&o*&@@@@#o#o#o#o###oo*o*@&o@@o@@@@@@$+@$$6hs<",
"ysq6;$$X$$ooo$o$%$$$o%o%@@@o@@@@&@&&&&&@&&O&&&@@#o#o@o######o##**oo***o*o&@@@@@@@@+$$$+$-2ks;",
"ysq6;$X$o@$$$@$$%o%oo$$$@@#@@@@@@$@@@$+@o@o&o@@*@#@##@@#o#o##*oo***o*oo*@*@@@@@@@@@@+@@$-2hg<",
"ysq6;$$X+$$$@o@X$$$$$%$$#@@@@@@@@@$$@&$&&&&&&&oo#o#####oo#####*#o*******#o@@@@*@@@+@$@@$-6hs>",
"ysq6;$$$@$X+@$@$$oo$$o$o@@@@@@@@$@@+$@$+&O&o&o&@**#o#o#####o##o#**o*oo*o@@@@#@o@@@$$$@@$%5hh<",
"qsq6=$++=+$+@@++@$$@@$$@#@@@@@@#$@@@+$@@@@+@@@@o@*##**o*#o*#*###o*o**o****o*@@@#@@@$@$@$%5hg>",
"ysq6;$$++$+$$+$$@$o@$$o@@@@@@@@@%+@@@$$$&&&@@@@@#oo#*o**##o#o#o****o*o*oo*o*@@@#$$@$@@@@%6hg<",
"ysy6;$+++$=+@@$+$+$$@@@$#@#@@@@#@$@$@$@$+&&@@o@@#**########*###****o**o**o**@@@@o$$++$@@%5hf;",
"qsq6;$$$$+$$$+@$$$$X$@$$o#@@#@@@@@$$@@+$@&@o@@#ooo##o##oo#o##*oo*o**o***@&*o@@@@@$@@$$@@%5hg<",
"ysy9;+$+$+$+$++$@o$$@$@X$o@$@@@@$@@+@@@&@@@+#@#@*##o*#####**#o##o**o**#o*o@@@*@*@@$o@@@@#2hf;",
"ys96;$$+$$+$+$$$@$$@$$@$$$@@@@@@$$@$@@&*@&@@@o@@o###*o#*##o#**#oo**o*o****@**o@@$@$$#@@##2hg>",
"ysq9;=+$+$++$$+$o$+$$oX$@@$$@@@@@+@@@@&@*@@@###@********#####o##******oooo*o@@*@@@@@@@###2gs>",
"qsy9;=$+$+$$$+$+$@@$@$$@@$o$@@@@@@@@@@@@@@@@@@@@*o#o#o#oo#o*####*oo*o*****@*@@o*@@@@@####5hs>",
"rse5,=&@$+$X$+$+$+$$@$o@$+$@@$$@+$$o$$@$@@@@@@@#*o*#o***o###@@###o##o##@@@@@@@@@@@@$@@$$@1gs;",
"rsr8:$++@@@$@@@@@$@@@$$$$$$$$+$@@$@$@@@$@@@@@#@#**@o#*o####o@##o##@o#@@@##@@@@@@@$%o$@@@$1gf;",
"rdr8:&+&@+o$o$+$+@$o+$$$@o$+$+o$$@@$$$@$$@@@#o@@o#@**o*o#o##@@##o#@##@@@@@@@@@$@@@$@$@$$$2gs-",
"rdr5:&$@@$@$+@@@$@$$$@@o@$$@$$@$$o$$+$$oo@@@@@@@o*@*@#@*##@@@@##@##@@@@@@@#@@%@%$$$@$+$$$5ff>",
"rde8;%%@@+$@$@+@$$@$+$@$o$$$@o$$$$@+$$@@%$@$o$$@#@@#@@@#o@*o@#@#*@@@@@@@@#@@@$@$$@+$$$$$%4hs>",
"rdr9,-=$@$$@$X$$$@@$@$$$$@@+@$@@o$$@@o$$$@@$@$@@@@@@@#*o####@##o@@o*@@@@@@@@@@$@@$@$@$==$5hh>",
"rsp9;$$$@$+$@$@$+@@$$$@+$@@$o$$+$$$@$++$@$o@@@$$@*@@*o@@o*@*#@@@o*#@@@@@@@@@@@@$@@@@+$$=;9lh;",
"wpjs1$$+@@@$@$@$$$$oo$@$$+@$$@$$+@@@$$$@@@$$$@o$@@@@@@@@*@@@@@@$#@@@@@@@@@@#@@@@o@X$$$$;4ylf<",
"5rhf2%@@$$$$@@$o+@$oo$$@$$$$@$$@@$+@$o$$$$@@@@@$@@@@@@@#@$@@@@$o@@@@@*o#@@%@@@@+++$+$+$;qskp:",
"-9hg5=@+X@@@X$$$$@$$$@@@@@o$$+$@@@$$$$o$@$+$@$@@@@#@@@@@@$@$@$@@@@@*@@@@@@@@@%$$$$$$++$,pgs9+",
"+,shq1=@@@@@$$@X$$$@$@@$$$$@$+o$@$@$@+$@@$o$+$$@@##@@@@@$$@@@$$@#@@@@@@@@@@@@$$$;$$$$;;9hk91+",
"+;edhp1%$@$$$@@$@@$+$@@@X$@@$$@$@$@@@$$@$X$@$$@@@@@#@@@@+@@@$o@$@@@@@#o*@@@$@@$$;$++$;9pkf6++",
"X@2ehhe51;;$@$@@$+$$@$@@@@@@@@@@@@$@$@@@$@@$@@@@%@@@+$$@%@$@@@@#@***#@*@+$$$$$$$$$;;99ysk9;++",
"XXX<rfhhy61$+X@$$@$$@@$$$$$@$$$$%o@$@@$@$$$@@@$$@$@@$$$$@@@%%%@#@@**@#*@++$$$+$++=69shhh98+++",
"  .@1qghhy961121561655556155161655566155566155566155561655554554522252556666666116qsllk99=+.O",
"XX.X@;5qyhhhhhffhhhhkkhkkhkkhhhhkhhkkhkhhhhhkhhkhhkhhhhhkkhkhhkllllllgllhhhhhhhhhhhs999;=++OO",
"XXX XXX<6yhhhhhshhhhhhhhhhhhhhghhhhghhhkhghkglhhkgkhkggkgkkhgghlljlllljlllljjjgjkgaq6;$XXXXX+",
"XXXXXXX$;;;<;<6;<;;1<<<1<11,1<<<<1<<<1<<<<<2<<<<2<<<<<12<<<1<1<<>22>2>>22>2>22<2<>>;$%@++++X."
};
