/* XPM */
static char *result[] = {
/* columns rows colors chars-per-pixel */
"93 98 55 1 ",
"  c #131516",
". c #151718",
"X c #17191A",
"o c #1A1C1D",
"O c #1D1F20",
"+ c #1F2021",
"@ c #252525",
"# c #262826",
"$ c #282827",
"% c #262728",
"& c #282728",
"* c #272829",
"= c #2B2C2D",
"- c #2F312E",
"; c #2D2F30",
": c #2F3032",
"> c #333434",
", c #363837",
"< c #383A37",
"1 c #353638",
"2 c #37393A",
"3 c #393A3A",
"4 c #3D3F40",
"5 c #3F4041",
"6 c #444545",
"7 c #464847",
"8 c #454648",
"9 c #464849",
"0 c #4B4B4B",
"q c #4D4F50",
"w c #4F5051",
"e c #535354",
"r c #585957",
"t c #555758",
"y c #575859",
"u c #5B5D5D",
"i c #5E605E",
"p c #5E5E60",
"a c #5E6061",
"s c #626364",
"d c #666869",
"f c #6B6C6D",
"g c #737373",
"h c #7D7D7D",
"j c #818181",
"k c #8C8C8C",
"l c #919191",
"z c gray62",
"x c #A3A3A3",
"c c #AEAEAE",
"v c #B5B5B5",
"b c #BCBCBC",
"n c #C6C6C6",
"m c #CCCCCC",
"M c gray82",
/* pixels */
"ooOoOOOO*;;;:;::----<------------<-->-::>>>>&>&1>&>>-->:>:-::::>-->>>:&>>&1>::>&>>&:&&OOOOXOO",
"OOOOOO%:49epuyuurrirriiiiruiiririrruiuiirprppppppppprppruuprpuuurpprrpppppppppppprq06>&oXX.XX",
"OoO+O*49qtppuuuurrrriiiiiuiiiiiiiiiiiaiipppppppppppppppppppppppppppppppppppppppppppeq81&OX.XO",
"OOo+*4tapq9632>;-<<-<<<<<,<<<<<-<<<<,,,,311111333111<11><<<<1<<<<<<>33333111111>140eppp0;OXXX",
"oOO=4qpaw63:=*++o#######@@@@@+@@@@@@+%#@@@@&@@&@&&@@&@@@@#@#@@@@@@@@@@@@&&O&&&@@&;18epsp5;%XO",
"o@=4ept92=-**#@@#oo##o#o@+@@@+@@@@+@#+@+@@@O@@@@@@O@&O@@+@++@+@@@O@@@@@@O&@@@@@@%&&&;30ppq;OO",
"O%4qpp5:%+###++@o####o##@+@@@@@++@@@@@@@@@@@@@@@@O&@@@@O#@@@@@@@@@@@@@@@&&O&@@@@%OO&&&4qpp4%O",
"o;epe5:%+++#+@@#######@##@@#@#@@@@@#@@@#@&@@&&@&&@&@@&@@@#@#@@@@@@@@@@&@&O&&@@@@&&&&&&:4tpq4%",
"+1aa9>*++++#++%####@####@$@$$$@$####$@@$@@&&&&&&&&@@&@&@##&##&##&@$&@$$@@@$@@$@&+&+%%%%;8qt8=",
":5pt4=%++##+##########o#@@@$@@@@@#@@@@@$$$&@&&@&&&&&@&@@@@@#@@@@@@@@$@@$&$@$@@&@&&%%%%%;44pt=",
"15tw:+*+%##%#+#+o#######@@@@@@@@##@@@@@@@@@@@&&&@@@@@@@&#@@@@@@@@@@@@@@@@@@@@@@@%@&%%%%%+4pp4",
"19tw>%+%%%+%###%###o#o##@@@@@@@@##@@@@$$&&@@&&@@@@&&@@@@#@@@@@@@@$@@@@@@@@@@@$$@+%%&%%%%%4pp;",
"19pq:%+++#+%###+@###@@@@#@@#@@@@@@$$@@@$&&&&@&&&&@&@@@&&@@&@@@@@@@@@@@@&@@@@@@@@&%@%%O&&%4pp;",
"15tq1%+%%%*#+##%#o##@@@#@#@@@@@@@@@@@@@@&@&&&@@@@@@&@&@@@@@@@@&@@@&@@@@@@@@@&@@@@@%@%%+%O4pt;",
"49tw>++%%%+%%+#+##@@@@###@#@@@@@@@@@$$$@@@&&@&@@&&@@@@@@&&&@@@@@@@@@@&@@@@@@@@@&%&%%%O%%+4pp;",
"15tw,+*+*+%####%##@@@@##@##@@@@$@@@@@@@$@@@@&@@@@@@&@@@@&@@@@@@@&@@@@@@@@@@@@@@@+&@%%%%%%4pp;",
"15tq:%+%%%%&%+%%%@&@@@@@&&@@@@$$@&@@@@@@@&@@@@@$&@@&&&@@@@@@@@@@@@@@@@@&@@@@@@@@%++%%%%%O4aa;",
"45pw:%%++%+&&&%+@%@&@@@@@&&&&@@&$@@@@@@@@@&@@@@$@@@@&&@@@oo@@@@@@@@@@@@@@@@@@@@@%%*%%+%%+4ay4",
"19pw:%%%%%%%%&%%%&%+@@@@@&&&@@&&@@&$&@&&&@&$&@&$&@@&&@@@@@@@@@@@+@@@@@@@@@&@@@@@%%%%%%%+%4aa*",
"15tw4%%+%%%&%+%%%+@%@@@@@@@&&@@@$&&&&&&&&&&&&&&&&&&@@@o@o@@@@@@@@@@@@@@@@@@@@@@@+%%+%%%%O4ay;",
"4qtq;%%++&&&+%@%@@@@@@@&&&&<6866600000000600000004<>&@oO@@@@@@@@@@@@@@@@@@@@&@@@%%%%%%+%+4tt;",
":5yq:%%%%%&+%@%%&&&&@@@@&&4rhkkkkkkkkkkkkkkkkkkkkhp6>&&@@o@@@@@o@@@@@@@@@@@@@@@@%+*+%%%%%4aa;",
"45tt4++%%%%%%%%@@@@@@&@@&-0fzvvvvvcvvvvvvvvvvvvvvzge<&&&@@@@o@@@@@@@@@@@@@@@@@&@%%%%%++%O4au;",
"45tq;%%%%%%%%+@@%@@@@@@@&1ehcnbnnnnnnnnnnnnnnnnnnche-&&O@@@@@@@@@@@@@@@@@@@@@@@@%**+%%%%+4aa;",
"45tw;%++%%%%%+%@%+&&@@@@@1ejvmmmmmmMmMmMmmmMmMmMmvhr$@@@@@@@&@@@@@@@@@@@@@@@#@@@+%*+***++4uu;",
"44pw4+%%%%%%%%%%@%&+@@@@&>tjvmnnmmmmMmmmmmMmmmMmmch0-o@@@@@@&@@@@&@@@@@@@@@@@@@@+%***+**O4uu;",
"4qtq;%%%%%%%%%@@&+&+@@&@&1tjvmnmmncxxxxxxxxzxxxxxlf6&@@@@@@@@@@@@@@&@@@@@@@@@@@@**++***+%4au4",
"45tw4%++%%%+%@%%&%&&@&+@&1ejvmmnmcg0r00r0r00r0r000<-&&@@@@@@@@@@@@@&@@@&@@@@@@@@+***++**+4aa;",
"44yw4+%%%%%@%@%@@@@@@@&@@>ejvmnnmx0@$@@@@@@@@@@@&&@@@@$$@&@@@@@@@@@@@@@@@&@@@@@@*++**+**%4tu4",
"45tq4%+%%+%%@@@%@@@&@@+&&>rjvmmnmx0@$$@@@@@@@@@@&&@@@&@@&@@@@@@@@@@@@&@@@@@@%@@@+******+O4ay*",
"45pq;%+%%%%%@@%@&@@@&@@@&>ejvMnnmx0$@@@oo@o@@o@@o@@@@@@@@@&@@@@@@@@@@@@@@@@@@@@%*%*+***+%4au;",
";5tt;%%+%%%+@@@@@@@@@@@@@>rjvmmnmx0@oo@@@@@@@@@@@@@@@@@$@&@@@@@@@@@&@@@&@@@@@@@%%%*+*+**+4ay;",
"<7re-@@@$$@@@@@@@@@@@@@@&<rjvmmnmx0&@@@o@@@@o@@@@@@o@@@@@@@$@@@@@@@$@@@$@@@@@@@@@@@@@@&@+4yu4",
"<7re-@@@@$@@@@@@@@@@@@@@&>rjvmnnmx0&&$$&@@@o@oo@@@@@@@@@@@@@@@$@@$@@@@@@@@$@@@@$@@@&@@@@O4pu*",
"<6r0<$@@$$$@@@@@@@@@@@@@&>rjvmmnmxr&$@$$@@$&@@o@@@@@@@@@@@@@@@@@@@@@@$@@@@@@$@@@@@&@@&@@%4pp;",
"<6re-@@@$@@@@@@@@@@@@&@@&>rjvmnmmx0&@@@@@@$$@@&@@@@@@$@@@@@@$@@@@@@$@@@@$@@@@@@@&@&&@@&&+4pp;",
"<6re-$$@$@@@@@@@@@@@@&@@&>rhvMmnmcg0000e00r0r0006<&&&&@@@@@@@@@@@@@@@@$@@@@$@@$@@@&@@&@@+4py;",
"<6r0-$@@@$@@$@@$@@@@@@@@&-rjvmnnmncxzzxxxzzzxxzzlg<@@@@&@@$@@@$@@@@@@@@@@@@@@@@@@@@&@@&@O4pp;",
"<7re-$@@$@@$$@@@&@@@@@&&&>rhvmmnmmmmmmmmmmmmmmmnbl0@&@@@@@@@@@@@@@@@@@@@@$@@@$@@@@@&@&&@%4pp;",
"<6re-@@@$$@@@@$@@@@@@&@&&<rjvmnnmmmmnmmmmmnmMmmnbk0&@@@@$@@@$@@@@@@@@@@@@@@@@@@@@&@@@@@@+4pp;",
"<6rw>@@@@$@@@@@@@@@@@@@@&-rjvmnnmmnnbnnnbnnnmmnnvk6@@@$@@@$@@@@@@@@@@@$@@@@@@@@@@@&@%%%+%4tt=",
"<6rw<@@@@@@@@@@@@@@@@@@@&<rhvmmnmnbvvvvvvvbbbbvcxj<@@@@@@@@@@@@$@@@@@@@@@@@@@@@@&@@@O%%%%4pp4",
"<6rw-@@@@$$@@@@@@@@@@@@@&-rjvmmnmbzkkkkkkkklklkkjs<@@@@@@$@@$@@@@@@@@@@@@@@@@@@@@@&@%%%%O4pp;",
"<6rw>@@@$$@@@@@@@@@&@@@@&>rjvmnmmcf000060660000<6<&@@$@@@@@@@@@@@$@@@$@@@@@@@@@@&@@&%%O%%4pp;",
"<7rw>#@#$$@@@@@@@@@@&@@@&-rjvmmnmxr$&&&@$@@@@@@@&$@@@@@$@@$@@@@@@@@@@@@@@@@@@@@@@@&O&+%%O4pp;",
"<7rw>#@@@@@@@@&@@@&@@@@@&<rhvmnnmx0$&&&@@@o@@o@@&$$@$@@@@@@@@@@$@@@@@@@@@@@$@@@@@@&&&&%+O4pp;",
",6rw-@@@@@@@@@@@@@@@@@&@&-rjvmnnmxe$&$@$@@ooo@@@@&$@@@@@@@@@$@@@@@@@@@@$$$@@@@@@@&@&+%%%+4pt;",
"<7rw>@@@@&@@&@@@&@@@&@@@&<rjvmmnmx0$$@$@@@@@@oo@@@$@$@@@@$@@@@@@@@@@@@@@$@@@@@@@@@@@%%%%%4pp;",
",6yw,@+%###@@@#@@@@@@@@@@<rhvmmnmx0$@@@$@@@@o@@o@@@@@@@@@@@@@@@@@@@@@@@@@@@@@@@@+=******%1pp:",
",6yw:@#+@%@@@@#@@@@@@@@@&-rjvmmnmx0&@@@@@@@@@o@@@@@@@@@@@@@o@@@@@@@@@@@@@@@@@@@@*+++++*++1ap:",
",6yw:%+#+@#@@@@@@@@@@@@@&<rhvmnnmx0&@@@@@@@@@@@@@@@@@@@@@@@@@@@@@@@@@@@@@@@o@@@o%%******%4pp:",
",6yw1+#+##@@@@@@@@&@@@@@&<rhvmmmmx0@@$@@@@@@@@@@@@@@@@@@@@@@@@@@@O@@@@o@@@@$@@@@%++**++*+1ap;",
"18tw:%+%@@@@@@@@@@@@@@@@&&rhvmnnmx0$@@@@@@@@@@@@@@@@@@o@@@@@@@@@@@@O@@@@@@@@@o@@%#%%+****2ap;",
"18tw>+@@@&@@@@@@@@@@@@@&&<rjvmmnmx0&@@@@@@@@@@@@@@@@@@@@o@@@@@@@@@@@@@@O@@@@@@@@#+%+=+*+%4ap:",
"18tw>+@+@#@@@@#@@@@@&@@@&<rhvmnnmx0$@@@@@@@@@o@@@@@@@@@@@@@@@@@o@o@O@@@@o@@$@@@@@#%#**=++2ay:",
"18tq>%+%@@@@%@%@@&@@@@@@&-rhvmmnmx0$@@@@@@@@@@@@@@@@@@@@@@@@@@@@@@@@@@@@$@@o@@@@@%+%+=+*+2aa:",
"48tw:@%+@#%@+%+&@@&@@@@@&<0gzvcvvl0@@@@@@@@@@@@@@@@@@@@o@@@@@@@@@@O@@@@@@@@@@@@@+#+%%+%%%2pp:",
">8tq>%+%@%@%%%%&@@@@@@@&&&6rgjjjhf<&@&@@@@@@@@@@@@o@@@@@@@o@@@@@@@@@@@O@@@+@@@@@@@@%%%+%%2au:",
"45tq>%%+@%@@%@%@@@@@&@@@&&<60rrrr0-&@&@@@@@@@@@@@@@@@@@@@@@@@@@@@O@@@@@@@@@++@@+@@@%+***%2au:",
">8tq:%+%@%%%%@@@&@@&@@@@&&&&-<<<--&&@@@@@@@@o@@@@@@@@@@@@@@@o@@@@@@@@O@@@+@@@@@@@@+%**+%%2au;",
"48tq>%++@%%@@%@%@@&@@@@@@@o@@@@@@@@@@@@@@@@@@@@@@@@@@@@@@@@@@@@@@@@@@@@O@@@@+@@+#++***+*@1pu:",
";8tq:@%@@@@%@%@@&@@@@@&@&&&@@@@oo@@@@@o@@@@o@@@@@@@@@@@@@@@@@@@@@@@O@@@@@@O@@@@@##**+*+*@3au:",
"48tq:%@@@%%@@@@%&@@@@@@@@@@@@o@@@@@&@@@@@@@@o@@@@@@o@@@@@@@@@@@@@@@@@O@@@@@@@@@@@@#+##*#@3pu:",
";8tw:@@+@@@@@@%+@@@@$@&@@@o@@@@@@@@o@@@@@@@@@@@@@@@@@@o@@@o@@@@@@O@@@@@@@O@@@@@@+@##+*+##3pu:",
"45tw>@+%@#@@@@@#@@@@@@@@@@o$@$$@@@@@@@@@@@@@@@@@@@@@o@@@@@@@@@@@@@@@@@@@$@@@@@@@@@o$@@@@@<ii-",
">8tw>&++@@#@@@@#@@@@@@$@@@@@@@@$$@@@@@@@@@@@@@@@@@@@@@@@@@@@@@@@@@@@@@@@o@@@@o@@@@$@@@@@@<ir-",
">8tq>@+&@@@@@@@@@@@@@@@@@@@@@@@@@@@@@@@@@@@@@$@@@@@@@@@@@@@@@@@@@o@@@@@o@@@@@@@@@@@@@@@@@<ri-",
"45eq>@@+@#@@@@@@@@@@@@@@@@@@@@@@@@@@@@@@@@@@@@@@@@@@o@@@@@o@o@@@@@@@@@@@@@@o@@@@@@@@@@@@@<ir-",
",6rw>@@+@@@#@@@@@@@@@@@@@@@@@@@@@@$@@@@@@@@$@@@$@@@@@@@@@@@@@@@@@@@@@@@@@@@@$o@@@@@@@@@@$<ii-",
">6rw>@@@@@@@@@@##@@@@@@@@@$@@@$@@@@@@@@@@@@@@@@@@@@@@@@@@@@@@@@@@@@@@@@@@@@@@@@@@@@@@@@@$<ir-",
",6r0>+++@@#@@@@@##+@@@#@@@@@@@@@@@@@$@@@@@@@@$@@@@@@@@@o@@@o@@@@@o@@@@@@$@@@@@@@@@@@@@@@$<ii-",
",7rw>#@+#@@@@@#@##@@#@@@@@@@$@@@@$@@@@@@@@@@@@@@@@@@@@@@@@@@@@@@@@@@@@o@o@@@@@@@@@@@@@@@@<ii-",
">6rw>+#######@@#$@@@@@@@@@@@@@@@@@@@@@@@$@@@$@@@@@@@@@@@@@@@@@@o@@@@@@@@@@@@@@@@@o##@@@@@<ir-",
",6rw-##++#+#@@@@@@@@@@@@@@@@$@@@@@@@@@@@@@@#@@#@@@@@o@@@@@@@@@@@@@@@@@@@@@@o@@@@@##@@@@@@<ii-",
",7r0>##++@##@@##@@@@@@@@@@@@@@@$@@@@@@$$@@@@@@#@@@@@@@@@@@@o@@@@@@@@@@@@@@@@@@@@@@o#@@@@@<rr-",
",6rw>#+###@@@@@+@@@@@@$@@@@@@@@@@@$@@@@@@##@@#@@@@@@@@@@@@@@@@@oo@@@@@o@@@@@@@@@#@####@@@<ir-",
"-7i0-#++@#@@@@@#@$@@@@@@@@@@@@@@@$@@@@@#@@#@@@##@@@@@@o@@@@@@@@@@@@@@o@@@@@@@@@@#@#@#@##$<ii-",
",7ew-##+@@#@@@#@@@@@@@@@@$@@@$@@@@@@@@@@#@@##@@@@@@@o@@@$o$o@@@@@@@@@@@@@@@@@@@@#o#@o####<ir-",
",7rw-#+#@@@@@@@@@@@@@@$@@@@@@@@@@@@@$@#@@@@#@#@#@@@@@@@@@@@@@o@@@@@@@@@@@@o@@@@@@@##@@#@#<ir-",
">7tw>+#+@##@@@@@@@$@$@@@@@@@@@@@@@$@@@@@##@@@#@@@@@@@@@@@@@@@@@@@@@@@@@@@@@@@@@o#o###@@@#<ii-",
",8yw:%+###@#@@@@@$@@O&&@@@&O&O&&$@@@@@@@$@@@@#@@@@@@+@+@@@@@@@@@@@@@@@@@@@@@@@$@#@#@##++#<ir-",
"18yw,+#+@+##@@@%@@@@&&@&@@&&&&&O@@@@@$$@@@@@@#@#@@@@&&@@@@@@@@@@@@@@@@@@@@@@@@@@o##@#+###<ii-",
">8tw:#+%@@+#@#@%@$@@&@@&@@&OO&&&@@$@@$@@@#$@@@#@@@@@@@@@@@@@@@@@@@@@@@@@@@@@@@@@@@@@#####<rr-",
",8tw:@@++###%+%@@@$$@@@@&@@&&&&O@@@@@@@$@@@@#@@#@@@@&@@@@@@@@@@@@@@$@@@@@@@@$@@@@#@##+#++<ii-",
",9tw>%+#%+##O@@@@@@&@@@@&&%%&&&&@$@@$@@@#@#@@#@@@@@@@@@&@@@@@@@@@@@@@@@$@@@@@@@@@@#######<ii-",
">9tw:%#+##+#%%@@@@&&@@@&%O%&&O&O@@@@@@$@#@@@@@#@@@@@@@@@@@@@@@@@@$@@@@@@@@@@@@@@@#@@o#+##<ir-",
"48tw1+#+##%#%%%%@@$@@&@@%%O&O&&&@@@@@$@@@@####@@@@@@@@@@@@@@@@@@@@@@@@@@@@@@@@@@@@######@<ii-",
"15pw:%+#+%+#O%%+@$@@@@&&&O&&&&&O@@$@@@@@@#@@@@@#@&@@@@&@@&@&&@@@$@@@@@@@@@@@@@@@@@@@##+##<ii<",
";4yt4%++%%O%+%%%O&&&%&%%%%&%%&%O@@@@@@@@@@@@@@@@@@@@@@@@%%%%%@%%@@@@@@@@@@@@@@@@#%#%*+%%-4iu-",
"O1pa4;=*%%%%+%%%%&OO%O%%O%O%%OO&@@@@@@@@@@@#@@@@@@@O@@@@+%%%O@+@@@@@@@@@+@@@@@@@@+#%%%%:5wie>",
"O;tpq4:%%%%%%%%+%O&&O&%%%%O%&&&O@@@@@@@@@@@o@O+@@@@@@@@@%%+%%+%%@@@O@@@O@@@@+@@@@@%++*=4eir6$",
"O+5ppt4%OOO%%++%%%O&O%+%%%%%OO&&O@@@@o@@@@@@@@@@@@@@@@@@+%%%%%+%@@@@@@@@@+@@@@@+@++++=1qfd5=@",
"X+45aa94%O%%%%%O%%O%%+%%%%&&&&%O$$@@@@$$@@@@@@@@@@@&@&@@+**+*++*@@@@@@&@#@@#@@@@@@+%=20pfu>oX",
"oOO4tapt4;%%%%%%%%&&%O%%%&&&&&&&$$$$$$$$$@$$$$$$@&&&&&&&*+*%**;+&&&&@@@@######*#*#%;5wadt4@  ",
"oXX*5wppq54444414141441441111111<<<<<<<<<<<<<<<<1313111141224422<3<<<<<<<33<22333336wpau4*X .",
"ooXO*45qpptpttpptppppptpptppppppiiirrririrrrprprupuppppppypppyppppprpppruuuuuuuuuaaapt8>%oX. ",
"ooXXX+;5qyttytyyttytyyttyttytttttttttyyittierierrtttyyttutptttyterrrryrrrryryyyyyuuye8;+X.XX.",
"XXXXXX+%;;;;;;;;;;;;;;;;;;;;;;;;;;;;=;====-=====-=-==-=-==;;;;;;==;;=;;==;=;;==;=;;;=%+X..X.."
};
