/* XPM */
static char *result[] = {
/* columns rows colors chars-per-pixel */
"93 98 64 1 ",
"  c #141717",
". c #141718",
"X c #16191B",
"o c #1A1C1E",
"O c #1B1E20",
"+ c #1E2122",
"@ c #242525",
"# c #262827",
"$ c #252628",
"% c #282628",
"& c #262929",
"* c #2B2D2D",
"= c #2E302F",
"- c #2D2F30",
"; c #2E3132",
": c #333534",
"> c #373837",
", c #363738",
"< c #383738",
"1 c #363839",
"2 c #3B3C3D",
"3 c #3C3F40",
"4 c #3E4142",
"5 c #434444",
"6 c #464847",
"7 c #444748",
"8 c #464849",
"9 c #4A4C4C",
"0 c #4E504F",
"q c #4D4F50",
"w c #4E5153",
"e c #525454",
"r c #555759",
"t c #57595A",
"y c #5B5C5D",
"u c #5D5F60",
"i c #5E6162",
"p c #626464",
"a c #646769",
"s c #6C6C6C",
"d c #6E706F",
"f c #747474",
"g c #777978",
"h c #7B7B7B",
"j c #838484",
"k c #878988",
"l c #8D8D8D",
"z c #929393",
"x c #989798",
"c c #9D9D9D",
"v c #9EA09F",
"b c #A2A3A3",
"n c #ACADAC",
"m c #AFB1B0",
"M c #B4B5B5",
"N c #B6B8B7",
"B c #B7B9B8",
"V c #BCBCBC",
"C c #C4C5C4",
"Z c #C6C8C7",
"A c #C7C9C8",
"S c #CCCCCC",
"D c #CED0CF",
"F c #D1D1D1",
/* pixels */
"OoooXXOO$&;;;3--==:=========%<%<%<%<%%%<%=========================================###XXXXXXXX",
"OoXoOXO33qwrrrrryyyyyyyyyyyyyyyyryyyyyyyyeyeyeeyyeeyeyytteyyettttttttetttttttiitt0061#XXXXXXX",
"OXoO+&37rrrurruuyyyyyyyyypyypyyyyyypyyyyyyyyyyyyyyyypyyyyyyiyyyyyyyyyyyiyyyyyiyytttt01&+XXXXX",
"X..O;4uurr7333332<<<<<22<<<<<<<<<<<<<<<<<<<<<<<<><<<>>>>>>>>>>>>>>>:>>>>>>>>::>>3360uiw1&OOXX",
"XX+-5uauw43-$$$$%%%%%%%%%%%%%%%%%%%@%%%+@@@@@%@@%%@@##@@########@####@@@##@++++#&;17wii04&OXo",
"X@,quuw3;&$&$$$$@@%@%%@%%%%%%%@@@%@@%%@%@@@@@@@@@@@@@@@@+@@#@@@@@@@@@@@@@##@@++++&=;16tii4&Oo",
"O-7uuq3*O++&$$+$%%@%@@@@%%%@+%@%%@@@@@+%@@@@@@@@@@@@@@@@#+++@@@@@@@@@@@@@@###++++#++&;4ii41+o",
"@4euu3&+O+++$+$$@@@@@%@@%%%%%@%@@%@@@@@+@@@@@@@%@@@@@@@@@#@@@@@@@@@@@@+@@@+######++++&:0tu4*O",
"%8ur8;+++++$$$$+@%@@@%@%@@%%@%@%%@@@@@@@@@@@@@@o@@+@@+@@@+@@+@@@@+@@@@@@@@@@@@@@#+++++&3qit1+",
"*wu73%++$+$+$++$%%@%@@%@@%%%@@%@@%@%@@@@@@@@@@@@@@@@@@@@@@@@@@@@@@@@@@@+@@@@@@@@++###++;4it3+",
"*uu3%+++++$$$$&$@%%@@@@%%@@@%@%%@@%@@@@@@%@@@@@@@@@@@@@@@@@@@@@@@@@@@+@@@@@@@@@@#++#+++&3ii4*",
"&rr3$++O$$$$@$$$@@@@@%%@%@@@%@@@%@@@@@@@@%o@@@@@@+@@@@@@@@@@@@@@@@@@@@@@o@@@@@@@##+##+#&3ip4;",
"*ru-O$O$+$%@@@@@@%@@%@@@@@@@@@%@@@@@@@@@@@@@@@@@@@@@@@@@@@@@+@@+@@@+@@@@@@@@@@@@+###++&&1ti44",
"*uu;$O$$%$%%$@@@@@%@@%@@%@@%@@@@@@@@@@@@@@@@@@@@@@@+@++@@@@+@@@@@@@@@@@@@@@@o@@@+++#+#+&1wi44",
"&ru;O%$%%$@@%@$@@%@%%@%@%@@@%@@@%%@@@@@@@%@@@@@@@@@@@@@@@@@@+@@@@@@@@@@++@@@@@@@##++#+#&:wtw3",
"*ru3$+$%+$@@@@@@%@%@@%@%@@@%@@@%@@@@@@@@@@%@@@@@@@+@@@@@@@@@@@@@@@@@+@@@@@@@@@@@#+#++#&&:4t41",
"*uu,+$$+%@@@%@@%@%@%@%@%@@@@@@@@@%@%@@@@@@@@%%@@@@@@@@@@@@@@@@@@@@@@@@@@@@@@@@@@++@@+++#:9e6<",
"*ru,@%%%@%%@@%%@%@%@%@%@@%%@%@@@@@@@@@%@@@@@@oo%@@@@@@@@@@@@@@@@@@@@@@@@@@@@@@@@#@@#####:906<",
"*ru,@%$+@@@%%%@@@@@%%%@@@@@@@@@@@@@@@@@%%@@@ooo%@@@@@@@@@@@@o@@@@@@@@@@@@@@@@@@@+##+#+##:9e6>",
"*uu;@@@@@@%@@%%%@%@@@@@@@@%@@@@%@%@%@@%@@@%@%@@%@@@oo@@@@@@o@@@@@@@@@@o@@@@@@@@@#+#+##+#:9e9>",
"-ry,@@%@@@@%@@@%%@%@%@@%%@@%@@@@@%@@@@@@%@%<55595<<%@@@@@@@@@@@@@@@@@@@@@@@@@@@@@@@@####:9e6<",
"%ry,@@@@%@@@@@%%%%@@@@@@@@@@@%@@@@%@@%%@@@<yfllljse<@@@@@@@@@@@@@@@o@@@@@oo@@@@@@@@@+#+#:9e6<",
"-yu,@@@@@@@%%@%@@@@%%@@%@@@@@@@@@@@@@@%%%%<hcnMVnls<@@@@@@@@@@@@@@@@@@@@@@@@@@@o@@@####+=0e6<",
"%ru<@@%@%@%@@@%%%@%@%@@@%@@%@@%@@%@@@@%%%%5lnVCCVxf<@@@@@o@@@o@@@@@@@o@@@@@@@@@@@@@@+###:0e9<",
"-ry<@%@%@@@%@%%@@%@%%@@@%@%@%@@@@%@%@%@@@@5lMCSFCbf5@@@@@@@o%@@@@@@@@@o@@@@@@+@@@++#####=906<",
"-yy<@@%@@@%@%@@@%@%@%@@@@@@@@@@@%@@@@@@@@%5lMSFSVcf<@@@@@@@@@@@@@@@@@@@@@@@@@@@@@##+#+#+<9e9<",
"-ry<@@@%@%@%@@%%%@@%@@%@@@@@%@@@%@@@@%%@%%9lVSSFVcf<@@@@@@@@@@@@o@@@@@@@@@@+@@@@+@+#+###<9e6<",
"%yy<@@@@@@%@%@@@%@%@%@@@@@%%@%@@@@@%@@@@%%6lMSSSVcs<@@@@@@@@@o@@@@@@@@@@@@@@@+@@#@####+#<0e6<",
"-yy<%%@@@@@@@%%@@%@%@@%%@@@@@@@@@%@@@@@@@@5lMSFSVcf5@@@@@@@@@@@@@@@@@@@@@@@@@@+@+##++#+#<906<",
"%yy<@+%@%@@@%@@@%@%@@@@%@@@@@@@@@%@%%@@%%@5lVSFSVcf<@@@@@@@@@@@@@@@@@@@+@++@@@@@#+######=909<",
"-ry<@@@@@@@%@@%@@%@%%@@@@@@@%@@@@@@@@@@@%%9lMSFSCcf5@@@@@@@@@@@@@@@@@@@@@@@@@@##+++#####<906<",
"-yy<@@@%%@@@@%@@@@@@@@%@@@%@@@@@@@@@%@@%%%6lMSSSVcf<%o@@@@@@@@@@o@@@@@@@@@@@@@@+####+#+#<0e9<",
"=ty>+####@@@@@@@@@@#@##+###@@@@#@@@@%@@%@%5lMSSSVcf5@@@@@@@@@@o%@@@@@@@@@@@@@@@@@o@@%@@%%0e6<",
"=ty>##++@@##@@@#@@@@#@##+#+@@@#+@@@%@@@@@%6lVCFFVcf2@@@@@@@@@@@@@@@@@@@@@@@@@@@@@%@@@@@@<9e6<",
"=tt>#+##@#@@@@@@@@#@@@####@##@@#@%%@%@@@%%9lVCFSVcf2@@@@@@@@@@@@@@@@@%@@@@@@@@@@@@@@@%@%<9e6<",
"#tt:###+#@#@#@@@@###+#+##@@#@@@#@@@@@@@%%%6lMSFSVcf5@@@@o@@@@@@@@@@@@o@@@@@@@@@@@@@@@@@@<9e6<",
"=tt>#+##@@#@#@@@@@#@+###++###@@#@@@@@%@@@@5lMSSSVcf<%%@@%o@@@@@@@@@@@@@@@@@@@@@@@@@@@@@%%0e6<",
"=tt>+####@@#@##@#@@##@+###+#@#@+@@@%@@%@@%6lVSFFVcf5%%@@@@@@@@@@@@@@@@@@@@%o@@@@@@@@@%%%<9e9<",
"=tt1+####+@#@@#@@@@##@##@#####@@@@@@@@@@%@9lVSFFCcf2%@@@@@@@@@@@@@%o@@@@@@@@@@@@@@@@@@@%<9e6<",
"=tt1#+#+###+#@@###@@#+#+##+#@#@@@@@@@%@@%%9lVCSFVcf5%@@@@@@@@@@@@@@@@@@@@@@@@@@@@@@@%@@%<9e6<",
"=tt1##+##@@#@@@@@@@+####@@@@#@@@@@@@@@@@@@5lVSFFCcf5@@@@@@@@@@@@@@o@@@@@@@@@@@@@@@@@@@%@%909<",
"=tt1##+#@##@@##@@@@@#+#+@@@##@@@%@@@o@@@@@6lMSFSVcf<@@@@@@@@@@@@@@%@@@@@@@@@@@@@@@@@@%@%<9e6<",
"#tt1+####@@#@@@@@@@@+#+++@@##@@#@@@@@@@@@@6lVSFFVcf<@@@@@@@@@@@@@@@@@@@@@@%@@@@@@@@@@@@%<9e6<",
"=ti1##+#@@@@@@@#@#@@#@++++@@@@@#%@@@@@@@@%9lMSFSCcs<@@@@@@@@o@@@@@@@@@@@@@o@@@@@@@@@@@%@<0e6<",
"=tt1##+#@@##@@#@@@@@+@#=26666>>=%%@@@@@@@@6lVSFFVcf5@@@@@@@@%@@@@@@@@@o@@@@@@@@@@o@@@%@%%0e6<",
"=tt1+#+#@@@@#@@@@@@@+#>phklljfe>@@@@@@@@@@9lVSFSCcf<@@@@@@@@@@@@@@@@@@%@@@@@@@@@@@@@@@@%<0e9<",
"=tt3#+##@@#@@@@@@@@+o#6gvmBBncf5@@@@@@@@@@6lVSFFCcf5@@@@@@@@@@@@@@@@@@@@@@@@@@@@@@@@@@%@<0e6<",
"=tt1+##+#@@#@@#@@@@++#6jnCSZVml0%%@@@@@@@@6lVSFFVcf5%o@@@@@@@@@@@@@@@@@@@@@@@@@@@@@%@%@%%0e6<",
"#tt1@#@#@@@#@@@@%@@@@@6hnCFDACvy<%%@%%%%%<yxVSFFVxs<@@@o%@@@@@@@@@@@@o@@@@@@@o%@@@@@@@@@:0e6>",
"=ti1@@#@@#@@@@#@@@@@@@5dxVFSAAmg0%@@@%%%<ehnCFFFVly<@@@@@@@@@@@@@@@@@%@@@@@@@@@@@@@@@@%#:0e6>",
"=tt1@@#@@@@##@@@%@@@@%>ylVFSSDVzf9<<%%<<ehcVSFFFMf9%@@@@@@@@@@@@@@@@@@@@@@@@@@@@@@@@@@@%:0e6>",
"#ti1@#+@@@@##@@#@@%@#@>0hMDDDFSNxhpe9<<ehbVCFSSSby<%@@@@@@@@@@@@@@@@@@@@@@@@@@@@@@@%@@%@:9e0>",
"=ty>##@#@%@@@@@@@@%=%#=5pvCAFFFAVcljfpsjcVFFSSVMl9@@@@@@@@@@@@o%@@@@@@@@@@@@@@@@@@@@@@%%=006>",
"=ty>###@@@%%@@@@%@%%%@@=0jnCFFDSCVMMnnnMVSSSSCMxs<@%@@@@@@@@@@@@@@@@o@@@@@@@@@@@@@@@%@@@:0e6>",
"=ti:#+#@@%%@@@##%@@%%#@#>pkmAADDSSSSSSSFSSSCCMxf0%%%@@@@@@@@@@@@@@@@%@@@@%@@@@@@@@@@@@@@=0e6>",
"#ti:+##@@%@@@@@#@%#%%@@@=>ylMCSSSSSSSSSFFSSSVcf9<%%%@@@@@@@@@@@@@@@@@@@@@o@@@@@@@@@@@@#@>0e9>",
"%ey<@@@%@@@%@%%@%@%@@@@@@#>skcnBVCCCCCCSSVMnxf0<@%@@o@@@@@@@@@@@@@@@@@@@o@@@@@@@@@@@@@@@=0e6>",
"<yy<@@%@@@%@@@%%@%@@@%@@@@=>0phzbnMMMMMMnclfy5%%@o@@%@@@@@@@@@@@@o@@@@@o@@@@@@@@@@@@@@@%=0e6>",
"%yy<@@@%%@@%%@%%%@@@@@%@@@@#=>0phjljjllljfy5%%%@@@@@@@@@@@@%@@@@@@@@@@@@@@@@@@@@@@@@%@%@:0t6>",
"%ye<@@%@@@%%%%@%%@@@@@@@#@@@%=>>2666556995<%%%%%@@@@@@@@@@@o@@@@@@@@@@@@@@@@@@@@@@@@@@@%:0e6>",
"%yy<@%%%%@@@@%@%##@@@#@@@@@@@@@@@@%@%@@%%%%@o@@%%@@@@@@@@@@@@@@@@@@@@@@@@@@o@@@@@@@@@%@%:006>",
"<ey<@%@@@%@%@@%@#@@@@@#@@@@@@@@@%%%%%@@@%%%@%@@%%@@@@@@@@@@@@@@@@@@@@@@@@@@@@@@@@@@@@@@@=0e6>",
"%yy<@@%@@%%@@%%%@@@@@@@@@@@@@@@@%%@%%oo@@@@@@%%%@@@@@@@@@@@@@@@@@@@@@@@@@@@@@@@@@@@%@@%@:0e6>",
"%ey<@@@%@@@@%%%%@@@@@#@@@@@@o@@@@@@@@@@%@@@@@@@@@@@@@@@@@@@%o@@@@@o@@@@@@@@@@@@@@@@@@%@@:0e6>",
"<yy<%%%%#@@@####@@@#@#@@@@+#+#o+o@@@@oo%%@@o@@o@@@@@@@@@%@@@@@@@@@@o%@@@@@@@@@@@@@@@@@%@<9e6<",
"%yy<%%@%@@@@#@@@@#@@#@@@@@##++@+o@@o@@@@@@@@@o@@@@@@@@@@o@@@@@@@@@@@@@@@@@@@@@@@@@@@@@@@>9e6<",
"%yy<@%%@#@@#@@@@@@#@@@@##@@+@@@@@@o@@@o@@@@@@@@@@@@@@@@@@@@@@@@@@@@@@@@@@@@@@@@@@@@@@@%@=906<",
"%yy<@@@@+#@@@@@@@@@#@#@@@@@@@@+@@@@@@@@@@@o@@@@@@@@@@@@@@@@@@@@@@@@@@@@@@@@@o%@@@%o@@@@%>9e6>",
"%yy<@@@@#@@#@#@@#@#@@@#@@#@#++@@@@@@o@@o@@@@@@@@@@@@@@@@@@@@@@@%@@@%@@@@@@@@@@@@@@@@@@@@:0e6>",
"%ey<@@@@@##@@@#@@@@@@@@###++@@@+@oo@@@@@@@@@@@@@@@@@@@@@@@@@@@@o@@@o@@@@@@@@@@@@@@@@@@%@:0e6>",
"<ey<@@@@@@@@#@@##@@@@@@@+#@@@@@@@@@@@@@@@@ @@%@@@@@@@@@@@@@@@@@@@@@@@@@@@@@%@@@@@@@@@@@%=0e6>",
"%ye<@%%@@@@@#@@@@@#@@##@#+#+@@+@@o@@o@@@@@@@@o@@@@@%o@@@@@@@@@@@@@@@@@@@@@@o@@@%@@@@@@@@:9e9>",
"=yy<@#@@#@@#@@@@##@###@##@+#++@+@+@+@@@@@+@@@@@@@@@@%@@@@@@@@@@@@@@@@@@o%@@@@@@o+##+####:9e6>",
"%yy<@@@@@@@@#@@##+###+##+##@##@#+@@@@@@o@@+@@+@@@@@@o@@@@@@@@@@@@@@@@@@@@@@@@@@@#+###+##:9e6>",
"%yy<#@@@#@@@####+##++##+#+##+@+#@@@@@@@@@@@@@@@+@@@@@@@@@@@@@@@@@@@@@@@@@@@@@@@@+#+#+#+#:9e6>",
"%yy<@@@#@@@#+@@#@###+######+##+#@@@+@@@@@@@@@@@@@@@@@@@@@@@@@@@@@@@@@@@@@@@@@@@%+###+###:9e6>",
"=yy>@@@@@##+###+##@#+##++##+#+##@@@@@@@@@@@@@@@@@@@@@@@@@@@o%@@@@@@@@@@@@@@@@@@o#+####+#=0e0>",
"%yy>@@@@#@#+#+##+##+##@#####+##+@+@@@@@@@@@@+@@@@@@@@@@@@@@@@@@@@@@@@@@@@@@@@@@@+##+#+##:0e41",
"=yy>@@@@@+##++#+#+#++#+##@@++#@+@@%++@@@@++@@@@@o@@@@@@@@@@@@@@@@@@%@@@@@@@@o@@@+##+###+=0e61",
"=ey<@@@@@##@############+##@#+##@@@@@@@@@@@@@@@@%@@@@@@@@@@@@@@@@@@o@@@@@@@@%@@@#+###+##:0t61",
"=tt1+########+#+###+##+@#+#+##+#@@@@@@@@@@@@@@@@@@@@@@@@@@@@@@@@@@@@@@@@@@@+@@+@##+#+##+=0e6>",
"=tt1#+#+++#+####+####+####@##+@#@##@@@@@@@@@@@@@@@@@@@@##@@@@@@@@@@@@#+@@@@@+@#@+#+#####:6e6>",
"=ti1+#+######+#+#@@####+##@##+#+@@@@@@@@%@@%@%@@%@@@@@@@@@@@@@@@@@@@+#+#@@@@@@+#+####+##:006>",
"&tt1+######+###++##+#+##+##+####$@@@@@@@@@@@@@%@@@@@@##@@@#@@@@@@@@@@@##+@@@@@#+#+#+##+#:0e6>",
"=tt1##+#++#########+###@#@+#@##@@@@@@@@@@@@@%@%@%@@%@@@@@@#@@#@@@@@@+##+##@@#+###+###++#:0e6>",
"=tt1+######++#+#+###+##++####++#@@@$@%@@@%@@@@@@@@@@@@@@@@@@@#@@@@@@@#+#@+#++#+#+#+#####:0e6>",
"=tt1+##+#+#+&#&+#+#+##+###+#+###$$@@@%@@@%@%@@@@%@@@@@@@#@@##@@@@@#@#+#++##+#++##+######=0e6>",
"=ti1#+######+&&&#@###@###@#####+@%@%@@%@@@@@%@%@@@@%@#@@@@@@@@@@#@@@#+@@##+#+##++##++#+#:0t61",
"=tt3&&&&#+##+&&+########+###+#+#%@@@$@@@@%%%%@@@@@@@@%@@@@@@#@@@@#@@@@@+@@+#@+######+###>et4=",
";wt4;=#&#++++#&+++#++#+++##+#@+#O$$@@$@+$+$+@@@@@%@@@@@@@@@@+@@@@@@@+@@@#+#++#+#++++#+#;4pi3#",
"&8w84;&&#+++&+&&#@#@##+##@+##+##$@+%@$@$@$@%@@%@%@@@@@@@@@+##@@@@@@@@@@++@@@#++++#+#+#;30pt=o",
"&1wit3=#+#&#&&&+@#+#############%$%%%$$$$$%%@%%%%%@%%@%%@######@#@#@@@#@@@@@#@##+#&++&1wit6# ",
"+#4tiw3;#########@#@########@+##%@@%$$%%$$@$%@@@@@@@@@@@############@@@+@@@#+#######:38ii4:+ ",
"++=4tii03&+#+++#+@@++#+#+#+#+##+@+@O+$+OO$$O@@@@@@@@@@@@+#+#+#++@++#+@+@+@++++++++&14upt0=#X ",
"X +=7tit63:::>>>>:::>>>>=:>>:>=:,:,<3;,,,,,,<<<>>:>>>>:>::::::::=:>>:>=:>>>:>:::::34tai81#XXX",
"X +#&48wippiiiyiiiiiyiyiyiyypyiyuuuuuuuuuuuuyyypyypyyyyyyiiuuiiiiyiyiyyyyyyyuuyuuipait4=++oXX",
"oX  +#16wiiititittitttttittittttittittuttittittittttitttituttittytyttytttytttttytytt03=o +XXX",
"X  XX++##=======;=;=;;=;======;=====;===;=;;;;;;*;;;;;;;;*===*======================##++XXoXX"
};
