/* XPM */
static char *result[] = {
/* columns rows colors chars-per-pixel */
"94 98 90 1 ",
"  c #121516",
". c #141618",
"X c #16191B",
"o c #1A1D1D",
"O c #1E211E",
"+ c #1C1F20",
"@ c #1F2121",
"# c #242524",
"$ c #282727",
"% c #262827",
"& c #282827",
"* c #262628",
"= c #282629",
"- c #262929",
"; c #2B2C2C",
": c #2D302F",
"> c #2C2E31",
", c #2E3131",
"< c #333535",
"1 c #383737",
"2 c #363837",
"3 c #363739",
"4 c #383639",
"5 c #363839",
"6 c #3A3B3B",
"7 c #403E3F",
"8 c #3D403F",
"9 c #3D3F40",
"0 c #403F40",
"q c #3E4141",
"w c #424443",
"e c #454847",
"r c #464749",
"t c #484749",
"y c #464849",
"u c #4C4D4D",
"i c #504E4F",
"p c #4E504F",
"a c #4D4F50",
"s c #504F51",
"d c #4E5051",
"f c #535555",
"g c #555857",
"h c #555658",
"j c #575A59",
"k c #5A5C5D",
"l c #5D605F",
"z c #5D5F60",
"x c #5E6161",
"c c #626464",
"v c #646867",
"b c #676969",
"n c #6B6C6C",
"m c #6E706F",
"M c #6F7170",
"N c #737474",
"B c #777979",
"V c #7C7C7C",
"C c #807F7F",
"Z c #7F8180",
"A c #838383",
"S c #878988",
"D c #8C8D8C",
"F c #8E908F",
"G c #939494",
"H c #979999",
"J c #9B9C9C",
"K c #9FA0A0",
"L c #A3A3A3",
"P c #A6A8A7",
"I c #A8A7A8",
"U c #ACADAC",
"Y c #B0AEAF",
"T c #AEB0AF",
"R c #AFB1B0",
"E c #B3B3B3",
"W c #B6B8B7",
"Q c #B9B7B8",
"! c #B7B9B9",
"~ c #BCBCBC",
"^ c #C0BEBF",
"/ c #C1BFC0",
"( c #BFC1C0",
") c #C3C4C4",
"_ c #C6C8C7",
"` c #C7C9C8",
"' c #CDCCCC",
"] c #D0CFCF",
"[ c #CED0CF",
"{ c #D2D1D1",
/* pixels */
".. .X XO@--:::>-&:::::::&::&::&&::::&:::::%:::::%:::::&&::::&:::::::&::::::::::::%--@OXXXX XXX",
".  .XXO,qqdjjjjjlgggggggkgkkgglgggggkgggggggggggggggggglggggkggggggggggggggglljjgppq5@XXX  XXX",
"...X@-8qggjxljxllllgllllkgllllllcllllllllllllllllglllllllllllllllllllllllglljlllljggq5,-+X XXX",
"OXXO,qjlldqq8888666171161177661117116161282282288828662266667666662266628828:88888eglldq,X XXX",
"XX@,qxvlp88:@---&&&&&&&&&&&&&&&&&%%%&&&&%%%%%%%%%%%%%%%&&&&&&&&&%%%%%%%%O%%%OOO%,,5ejvlgq@XXXX",
"X @yxxd88-%---%%&&&&O&O&#&&###O&&%O&&###%%%%%%%%%O%%O%%%&&O&O&O&%O%%%%%%%%%O%O%O@-,55qdxlq-+XX",
"X@<jxdq-XO%O%%@%O&&O&OO&#&##O&O&O%O&#&O#%OO%O%%OOO%O%%%OO&######%%%OO%%O%%%%%O%O@@-@-,qlxdq@XX",
"@5yxg8-@OOOOOO%O&O&&O&&OOOO#&O&OOO##OO&OO%OO%O%OO%O%OOO%&OO#O#O#O%O%OOO%OOO%O%O%@@@@@-5qgxq-XX",
"%egge:%OOOOO%%O%&&O&O&O&O&O&O##O&OO&O%O%O%O%%OOO&O&O#O#OO&&O&&O#%OO%O%%OO%OO@%@%-@OOO-:,evj,+X",
":gle2%OOOOO%%O%OO&&O&O&O&O&O####O&&O&O&O%O%OO%%%O&O#&#&#&OO&&O##OO%OO%O%%O-%%@%%-@@OOO-:evv2@+",
":jl8%OOOOO%O%%O%&O&OOO&&O&O&##O&&O&OO&&OO%O%%OO%&OO&####O&&O####O%%O%%OOO%%O@%O%-@-@O---8ll8-@",
":ll8OOOOOOO%OO%OO&O&&&&O&O&O##&OO&O&%O%&%%O%O%%%O&######&OO&#&O&%%O%OO%%%OO%@%%%@-@--O-@2gjq,-",
":jl8OOOOOOO%%O%O&&O&#&O&&&O&O###&OO&O&&OO%%O%O%O&O&&###&##&####&%O%%%O%OO%O%@%@@-@@-O-@-,pgq8@",
":gl:OO%O%%%OO%O%O&&O#O&&O&&O####&&&&&OO&%OO%%%O%O&&O##########&OO%%OO%O%%OO%%@%%@--@@@-@,plq8-",
":ll:O%%OO%O%O%%O&O##&O&OO&&O####O&&OO&O&OO%%O%O%&O&O########&#O&%OO%%OO%O%%O@%#@--@@@@--,pgp5-",
":jj8O%O%%O%O%%O%O&O##&O&&&O&####&OO&&O&O%%%O%O%OO&O&#######&O###O%%O%%%O%O%%-@##@@@@@---2pgq,@",
":gl,@@@-O%OO%##O%#%###########O########%O##%O###&&O&#&##&O##&&&O####O%#O%O%%####@-*@+@**9szs4=",
":jl8---@#%%%%O%@O#@OO#%%#####O#OO#%%O%O@%%O@##%;&OOOO##OO&#&#########%%O#%%O%###-@*@****9sh04+",
":jl,@-@-%@@##%##%%#%%%%%%##$##O##%%@%#O%%O@%##%#&#OOO#O&#&##&##&@%%%#O%%%%%%$#%#@-*@@***>0h04=",
":ll8@@-@O%%%#@@%%O%-;%%%%%#OO&&&%##%@#%%@%%@#%###&O&OOOO&O#&&&##%##@#%%##O#%####@=@*****9hh04+",
">zj9--@-##@@O%#%###;;%%%,wtwwte6:%%###@@%@%%,8eewtew6&O&###&&&##@%%%###%%@#%###%-*******9hh04+",
">jz>@--@%@%#%%@@####%%%%wNDSSSVkw:##%O%###%;eMSSDFFDm7O%##O#&O&#%#@%%%##%%#%####***@*=**>0z00+",
">zz9-+@-%#@#@%%##@#OO#%%uGQEEELNp<O%%#@###:ebHRREQEKB7&&#OO#####%#%@%%##@####%####***+=+9sz09+",
">jz9+--@@#%%@#@####OOO#:gK))))UVg<OO@#%%@#8NHW((/)YCg1&&&&##&#&#%@%%####%%%#%###******=+9hz04=",
">jz9**++--@@@%###-@OOO#=hI''''WAg:O#%#O#:2xH~)_`(EGx8:%@&&%#%%#######&#####$###$###*****>0z00=",
">zj9+*---+@-#%@%#@##@@@$iL']{'ECf<#%%###2vFT(_[`WSl8:-%%&&%%##O%######&#$#$######**$*##*9hh00=",
">zz9+**+@--@#@%@%@###@@#uL]]''EZf<#%#O#8lFT(`[_!Hc8;-%%%O&&&%%&%#$#$#######=######*#****40z00+",
">hz>**+*@@-@%@########@#iL']]'EVf<####2mHE(_[[~Hme:%%%%%&&O%#O%#$###&#&##$###$###*#$##**9shs4=",
">hz9++**-@;@-@@%@%####O#iL'{['ECf<#O;6lGW`[[`(PMp:%#%%OO#%%##%%#$###############=#==****<sh09*",
">zz>****@-@@@-%@@#@##O##pL'{['EZf<##8nGW_[[[(LBp:%##%O%%####%O%###$##=#=#$####=#+##**#**4sh0>*",
">hz9++++@@;;-@--%%######iL'{{'EVf<;6lG~`[[`(PZg,O@#%%%%%%O#%##O%#$##$#####$#=#$###*##=#*>sz09+",
">zz9****;@@@@--@#@###@O#pL'{''ECf<6vFR_[[[!KBf2;#%#%%O%O%%#####%###$###=######=##=#*#***9sh04*",
":kk<####$Oo$O$$O#$##$#o$iL]]]]YCktkDY)]]`(PBf2---%%#@%%#%##%###%$$$$$O$$OO$$o$$$#####$$o>aht9+",
":kk<#####$$$$$O$#$o$#o$+iL]]]]YCbVGE)']]_RFl2%%%%##@%%@%%##%#%##$OO$$$$O$$$#$#$#o$$$$$$$9ah09*",
":kk7O#####$o$oo$##o$#o$$0I/]]/QCCJE)']][~KN8%##%%##%%@%@@@%#####$$$$O$o$$oO$##$$$$$$====>azy9*",
";kh7##O#O#$O$$$$o###$#o#iI]]]]^JJQ/`'{{[EZl<OO#-----%#%%%%%#####$$o$$$$$$$#$$##$$$o$=o==9ahy>+",
";kz7####$##O$o$$$o$$=O##iL/{]]/^Q)'`'[{[WSl<O##%-%%%%%######%#$#o$$$$$$$$####$$o#==#==$$>ahy9*",
":kk<#######$$O$o$$o##++$iI]{]]]//`'[''''(TZ8@@O%%-%%%#%%%#%%####$$$o$O$O$#$########=o=#=9dhq9@",
";kk7O##O####$$o$$o$$=O##iL]{{]]]`''))))'`(Jj<-O%%%##@@%@######$#$$$O$O$$#$o$#$$###=##===>ajq>+",
";hk<######$Oo$$$$$O$=o##iI{{{]]]`')EE(_)'`RZl<#O@@@#%%#%%##$#$##o$$$$$O$##$$$o$$#=###=+=9dhq9*",
";kk1###O$O$$O$$O#o##o$##iL]]]{]]`~IDFY/`''^LB8-%@@@@@*%#%#%#####O$$O$$$$#$o$$$o$#=#=#***>ih0>*",
":kk1####O$$OO$$o$$##$o##iL]]]{]]^JBfkH^)''`(Jl:%#%%*%%@%#####*$#$$$$O$$O$$$#$$$$##=#****4izt9*",
";kl<O####O$O$$$$$o$#$oo$iL]]]]]^LCf:7CP^''[[RBe%@%-%@%#@########O$O$$O$$#$$#$o$$=++=#*==<ah0<+",
":kl7######$$$oO$O$$$$$o$iL]]]]^KCi7$<gCY_[[[~Jm8@%-%@#%@@%##$#$#$$$$$$$$$o#$$$$$$=#=#=#+<azt9*",
":jl2###O$O$O$o$o$$$$o$o$iL]]]/^Cc7$$;7cJ('[[(WFp,;%#%########$##$$$$$$o$$$####$o$##=+===<ah99+",
";jl2####O$##$$$$oo$o$$o#iL]/]^^Cf7$$$1iCP([`_(Pmu<%#@#@%########O$$O$$$$$$###$#$##=#===#9dzr9*",
";jl2####O$$$o$o$$$#$$#$$iL{/]/^Ci7$$;;7bFW'_`'WGbq%%############O$$OO$$$$#$#$$$$###=+===>ahr<+",
";ll2O###$$o$o$$$$o####o#iI]]]]ICi7$$$$1tmP)'[[_ESe%*#@###@@#####$$O$$$$$o$#$$o$$=#=#===#<ahr9+",
":jl1%#O#O%%##########+o$iL]]]]YCi<$$##;<fFW)]{])Lc6:########+###O$$$$O$$$$##$$$$@*@*****3azy9*",
";jl1O#%#O%@%@%O####O##$oiL]/]/YCf7$####$wmH~]]]'!Fb6#OO##OO#####$$O$$$o$##$#$o$o**-**@**<yhy<*",
";gl1%###%%@O@########$o#iL]]/]ICh7$##O##<iVU`']]_YSu;$###@OO+###o$o$oO$$$$o$#$$$@-*@@*@*>ah99+",
":ll1O###%O%%%%@%#####+$#iL]]]^^Ci1#####@$:gH^']]`~Jk6;$$#OO######$$$$$$o#o#$##$$@=**-@**<az09+",
";ll1O##O@#%%##@%######O#iL]/{]ICh<$$$$$OOO7CI^]]'_UBf1$$$$oo####$o$oo##$######$o**@-@***<ahq<+",
":gl1####%%OO@%@######O##iK]]]]^Ch7$$$$#O##1gCY_]'`QKB7$$$$$##+##O$$$$##+#####$##******@*<azy9*",
";jl1#####@%#@#%#+#######iL/]/]^Cf1$$$$###$:7cH^']`)QGh<;$$$#+#+#o$o$$#$$#$$$#####**@*@**9ahq<+",
";jl1#####%@#%%@#####$o##iL{]{]YCf7$$$$$$#$$;tCL^'''`UNi1$#########$$o#+$#o###$#$#*****++>yzy9+",
";jl2%O@#@%%%O%#@#######$tDY^^YJNi1$$$$$###$#7zALYI^^LC07$#$##o$o######o$#########**#@**@>azr9+",
":gl2@%%%@#@#%@#%###O###$7lCCCCnh7:$$#$$####$:7fMCCCCCc07##o###$$#+##+#$$####*#$####**@*-<adr9+",
";gl2%##@%%#%##@%#O#+##$$:7ihfi071:$########$$:7tiiihi77$#$o$$$##+=##$#++#######$##*#-@@-<azt<*",
">kl2%@#%#@#@@%O#######$$$7=7<7<=&$$$#####$$$===7<7$7$7$##o$+#o########$$###*#####*#***@*<ast9+",
">jz5%#@@@##%%%%O#O#####$$$$#$#$$$$$####@###$=$$$$O$O#########$$##############$#$-@**@-**<iht7=",
";jk5@#%#%%@@#@@%#####$+$O$$O###$$###@######$$$$#O$#####$$$$$$o$o#######=########*=@--@=@<ih07+",
";kz5@%O%#@%#%@%######+O+OOO##$######O##O###$$$$$####+$$$$$$$$$$$####+##+####*#*****@*@**>ih0==",
">jk5##%O%%@###%@#$######Ooo#$$#####+#######$$$O##$###$+$$$$##$$o###############**@-@**-@4ih07#",
">jk5@%@%###############++Oo#=$$#$o$$O$$o$$$$#o#o$$$#oo$$$$$$$o###o$o$$$$#o$$o$#$#$##=#*#>iht9+",
">kz5*@@*###############+###$$$##$o$oo$$o$oO$$#$#$$$#$$##$oo$$$$$$$$o$o$o#$$$$$#$###$+=#*<iht9+",
">kz5@*%@####@######*#$######$####$$o$$$$O$$$$$$$$$##$oo$#####$$o$$o$$$$oo$o#o$$$$#$o+=+=<uht9*",
",kz5--@%@#####@########$#########$$$$oO$$O$$#$#$####$##$$$o$#o##o$$$$o$$#$$$$$o$#$$$=+==<uh0>*",
">jz3@-*@##@#########$#=+#####$#####$$o$o$o$#$#$o#$o$#$$$$##$##+#o$$$oo$$##o$$#$####=+=#=<azy9*",
">zz3-@@*##############=$#$#$##$#$#$o$$$#$$$o####$$$$#o$o$o#oo==#$$oO$$o$#$$$o####$#=####<yhy>*",
">jz3@--*##+######+##$#$#$=######$#$$O$$#oO$$$$$#O$$O$$$O$#$==o##$$$$$o$$o$o#$$$######=+#<ahq9*",
">jz9-@-@################+=#$##$#$$o$o$$o$$$#o$#$#$$$oo$$$o$o$==+$oo$$$$o#$$$#$###$####==>ahr<+",
">jx9*+--@-@@@###$o##$+##$######$#$#$o$##$o$$$O$O$$$#o$$##o$$####$o$$##o$o$#$####**-@*@@*9yh99+",
">zz<-+*@-@*-####$###$$#$####$###$$###$#$$$$o$$$$o$$#$####$#$##=##$$O##$$$$$o$##$@***@*-@>azy9+",
">zz9--+*+-+-@#####$$#$$$$#$=#$#$o$#$$#$$O$$$O$O$####$$###$#$#=#$o$$$$$#$$$$$###$*@@*-***9ahy9*",
">jz,+*-*--+-####o#+$$++$########$#####o$$$$O$$$$$#$#$o$###$#=##$$###$o$$$o$#$###*-**-@@*>ah99@",
">jz5+-*+@@-@--##$#o$$#$#$#$$###$$###$o$O$$$OO$$$o$##$o$$#$$====$$$$###o$##$o$$##@@=*@***<azy>+",
">zz5+--+@-@--@##$##$$+##+##$$###$$$#$$$$o$$$$$$O$$$$$$$$$oo$$o=o#####$$$#$#$#$$#-*-@****9yhy9+",
">zz5---*--@@*###$o#$#$$$$$$+$##$$o$O$OO$O$$$O$$$##$$$$#o$$$$==o=$#$###$$##$$####@*******>ah99*",
">jz5*++-@@-@@*##$#####$+$####$$+##$$$$$$$$$o$$O$$#o$###$$o$$====###$$#o$$#o$$#$#****@***<azq<*",
":kl1$O$OO#&######$$$#########&##&&O#&#######$O$O$$$$o$=o===+====$$$$O$O$##$$##$#*#*#**#*<djt<#",
":kl1####&&OO###O#o#########&####O&&######$#$$$$$$$o=====++==+=++O$o$$$$$###O#$+$###*#$*#<dfe3#",
"&lk1####O&&&O&&&#######O###OO###O&O&########$O$$o$$o=$o======+==$$o$$$O$######$+####$$##<agt3*",
":kk1####&OO&&OOO###O######O&&&O#&O&O########$OO$o$$==o===++====+$$$$$o$O##$###$+######$$<agt3+",
":gk7##O#O&O&&O&&O$O$O$##O&O&OO&O#O&###$O####$O$O$o$$o======++===$$$$$$o$#o$$#######***#$<afr3*",
"7ig7#&$#&O&OO&&O$O##$O##&O&&&&O&O###O######$$$$O$$o$===o=+====+=o$$oo$$$###########*##$#<ajr<@",
";kk7&OO&O&&O#O%O#O$#O$O#&O&O&O&O##O$$OO##O$#O$$$$$$$+=+=+=+==+==$$$$o$$##$#O#######*$$$$<sht3*",
":gf7&O&O&&O&%O%###O$$O$#O&O&O&O&$O$$O$######$OO$$o$$======+===++o$$o$$O##O$$####@#*#$$$$<fjw3+",
":kk7:$$#########O&&OO%&O&O&O&O&O#O######$oo$$===o$=$$o==+=======$$$#$#$############***==6hk0>@",
":fcf0<##OOO#####&O%#&O%%O&&OO&&&#####O##$$$=o=oo$$o$$$$$===+====$$$$#$#$#####$####*##*=<tcz1+X",
":tkks7$#OOO###%#&%O%%%%O&O&&##&&#$######o$$o====$$$$$$==+====+==$$$$$$$$$##$$$##**#***,0sck;..",
"$7ibc0<$#%%%%%%%%%%%%#%%&&&O&#O&#$$#$$$$$$$$====$$$$============$$$$$$$$$$$$$#$$**##*$4szkt*..",
"+>9zcs04:%%%%%#%%%%%%%O%&&##########$$#$$$$$==+=============**======$$$$$$$$$#$$**$$>4uzkt1O..",
"+@>9sccf8:%#####O##OOO&OOO#O&OO&O.##o$o$o$$o===+o===o=$o+===+***o===$o$$$$O$######;1tkzht;Oo..",
"XX+;9kczp822228:228:8::28:22222277777=1111114444114444119449999>111144117:<7<111116tsckt<+....",
"+X++-6ajlllljljljlljlglllgglkglghhikkkkkhkkikkhkhhkkkkkhhzhzhhkzkhiiCkkikkkkkkklkkzzks0=+X....",
"X+XX+-<qgxxjjjjjjjjjjjjjjjjjjjjjjjjjjjjjjjjjjjkkjjjjzjhhzzhzzhzzhhhkkhkhhhkkhhhkkkhhi7=o .....",
"XXXXX@@>>>,>,,,,,,,,,,,,,,>,>>::,>>:>:,>>,,,>>>>;>>>>>>>=>>=>==>1=4====4===4=1===1===+o. ....."
};
