/* XPM */
static char *result[] = {
/* columns rows colors chars-per-pixel */
"93 98 86 1 ",
"  c #141617",
". c #141719",
"X c #16191A",
"o c #1A1C1D",
"O c #1F201D",
"+ c #21211F",
"@ c #1C1E20",
"# c #1E2122",
"$ c #242424",
"% c #262826",
"& c #292927",
"* c #252728",
"= c #27292A",
"- c #2B2C2D",
"; c #2F302E",
": c #30312E",
"> c #2D2F31",
", c #2F3132",
"< c #333435",
"1 c #383737",
"2 c #363837",
"3 c #383837",
"4 c #363738",
"5 c #383738",
"6 c #363839",
"7 c #3B3D3D",
"8 c #403F3F",
"9 c #3F413F",
"0 c #40413F",
"q c #3D3F41",
"w c #403F40",
"e c #3E4142",
"r c #434344",
"t c #484746",
"y c #494A47",
"u c #454749",
"i c #47494A",
"p c #4A4C4C",
"a c #4F504F",
"s c #4E4F51",
"d c #4F5152",
"f c #535555",
"g c #565856",
"h c #585957",
"j c #555758",
"k c #575859",
"l c #5A5C5C",
"z c #60625F",
"x c #5D5F60",
"c c #5F6162",
"v c #626364",
"b c #646769",
"n c #6C6C6C",
"m c #70706F",
"M c #737373",
"N c #777876",
"B c #777778",
"V c #7C7C7C",
"C c #807F7F",
"Z c #80817F",
"A c #838383",
"S c #888886",
"D c #8B8B8A",
"F c #949494",
"G c #999797",
"H c #979896",
"J c #9C9C9C",
"K c #9FA09E",
"L c #9F9FA0",
"P c #A4A4A4",
"I c #A8A6A7",
"U c #A9A7A8",
"Y c #ABABAA",
"T c #B0B0AE",
"R c #B3B3B3",
"E c #BCBCBB",
"W c #BFC1BE",
"Q c #C1C2BF",
"! c #C4C4C4",
"~ c #C7C8C6",
"^ c #C8C9C7",
"/ c #CDCDCC",
"( c #D0CECF",
") c #CFD0CD",
"_ c #D1CFD0",
"` c #D2D1D1",
/* pixels */
"oXXXo..X@$*==->=>--=========>==,>=>====>>>*>*>**>>**======>==>==********====>**>>**@@@@XXXXXX",
"ooXooX .*,7ruupssdppssppssppdepededeejeewssuswsswswsdeedesdeeddesususssusususwswswq>@XX@oooXX",
"ooXX@@*,7updfjkkkkkjjjjjjjjjjjjjxkkxkccxkkjljjjjjjxjxjjjxjjjjxjjjjjjjjjjjjjjjjjjjjsqq***@oXXX",
"oo X@,slcxkfsssssssppppppippppiiededeejesswwsswsissweseqededeedeusuuwsuuwsuusswwwdsjjjwq#XXXX",
"oXX#,ixbxxsipuwweee7q799qqqqqqqqqeqqeeeeww5w5wwwqqqqqqqqeeeeeeeq5q55w5w5qqqqqqq5qwwwkcjw>*@Xo",
"XX@,fcksw6<>,,>>=;-,=,=---->>=>>=>=>9===->>>>>->*q*q=@>>====,>==>*>>>->>>>*>>*>>->qqqwxcsw*XX",
" o,rlxsq>=**#***********#*#*#===#===#==#****$$**@*@@@*@*@=**@*****$$$$*$****@****@#*@qsxxs5$o",
" =pkfu<-=*#**$$*#**#****===**#*#=##==#==****$*-$********@*=@=**@****$$$**@*@**@***#@@@qwjlw>@",
"X,lci6=****$**#*****#%#=*#$***%$==****$$*******$$**$$$$$=*=#=#=#$$$$$$*$$*$*$**$**@@##*5sxfw*",
"*qxxq=*#*#*##*$*#**$*%******$$$%#=***$***$$$$*$$$*$$$$$$*##=#=#=$**$$*$$*$$$*$$*@***##$>wjcf*",
"<uxj6$*#******#*#==#*%*%**$**$%%$***$*$****$$**$*$$*$$$$##=##%%%*$$$**$*$*$$$**$*#*#***>wwbx>",
"ejxd<##$@*$$##**=#%*#%#%$$*$$$$$*$**$*$**$*$**$*%$*#$$$$*##=%#%#*$$$$$*$$$$*$$$$$*#*$***>wcx>",
"sxji,*###*$$*$#*%%*%%%%#$$%$%$%$$$$**$**$*$*$*$$$$$$$$$$$$$$%#%%$-*$$*$**$*$$$**$$#***$**5cx>",
"ikse,#****#*$$$*#%#%*#%%$%$%$%$%$**$*$$$*$$$*$*$*%$%$$%$$$%$#%#%$$$$$$*$$*$****$*$*****$*5xj>",
"sjsq;***$#*##$$#*#%#$%*$%$$%%$$&$$**$**&&&$$**$*$*$*$%$$$$$%*$%%&$&$$$*$$***-**$*****$***5xj>",
"pjsq;*****$$*$*$%#%%%#%%#%$$$$$$$$$$$$$$&$$$*$$$$$$$%$%$$%%$$$**$$$$$$$$****$$$**$****$*$5xj>",
"pjpq>***$#*$#%%#%##%%%%#%+%%$$$$&$$&$$$$$$$$$$$$$$$$&$&$$$$$&$$$$&$&$$&$$$$$$-******$$*$*5xj>",
"pjsq>****$$$#$%#%%%%%#%%%%%%+%&+$$$$&$&$&$&$$$&$$*$%&++&+&%$+&$&$$$$&$$$$&&&$$*******$**$5lj>",
"pjsq>****##%%%#$#O%#O%%++&%&%+%%$$$$$$&$$$$&$$$$&$%$&&+&&&$&&++&+&$$$$$&&$&&*$***$*$$*$**5xj*",
"pjpq>****#*$%#%$%%%%%%%%%&++%%%$$&$&$&$$$&&&&$++$$%$+&&&&+&+&$$%&$$&$&&+$$$&*$*-****$****5xj>",
"pjsq>***#$*$%#$$O%%%#%%;300007;&$&&$$&$&&&$&&&5&8888::&+&++%+%+%$+&$&+&$$&&$&&$$$$-******5lj*",
"pjpq>*****#$%$$$%%%%%+%9zNNNNv0;&++&$&&$$$&$&5CCMmmvy8:&&&&%&%$%&+&&&&$&&$$$$&*-$$$******5xj>",
"pjsq>****##%#%$#%%%%%O%9ZKKKKSzt:+&$&$$$$$$$&wCJJJGSv0:++%+&%&%+&&&&$$+&$$$$&$&$*-$$*****5lj>",
"pjsw>***%#$$%#**%#%%%%%aHQQQEYDv1+$&$&$&$&$$&tG!WEEPCa:&++&+$+%&+&$+&&&&&&&$$&-$$$$-*****5xj*",
"pxuq>*****$$$$$##%%%%%%aP)))~EYSt1&$&&+&$$$$+sU_((/TCh:+++&+&$+&$$$&$&&&&$$$-$-$$-**$$-**5xj>",
"pjsq>***$##$#$$$%%%%%%+aK^))/~!PCt:&&$&&$$&$+sU_(((TCf:++&+&+&&+$$$$$&+&$&&-*$*$$$*-$$***5jj>",
"ujpq>****#*$$$*##%O%%%+aK~~^~//ECC&&+&+&&$$$+sU_`_/TCa:+&+&++&+&$$$&&&+$&&&$$$$--$$$-$***5xj>",
"sjsq>****$$$$$$*%%#O+%%aP)^)~~/~US8+&$&&$$$$&sU_`_/TCh:$+&+&$+&+$$$$$&&&$$$$-$$-*$-$*$$$#5xj>",
"pjsq>**##*#*$$**#%#%O$%fP))^~~(^!Lh1&&$$$$$$&aP(`_(TCh1+$&$$$+&$$$&&$$$$&&$&$&$&$*$$***$*5xj>",
"pjpq>****#*#$$@$%#%#O$%fP))^!!^^!TSh1&&++$$$$aK/((/TCh1&++$++&&+$$$$$$$$$$&$$$&$**$*$**$*5xj*",
"pjpq>***##***@*$%#%%#$%gP))/~~^^(EICt:$+$$$&$aP////TCh1$&$$$&+$$$$$$$$$$$$$-$$$*$***$$$*#5xj>",
"pjpw>*#**@*$$***#%##$$%gP)))))_(((EGC8:&&:&&&aP/((/EAh8&$$$$$$$$$&&$$$$$$$$**$$$**$*$$$$*>xj>",
"pjp7;***#$#*#***$$$#+$&fP_____^/!(_RAh5$---&&fI((__RAl5$$$$$$$$$$$$$+&$$$&$$$$$$$$$$$$$$*4kj>",
"pjpq-=#**#*#*%###$$$+$&fP__`/^RRE(_EICw$&*$$$sL(/^/RAh5$+$$$$#$+$$$$$$$$$+$&&$&$$&$$$$$$*4xj*",
"pjpe,#*###******$$$$+$&fP_``^EGGR((!EGh5&&$$$sL^/^/RCh<+++$+$$$++$+&$$$$$$$$$$$$$$&$$$$**5xk>",
"pjpe;=**#*#**#*#*$$$+$*fI_`_/UmmU(^(^RCh8-&$$sI^///RAh<$$+$$$+$$$$$$$$+&$$$&&$$&$&$&$*$$@4xk>",
"pjpq,#=****##=**#$#$$$*fP_`_/PhfGE!(_ELBs1&*$sI_(((RAk5$$+$+$$$+$$$$$&$$$$$&$$$$$$**$$**#5xk*",
"pjpq-**####%*=#***$$@$&fP_((/PftBIE(_(EGvw:*$sI`_((RAk5$$$$$+$$$+$$$$$$$+$$$&$$&*@***$***5kk>",
"uxpq-***##=#%##=$$###$=fP_///Ps8lAR(__(UCh5*$sU`_(/RAk5$#$$$$$#$$$$$+$$+&$$&$$&$**$*$$$$*5xj>",
"ijpq;=#***#=#*=#$$$$##-fP/(/(Is>5xGE^__!LBw$$wU`__/RAk1+#++$#$+$+$$$$$$$$$$$$$$$**$$$$$$#5xj*",
"pjpq=**##*##%*%%$$$#+#-fP__((Pf&&wCU!__^EGs>$wU_((_RCf5$++#$+$#$$$$$$$$$$$$&$$$$**$$*@**@5lj>",
"pjpq>***$#%*%##$*$$$#$&fP__(/Pf-&5fCR_(!!UBwqwU_(__UCf5+$+$$$$#$+$$$+$$$$$$$$&$&*$$$*****5xj>",
"pjpq;*$$#$$$$%#%#$##++&fP/((^Pf-&>5xL!!!(EGCwjI__((RAh5++$#+$+$$$$$$$$$$$$$$$&$$***$@*@**5lj*",
"pjpq-**#$O$$#%%#$$$$+$-fI/!!/Pd&$&&wCU!(_(RDjxU____RAh5$$+$$$$$$+$$$$$$$$$&$$$$&*$$$*****5lk>",
"igi9-*#*$+$$$$$$$$$$$$*fP/!!(Lf&$$@5lDR(__(UMMY____RAl5$+$+$$+$$+$$$$$$$$$$$$&$$**$$$$*@#5xj>",
"pgp9;$$$$+$+$+$$$+$+#$*fI///(Ia&$$$$5xI_(_^EFGE(___RAl5$$$$$+$$+$$$$$$$$$$$$$$$$*$*$$$***5xj>",
"pgp9-%$$+$$$$$$$$$+$++&fI//(/Lf$$$$$$wDR!_^!UY!/___RAl5$$$+$$+$++$$$$$$$$$$&$&$$$*$$$***#5kj*",
"igi9;%%#+$+$+$+$$$$$$$&fI/(/(Ia$&$$$$5vDR^_!!!!/___RSxw*$$$$$$$$$$$$$$$$$$$$$$&$*$$*$*@$*5xj>",
"igi9;%O%O%%%OO%O+&+$+$&fI((Q/Pa&$***$<wCL!!______(_RAx8*$$$$+$+$+$$$+$$$$$$&$$$&$$**#***$<xk-",
"agy9;O%O%OO%%%%%$$$+++&fI(__(Pa$*$*&$&&wDR!_____(//RAk<+$+$+$$#$$$$$$$$$$$$$$&&&**$#**#**<xk-",
"ygi9;%%%OO%O%OO%&++&$&&fP(((/Pf&$&**&$$5nGE_!_____/YCk<$+#+$$$$$$+$$$$+$$$$&$$$$$%$**$*#$4xf-",
"agi9;%OO%OO%O%%O+&++++&fP((((Pf$&$&$&&$<wmU!!!__`__RCj5$$$$$++$+$$$$$$$$+$$$$$$$%$**#**#$4xk-",
"ygi9-+O%O%%%%%O%&+++++&fK()()Pa$*&$$&*&>wfDRE(!_``_RAx5$$+#$$$$$+$$$$+&$&$$$$$$$$%$$*$#*$4xj-",
"igy9;%%%OOOOO%%O+&&+&&+aKQ(Q)Pa$&$$$&*&$*wbGR((!``_RAkq*@@$#+$$+$$$$$$$$$$&$$$&$%$$$$$**$4xj-",
"aga9-%%%%O%%%OO%$++++&$tKQ(()Pa&$&$$+&$$&>wCI!!^__/RAjw$+@$$#$$$$+$$$$+$$$$$$$$$$$$$$#$$$4kj-",
"igy9;OO%O%O%O%%O$++++&+aK(((/Pa&&$$$&$$$$-5wDR!(/^/YCd5$$$$+$$$+$+$$$$$$$$$$&$&$$$$$$$$$$4kk-",
"ygy9=%%%%OO%%O%O$++++&$tG^^^!Ls$$$$$$$$$$$$8CDR!!E!UCs1$$$$+$+$$$$$$$+$$$$$&$%$%%$$$$$#$$<xj-",
"igy9=%##%OO%O%%%$+++++&aGEEEEGt$$$$$$$$$$$&:5CGRRRRGCs&$$$$$$$+$$+$$$$$$$$$$$$$$$%$$$$$$$4xf-",
"aga9;%O%O%OO%OO%$$++++&8VGGFFCw$$$$$$$$$$&$&:tCSDDSCf8$+$+$$$$$$$$$$$$$$$$$$$$$%$$$$$$$$#4xj-",
"ygy9=%%%%O%%%%O%$$&&++&:wwttw5&$$+$++$$$$$&$$15wtttw1$$$$$$++$+$+$+$$$$$$$$&$$%$$*$%#$*##qlj-",
"igi9;%%O%OO%O#%O+$$++$&$&$$$$$+++$$$$$$$$$$$&$$$$$$$+$$$$$$+$$$+$$$$$$$$$$$$%%%$$%%#%#%#*qjj>",
"agi9=%%%O%#%%%%%$$$$&$$$&$$$$$$+$+$+$$$$$$$$$$$$$$$$$$$$$$$$$$$$$$$$+$$$$$+$+%+%$+%$$%$%@>jj>",
"igy9=%%OO%%#%##%$$$$$$$$$$$$$$$++$$$$$$$$$$$$$$$$$$$$$$$$$$$$$$$$$$$$$$$$$&++%+$%+#%%##%*qxj*",
"agi9=%%%%O#%#%%#$$$$+$$$$$$$$$$$+$$$$$$$$$$$$$$$$$$$$$$$$$$$$$$$$$$$$$$$$+$&%+%%+%%#%%#%@qjj>",
"igi9;%%#O%%#%#%%#%#%$$$$$$$$$$$$$+$$$$$$$$+&&$$$$$$&$$+$$$$$$$&$+$$$$$$$$$$$+&+&+&&+$$$$$1lk-",
"igi9;%%%%OO%%%#%%##%+$$$$$$$$$$$$$$$$$$$$$$$+$$$&+$$$$$$$$$+$&$$$$$+$$$$$$+$&++&&+$$$$$$$1ll&",
"iga9=%#%O##%#%%#%O%O$$$$$$$$$$$++$$$$$&$&+$$$$$&$$$+$+$$&$$$$+$$$$$&$$+&$+$$+&+++$$$$$$$$1hh-",
"igi9=%%#%O%#%##%#%%%$$$$$$+$$$$%&$$$$$+$$$$$$$$+$$$$$&$$+$$$$$$$$$$$$$$$$&+$&++&&$$$$+$$+1hh-",
"igi9;%%%O#%%%#%%%#%#%#$$$$$&$$+$$$$$$$$$$$+&$$$$$$&+$$$$$$+$+$$$$$$$$$$$$+&+&++&+&$$$$$$$2lh-",
"iga9=%#%%##%#%##%%#%%%%O$$$+$$$$&$+$$$$&$$$$$$$$$$$$$$$$$$&$&$$$$$$&+&$$&++&++&+&+&$$+$$$2lh-",
"agi9=#%%%##%%%#%#%%#O%#%$+$$$$$$$$$$+&$+$$$$$+&$$$$$$$$&$$$$$$&$+&$+$$$$+&+&&++&+&$+$$$$$2lh-",
"igi9,%%###%#%#%#%##%%#%%$$$$$$$$+$$$$$$$+&$$$$$$&+$$$$$+$&+$$$+$$$$$$$&+&+&+&+&+&+$$$$$$$2ll-",
"igie,#%=##%#%#%%$$$$$$$$$$$$$$$$$$$$$+$$$$$+$$$$$$$$$$+$$$$+$$$$$$$+$$&$$+&++&+&O%%%#%%#$2lg;",
"igie=%%##%#%%##%$$$&$$$+$$+$$$$$&+$$$&$$$$$$$$$$$$+$$$$$&$$$&+$$$$$&$$+$$$$&&+&+%%O#%#%%#2lk;",
"iga9,%#%%#%##%%#+$$+$$$$$$$$$$$$$$$$$$$&$$$$$$$$$$&$$$$$+&$$$$$$&+$$$$$+$$+&&+&+%O#%%#%#$2kg-",
"igi9=%%%#%#%%#%%$$$$$$$$$$$$$+$$$$$&$$$+$$$$$$$$$$$$$&+$$$$$$$$&$$$$$$$$$$$++&+$$%%%#%%#$2lg-",
"igi9,%%##%#%%#%#$$$$$&+$$$$$$$$$$$$+$$$$$$$+$$$$+&$$$$$$$$$$$$$+$$$+$$$&$$+&+&$$$$$%%%#%O<ll-",
"igi9=%%####%#%#%$$$$$$$$$$$$$$$$$$$$$$$$$$$$$$$$$$$$&+$$$$$$$$$$$$$$&$$$$$$$&++$$$%O#%%##9lg-",
"agi9=%%%%#%%%%#%$$$$$$$$$$$$$$$$+&$$$++$$$$$$$$+$$$$$$$&$$$+$+&$$&$$$$+$&$$$$$$&$$#%%##%%9lg-",
"iga9,%%###%##%%#$+$$$+$$$$$$$+$$$$$$$&&$$$$$$$$$$$+&$$$+$$$&$$$$$+$$$$$$+$$$$$$+$$%#%#%##<gg-",
"pji9;%%=#%%#%##%$$$$+$$$$$$$$$$$$$$$$$+$$$$$$$$$$$$$$$$$$$$$$$%+$$$$$$$$$$$$$$$$$$$$#%%#%2lg-",
"pgi9-%##$##%%$%#$$$$$$$$&+$+$$$$$$$$$$$$$$$$$$$$$+$$$$$$$$$$$$$$$$$$$$$$$$$$+$$$$$%#$$#%#2lg-",
"igp9>##%#$#%#%$%$+$$$$$$+$$$$$$$$$$$$$$$$$$$$$+$$$$$$+$$$$$$$$$$$$$$$$$$$+$+$$$$$$$%#%$#%2lg-",
"pgp9;=%%%O#%%#%#$$$$$$$$&$$$$+$$$$$$$$$$$$$$$$$$$$$$$$$$$$+$$$$$$$$$$++$$$$$$$$$$$$$$$%$*2lg-",
"pga9;#%%#%#%$#%%$$$$$+$$+$$$$$$$+$$$+$$$$$$$$$$$$$$$$$$$$$$$$$$$+$$$$$$$$$$$$$$$$$$$#%**#6lg%",
"plde;#=%%#%#%#%#$$$$$$$$&$$$$$$$$$$$$$$$$$$$$+$$$$$$+$$$+&$$$$$$$$$$$$$$$$$$$$$$$$**#***-6lg%",
"igdi;%%-$%%#$$*$$$$$$$$$+$$$$$$$$$$$$$$$$$$$$$$$$$$$$$$$$$$$+$$$$$$$$$$$$$$$$$$+$$%*=***=9ck=",
"9ada<-%%###%$$#$$$$$$$$$$$$$$$+$$$$$$$$$$$$$$$$$+$$$$$$$$$$+$$$$$$$$$$$$$$$$$$$$$$#%*%**=6cl-",
"<ygd2-%##$$$$$$$$$$$$$$$+&$$+$$$$$$$$$$$$$$$$$$$&+$$+$$$$$$$$$$$+$$+$$$$$$$$$$$$#*@*****,eck-",
"%9zl2#%#$##$$$$#$$$$$$$$$$$$&$$$$$$#$$$$$$$$$$$$$$$$$$$$*%$$$$$$$$$$$$$$$$$$$$$$*#*****=qpxf-",
"O6lc9-%O###*$$$$$$$$$$$$$+&$$$$+$$$$$$$$$#$$$$$$$$$$$$$$%##%$$$$$$$$$$$$$$$$$$$$*@*@**=qpjde*",
"O,kcd9;##*#@$$$$+$$+$$$$$$$$$$$$$$$$$$$$$$$$$#$$$$$$$$$$=#%#$+$$$$$$$$$$$$$$$$+$**@**@=qccp<#",
"X>elld9-*#******$$$$$$$$$$$$$$$$$$$$$$$$$$$$$$$$$$$$$$$+%#=%#%##$$$$$$$$$$*#@*@@@***@>qebxq=#",
"X#,excd9-@****@*$$$$$$$$$$+$$$$+$*$$$$$$$$$$**#*$$$$$$$$####%=#@$$$$$+$$$$$$***@*#*=qedxjs,#@",
".X#>plgdwqqq>q5<>5>>55>5>>>>>>::>>>5>>5>>5>55>>5<>5>:5:19>-99=,9>>5>5:1:<,,<,<,qq,qqejxjeq#@@",
".Xo#>9dxcxsddwsssfssssssssssssssssssssssssjwfssflwfhwshwdfedfeddsssstsssssssssddedjxbbdqq*@@.",
"..XX@=egcbbxjxjjkkkkkkkkjjjjjjjkjjjjxjjxjjxjjjxjjkjjjjjkjkjjkkgjhkkkcllclkljjljjjxcbcjq>*@XX.",
"...Xo#==29eeiiiiiiipiiiiiiieiieiiipeiieiieipiideiiiiiiiieddedeedwswwwswwswswwsswswwwq>@@@X..."
};
