/* XPM */
static char *result[] = {
/* columns rows colors chars-per-pixel */
"93 100 89 1 ",
"  c #0F1515",
". c #131516",
"X c #151619",
"o c #15191A",
"O c #1A1B1D",
"+ c #211F1E",
"@ c #1D1E21",
"# c #211F20",
"$ c #1E2122",
"% c #242424",
"& c #282726",
"* c #272827",
"= c #292827",
"- c #252628",
"; c #282728",
": c #27292A",
"> c #2A2B2D",
", c #2F302F",
"< c #2D2E30",
"1 c #2F3233",
"2 c #323435",
"3 c #363837",
"4 c #383837",
"5 c #363739",
"6 c #363839",
"7 c #3C3D3D",
"8 c #403E3F",
"9 c #42413F",
"0 c #3D3F41",
"q c #3E4142",
"w c #444545",
"e c #484646",
"r c #474847",
"t c #4A4947",
"y c #454748",
"u c #464849",
"i c #4B4D4E",
"p c #514F4F",
"a c #4D4F50",
"s c #4E5152",
"d c #525455",
"f c #585757",
"g c #555658",
"h c #585758",
"j c #56595A",
"k c #5A5C5D",
"l c #5C5E60",
"z c #615F60",
"x c #5E6162",
"c c #636464",
"v c #65686A",
"b c #6B6B6B",
"n c #716F6E",
"m c #757474",
"M c #7A7776",
"N c #7B7877",
"B c #7D7C7C",
"V c #807F7E",
"C c #81817F",
"Z c #858484",
"A c #898987",
"S c #898788",
"D c #8D8C8C",
"F c #908E8E",
"G c #92908F",
"H c #949494",
"J c #979897",
"K c #9D9C9D",
"L c #A19F9E",
"P c #A19FA0",
"I c #A4A3A3",
"U c #A9A7A7",
"Y c #AAA8A7",
"T c #ABAAAB",
"R c #B1AFAF",
"E c #B5B4B4",
"W c #B8B6B7",
"Q c #B9B7B8",
"! c #BDBCBC",
"~ c #C1BEBE",
"^ c #C1BFC0",
"/ c #C5C3C4",
"( c #C8C6C6",
") c #CAC8C7",
"_ c #C9C7C8",
"` c #CCCBCB",
"' c #D0CECE",
"] c #D0D0CF",
"[ c #D1D1D1",
/* pixels */
"ooOoo      o    o ooo ooooo @  @..@..XXXXXXXXXXXXXX.XXXXXXXX.X.XXXXXXXXXX...XX@OXX....XXOXXXX",
"oOooooooo$$$1::1:<:::>11::::>>-::-:--::>::>::>>::>:::--:--:--:;:---:;-------;>->>#@@XXX@@XOXX",
"ooo   o$:1qusuiiiqiisqgqqsqguuauaiiiiiaaaaiaiaiaaaiiiiiiiiuiiiiiuiiuiaiauauaiiiyw02-@XXX@XXXX",
"ooooo$16qussjjjjjjggjjkjxjjklglllglglglgjjjjjkjjjjkhggggjjjjgjjjgglgggggjhjggggdsiy00:-@@XXXX",
"oo o$qsxxkjsususiiiiaaaasqiiiisaaiiiiiiiiiaaiiiiaiaauaiiauauiiiiiiiiiiiiaaaaiiiiagglgg0<@XXXX",
" o$*6sxvvjsqqqq600000000qqq00q00000000000q00qqqq0000000000007707000000000000000w0yigllg0<@OXX",
"oO>qjxxsq61111:1<<<<<<<<0111<1<1<<11<<<<1><<<<1,<<<<:<<<><><<>><1<<1><1<:<<<>><<<2<00gxxd<@OO",
"o$3jxxs6::$$$:$$$-%--#;#-$$--$-$:##----#--%--%$--%%%%%$%-$--$%-%#-#-##-##-#-#-#;----<0lvly<@X",
"$1qxxq11$$$:$:$:%%%---------;#%%;#:;------$----*****%*$*--%-$%-$%%%%-#--:##:---#@@---<0gzgy-X",
":qsxs6:$$$$::$:$--%--#;;-;#;;;;%----%-%--%---:$*$$*$%$**%$-$-%%-%%-%--#---:###------@-<ygzd<O",
"1sjq7>$$$$:$*:$:%#-#-#;##;;#;#%&;#-#-%--$--%-$--:*$*%**$%$--*$%$%%%-##--#;--;-#;-@----;<0lg<@",
"1jkq1$$$$:$:$$:$-%-;-----;%--;%%--;;%-%%-%--**$-$-*%%%$*%%-%*%%*-#-#---#--#--#;#-------#5ll5@",
"1jx6:$$$$$*$$:*$%#-%;%;%#%;%&&+&#:#>------%--$:-:$-*$*$*%%%%$*%$%%%-:#-:#---%;#;@-----;-5gg0<",
"1xx6*$$:*$$$*$$*;%--%%%%;-%%&+&&#;;:--%-----**$--**$%%*$%%%%*$%*--%%#:##-#;#%#;%--#-#-#-5igy<",
"6jx6$*$$$$$$$**$;%;%%;#;%%%;&&&&:;###---%$-%-*-**-*$%%%%%%%%%%%%-#;#:##:#:#-%&%%@#----#-<ag05",
"1xj6$*$$*$$$**$*#%%%%%;%&&%%&&+&#::;;--%----$*$**$**%%%%$%%%%%%%;#-:#:;#:#:#%%%&---#----5igy<",
"1xj6$$$$#-###;--#;%%%%%&&&&&&++&*%%*$*$*****$***$$***%%%*+$***+*%%%%%%&%%%%%%%%#;##%%--%2igw2",
"1jx6$$$$-#---##;#-%%%&%%+&+&&&&&%%%%****$$*$**$$***$$*$****++**+&##&%%#%%%&#%%%%%-;%%%-%2ifw,",
"1jx6$$-$---##:##-%%%%%&&&&+&&&&&%**%$**$***********$$%+%+$***+*+&&+%%%%%#%%%+&%%%%%%%-*%2pde2",
"6xj1$$--#---:#;-%%%%&&&%&&&+&+&+**$******$$**$$*$$**%%***$$***+*+%&%#&%%&%%%%%%%#%%;#%**2pde2",
"1kx1$--$#--#;#;#%%%%%&&%+&&+&&++*==***************$*$*%+*$**+*+*%&+%%%%#%%%%%%%%%%%%%&%%2pfw2",
"1kk6:$----#-##;#&%%&&&&%&88888884494qq7733331*$$$$*%%%%%**+++*+*%%&%%%&&#&%%%&&+%%%%%%%&2pfw,",
"1xk6$-$-#;#;;;;;%%%&&&&%=fzVVVVVnnnnmmmnbcjsq1*o$$%$%%%*$***+**+%%%%&#&#&%%%%&%&%%%%%&%&2pdw3",
"1kx6-$-$-;;#;##;+&&&&&&&8VVLLLILLJJKKKKJJAACnsq1*$%%%$%+*$+**+**%#&&#&&&%%%%&+&+&&#&%%*%,ide2",
"1kx2-@----#-;#;#&#&#&&&&eVY~~~~~~~~~~/~~!EEETJBs3***$*$*$**+***$&+&&&%&#;##;#;#;#&#&%;%%2pfw2",
"1kx6%--##-#-#;#;#&&&#&&&tD~~''~']]]]]]]]]]]]]!TCx9***$**$*$**+**+%%+%%#&#&;#;#;#;#&%#;;%,pfw3",
"1jk2@-#--#;-;#;#&#%&==&&tG~~')'')]))]]]]]]]]]]/ECM9,*$*+**$**++*%&#%%&++;##;#;#;#;&%&%%%2pgr3",
"1jx6------;##;#;%&#&&&&&tG~~''^~~ERRRRE!!/]]][]])Cc3$*$*$**+**$*%%&%&+&%&;;#=#&#;##&#%%&2pgy2",
"2kk5$--##;--#;##%%&##&=&tG~^''^~ICCVVCCJKYE)]]]])EAr**$$$***+**+%%%&&%;##;#;&#;&%%%#;%;%2pfe5",
"1kl5$-%-:##-;#;;#%##+#=#eF~`')~YCbffsfxbnCGY!]]]]]Ij,*****++*++*&#&##;#&&#=##&%%%%%-%;#;2sge5",
"1jx5-%%%#;;;#-##&&###&#&8D~^''~LCp3,3,3339smC)]]]]Ent,+*+**$+**+%%%;&%;%#=#=%%&#&#%%%%;-2sgy5",
"1lk5-%%%:#-#;;;;%#;#&&;#tFE~))~LN9+&+%%***,rmE]]]]!Af3**$**+*+**%%%#%%#;;#=#%%%%%;-#----2ady5",
"<lz5#-#-;#;#;;;;;;#;#=#=wDW/``!PN9#%&&#%#%;,hL/`][^Dc7&&%*;%%%%%%%%&%%%#;%%%%%%%%&%%---%2ajy2",
"<gl5--;;;;#;##;###;#;#=#eDW/``!PM9%+##%%%%%%tH!_][!Hv8&%%%;%%%%%%;%#%%%%%%&##%%%;#;#%--%2agu5",
"5gh5-##;-#;;;;#;;##;#;=#eDW/_`!Im9+%#&#&%#%&iH!_`]QFc8;%%;;%%%%%%#%%%&%%%%%%%%%%%%%-%-%%2agy2",
"<lz5---;-;#;;#;;;;;#;##&eDW/``!PM9%%&#%#%%%=pH^_``EDc7;*%%&%%%%%%%%%%#%%#%%%;#&%%%#;%-%-2agy5",
"2gl5-#;##-#;;;###;#;#;##eDW^``!PM8#%#%%%%%;,kI`_`]EZj6&%&%%%%%%%%%%&%%#%&%#%%%%%%%-%----2ajy5",
"2gl5----;;-;;#;;;;;#;#;#wDQ_]`!PM8%#%#+%;=4imE]```RNa2%*%%#%#%%%%%%#%%&%%%&%%%#&%%#-$--%5agu5",
"2ll5-#-;;#;#;;;;#;#;#;;#eDQ_``!Lm8##++%&>4sVI/[]``Uvq1*%%%#&%%%&#&%%%%%%%#;%%%%%%%%$---%2ajy2",
"<gl5;#-#;;;;;#;#;;;##;##eDW(``^YSh9eeetpjxNU^`[]/^Jx6>*%%#%%%%%#%%%%;#%&%%%%&#%%-%%%%$--2ady5",
"2ll5@---;#;;#;;##;;##;##9DW/)`_^RJDFHHHKPUR^_]]_^YSp2>&;&%%%%%%%%&%%%%#%%%%%%%%%##-%$--%1agy2",
"2gl5-@@-#&#;#;;#;#;#;##;rDW/))]`^~E~!!^/__``]]_^TDbe,=%#%%%%#&%%%%%#%&%%%%%&%%%&---%%---5agy5",
"2gl5-#--;&#&;;#;#;#;#;;#rDW/`_`_`^^^__``````]`/RFze2=;%%%%%%%%%%%%%%%;%%#&%##;%#-##-----2agy2",
"<ll5--#-#&;;#;;#;;;#;#;#rDW/``_)__`'`'```_//^EIDbe,>%%%%%%#&%%&##%&%%#%%%%%%%%%%%%%%$-%-2ajy5",
"2hg0##-#&#&#&&#&#&;##;##rGQ)])))_````''`/^!EIDns82;;%%%%#%%%%&%%%%%%#&%%%%#;%#&%%%#--%$-2agy2",
"2hg2--#;#&#&##&#&&#&#;;;9DQ)]])~EUPPPIIPKJGANxu,#;;%&%#;&%%%%#%%%%#%%%%%%%%%%%%%%%-%%---2agy5",
"2hh0;;;;#&#&&&&&&#&##;##rGE))]~YSzppaaaaiiuyq6,*%%%%%%%%%%#&%%%%;%;#%%#%%%%%%%%%%%-%#-%%2agy2",
"<lh0#-###&&#&##&#&#;##;&qGE))`~Km8##%#%#$$$-$$%%%%%%%&#%%%%%%%;##%%&%%&%%%#&%;#%%#%%%%-%2ady2",
"1lh5%%%*%%*+**+*+*++*+++tC~]])~LM3*++*$$$*$*$$*$%%#%*%%%%%%%%%%%%%%;%%%%%%%%%#&%%%-@%$$-2ady2",
"1lh5%%%+%%+*+*+**+**+**+tCE)))~Kn9+**$***$*$**$*%$%%*$%%%%%%%+%%%%&#%#%;%#&%%%%%%%%%---%2idy2",
"2hl5%$+%++*********+**+*fCW))]~KN9*+$**$$$$*$*$+$%%%$*$*%%%%%%%%#%%%%%%#%%%%%%%%%%%%$---1ady5",
",kk2%%%%%%*+++*++*+*+**+tCE~])!Kn9+$*$$$*$$*+$*$$$%$*$*$%%%%%%%%&%%%%%%&&%#%%&#%%%-%$%$%2agy2",
"2kk4%%%%***+**+***+*+***tCE))]~Lm9***$$*$$*$+*$*%%%%%%%*+%%%%%%%%%%#%&%%%%%%%%%%##-%----2agw2",
"2hk6%%%%$$**+*+*+**+**++pCE/))!Lm9**$$*$*$*$$**$%%%%%$%%&%%%%%%%%#%&%#%%#%%&#%%;--%%#-@-1agy2",
"2hk4%%%$*$*$$********++*tC~~))~Km9*$$**$*$$**$$*%%%%%%%%%%%%%%+&%&;#%%%%;%%%&%%#%%%%#---2idw1",
",kk4%%%%+**+***++*++****tCE)])!Jn9****$*$**$$**$%%%%%%$%%%%%%%%%%%%%%%&#%%%#%%%%%#%%--##1igy5",
",kk3$**$*$+***+**++*+**+9CE/]]~Knq*$**$$*$*$**$**$%%*$+*%%%%%%%%%%%%#&%%%%%%%%%%-%#%%$-%1agw2",
"3kk3*$******$*$*+**++++*aCR~/)WJb3**$***$*$**$**$%%%+**%%%%%%%%%&#%%%%%%&%#%%#%%%%%%%-%-2agw2",
",kk3$**+$**+***++*+**+**9CREEWYCv3*$$*$**$*+$**$*$%%**%%%%%%%%%%%%%;%%#%%%%%%%;%%%%%%-$-1agw5",
",kf3$*$**$$*$+***+***++*9nCCCGCnj,$**$*$$*$**$$***%$*$%%%%%%%%%$%%%#%%;%%%%%%%#%#-%%$$%-2ady1",
"3kk3$*$$$**+*+********+*,3999t99,**+*$$*$*+$*$**$*%$%%*%%%%%%%%%%%%%%;%%#%%%%%%%%%%%-$--1agw<",
",kk3*$***$**+**++*+**+**%%++++****+*$**$*$**$*$+*$%%%%+%%%%%%%%%&#%%%#%%;%#%-#%%%#-%%--$2agw2",
"3kk3****$*$**++**%**+*%%%$%%+*%%$**++*$*$*$***$*$*%%%%%%%%%%%%%%%%%%%%%%%%%&-%%%%%$%$%-%2ide2",
",kk3$*$$*+**+*+*+*+%%+%%%%%%*+*%%%*+**$**$*$*+*$*%%%%%%%*+*+%%%%%%%&#%&#%%%%-#%%%%%%---$1pde2",
",kk3**$*+*%+*%%%%*+%&%%%%%&%%%%&%%%%%+%+*%%++***$*$+***$%%%&+&%%%%%%%%%%#&%%%%#&%%%%-%--1ady2",
"1kx3*$*$%%%*%%%%%%%%+%%%&+&+%%&+%%%%%*%%*%***$+**+***++*%%+&%&%%%%%%%%%%%%%%#%%%%%%%$%$-1ady2",
"1kk3$*$*%%%%%%%%%%%%%%%%%%&&%&%%*%+%%%%%%$%$$*+*$$*****$%%%%%&%%%+&%%%%+%%#%&%%%%%%%%-$-1agy2",
"1kk3*$*$%%$%+*%%%%%%%%%%%%+&&+%&+***%%%%%*$**$*$**$+++**%&+%%+%%%%%%%%%%%%&%%%%%%%%%$--%2ady5",
",kk3$**$%%%%**%%%+%+*%%&%%&++%&++**+$*$*%%+**+**+*%%*+**+&%%%%%%+*%%&%+%&%%%%#%%%%%%%%$-1ady2",
"3kk3*$$*%%%%++%%%%%%%%+%%%%&&%%&%%+*%$*+*%**$*$**%%%+**+%%%%%%%%*&+%%%%&#%%%%%%&%%%%%%-%2ady2",
",kk3$***%*%%*%%%*%%%%%%%%%%%%&&+*%%%%%**$*$$*$*$*+%%+%$*%%%%+*%%%%%%+%%%%%%#&%%%%%#%$%%-2ady2",
"1kk3*$*$%%+%%%%%%%%%%%%%+%&%%+*&+*%%%%+**$*%$*$*$*%%*%%%%%%%%%*+%%%%&%%%%%&%%%%#%%%%%%-$1ady5",
"1kx3--*$*$*$%%%%&%%%%%%%&%%%%&%%+**+**+**$$**$$**$**%%*%+%*+%%%*%%%%+&%%%%%+%%%%%%%%@-$%2ady2",
"1kk3$*$*$*$*%%%%+%%%%%%%%%%%&+&%*$$**+*$$**+$**+*+*$%*+**%+*+*%%%%&+%%%%%&&%%#&%%%$%%--%1ady5",
"1kk3*$***$*$*%$*%%%%%%%%%%%%%&%+*$*+*+****$***$**$$*%+%%+%*%%%*+%%%%%%&+%%%%&%%%%%%%$---2ady2",
"1kx3$*$$**$*$**$%%%%&+%%%%%%%%%%*+**+*+**$*$*$*$$**+%%%%*%%%%%+*%%%%%%%%%%%%%%%#-%-%$-$-2agy5",
"1kk6**$*%%%%%%%%&%%%%%%%&++%%%+&*+***+*$$**$*$**$*$*+*%%%%%%%%+*%%+&%%%%%%%%&#&%#%%%-%-%1agy5",
"1kk6*$*$%%%%%%$*%%%%%%%+%&&%%%%%+$*++*+**$$*$*$**$*++*%%%%*+%%**&%%%%%%%%%%%%%%%-%-#@-$-2agy2",
"1kk6$$**%%%%%*%$%%%%%%%%%%%&+&%%******$*$**+$*$**$***+**%%%%%*+++%&%%+&%%&%%%&#%%%%%-%%-2adu5",
"1kk3**$*%$%%%%%%%%+%%%%%%%%%%%%%$*$$*$*$**$**$**$*$*+**+%%%%%%**%%%%%%%%%+%%%%%%#%%%$%-%<agy5",
",kk3*$$*$*$*$*$*%%%%%%$%%%*$*%+*+*$**+*$**+**$*+%%%%%%%%%%%%%%%%%%%%%%&%%%#%%%#%-%-%%-$$2adu5",
"3kk3$**$*$***$*$%%%%*$*%%%*$%%%****$$*$*$*$*$*$*%%%%%%%%%%%&%%%%%#%%%%#%%%;%%%&%-#%%-@--1agu5",
",jk3*$$**$*$$*$*%%%%$**$%%%*%$%$*+%%*$*$$**+$**$%%+&%%%&%+%%%%%%%%%%%&%%%%%%%%%%%%%%%--$2agu5",
",kk,****$*$*$***%%%%*$**%%$$%*$*%*$*$*$*+$***$**%%%%%%+%%&%%%+*+%%;#;#%&&#%%&#%%%%#%$-%-2agu5",
",kk3$**$*$***$*$%%**%%*$**$*%$*$*$*$*$$****+*$*+%%$%%%%%%%%%%%%%%%%%%%%#%%%%%%%;%%%%-#-%2aju5",
",kk3*$$*$**$$*$*%$$*%%$*$+*$%*$**$$*%**$*$$***$*%%%%+&%&%%+%%%%%&#%%%%%%%%&#%%%#-%%%--%-<aju6",
",jj3***$$$$*$**$*$*$%%$$*$$**$*$$*$*%$$*$*$$$**$*%%%%%%&%%&%%%%%%%&##&%%%%%%#&%%#%%--%%$2aja0",
",jk,$$**$*$$*$**$*$*$%**$***$*$**$*$*$*$*+***$$*$%%%%%%+%%%%%%%%&%%%%%%;#%%%%%%%-%---%%%2dju5",
"1xx3o$*$*$$$$**$*$*$***$+*$*$*$***$*$*$****$%%%$*$%%%%%%%%%%%%%%%#%%%%&%%%%#%%#&#%%:-%-:5ddy<",
"1xx3*$$**$$*$$$*$*$*$*$$*$***$*$$$*$$***$$$*%%%%%*%%%%%%%%%%%%%%%;&%#%%%%%%%%%%%-%-:--%:5lj0:",
",kxq,****$****$****$****$$*$*$$*$*$**$*$*$%$%%%%%*%%%%%%%%*$%$*%%%%%%%%##-#-%%%%%%%::---5ll2@",
"*sxs3,$**$**$**$*$*$*$$***$*$**$**$*$*$***%*%%%%$*%%%+%%%$**$*%%%%#%%%%;%%--%%%%%%%----<0cl<O",
"$ujjs1*$****$*$*$*$**$*****$*$**$$*$$**$$*$**$*%%%%%%%%%$***$***-##;%%%%-%%#%##%%#-##%<0als>.",
"$1ujjq3******$*$*$*$*$*$$$**$**$*$$**$***$$*$**%%%%%%%%%**$$**$$%-;##;%%#-%----%%-%%%<0ajd0#.",
"$$1sjjs3****$***$*$***$**$*$**$****%$**$$**$$**$%$%%%%%%*$**$*$*%%#--##;#--#%%#-#%%%<ydlj5%O.",
"o $3sxku331111111111113131111,3,11131113113122222322222,11111161251252522222225152550djlu<X..",
"oo$$1ujxxjjsssssssssssssssssssssssssssssssssssssssssssssssssssssadaddaddaddaddaddddllga5:#XX.",
"ooo $3ujxxxjjjjssjjjjjjjjjjjjjjjjjjjjjjjjjjjjjjjjjjjjjjjjjjjjjjjghgghhjjggjjggggjhglgi0#XXXX.",
"ooooo$*11quuuuuuuuuuuuuuuuuuuuuuuuuuuuuuuuuuuuuusuuuuuuuuuuuuuuuuuuuuuuuuuuuuuuyuuq2::-O. ...",
"oooooo o$:111111611616166161661161616161666116161616161666161661222252252252225252<@XXXX.  .."
};
