/* XPM */
static char *result[] = {
/* columns rows colors chars-per-pixel */
"71 107 99 2 ",
"   c #151716",
".  c #161817",
"X  c #151618",
"o  c #171A1C",
"O  c #1A1D1E",
"+  c #1E201F",
"@  c #1C1E21",
"#  c #1E2122",
"$  c #242525",
"%  c #262827",
"&  c #252728",
"*  c #28272A",
"=  c #262929",
"-  c #2A2B2C",
";  c #2E312F",
":  c #2D2F30",
">  c #2F3131",
",  c #333435",
"<  c #353837",
"1  c #383837",
"2  c #353639",
"3  c #38373A",
"4  c #373939",
"5  c #3A3C3C",
"6  c #3E403F",
"7  c #3D3F41",
"8  c #3F4142",
"9  c #424444",
"0  c #464847",
"q  c #454749",
"w  c #47494A",
"e  c #4A4C4C",
"r  c #4E504F",
"t  c #4D4F50",
"y  c #4F5151",
"u  c #525455",
"i  c #565857",
"p  c #555759",
"a  c #585758",
"s  c #57595A",
"d  c #5B5C5D",
"f  c #5D605F",
"g  c #5D5E61",
"h  c #605F62",
"j  c #5E6061",
"k  c #616363",
"l  c #646866",
"z  c #646668",
"x  c #676969",
"c  c #6A6C6C",
"v  c #6E706F",
"b  c #6C6E70",
"n  c #6E7172",
"m  c #727474",
"M  c #767877",
"N  c #757678",
"B  c #767979",
"V  c #7A7C7C",
"C  c #7F807F",
"Z  c #7F8181",
"A  c #828484",
"S  c #888987",
"D  c #848788",
"F  c #8E908F",
"G  c #8C8F90",
"H  c #8F9191",
"J  c #939494",
"K  c #979997",
"L  c #969798",
"P  c #969999",
"I  c #9A9C9C",
"U  c #9E9FA0",
"Y  c #9FA1A2",
"T  c #A2A3A4",
"R  c #A6A8A6",
"E  c #A5A7A8",
"W  c #A7A9AA",
"Q  c #AAABAC",
"!  c #AEB0AF",
"~  c #AEAFB1",
"^  c #AEB1B1",
"/  c #B2B4B4",
"(  c #B6B8B6",
")  c #B3B7B8",
"_  c #B6B9BA",
"`  c #BBBCBC",
"'  c #BEC0BD",
"]  c #BEBFC1",
"[  c #BEC0C1",
"{  c #C3C5C5",
"}  c #C6C9C6",
"|  c #C6C7C9",
" . c #C6C8C9",
".. c #CCCECD",
"X. c #CED0CF",
"o. c #D0D2CF",
"O. c #CDCFD0",
"+. c #CED1D1",
"@. c #D1D3D4",
/* pixels */
"@ @ @ # @ @ @ @ @ @ @ # @ @ @ @ # # # # @ # @ @ @ @ @ @ @ @ @ @ @ o @ @ @ @ @ @ @ @ @ @ @ @ @ @ @ @ o @ # # # # # @ @ @ @ @ @ @ @ @ @ @ o @ @ ",
"@ @ @ @ @ @ @ @ @ @ @ @ @ @ @ @ # # # # # @ @ @ o @ o @ @ @ @ @ o @ & @ @ @ @ & # o o o @ @ @ @ o o o @ # # # # @ @ @ @ o @ @ o @ @ @ @ @ @ @ ",
"@ @ @ @ @ @ @ @ @ # # @ @ @ o @ @ # # # # @ # # & : & : : : 2 : : : @ @ @ @ 2 2 7 7 : : : : & @ o o o @ # # # # o o @ @ o @ o @ @ @ @ @ @ @ @ ",
"@ @ @ @ @ @ @ @ @ @ @ @ o @ @ o o o @ @ @ & : 7 7 8 8 w t p g z g t 2 @ @ 2 p b b z s t 8 8 & o @ # # # # @ # # @ o o o o o @ o o @ o @ @ @ @ ",
"@ @ @ @ @ o @ @ @ # @ @ @ o o o @ # = : : 7 8 8 q t p p g g z z b g 2 @ @ 7 b G G G Z B B c t 9 8 8 4 2 : & # # @ @ @ @ @ @ @ @ o o @ o @ o @ ",
"@ @ @ @ @ @ @ @ @ @ @ # @ @ o @ & 7 8 p p g z g g p p t q q 7 t z g 2 @ & q D ~ ~ ] ] Q ~ ~ U L Z Z n j 8 4 & # @ @ @ # @ @ @ o @ @ o @ o @ @ ",
"@ @ @ @ @ @ o @ @ @ @ # @ # & > 7 8 u g g g g u t t q 7 7 : : 2 p p 2 @ @ q D ) [ O.O. .O.O.O.| [ ) P Z Z l 8 7 : # & # # # # @ @ o @ o o @ @ ",
"@ @ @ @ @ @ @ @ @ @ @ @ @ : 8 p s g p t 7 7 2 7 2 2 : : : : & : p p : @ @ q G ) [ O.O.O.O.O.O.O.[ [ [ ) ) Y Z Z w : : & # # # # @ @ @ @ @ o @ ",
"@ @ @ @ @ @ @ @ @ @ # = : 8 u f j g e 7 - # & & * * * $ * * * 3 p p : @ @ q G _ | O.O.O.O.O.@.@.@.[ O.[ +.[ [ Z n p 8 : & @ @ @ @ O @ @ @ @ @ ",
"@ @ @ @ @ @ @ @ @ # # 8 t s d 8 8 7 2 - # # # & $ $ * * $ * * 5 z g : @ @ q L ] | | O.@.@.@.O.O.O.O.O.O.+.O. .] ) Z z q & o @ @ $ @ @ @ @ @ o ",
"@ @ @ @ @ @ # # o % 6 8 d j t 8 7 : * # # # # # $ * * * $ * : 9 z g 2 @ @ t L ] | | O.O.@.@.O.O.O.O.O.O.+.O.O.O. .) Z z 2 @ @ # # @ + # @ @ @ ",
"@ @ @ @ @ # & & # ; 8 l u 8 8 4 , * & & & # # # = * * $ $ + * 6 g g 2 @ @ t U | | O.| O.O.O.O.O.O.O.O.O.O.O. .O.O.[ ) Z p 2 & # O @ @ O O @ @ ",
"@ @ @ @ # # & = = 7 j l 8 4 : : : = * & & $ @ @ * - % $ * - 1 0 g g 2 @ @ t L ] | O.| | O.| O.O.[ +.[ @.O.O. . .O.O.[ W n p : @ + @ @ @ @ @ @ ",
"@ @ @ @ @ # # : 8 u l f 8 : = : = = = = * = $ $ * - % * , 9 a h g p 2 @ @ q G ) ] | O.| | O.| O.@.@.[ @.O. . .O.O.O. .) Z Z 7 # @ @ @ @ @ @ @ ",
"# # @ # # # # : u l l t : & & = & = = = * & = & = - % ; 9 u h a p q 2 * * 3 z G E ] ] O.O.O.O.O.@.@.@.@.O.O. . .O.O.O. .O.Z 8 # @ @ + + @ @ @ ",
"o # # # # # # : s l 8 4 : & & & & & = & & & = - = = = < a h e 6 2 : 2 2 2 2 3 t N U ] O.O.O.O.O.@.@.[ @.O.O.O. .O.O.O.O.O.Z t # + @ @ O @ @ @ ",
"# # # # # # % < z j 8 : & & & & # & = % # = - = $ * , 9 h h q 1 1 6 0 e e 9 ; 1 a C Q } ..X...X.[ [ @.@.X.[ @.X.X.+.+.+.+.E f , $ @ @ @ @ @ @ ",
"# o o # # % < w j j 8 & & # & # & # # & = # = # $ - 0 u a r 9 q a k c c c k r 9 1 u K ' { ......@.@.[ @.o.o.[ @.@.[ @.@.+.' Z f > X @ $ $ @ @ ",
"# # # # # = 8 i s 8 2 & & # & & & # & # = # # # $ 1 a a e 0 e a m N c c m v l r ; 5 C R ` } } X.+.@.@.@.[ @.[ X.+.@.@.[ [ [ W Z 3 O @ $ $ @ @ ",
"# o o # # ; w s p 8 : & & & # & & & # % # = # - * 5 f d 1 1 u c N c r r a k v h , 1 c J ( ......[ @.[ +.o.o.@.@.X.[ X.+.@.[ Y Z 3 O @ + @ $ @ ",
"# # @ # # ; u f 8 8 2 # & & & # $ $ $ $ = = $ % - 6 h h , 1 a v c a 1 1 9 a c k 1 , d S / ......@.@.@.o.X.X.+.[ +.+.O.O.@.[ ) Z 7 O O + @ @ @ ",
"# # # # # ; s l 8 2 : & & # & & $ $ # $ % # $ % * 1 h h ; ; d k e 1 * $ ; 9 f a 1 1 a S ( X...X.[ +.[ X.@.[ o.o.O.@.[ O.@.[ [ G 9 + O O $ @ @ ",
"# # # # # < f l 8 : & & & # # & $ $ $ $ $ $ % & $ 1 h a ; ; d h 1 * + + $ 5 d a 1 1 a C ( X.X. .@.+.[ +.o.@.o.@.....+.+.@.@.[ J q @ O o @ @ @ ",
"# # @ @ @ > f j 8 : = & & & & & # $ $ # $ $ & $ $ 1 h h ; 1 f l 6 * + + $ 1 d a ; ; r C ^ X.X.X.o.+.@.o.X.[ o.[ ....@.[ O.[ [ P w @ O o o @ @ ",
"# # o o @ 2 s g 7 & & & & # & # % $ & $ $ $ * $ $ , h d 1 1 f l 1 * $ + $ 1 a a ; ; r V ! X. .X...........O.......O...O.....[ Y u $ # o O o O ",
"# # o # @ : g z 7 : = # # # & & & & & $ $ $ $ $ $ , h d ; ; d f 1 * $ $ $ 1 h a ; - r C ^ X.X...X...X.......O...O.....O.O.O.+.^ h 3 * @ @ o @ ",
"# # # o @ 2 g z 7 = & # # # # & $ * $ $ $ * * $ $ 1 d d ; ; i f 6 * * $ $ 1 h a ; ; e C / X.X.X...X.O.O.O.O.O.O.O.O.O.O.O.O.+.^ b 7 * @ O X @ ",
"@ # o # # 2 s g 7 : = # # # # & $ $ $ $ $ $ - % $ 1 f d ; ; f i 1 * * $ $ 1 f f ; - r M / X.X.X.X...O.O.O...O.O.O.O.O.O.O.O.O.^ N q * @ O O @ ",
"@ @ # # = 4 g s 2 & # # # & & & * $ & $ $ * * * $ , f f ; ; f f 1 % $ $ + 1 a a ; ; r C / X...X...X...X...O.O.O.O.O.O.O.O.O...^ V y * @ @ @ @ ",
"@ @ # # : 8 s p 4 # & # # # # & * $ * * $ * * $ $ , f i ; ; i f 1 % % $ $ 1 f f ; - r C / ..X...X...X...O.O...O.O.O.O.O.O.O. .^ Z p : @ @ @ @ ",
"o @ @ # > 8 g p 2 & # # & # & & & & # # # * * * $ , f f ; ; f f 1 - $ $ $ 1 f a ; ; e C ^ X...X...X...X.O.O.O.O.O.O.O.O.O...O.^ A p > @ + @ @ ",
"@ @ @ & 4 8 s u : # # & & & & & & & * & * * * * $ , f f ; ; i f 6 - $ $ $ 1 f f ; - r C ^ X.X...X...X...O.O.O.O.O.O.O.O.O.....) A g 3 & $ @ @ ",
"o o @ & 7 w g t , # # $ $ * $ * $ * $ $ % % % % + 6 f s ; ; i i 6 $ % % % ; f f ; % e C Q ......X...X...+.X.O.O.O.O.O.O.O.O.O.' G h 3 & @ @ @ ",
"o o @ & 7 w p p 3 * $ # $ * * # $ $ $ $ $ % + % % 6 f s ; ; i f 6 % % % % 6 f f 6 % e C ' [ ..................+.O.O.O.O.O.+.O.[ L c 2 o + # @ ",
"@ o @ & 7 7 p t 3 * $ $ $ * * $ * $ $ $ $ $ + + % 6 f i ; ; u f 9 < % - ; 6 f f ; ; r C W ....................X.O.O.O.O.O.@.@.[ U m 2 X @ # @ ",
"o @ @ * 7 t p t : * # $ * * * $ $ * $ % $ % % % % 6 f s ; ; f j f 0 ; ; 6 i c f ; 6 u C ' [ ..................X.O.O.O.O.O.@.@.[ U m 2 X @ @ @ ",
"o @ o & 9 t y q : * $ $ & $ * $ $ $ $ $ % + % % % 6 i i < ; y f l d 8 6 f f v f ; 6 i Z ' o.X.X.....X.X.} ..X.X.O.O.O.O.O.O.@.[ T m 3 o @ @ @ ",
"@ o o : q y t q : * $ $ * $ $ & $ * $ * % % % - % 6 i i 6 6 0 f C C l l n C c i 6 6 C I ' [ X.o.............X.X.O.O.O.O.O.O.+.[ T N 3 @ o o @ ",
"o o @ : e p q 7 * * * # $ $ * $ $ * $ $ # % % % % ; 8 s r 0 9 0 i l l c C v f 0 6 e H ' [ X.[ o.............X.X.O.O.O.O.O.O.O.[ T N 3 O O O @ ",
"o o @ : t p q 7 * # * * $ $ $ $ * $ $ $ % % % # # 6 8 i f f 6 1 8 8 r i r 8 6 6 6 l Y [ [ X.X.X.............X.X.O.O.O.O.O.O.O.[ E B 7 O o o O ",
"o o @ : q p t 8 < - - $ $ $ $ $ $ $ $ $ $ $ $ $ $ - 1 0 f f 0 6 6 6 8 8 6 6 6 6 l C ' ' o.o.X.X.............X...[ +.+.+.+.O. .[ U m 3 O X o O ",
"o o @ & 8 t z z r 5 , * * $ % % * * $ $ $ $ $ $ $ % ; 1 0 u f f u 6 6 ; + 6 f C K ' ' ' [ X.[ o.} .. ...X.+.+.X.[ O.@.@.+.O.[ ^ G z 2 @ X X O ",
"@ o @ & 2 8 g z d r 9 5 5 , - * * - $ $ $ $ * * $ + $ ; 5 0 i f f 8 % o + 6 C R ' ' o.o.[ X.o.[ } ........+.X.X.+.[ @.+.[ _ W H b t > @ o o @ ",
"@ @ o @ : 7 8 t d k k f i w 5 , * $ $ $ $ % - - $ $ + $ ; < 6 0 f i ; . . 6 S ' ' ....o...X.X.X...X.+.+.+...X.X.+.O.[ [ Q H j y 7 > * @ @ @ @ ",
"@ # o # = 8 8 w u d f k f i r 0 6 1 , ; ; ; ; ; % + + + $ * - 6 l d %     6 K } o.o.X.X.X.X.[ o.X.+.@.+.X. .{ ' ` ^ Y H Z j 8 4 , : @ @ & # @ ",
"o o @ # 4 8 t t 6 1 1 6 r a k l h f u e 6 5 1 ; - % $ $ $ + $ 1 f d 6 o o 6 R o.o.o.o.[ X.X.X.' +.@.@.X. .' ^ Y F M f 0 6 , 8 8 t 8 : @ # # @ ",
"o # o : 8 p s p 9 1 , 1 6 r a f f h f u r 0 9 6 5 5 1 1 , , , 9 f i 6 o + 0 R o.X.' ' ' ' ' ' ' ' ' _ ! T K A n j y 8 , > , 8 p g t , @ & # @ ",
"@ @ @ : u g p p a a i e 9 1 , , 1 6 e u a f k l k f k f d d d k C u ; o + 6 Y ' ' ' ' ' ' ' K K L F C v i r 6 6 6 6 8 y s j j j z g , @ @ @ @ ",
"@ @ # ; s l w w s l f i 0 6 ; ; 1 1 1 e a a a h h h h a d d k k k r ; + + 6 V K F F S S S A M v c k u 0 1 ; ; ; 1 9 r d k k i a z g 3 & # @ @ ",
"@ @ # ; i f 6 ; < 8 r s l f i y e 9 6 1 1 1 1 1 1 1 1 1 1 1 9 0 9 1 - + . $ 1 0 0 9 9 9 9 6 6 < < < < < 6 9 r a d k f i e 6 1 6 s g q , = # # ",
"# # # ; s f < # % ; 8 0 i f f i a e e 6 1 1 1 ; ; ; * * - - ; , ; % $ + . . . + + $ % - ; ; ; ; ; , 5 6 0 r i d k k a e 5 - * , t s q 7 : & # ",
"# # # ; f f < % % % ; ; 6 6 8 8 0 a a a h h a r r 0 6 6 1 , - * % + + + . + + + $ ; 1 6 0 0 0 r i d f k f i 0 6 6 6 5 1 ; - % < t p q 3 * # # ",
"# # # ; f f < % $ $ $ % # % ; 6 6 0 a a h h h a a r r r e 9 1 , , , , ; ; ; ; , 6 6 e r u i r i d k k f i e 5 , ; - - * - - % < t g q 7 : & @ ",
"# # # < f s < % $ $ % % # % % % * ; 1 1 1 6 9 r r a a a h h d a a a a f f i f i i i f f f f r 0 0 9 5 1 , ; ; ; - % % % % * $ < y p w 7 * @ & ",
"# # # ; s f < # % % = = % % # % $ $ $ $ * * 1 6 9 0 r r a a a d f i f f f f f f i u r u r r 6 6 < ; * $ + $ % * % % $ $ = $ $ < y g q 7 : @ @ ",
"# # # < f s ; # % - - ; ; % % % * $ $ $ * * * * ; ; 1 1 1 1 1 1 1 1 1 , 1 1 ; ; < 6 ; ; ; < ; ; % % $ + + + $ % = = = $ $ $ $ < y s q 7 : @ @ ",
"+ # O , h a 1 * * ; ; - * * * $ $ $ * $ $ $ * $ $ $ & & & = = = $ $ $ $ $ $ $ $ $ + $ $ + % % % $ $ # # # # % # % = $ = $ $ = , u p e 2 * @ $ ",
"# + + , a h 1 * - * * % $ $ $ $ $ * $ * $ $ $ $ $ $ & $ & & & = $ $ $ $ $ # $ $ $ $ $ % % $ $ % $ $ $ $ $ & % % % % = = $ $ = 2 u p e 7 * # @ ",
"@ # + 3 h h 3 * % * % % $ $ $ $ $ $ $ $ $ * $ * $ $ & & & & & # % $ % $ $ $ # $ + % $ $ $ % $ % $ $ $ % % % & & % % = $ = = = 2 u p q 3 * @ @ ",
"# @ + 3 h h 6 * * % % $ $ + $ $ $ $ $ $ $ $ $ $ * $ & & # & = = % % $ $ $ $ $ $ $ $ $ $ $ $ $ $ $ $ $ & % & & % * % % = & = - 2 u s q 3 * @ @ ",
"@ * @ 3 a h 3 * $ $ $ $ $ $ $ $ $ $ $ $ $ $ # & $ $ $ & = & & # = = % % $ $ $ $ % % $ $ $ $ $ $ $ $ % % % % % & & & & & & = = 2 u p q 3 * @ @ ",
"@ @ @ 3 h h 3 * $ $ $ $ $ $ $ + $ $ $ $ $ * * * $ * & $ # & & & & # % % $ $ $ $ + $ $ $ % $ % $ $ $ % $ $ & & & % & % & & = - 3 y g q 7 * @ @ ",
"@ @ @ 3 h h 1 * $ $ $ $ $ $ $ $ $ $ $ $ $ $ & # * $ & $ = & = = # = % # % $ $ $ % % $ $ $ $ $ % % $ $ % & & = = & & & % & = = 3 u a q 3 * @ O ",
"@ @ @ 3 h h 1 $ $ + + $ $ $ $ $ $ # * * $ $ & * # & $ & = # & # & = % % $ $ % # + $ $ $ % $ $ $ $ $ $ $ & & & # & & & & & & : 3 y g q 3 * @ @ ",
"@ @ @ 3 h h 3 @ * O * + * * + * + + * + $ * $ $ * $ * $ $ * $ $ $ $ % $ % $ % + % + % % $ $ $ $ $ $ $ $ $ $ & $ & & & & & & = , y s w 3 = @ @ ",
"O @ O 3 a h 3 * * + + * * + * * * * * * $ $ $ $ $ $ $ $ $ $ $ $ $ % $ $ $ $ $ $ % % + % $ # $ $ $ $ $ * * $ & & & & $ & # & & > w u w 3 = # @ ",
"O O @ : h h 3 @ + * * * * * + + $ $ + * $ $ $ $ $ $ * $ $ $ * $ % % $ % % $ % % % % % % $ $ $ * & $ & $ $ & $ & & & % # % & # : w t t 7 * @ # ",
"O O @ 3 a a 3 * * O * $ + * * * $ $ $ * $ * $ $ * $ $ $ $ $ $ $ % + $ % $ $ $ % $ % % $ $ $ $ $ # & # $ $ & & @ # & & & & & & > t t q 3 = @ @ ",
"o @ @ : h h 3 @ $ * $ + $ * * $ $ $ + * + * $ $ $ $ $ $ $ $ $ $ $ $ $ % % $ % $ $ % * $ $ $ $ $ $ & $ & $ & & $ & & & $ & & # > t u q > & @ @ ",
"@ @ @ 3 a h 3 * $ $ * * $ $ $ $ $ $ * * $ * $ $ * * $ $ $ $ $ $ % $ + % $ $ $ $ $ $ * $ $ $ $ + @ @ $ & & @ # $ # & $ & & = = , p s 7 : # @ @ ",
"o @ @ : g p 3 @ $ * $ $ * $ $ $ $ * + + + $ $ $ $ $ $ $ $ $ $ $ $ $ $ % $ % % $ $ $ * $ $ $ $ $ & & $ # & $ & & # & & # # = % 4 g d 7 * @ @ @ ",
"o @ @ : g h 3 * $ $ * $ $ $ $ $ $ $ * * * * $ $ * $ $ $ $ $ $ $ % $ $ $ $ $ $ $ $ $ $ $ $ $ $ $ & # & & # & # & & & & & & & % 3 g g 3 $ @ @ @ ",
"@ @ @ : a h 7 * * * # * $ $ $ $ $ $ $ $ * $ * $ $ $ $ $ $ $ $ $ $ % + % $ $ % $ % % $ % $ $ $ % $ $ $ $ % $ $ # % $ $ $ & & & 3 g g 3 # + @ @ ",
"o o @ : t a q 3 * $ $ $ $ + $ $ $ $ $ $ $ $ $ $ * $ $ $ $ $ $ $ $ $ % % % $ $ $ $ $ $ % $ $ $ + $ # $ $ + $ $ % $ % % $ $ & = 5 s s , $ $ # @ ",
"@ o @ * e a t 7 * $ $ $ + $ $ $ $ $ $ $ $ $ $ $ $ $ $ * $ $ $ $ $ % % % $ + % $ $ $ + % $ % % % $ $ # $ $ $ $ $ $ $ $ $ $ % = 5 d d , @ # # + ",
"o @ @ * q u t 9 : $ $ $ $ $ + $ $ $ $ $ $ $ $ $ $ * $ $ $ $ $ $ $ $ % + $ % % % $ $ % $ $ $ + $ $ $ $ $ $ $ $ $ % $ % $ & % = 5 g g 2 @ + + O ",
"@ o o * q t t q : * $ + $ + $ + $ $ $ $ $ $ $ $ $ $ $ $ * $ $ $ % % $ % $ $ % % % $ % $ % $ + $ # $ $ # $ $ $ $ # % % % $ % = 8 j g , @ O O O ",
"@ @ o @ 7 t p t , $ $ $ + * $ $ $ $ $ $ $ $ $ $ $ $ $ $ $ * $ * % + $ $ $ % $ % $ $ $ $ $ $ % $ $ $ $ $ $ $ $ $ % % # % % % > 8 g g , O o X O ",
"@ @ X * 7 q g t , $ $ + * + * $ $ $ $ $ $ $ $ $ * $ $ $ $ $ $ $ $ % $ $ % + $ + % + % + % $ + % $ $ # $ $ $ $ $ $ $ % $ $ - < 0 g u : O o o O ",
"@ o o * : q g p 1 $ + $ $ * $ $ $ $ $ $ $ $ % $ % $ $ $ $ $ $ $ $ % $ % % % $ % % % % % $ % % % $ $ $ $ $ $ $ $ % $ $ $ % ; 6 r p e : @ o o O ",
"+ + o # > 8 g d 3 = $ $ * $ $ $ $ $ $ $ $ $ $ $ $ $ $ $ $ $ % $ % % + % + % + % % + % % % $ $ + $ $ $ $ $ $ $ % % % % $ $ , w i y 8 * @ O O O ",
"o # o # # 3 j j 7 - $ $ $ = $ $ $ $ $ $ $ $ $ $ * $ $ $ $ $ $ $ % + % % % % % % % % % % $ $ $ $ $ $ $ $ % $ $ % $ $ % $ O - i f e 3 * + $ # + ",
"# o @ o # > d j q > * & $ * = $ $ $ $ $ $ * $ $ $ $ $ $ $ $ % $ % % % % + % % % $ $ + % % $ % $ $ $ $ % $ $ % % % $ % % $ < d k q > $ + + # + ",
"# # o @ # > y g t 7 * $ $ $ $ $ $ $ $ $ $ * $ $ $ $ $ $ % $ % $ % + % % % % + % % $ % % % % + $ $ $ $ $ % $ $ $ % % % * - 9 k k 7 * + O @ + O ",
"o # + o O - q p p e : $ $ $ $ $ $ $ $ $ $ $ $ $ $ $ $ $ $ % $ $ % % % % % % % % $ $ % + % % % $ $ $ $ $ $ $ $ $ $ % % ; 5 r k d 3 # @ @ O O O ",
"# o o # @ $ , w g s 2 = = = $ $ $ $ $ $ $ $ $ $ % $ $ $ $ $ % $ + % % + % + % + % $ $ $ $ % $ $ $ $ % $ $ $ $ $ $ % % , e a k y : @ O @ O O O ",
"# o # + @ # = 5 g h 7 : * = $ = $ $ $ * $ $ $ $ $ $ % $ $ $ $ $ % % % % + % % % + % $ % $ + % $ $ $ $ $ $ $ $ $ $ % % 1 a k a 6 * @ @ O O O O ",
"o # # o O @ @ : p g t 7 : = = $ $ $ * * $ $ * $ $ $ $ $ $ $ % $ % + % + % % % + % % $ $ $ % % % % $ $ $ $ $ $ $ $ % * 6 k l e 1 * $ + O O O @ ",
"# # @ @ @ @ X # q a a y 3 * $ $ % % % % $ $ $ $ $ % % $ $ $ $ % + % % + % % % % % $ % $ $ % + $ $ $ $ $ $ $ + $ $ * , e h h 6 * * # @ @ @ @ @ ",
"# o @ @ @ o @ # > q h h 7 : * * % % % % $ $ $ $ $ $ $ $ % $ $ $ % % % % % % % + $ $ $ $ $ % % % $ $ % $ $ $ + + $ ; r a a r , $ $ # $ @ @ @ @ ",
"@ @ @ @ @ @ o @ $ 3 a h y 5 : * * * % % $ $ $ $ $ $ $ $ % $ $ % % % % % + % + % + % $ $ $ $ % % $ $ $ $ % + % % - 6 h k r 1 ; $ $ @ @ @ @ @ O ",
"@ @ @ @ @ @ @ @ + - q a h u 3 * * % % $ + $ $ $ $ % $ % $ % % % + % + + % % % % % % $ $ $ $ + % $ $ % $ $ $ $ ; 6 r x h 1 % $ $ + + $ @ + @ O ",
"@ @ @ @ @ @ @ @ O $ , q h f 6 1 ; $ % $ $ + $ + $ $ $ $ $ $ $ % + % % % + % % + $ % % $ $ $ % $ $ $ $ $ $ % ; 6 r h h r : @ @ $ $ + @ + @ @ + ",
"o @ @ @ @ @ @ @ . + $ 1 r a a 0 1 $ % % $ + + $ $ $ $ $ % $ $ $ % % % % % % % $ + % + % $ $ $ $ $ $ $ $ $ % 6 0 h a 9 , * + @ + @ + + + @ + + ",
"@ @ @ @ @ @ @ o + + + * 6 r a a 1 1 ; % $ $ $ + $ $ $ $ $ $ $ $ + % + % % + $ $ % + % % $ $ $ $ $ $ $ % % 6 0 i h r > $ + + + @ @ @ + @ @ @ O ",
"@ @ @ @ @ @ @ o .     . $ 1 a a a r 1 ; $ $ $ $ $ $ $ $ $ % $ $ % % % % % % % % % $ % % $ % $ $ % $ $ % ; 0 f l q , $ O + + @ + + @ @ + @ @ O ",
"@ @ @ @ @ o @ o o o X X o * 7 p g g q 7 : * & @ & @ & @ & $ $ $ & $ $ & = $ $ $ $ $ $ $ $ $ $ $ = = : 5 9 u k s 5 $ O o O + + + + + @ + @ + + ",
"@ o @ @ @ @ o @ @ o o @ o @ * 7 t g g p q 2 : @ @ * & * $ & $ & & & $ $ $ $ = $ = $ $ # @ # $ $ - 2 w i k g u 8 * # O o + @ O + @ + + + @ + O ",
"@ @ @ @ @ @ o @ @ @ @ @ @ @ @ * 7 t g g t q 2 2 : * & @ @ & & & $ $ $ % = $ $ $ $ # $ $ $ * : 2 7 q u d d u 7 - $ + O + @ + @ $ @ + @ + + @ O ",
"@ @ @ @ @ @ @ @ @ @ @ @ @ @ o @ * 2 q t g g g t 7 7 : @ @ @ @ @ $ $ $ $ $ @ O @ @ $ = * : 3 w s k h d t 5 - = $ O O O + @ @ @ + + @ @ + @ @ @ ",
"@ @ @ @ @ @ @ @ @ @ @ @ @ @ @ o @ & : 7 t p g g t q 7 7 7 & 7 : , , , , , : - - > > 3 7 7 e p g k d e 3 $ O O + O O @ + @ + + @ @ @ @ + @ @ + ",
"@ o @ @ @ @ @ @ @ @ @ @ @ @ @ @ o @ @ @ @ 2 7 t p g z h p t u t y y y y u t t t y p s g g g p t 5 , - = # O O o O + @ + @ @ + + @ + @ + @ + O ",
"@ @ @ @ @ @ @ @ @ @ @ @ @ @ @ @ o o o @ o @ 2 7 t t g z h z g g s s s s p s s s s g s s d p q 2 $ O O o O O o # + + + @ @ @ @ @ + $ @ @ + @ + ",
"@ @ @ @ @ @ o @ @ @ @ @ @ @ @ @ @ @ @ @ @ @ @ * : 7 7 7 7 7 7 t e e e e e e t q q 7 7 , , > - = $ $ o O O O # o + + + + @ @ @ + @ @ @ @ + @ @ ",
"@ @ @ @ @ @ @ @ @ @ @ @ @ @ @ @ @ @ @ @ @ @ @ @ @ @ @ * : 2 2 2 7 7 7 7 4 7 5 4 > : = & # O @ @ # # + o # o # # + # @ # @ @ @ @ @ @ @ @ @ @ @ ",
"@ @ @ @ @ @ o @ @ @ @ @ o @ @ @ @ @ @ @ @ @ o @ @ @ @ @ @ @ * * # = # # # & % % & # # # @ @ O @ o # @ o + # o # o # o @ @ @ @ @ @ O @ @ @ @ @ ",
"@ @ @ @ @ @ @ o @ @ @ @ @ o @ @ @ o @ @ @ @ @ @ @ @ @ @ @ o o @ @ @ @ @ # @ @ O @ @ @ @ O + @ O o # + # o # o # # o @ o @ @ @ @ @ O @ @ @ @ @ "
};
