/* XPM */
static char *result[] = {
/* columns rows colors chars-per-pixel */
"94 81 77 1 ",
"  c #131616",
". c #141817",
"X c #151718",
"o c #16191A",
"O c #1B1D1E",
"+ c #1F221F",
"@ c #20211F",
"# c #1D1F20",
"$ c #1F2221",
"% c #242524",
"& c #282725",
"* c #262826",
"= c #282927",
"- c #272729",
"; c #262928",
": c #2B2C2C",
"> c #2D312E",
", c #30312F",
"< c #2D2F30",
"1 c #2E3131",
"2 c #333434",
"3 c #363836",
"4 c #383937",
"5 c #353738",
"6 c #373938",
"7 c #3A3C3C",
"8 c #3D403E",
"9 c #3D3F40",
"0 c #3F4041",
"q c #424444",
"w c #464947",
"e c #484A47",
"r c #464749",
"t c #474949",
"y c #4A4C4D",
"u c #4D504F",
"i c #4C4E50",
"p c #4F5051",
"a c #535554",
"s c #545857",
"d c #565759",
"f c #585758",
"g c #575959",
"h c #5B5C5C",
"j c #5D605F",
"k c #5E5F60",
"l c #5F6160",
"z c #616262",
"x c #666865",
"c c #6B6B6B",
"v c #747474",
"b c #787A77",
"n c #7E7E7E",
"m c #7F807F",
"M c #7F7F81",
"N c #828182",
"B c #8C8C8C",
"V c #908F90",
"C c #939393",
"Z c #9D9D9D",
"A c #9FA09E",
"S c #A0A19F",
"D c #A4A4A4",
"F c #A8A9A7",
"G c #A6A6A8",
"H c #ACACAC",
"J c #B3B3B4",
"K c #B6B6B8",
"L c #BBBBBC",
"P c #BFBFC0",
"I c #C3C3C3",
"U c #C7C7C8",
"Y c #C8C7CA",
"T c #CDCDCE",
"R c #CFCED0",
"E c #D0CFD1",
"W c #D2D2D2",
/* pixels */
"O#OOO$%;<122,2,1,,22,,,,,,,,,,<,<1,,,111>>>:>>>>>><<>:11:2,<<,<<>>>=>>*>>>>>>>>>>>>>>>$$....+.",
"#O#O$;2qigkhkhhkhhhhhhkfhkkfhhhhkkhhkghkjsjjjjjjkggkhhhhhhhhfhhhhsjjjjjsjslgjssjjjjjs06$+..++.",
"O###=6wahlzzzzkzzzzzzzzzkzzzzkzkkkkklllljjjjjllllllljjjjhkhkkkkksjjjjjjjhgllssjjjjjjjju5*..+..",
"ooO%2phhaq77779904407747477477777777677788886686866667764777747488883838888588888880usjsw*..+.",
"Oo%2qgjaq2&&&&&-&&&&&&&&&&&&&&%&****;***********$;*******%%%&%%%********$**********>8usjs3*+.+",
"#o-ygae7,&&&&&%%&@@@@&@&%&%&@@%%*+**$*$$**+**+***$%$++$%%@%@%@%%+++++*++$$*$$$$$$$$>;18sss8*.+",
"#-5fhe4>%%%@&@%%@&@@@@@@@@%@@@@#++++$$$$++++++++$$$+++++@@@%+++++*++++++$$$$$$$$$$$$$*>0sss>+.",
"%6yhs7:=%%@&%&@%@&&@&&&@%%%@&%&%+**$**$**+**+**@$*$%%+%+@%@%@%@%++*+*++*$$$$$$*$$*$$$$;18um8*+",
"=effu,&=%%&&@&&@@&@&@&@&&@@&@*&@**@***@***@**@**+*&@@@@@@%@&@@&@*+*+*+&++*+*+*+**$$*++*>8jjw>*",
">flu8,==&@@&&@&&&&&@@&&&&&&@&@***@@*@**@@***@**@&@&&===&@%@&&@@&+&+*+*++*+*+*+*@$**$****>sss8*",
",hze,,=@@@@@&@@@&@&@&&&@*@%&&&@&*****@****@*@*@**+&@@==@&@&@&@&@&+*@++**+***+*@**$**+**+3wssw*",
":hlq,==&&&&@@&@&@&@&&@&&&&&&&@**@*@***@*@*@*****+&@=@=@&@&@&@&@=+*+***+**+@@*+*@**$*****>ussw>",
"<hh7,&&=&@@&&@&@@&@@&&&&&&&&&&%&***@***@*****@@***+*&@&@&@@&&@&@*@*@*+***+*+*@**$****+**>wssw*",
"<hh4@&&&&&&@@&&&&&&&%@&@@&&@&@&@@***@****@@*****&+**@&@&@&&@@&=@*@@*@*+@+*+*@*@@*$+***+*>8usw>",
":hk2@&&&&&@&&@@&&@&@%%&&&&&&&*&&*@=@*@*@******@@*&+*@@@&&&=&&@@=@**+*@@*+**@%+*$********>8usw>",
",hh4@&@&&&&&@&&@@&@@&%&&@&&@&@*=***==****@@*@***@@*@&@&@&@@&@&=@*@**@**@**@**$%%+*+*+*+*>8wsu>",
"<gh5%%%&&&&@&&@&&@&@&&&&%&@&%%&@*&*=&*&&@&&@&&&@*&@&%%%&%%%%%&&%%%%%%%%%%%%$$*%$$%$**$$*;9yay<",
"2gh6%%%&&@@&&@&@&&@&&@@&&&&&&@@&*&*=*&&&&@&&&@@&*@@*%&%%%%%%%@%%%%%%%&%%%%%%*;%***;***;;<9ydy<",
"<gl7%%%&&&&&&&&&&&&&&&&&*@@*&*@&+&***===,&&&@@@@=@&&%%%%%&%&%&%%%%-%&%%%*$*%%$;$*%$;**-$<9ypr<",
"1hl4%%%&&&@@@&@&@&@&&&@&*&&**%&@**&&=>,,,=&&&@@@===@%%%&%%%%%&@%%%#%%%%%*%*%%*%*$*%**$-;;9ypy:",
",hk7%%%&&@&&@&&&@&@&@&&&@&*&*&***&&*=4eue4==@@@@@=@=&&%%%%%%%%%%%%%%-%%%%*;%$;;%;;%*;-$$<9ypr<",
"2hk4%%@&&&&@&&@&&&&&&@@&***@*@%&+=&+,exNbe,@@@@@=@==*&%%%-%-%%%%%%-%%%%-;$$;%*$;*$%%$;;-:9yay:",
">hk7%%&&&&&@&&&@&@&@@&&@@&@*%@*@&&&+,ubSScu,&@&&@@==%%&%-&%%%%%%%-%-%%-%%$;%*%*%;$$;$;-$:9yar:",
"1hh4&&@&&&&&&@&&&&&@&&&&**&*&&*&*&+*4abFJSmu,&&&>@=@%%%%%&%%-%%%%%%-$-%%*%*%$;$;%*%*-;$$<9yay:",
"1hl4%%%&&&@&&@&&&&@&**@*@*@&*@&@++&&8ubHILDva4,&&-&--%%%#%%%%-%%%%%%%-%%%%%%%%-%*$%$;*$;:9tar<",
"1hl7%%&&&&@&&&&@&@@&&@&*&****&***&@&,smJTULDNze,&-&--%%%&&%%#%%%%%&%%%-%*%-%-%%%%;;;*%$-<9yar<",
"1hl7&%&&&&&@&@&@@&&&**%*&@@&*@**++&=4fmJETYIHNxe2--&-%--%%%%%%#%%&%%%-%%%%%%%%%-;%*$*%;%<9tar:",
"1kl7&%%&&&&@@&@&&&@&&&@**%***&@&&+@=4amJEYYYIJCcr2:&&&-&%%%%%%%%%%%%%%%%-%-%%%%%%%%%$;$;<9tay:",
"2hl7*%&&&&&@&@&@@&&@&&@&**@&***@@&&@4smJTYTTEEKVcr2:&::&#%%%%%%%%%-%%%-%%%-%-%%%%*%*;%$;<9tat<",
"1ll7%%%&&&@&@&@&@&&&&%%*&@**&@*&=@@&4fmJEEEEEEYJVz9:&&:&%%%%%%%#%%%%-%%%%%%%%%%%%%%;%*$;:9yay:",
"1hl6;%&&&%%@&&@@&&&&@%***&*&&&*@&@&&4fmJWEWWWWEYJNzr2:--%%%%%#%%%%%-%%%%%%%%%%%%*%;$%*;-:9iar<",
"1ll7%%%&&%@&&@&&&@&@&*@&*@*@*@**&@@&4anJWWWWWWEEIJZvi2--#%%%%%%%%%%%%%%-%%%-%-%%;%;$%%;$<9tar:",
"2fz4&&&&&&&@@&@&@%%%%&&@%%%%%%%%@&%=4amJRREWWWRRRRPZvy,&&&&&%%%%%%%%%&%%#&#-&#-&%%%%%%-%:7yat:",
",kk4&@@@&&@&&&&&&%&%%%%%%%&%%%&%@@&=4fmJRREEWWRRRRIPAvp,&:=&%%&%&-%%#%&%-&&-&--&%%%%%%%->7yay:",
",fk2@@&&&@@&&&&@&&&%&@%&%-%-%%%-=&&=3fmJRRRRRRRYRETYKZvu32:&-=-&%%&%-#-%-#%&%#%&%-%%%%%%>8yat:",
"2fk2@&@&&&&&@&&&@&%&&&%%&@%%-%%%=@@=4fnJRRYRRRRRREEYIKAnf7:::<:-&--%&&-&&%%%%%&-%%%%%-%%:8eat:",
"2fk5#@@@@&&@@&&@&&@&&@&%--@&%%%-%%%&4fmJYRRRRYRRRRRTYYLSNh02:::=&---&-&&&##-&&#--%$%%#-->8tue:",
"<kk5&#@&&&&&&&&&&%&%%&&%%%@-%%%%%%%-4amJRRRYRRRYRTTRTTYPJVc9&%&-&-%%%-#---&&-#&&%--%%-%-:8yay>",
"2ff4@&#&@&&&&&@&&&%%%%%%-%&-%&%%%@&-7anJRRRRRRRRTTTETTTTUJVf2-%&--&&&%&#&%%--%%--%%%%%%%:8yaw:",
"2fk4&@@@&&&@@&&&%@&%%&%%%%%%%%%%%#@&4amJYRRRYRRRRRRYTTTTYIHBz2%%-&#-#%&-%&%#&&%#-%--#%-%>8ype:",
",fk2&@%&@&&&&%@&&%&%@*%%%%-%%%-%%#%-5fMKYRYRRRRRRRRTYTRYYIJVc4@&-&&&#-&#%%--&-&&%%%$;%*;18tpe:",
"2fk4@@@@&%%&&&&&@&%%&%@*%%%%%-&@%%%-5fMKRRRRRYYRRRRYYTYYILAvi,%&-##&#&&-%&&#&-#-%%-;$*%$:0yae:",
"<fz4&@@&&%&&%&&@&&@&*&&&@-%-%%--%%&-5fMJRRRRRRRRRRTYYRYYKAna7&%%-&&#-%%#%%&&%%%#*%%$;%;$:8ypy:",
"<kf4@@#&&@&@&@&&&%&%*@%*-%%%%%%%%%&-5dMJYRRYRRYRTRTYYERIDcy4:-%%&&#&&%#&&#-#%%%%%%*;$;%*>8yae:",
",kf4&@@&@&&&&&@&&%&@***@%%%%%-%-%##-7fMJRRRRRRYRTTTYYRPGMi,-%&%%#&&&#&&#&&#-#--&%;%$;*;%:8yaw:",
",fk4%#@&%&@&@&&%@*&*@&*&%--%%%%%-#%-9fMJRRYRYRRRRTTTYIGvi5&&::-%%#%#-#&&#&&-&&&%%%*%%%$*:8tae:",
",kk4&@@&&%&&&&&&&&&&&@*@%%#-%-%%-%%-9iMJYRYRRRRRRRYYKZni2&&:::-@#&#%&#%#-#&##-%&%%;;$%$%>8yae:",
"<ff2%@@@&@&&@&&@&%@****&%%-%%%%%%#%-2dMKRRRRRRYRYYIJVz92&-&---&%&#&&&-%%&&&-%%&-*%%$;;;*:8tay:",
"2fk5%$%%%%%%&%&%%&%&%%&%&-%-%-%%&@-&4fNJTEEEEEEEYIJVc7%%%%%%--%%%#&%#&#&&&&##-&-%*$*%;%;<9yar:",
"<kk4%$$%-%-&&%&&-%%-%&%%-%&@&%&-&&&&4fnJEEYYYEEYPJCz9:#%%#-%%%%%%%%%#&&-#-&-%%&#%%;%*$-$:9yar<",
"2fk4$%$-%%=%%&%&&&&&-&&---&&&-&-&%&&4fNJTEEEYEELGVcq-%#%%%%%%%%%&%%%&&##-#&#&%-#;%;*$;%;<9rat<",
"2fk4-%$%;--&--&--&-&-&--&-&&-&-&&%&&4fNJEEEEWEIGNf9<%%@%%%%#%%%%#%%&#&&&&&--%&-&%%$%%*;$:9yar<",
"2fk4%%$------&-%----%-%---&&-&&-%%%-4fNJTEEEEPGNk7&%%%@&&#&#%%%%%%%-%%%%%#&&#--&*;%%;-$;:9tat<",
"2fk6-$%%%=%=&-&-&&&-&&----&&&--&%%%-4fNJTTEEPGMp2:--&&-&-%&%#--#-##-%%%#&&-#&-#&%%$%$-;%<9iar:",
"2dk6%$%%**-%&%%--%-&&--&-%&%-%--%%%-4fNJETIPGMf5%%%--%-&&#%%%%-%%%%%%#%%#&%%%%%&;%;*$---<9tai<",
"2kk2%$%%=%%%--%&&%%-----%-%-%&%&%%%-4fNJTELDMf7,-@@&-&%@#&&#%%%%%%%%%%%%--&%%&#-%%*%--$$<9iat:",
"1hk5-$$--%%%%%%%&&&---#&&-#%%%%%%%%%2fMJYKDnf4&<&&#-&%&#&&%%#%%#%%#%%%%%-%%%%%%%%%$;%;%;<0ypt<",
"1hk7%%$%%%%%%%$%-##-%-&%%-&&%%%%%%%%2fMHKCvy7&-&-%&&-#&%&#&-&&&&%--%%%%%%%%-%-%%%**%;$;$<9idt:",
"1hk5$%%%-%%%%%-$&&-#%-&%%%%#%%%%%%%%2fnCVci2&&&--&-%%%%%&-&---#-%%-%%%%%%%%%%%%-%%$%;$%-<0tat:",
"1kk5-$#%%%%%%%%%-#&&%%&%%%%%%%%##%%-5fcczr42,&&&%-%%-&-%&##-&#&&%%%%%-%%-%%%%-%%;%;*%*;$10idt:",
"1hl5%#%-%%#&$%%#&&#&#&#&%%%#%@%%@%-&2yfr9:&::&%#&%%%%&&--#%%#&#&%%%%%-%-%%%-%%%%;%*%*%*%<0idt:",
"1kl5-#%%-%&#%%%%#%&#&&-&#&%&%#%%----<242:&&-&@##%%#&-&---&%&&---&%%%%%%%%%%%%%-%%;$*$;;$10pft:",
"1hl5%%%%%%#&&#%%%%&-&#&#&##&%%%%%-&&::&&-#--&&O%&%-&%-%--%---&&%&%%&%-%%%%%%%-%-%%$;;$;$10idi;",
"1hl5%#%-%%%&#%&%&-##&--#&&&##%%@%@-&&&-&&-&&---%&----&%-&%&#&#%%%&%%%%-%%#-%%%%%%*%%*%-;10idt<",
"1lk5$$;;-%#%%%%#&#&&%%%-#%#-#%%##-%%%%-%-&------&&%%&%%%%%%%-%---%&&#&%%-%%%%%%-%%-%;*%;10idt<",
"<hk9;;$-%%%%#%%%%&%%-%%%%%%%--%&-#%%%---&-&----&%-%%%%%%%%%%#%#%%--#--%&%%%%%%%%%%--$%*$:9tat<",
"1ll5;;:;--%%%%%%%%&%%%%%-%%%%&%%%%%%%%%%-%-&&-&%&%-&%%%%-%%%%%%%%%%%-#%#%%%%%%%%%%%%*%-;<9way<",
"1ll9-;;;-%#%%%%%%%%%%-%%%%%%%#%%%%%%%%%%%&&--%--%%%%%%%##%%#%%%%%%%&-&&-%-%%%%-%%-%%%;$$:7tdi<",
"<kl9;;;;-$%%%%%%%%%%-#%%%-&-%%%#%%%%%%-%-%--%%%%%%%%%%%#%%%-%%#-&-&-&&%%%%%%%%%%%%;%%%%;10idi<",
"<dk01;;;%%%%$%%%%%%---%%%-###&&&%%%%%%%%%&&--%&%%#%%%#%%#-%%---###&#%%-#%-%-%%-%%-%%%*;$10id0:",
":pkr5:-$%%-$%%%%%%%%%%%%-#---##&%%%%-%%%-&-&%%%&%%%%%%%##--##-----&&%&&&%%%%%-%%%%-%%;%;1idi0-",
";ygp0<%$$$%-$%%%%%%%-%-%--#&&&-#%%-%-%-%%-%--%%-%%#%%%%%-#--%%#-%&-#&--#%%-%%%-%%%%%$;$;5dk09$",
"-9ikp5$$$--$%%$%----#---%%#--#-%--%%%$-%%%%---%%%%%%--#-%%-##-#-%--%%%--%%%%%%%%%%%*-;;;9dk0:#",
"$<0ll9<;:;;-%%%$#-##--##-#-##--#$-$-#-$%%%%%%$%-%--##--##-#--#-####%-#%#%%#%$%%$$$$%*;:10kd5$o",
"#$9kld91:;;-%%%%#-#-#-#-#-#-#-#%#$%$--$%%%%%$-%%%--%-#--#--##-#--#-%-%-#%#%%+%%%$$$%;17widi<#.",
"##<illk9:;%%%%-%----#----#-#-#-#-$-%%$-$$%%%%%&%--#--#----#--#-#%-#%#%%-%%%%%%%%%%$%;7plli9;##",
"oo-9ikli062111>><<<<<<<<<-<--<-<:<<;::,:<<<<<:<<:<<<<<<<<-9----<-<<<<<<::::::<:>:1220phlk0<$$$",
"ooo#<9dkljauwq74599999999999999999990q789999999099999999999999999999959999999988qtpglllp9<$$#$",
"ooo #:9dllkgayyerriiiiiiiiriiiiriiiyyyyyyyyuyiiiiiiiiiiiiiiiiiriiriiiiiiiiiyyyyuuagllki9;#o###",
"oooXo#-18wyppsspidffddddddddddfffgfgfhfshshhkdddfffhhhddddddddddffffffffdfffhffgspyt05<;$####o",
"OOXOXXO#-<999irrriiiiiiiiiiririiiiiriiriiiiiiiiiiiiiiiriiiiiiiriyiyyiyuyyyiyyyyywq42:$O+O#O#Oo"
};
