/* XPM */
static char *result[] = {
/* columns rows colors chars-per-pixel */
"93 98 52 1 ",
"  c #141617",
". c #151719",
"X c #17191A",
"o c #1B1D1E",
"O c #1D1E20",
"+ c #1E2122",
"@ c #252525",
"# c #262825",
"$ c #282826",
"% c #262628",
"& c #28272A",
"* c #26282A",
"= c #2A2A2B",
"- c #2D2F30",
"; c #2F3132",
": c #333434",
"> c #373836",
", c #363738",
"< c #363839",
"1 c #3B3C3D",
"2 c #3E3F41",
"3 c #403F41",
"4 c #3E4041",
"5 c #434344",
"6 c #464749",
"7 c #474949",
"8 c #4B4C4D",
"9 c #4D4F50",
"0 c #4E5052",
"q c #545556",
"w c #555658",
"e c #57595A",
"r c #5A5C5C",
"t c #5D5E60",
"y c #605F61",
"u c #5E6062",
"i c #636364",
"p c #6C6C6C",
"a c #747474",
"s c #7C7C7C",
"d c #838383",
"f c #8C8C8C",
"g c #939393",
"h c #9B9B9B",
"j c #A4A4A4",
"k c #ABABAB",
"l c #AFAFB0",
"z c #B3B3B3",
"x c #BCBCBC",
"c c #C4C4C4",
"v c #CCCCCC",
"b c #D1D1D1",
/* pixels */
"++++++#**;;>;;;>>>$>>:>$>>>$::::::>:->->:::::$$>>>$>>$>:$>>;;;;;-:---:::::-:----:--&&&OOOOOOo",
"@+oo++*:44querrrrrrrrrrrrrrrrrrrrrrrrrrryqqyyyrrrrrrrrrrrrrrrrrrywyrryrrrrrrteyerrq932&OOOOOo",
"++o+#;44eeuirrrrrrrrrrrqrrrrrrrrrqrrrrrrryyyrqyyyryrrrrrrrrrurrryyyyryyyttytttteyretw82-&&OOO",
"++o+<8upuq44>>>>>>>$>>>>>>>>>>>>>>>>>:>>:>:$>>>>>>>>>>>>>>>>>>>>::::>,::,,,,,,,,223eytt3-&OOo",
"+++;8uuur4>;####o###$o#####o#o#o$o$o@o$oo$o$@o$o$oo$@oo#+#+####+@@@@O@@@@@&O&OO&&-23wttq3-&O&",
"++;4uuq44;*##*#+##o#$$oo#+#o##+#$@@@@@$$$@@@$@$@$$$$$$##########@@@@$@@@@&&@@&@@&&-;22qwy8&OO",
"O*40ue4;##+#+####oo#o$##########@@$@@@@@@@@@@@$@$$$$$$#####+####@@$&$@&@&@&@&@@&&%%%%-3qyw,&@",
"O=0u84-++#++###+##$##$$$#++##o##@@$$o$@@@@@@@$$$$$o$$$##########$&@@@&@&@&O&@&&@%%%%%&;3yy6,&",
"@<rt1=$+++++++#+$$$$$##o@$o$$$$@@$$@@@@@@@@@$$@$#$####$$########$&@@@@&&&&&&&&@@%%%OO@&:8ww6&",
"-2re1$@++#+#####o##o###$@$$@$o@@o$@@@@@@@@$$$$o$#$o#o##o#+###o##O@@@@@$OO&O&O&O&%%%%@&@&,3yw-",
"<6eq>@@@#####+##$$$$o$#$@@$@@@$@@@@@$@$$@@o$@o$oo$o$##$#+##o#o#o@@@@@@O@&&@O&&&@+&%%@@@@&3yy:",
"18q8,&@@#+++###+$o$$$$#o@@@@@@$$@@@@$O$o@@@@@@$@###$$o$o#+o#####@&O@@@@&@@@@@@@@&+%%@@@&&3yw,",
"4907:$$@@@@@+##+$o$o$o$$$$$$o$$o@@$@@@$$$@o$$$$@o#o$$###o$#$###o@@@O@&@@@&O&@@&@&@&@@&O&&3yw-",
"7q94:$$@@@@@#+##$$$$$$$$$o$o$$$@@@@@@@$o@@$@$o$o$###o#o$$$o$o$#$@O@@@OO@@O@&@@@@O&O&&O@O&3yy:",
"7q92-$$oo$@++###$o$$$$$o$$$$$$@@@@@@@o$$$$@@$$$@o$o$$$$$$$#o$o#o@@@O@@@@O@O&@@@&&&O&@O&&&3yw-",
"9q82$$$@@@@$+#+#$$o$$o$$o$o$o@@@@@@@@@$$o$@@$o@@$$o$o$o$o#######@@@@@@@&&&&O@@@@&O&O@@O&&3yw:",
"7q82-@@@O&@@@@@@@@@@@@@@$$$$$$$@@@$$@@$$@@@@$oo$$$o$$$oo$$$$o@$o$@@O$@@@@@@@@@@@O&&O&&&O&2tt&",
"9w83-@@@@&@@@@@@@@@@@@Ooo$$$$@@O@@@$@$$$@@@$$$$$o$o$@o$$o$@@$@$$O$@@@@@@@@@@@@@@&&O&O&O&&2te-",
"9q92&@%@O&&&&@&@@@@@@@OO$$$$$$@@@@$$$::=$$$$$$$o$o$$@$$o$$$$$@@@$$$$@@@@@@@@&@@@&@&&&&&O&2tt2",
"8q83-%@%%@@&O&@@@@@@@@@@oo@$$$@oo@$:59q83&$$$$$o$$$$$o$$@@$oo@$@@O$o@@@@@@@@@@@@O&O&&OO&&2te&",
"9w93-%%%@%+O&O@@@@@@@@$@@o$$:>3558qypasayy8883=$$$$$o$o$@@@$$$o$$@@@@@@@@@@@@@@@&@&O&OO&&2ww2",
"3t33-&%@&&&&&&@&@@@@@@$@oo@$3qafhjjjkkkklkhgfp8:$o$$$o@@$@$@$$$$@@@@@@@@@@@@@@@&&@&&&O&O&2te-",
"qw83-+%@@+&O@@&@@@@@@$@@o$>8yshzcvbbvccvbbvxlgaq>:$$$$$$$$$@$@@@$@@@@@@@@@@@@&@@&OO&&%O%%2te-",
"9w83-%@%&@&%@&O%@@@@@@@@$>9ahzccvbbbbbvbbbbvcxkgp8>$$o$$$@$$$@$@$$o@@@@@@@@@@@@&&&&&&&OO&2te-",
"3w33-&&O&@&O&@@@@@$@@O@$>9ahxbbvvvvvvccccvbbbvvzfp5&@@$@@@@@$$@@@@@@@@@@@@@@@&O&&OO&&&O&&2ee,",
"qww3&&@&&@&&@&@@@$@@$$o=qahxcvvbbvczzlkzxcvbvvvxzfy:$@@$@$$@@@@@@@@@$@@@@@@@@@&@&&&@@O@OO2ee-",
"3wq3-&O&&@@&O&@&@@@@@O$>pfxcvvvczkgffdddfhzxvvvvvka6&$@@@@@@@@@@@$@@@@@@@@@@@@&@@@&&&&O&&2yw-",
"wy33&&&&O&&O&@@@$@@@@$$3sjxvcvczdpq566336wahxvvbbxgy1$@@@@$@@@@@@@@@@@@@@@@O&@@&&@O&@&OO&2tt,",
"3y332&&O&&&&@&O&O$@@@@$3dzccccxhy3$@$$@@@&8albbbbcks3$$@@@@@@@@@@@@@@@@@@@@@@@@&&&@@&&O&&2ee-",
"3eq3&&&&@@O&&O%@O$@@$O$5gxcvvxkd6$$@$$$$$$:qhxvbbvzf6$$$@$@@@@@@@@@@@@@@@@@@&@&O@O&&@O@OO2ee:",
"we33-&&O&&@&&&@@@@@@$@o6gcvbvxjs3$@@o@$$$@@3djxxxzjs3$@@@@@@@@@@@@@@@@@@@@@@&@&O&OO&@@O&&2ye-",
"3yw3-&&&O&&O@@@@$$@@@$$6gcvbbckd5$$@@o@@@@$>ydhhfspw>$$$O$@@@@@@@@@@@@@@@@@@O&&&&&&@@&@O&2ye-",
"3w93&&&&@@&O@@@@@@$@$$$8gxvbbczfy:$$@@o@$$$&6ypay833$$$$@@@@@@$@@@@@@$$$@@@@@@@&@@&&&@OO&2ww:",
"qq93&&OO@&&@O&@&@@@@$$$6gxvbvccja8:$@oo@$$$$$:>>>:$$$@$$$@@@@@@@@$@@$OO$@@@@@@@@@&O@@@@&O2tw:",
"9w93-&&&@&@@&&@@@@@@$$$3dzcvvvvzhay5333>:=$$$o@@@@$$@@@$@@@@@@@@$$@@$@@$@@@@&@@@@O&@O&@@&2yw:",
"3w93&&&O&O&&&O@@@@@@@$$3ahzvvvvvxzhgdspyy6:$@@@@@@@$@@@@@@$@@@@@o$@@@@$O@@@@@@@@&@&&&&OO&2yw-",
"qw33:&&&&O&&@@@&@@@@@@@:ysjxvvvvbvvxkjgfdpy633,:$@$$$$@@@@@@@@@@o$$@@@@@@@@@@@@@&O@@&@OO&,tw,",
"3yw3&&&&@&@@&&O&@$@@$$o$:qgzcvbbvvvvcxxxlkhhfsy8:$$$$$@@@@@@@@@@@@$@@@@@@@@@o$@&&&@&&@@&&3tw-",
"3w93&&&O@&&@O&@@@$@@@o@o$3pfkxxvvvbbvvvvvcccxkfaq3:$$$@@@@@@@@@@@@@@@@@@@$@@$O$@@@O&O&@@&,tt-",
"qw93&@&&@&O&@&@&@@@@@@@$$$3qshzcvvbbvvvvvvcvcxxjfp3$@@@@@@@@@@@@@@@@@@@@@@@@$$$@&@&&&&OO&3tw,",
"9w83-%%%&&@&&@O&@@@@@@@@@$@=wafhjzxxxcccvvvcvvvczfy3$$@@@@@@@@@$@@@@@@@@@@@@@@@@O@&@&@O&&3yw-",
"3q83&&@@&O@O&O@@@@@$$$$$$@@$>33qpafhhkzcvvvvvvbvckdy>o@@@@@@@@@@@@@@@@$@@@@@@@@@&&&@&O@O&,yw-",
"qw83&@@%O&@@&@O@o$@@$$$$$$$$$@@$38ypadfgjkzxcvvbbcks3$@@@@@@@@@@@@@@@@@@@@@@@&&@&OO&@@&O&1yw,",
"3t83&%%O@@@@@@&&$$@$$$$$$$@$$@@@$:3333689ydjxvbbbcxg5$$$@@@@@@@@@@@@@@@@@@@@@@@@&&@&&&O@&1yw-",
"8q82-%%+@@@@@@@@@@@$$$&&>>:>::$$$$$@@@&$$,ysjxcvbvvjq$$$$@@@$$$@@@@@@@$$@@@@@@@@@@@&@@@@&1wy-",
"8q82-&%%@@@@@@@$@@@$$$>38qqqy8:$$$$$$$&$$$:qdjcvvbbkp3:$o@@@o$@@@@@@@@@O@@@@@@@@@&@&&OO&&1yy-",
"8q82&%%O@@@@@@$@@@$$$$3qasdddp3$$$$$$$&$$@$3pgxvbbvla5$@$$@@o$@@@@@@@@@@O@O$@@@@@@@@&&OO&1yw-",
"6q83-O%%@&@@O@@@@@$$$:qahzzzzgy>$$$$$$$$$$@:ydzbbbvka8:@@$$$$@@@@@@@@@$$$$O@@@@@&@@@&O@&&3yw-",
"8q82-*++%+*%+%%%o$$@@$qazvvbbza8:$@@$$$$$$$>yfxbbvvkp3:$$$@$@@$@@@$$@@@@@@@@@@@@%%%%%%+**2ue-",
"8w82****%*+**%@@$@$@$$3ykvbbvxja3@o@o$$$$$$3ahcbvvvjq$$$$@@$@$$$$@@@@@@@@@O@@@@@%+%%+*++*2ue;",
"9w82-*****+*+%@%@@@@$$:yjcvbvcxhy>>$$@$$=>3wfkcbbvch5$@$@$$$@$$$@&$@@@@@@@@@@@@@+%%+%++**2te;",
"8w92-+*++**+%%@@@@@@$$$8fxvbbbvzgsy3$@$$3qpfkcvvvcxf3o@@$$$$$$$$$&$&@@@@@O@@O@@@+%%+%%%+*2e02",
"8q02;*******%+*@@@@@$@$3ajxbbbvvxjfay8qypdgkcvvvvxhs3$@$@$$@$$@&&$@@$@O@O@@@@@O@%+%%+%+**2te-",
"8q04-%+*++*+%%@%@@@$@@$:qdkvvvvvcczkkjjkzzxcvbbvczsq:o@@$@&$@$$$$@$@@@@@@@@@@O@@%%%+%*+**2tt2",
"8w44-******@%@@@@@$@@@@$3yfkxcvvvbbbvbvbvvvvbvvczfy3$$$$&@@&@$@&$$$@@@@@@O@@@@@@+*%+%++**2te;",
"8w04-++*+%*+%%@%@@@@@@$$$3ydjxvvvvvvvvvvvvvvvcxkfp3:$$$$&$$$&&@$@$$@$@@@@@@@@@O@*+%**+%+*2tt;",
"8w84;#+**%+**%+*@@@@@$$$$:3yshkxxccvccccccxxzkhdy5:$&$@&@$@$&@&@$@=$@@@@@+@+@@*++*+*+++**2ee2",
"8w84=***+%***@@@@@@@@@@$$$$:3wpdhjzxxxxzxxzjgsw33&&$@@@$&$&$&&@$@=@@$@@@@@@@@@@%+**+**+*%2te-",
"8q94;+#+*+*+%@@@@@@@@@@@$$$$$=3ypdfgggffgfdapq:$$$@$@@@$@@$@@$$$@$$&$@@@+@@@+@%%******+**2tt-",
"8q84;***%%**%%@%@@@@@$@@@$$$$$$:3356586668633:$$@@@@@$@&$&$&$@&&&$@@&@$@@@@@@@+%*++*+*++*2te;",
"8w44-#++****@*@@@@@@@@@@@@@@$@@@@@$@$$$$@@@$@$o@@$@@@@$$@&&$$@@$$$@$$$@@@+@@@@+%*++***++*2ee;",
"9w04;***++*++*@%@@@@@@@@@@@@$$$@@@@@$$$$@@o@@o$@@@@@@$@$$$@$&&&$@$$$@@$@@@@@@@%%*****++%+2ee;",
"4w04-++**#*@%@@@@@@@$@@@@@@@$$$@@@@@$@$$@@@oo$@@@@@@@@@@@@$@@$@@@$$@@$$@@@@@%@*+%++*%%%+*2te;",
"0e94;***+**+%%@%@@@@@@@@@@@$@@@@@@@@o@@oo@@@@@@@$@@@@@$@&$@@&@$@@$@@$@@@@@@@%%%%****+%O%*2te;",
"0e44<+**+****@@@@@@@@@@@@@@@@@+$$@@$oooo$o$$o$oo$$$$$@@@@$@@$@@@@@$@@$@$@@@$$$@$@@@@%+O%&2tq-",
"4w04;**+#*+*+@@%@@@@@@@@@@$@@@+@@@@@@$$o@$@@$$$$o@o@@@$@@$$@@@$$@@$$o$o@@@@o@@@@@@@@%@%+%2tt-",
"0w44;**++*#**@@@@@@@@@@@@@@@@@$@o@@@$$o@@@@@$$@@$@o@$$o$$$@@@@@$o@oo$$$@o$@$@@@@@&&@%@O&%2ww;",
"0eq4;+****+***@@@@@@@@@@@#@@@@$+$@@$@@$$@@@@$$o@$@$@oo@$o@@@@@@o$@$$oo@@@@@oo$@@@@&@&&+O%2tw;",
"4w84;+****++@%@%@@@@@@@@@@@@@@@@o$$$o$o$@@@@@@o$@@@@$$$o@o$@@@o@$oo$$$$@O$@@@@@&&@&&&OO&O2tq;",
"0w94;++**+**%%@@@@@@@@@@@@@@@@$o$$$O$$$$@@@@@@@@@$o@$o$$@$$$o@$@o$$o@o$o@@@@O@@@@@O&@@@O%2tt;",
"9e84;******++*@@@@@@@@@@@@@@@@@@$o$$$$o$@@@@@@@@o$o$@@@oo$$$$$$$$$$$o@$@@@$O@@@&@@@@@@O&%2tw;",
"4e84;**++#*%@*%@@@@@@@@@@@$$o@@@$o@$o$$$@$@@@@o$@@@@@@@$@@@$o@o@$oo@$$o@$O@@@@O@@@@&&@@OO2tt;",
"0e84;*++*-+***@@$@@@@@@@@@@@@o$$$$$$$o$$$o$$$$o$@@@oo$$o$@$@$@@$$$@oo$@o$o$$@@@@%%%%%*+%*2tw-",
"0e84;+***++*+@%@o@@@@@@@@@@@@$@@o$o$$$o$$$$oo$$$@@@$@@$@$@@@$$o$@o$$@$@@$@@@@@@@%+%%%+%+%2tw-",
"4q94;**++***@%@%$$$@@$@@@@@@@@@@$$$$$$$$$$$$$$$o@@@@@@@$$o@@@o$$o@@oo$$o$$o$$$@@+*%%+*+%%2tt;",
"0w84;+*****+%%@@$@@o$$@@@$@@@@@@$o$o$o$$$$$$$$$$@@@$@@@@$@@@@$@o$@$$@@$@@o@$o@@$%*%*+%O%%2ww;",
"0e84-++**+#+**@@o$o$@@@@o@@@@@@@$o$$$$$$$$o$$$$$@@@@@@@@$$$$@@@@$@@@o$$$@oo$$@@@+*+**++%+2te;",
"4e94;+******+*@@$$$$@@@@$@@@@@@@$$$$$o$$$$$$$$$o@@@@@@@@@@$$@@$$$o$$@$o@$$@@@@@@***+*+%+*2tw;",
"0w94;*+++*++*##*@@@@@@$$$$@@@@@@$o$$$$$$$$$$$o$$@$$@@@@@@@@o@@oo$o$oo@o@@$@$o@@$***+*%++*2tw;",
"0e84;+*******#+*@@@@$$O$o$$@@@@@$$o$$o$$o$$$$$$$$o@@@@@@@@@@@@$$@@$@$$$$o$o$$@@@++**+*%++2tt;",
"8w72;+*+****%%+@@@@@@&O@@@&@@@@@$$#$$$$$$$$$$o$o@@@@@@@@@@@@@@@@@@@@@@@@%+@@@@*+***++*++*2tw;",
"0w82=+%*++%+@&&%$@@@@@&&@@@@@@@@o##o#$o$$$$$$$$$@@@@@@@@$@@@@@@@@@@@@@@@@@@@@@*%*+****+%*2tw;",
"0w82=++***%%%%&%@@$@&&&&&&@@@@@@$###o$$#$$o$$$o$@@@@@@@@@@@@@@@@@@@@@@@@@@@@@@%%+*+*%+%+*2tw;",
"0w72;*%*+%%+%@+@@@@@O&@OO&@@@@@@$$o$$$#$$$$$$$$$@@@@@@@@@@@@@@@@@@@@@@@@@@@@@@*+**+*%%+%*<tw;",
"0w82;%%**+**+%%%@@@@@&&&@@@@@@@@$##$$$##$$$$$o$$@@@@@@@@@@@@@@@@@@@@@@@@@@@@@%%@*++**+%+*<uw;",
"8w84;*%+*%+%%@%%@&@@@@O&@@@@@@@@$o#oo$o$$$$$$$o$@@@@@@@@@@@@@@@@@@@@@@@@@@@@@@@%******++*2tw;",
"4q04;**%+**%%%%@&&@&&&O@@@@@@@@@##o#$$$$o$$$$$o$@@@@@@$@@@@@@@@@@@@@@@@@@@@@@%%%++**+++**2tw;",
"40q8,*+***+%%&+%@@@@@@&&@@@@@@@@##$##$$$$$$$$$$$@@@@@@@$@@@@@@@@@@@@@@@@@@@@@@%&***+***+*<tt;",
"28t02**+%+*&+*%&&@@@@&&@&@&@&$@$$##$$$$$$$$$$$@@$@@@$$@@#+*###@#@@@@$@@$%%@@@@@+***++*+*;4t0=",
";4uu2---*****&*&@&&&&@@&@&@@@@@@$o#o$$$$@$$$@$$$@$$@@@@$#####*%@@@&@@&&@%%%%%%@@++-*=**;49q8*",
"+2tu82;-&*&&***&&@&@@@&@&&@@&$$$####$o$$$$$$$$$@$$@@$$$$#+###%%%$@$&&@@&%%*@%@%@***-*--2ww92+",
"O*8ut82++%++%+%%&&@&@&@&@&@&@@&@#####$$$$$$$$$@@@$$$@@$@####*@%%@$@@@&&@%%@*%%@@***-*;24ut4-+",
" +20tt4;-&+%OOO@O&+&@&@&@$$@@$@@##$####$$$$$$@$@@@$$@$@@########+%%%&@@&**%**+*+***-;24wuw:+O",
"OO*20tt02;&+%%%@&@+&&&@@@@@@@@@@########+$##@$$@@@@@@@@@+#######&@@@@@@@*++*****--*;40upq4*OO",
"OXO+4qtw822,2,,,,,,,:,,::,>>>::,>>>>>:>>>>:>>>>>:>:>>>>>>>>>;>>>,,,,,,,,:<,<<<<<24248tut4;O O",
"X O+*24qtttwtttetettrwyywyrwyywyqrrrrqrrrrrrrrrrrrrrrrrrrrrrrerrtttwtwtttwtwttwwttuutq6<*+O  ",
"XX XO+24qeeeueeeeeeueeteeteeeeueeeerrrerrreeeeeeqrqeeeqrrqrrqrrrwtwttwtttqteeeqwqeee04;%XXXX.",
"XXXOXO+*-;;;;;;;;<;;;;;;;;;;;;;;;;;;;;;;;;>;>;;;;;>;#>;>;;;;;;;;-;--;-----;--;----;;-*OOXXoX."
};
