/* XPM */
static char *result[] = {
/* columns rows colors chars-per-pixel */
"93 98 68 1 ",
"  c #171A1C",
". c #1A1C1D",
"X c #1C201F",
"o c #1C1E21",
"O c #1E2122",
"+ c #242525",
"@ c #282727",
"# c #252827",
"$ c #282827",
"% c #252628",
"& c #26292A",
"* c #2A2B2C",
"= c #2C302F",
"- c #31302E",
"; c #2D2E31",
": c #2F3232",
"> c #323434",
", c #353837",
"< c #353639",
"1 c #36393A",
"2 c #393B3C",
"3 c #40403F",
"4 c #3D3E41",
"5 c #3E4142",
"6 c #444544",
"7 c #474846",
"8 c #454749",
"9 c #474A4B",
"0 c #4B4C4D",
"q c #504E4E",
"w c #4D504F",
"e c #50504E",
"r c #4D4F50",
"t c #4C5050",
"y c #535555",
"u c #545857",
"i c #585856",
"p c #555758",
"a c #555859",
"s c #5B5D5D",
"d c #5E605F",
"f c #5D5E61",
"g c #5F6162",
"h c #616365",
"j c #696966",
"k c #6B6B6B",
"l c #72716F",
"z c #7C7C7B",
"x c #81817F",
"c c #828281",
"v c #8C8C8A",
"b c #91918F",
"n c #919191",
"m c #9D9D9B",
"M c #A09F9E",
"N c #A1A19F",
"B c #A3A2A2",
"V c #A9A9A6",
"C c #B0B1AD",
"Z c #B4B4B2",
"A c #B8B7B5",
"S c #B9BAB6",
"D c #C0C0BD",
"F c #C5C5C3",
"G c #C9CAC6",
"H c #CCCCCB",
"J c #D0D0CE",
"K c #D4D4D1",
/* pixels */
"  .Oo.o%;>;>;;;>-------------->-<<;<;;<;:4;4;;;4%;;;;:::;>>>->>>--,->>->>>>>>>>;>>>;;+ooooooo",
"... .+;6yaffffssjiffffsfffhhffffffpffffffafafffpafffsssassssasssdiddddfffffffssffffp8>+oooooo",
".O++&<8pfggfhdhdjdjifhhhfhhfhfhhfffffffffffffpapfffffsddsssssshsddjiddddffffsfsdhhhsy81*Oooo ",
".o&>8afsr5221111-3--<<<<<<<<22--<<4<<<<44:4444444;4;,,,,,,,,1>,,3---<<<<<<<>>11,<168rsa8<+ o ",
".+>8pffr4;%O++++@+++@@@.@@@+++++%%%o%%o%OO&OOOOOoo%O&%+O+X+XOOOOX+XX+X+XoOoO+oXOO&;<8afp8;OOo",
"O*4afr4<;%+%++++@.++@.@@+@o@+++@oo%%o%%oO&O&%%&%%oO%&O##+++++O+++X+++X+++++OO++O+&*%>20ap4;%o",
"+<0fa4;&%%+++%++@@@@.@@@+++@oo@o%o%oo%%%%OO%O&O&%O&%&#OO+++XX+X++++X+X+X+++++O+++%%&%;2rpr4*O",
"*8py0>%&%++++++%@@.@.@.@+++o@@@+%%%o%%%o&O&&O%%%%&O%++#++++++++XX++++++++o+O++O+&&%++%>5raq* ",
";yfq<@%%%+%+%%++@@..@@.@@.@.@@@@%%o%+%OO%+%+%%+%###X#+##X+++XX+++.++X++X+++++++++&&+O&;:8fa: ",
"-fh4;%oo%++%%o%%@.@@.@@@@@@@.@.@%oo%%o%%%+O+++O%####++#X++$X++X+++++++++++X+++.++%%+%%&;4aa<O",
"<fh<%o%%%%+%%o%%@@@.@@@@.@.@@@@.+o%%%%++%O%%++%%X#+++##+++X+++++++++X+X++X+X.@+++%%+O&%%<aa4&",
";ff-%%o%O%%o%%%o@.@@@.@.@@@@@.@.+%%oo+%%%%%O+%++####$X+++++XX+X+X+++++++++++X+++O%O%%%%+<rp6<",
";if<o%%%%%o%%++%@@.@@@@@@@@@@.@@+++++o++O%%++%+%##+++$+++++++++++++X+++X+X+++++.#+%++%++>rp0<",
"<if<%%%%%%%%%%+%@@@@@@.@.@.@@@@@%+@o+%%o+%+%%+%+++++#++#++++$+++++++++++++++++++++++++++>0p02",
";ff<o%%%%%%%%%%%@.@@@.@@@@@@@@@@%+++++++++%%%%++++++$++$++++++++++++++++++++++++++++++++>ry8<",
";pf<%%%%%%%%%%%+@@@@@@.@@@@@@.@@%++++++++%%+++%++$+++$+++++++++++++++++++++++.++++++++++;rp02",
";ff-%%%%%%%%%+@%+@@++@@+@@@.@@@@+O+++O++++%%++++++$+++$+$+++++++++++X+++X+++++++X##OO&O&4aaa1",
";ff<%%%%&@%%+%+@@+++++@@@@@@@@@@++++O+++++%%@+@++$+$++++++++++++++++++++++++++++####&O#O=5a55",
"<ff<%%%%$++$%%+++@+@+@++@@@@@@@.@++++++++++@+++@+++$+$++$+++++++o++@++++++++++++#+#OO&O#=5a5,",
";fi<o%%%$++$%%%+@@@+@@++@@@@@@@@++++++++@+++@++@++$+$++++++++++++++O++++++++++++++#O#O#O<aa51",
";si<%%%%+#+++$+++@@+o@@3qqqqqqqq3q3iqqqqqqqqqqqqe7e33-$++++++++$+++@++++++++++++++X#OO&#<ta51",
";sf<o%%%$+++$+++@@@+@@7xMMMVMVMMBBNVBBBBMVVVVNVBCxxxd,$++++++++++++++++++++@++++#++#&OO&:5ft,",
"-fs<%o%%$$+++++++@++@@qBGJJGGGGGDJDKJJJHJJHHHJJJKGSml3-+@++++++++@+++++@++@+@+++O&#+&&O&4ta55",
";sf<o%%%+$++$++#+++++@qBJGJJJJJGKKDJHHJJJHHHHHHKKKDVl3##+@+$$+++++@+@+++++++++++&+#+O&&O<tat1",
";pf<X######X#+##+++.++7MGDGGGGGGDDJDKJJJDDJDDDDDFHDMl3++@++++@+@+%+++++@++++&OO&#+&&O&O&55aa5",
">fa<#X########X#+@++X@7xAACAADAAAFDDKJKDDSDASDSSAAVbj2+@@+++++@+%++@+@++++#+#&&&O%O&&O=O55a55",
":sf>#######X+#++@@@++@3lxxxxxxvvbMCDJJJDDmbxbbbbvvcli>++++$$$+++%%%++++@++##O#&O&+O&#&O&55aa,",
":as<XX##X###++++@++++@--q7qq7333ilbADKKKCl3333338q73<@+++@$+@+@+%O%%+@++++####&O##&O#&O&55a51",
"=da,O########X#++++@+++@-@++++++-ixAKDKKV3@@+.O+@@%@++++%%+@@+++%+%+++++++++O&O&&&&OO#&O:tat<",
"=ad,O#####X###++@++@++++@@++++++3ixCJJKKVq@@+@@+@++++O++%++++++++%%+%%%%&&+&&&&OOO&&###&:ta54",
":dd,########X###++@+@+++@@++.+++-ixAKDDKNq@@@@@+@++oO+++++++++++%+%%%%+%%+%%&O&O&&O&&&&O<tg5<",
"=dd:O#####O###+++++@++@+@@++@+++-ixAJJJJV3+@+@+@+++++O++O++++++++%++%+%+%%%+&O&&&O&&OO#&:ta54",
"-dd,+@+@@++@+@+@@+@++@+@++++++++3ixZDJDKNe@@@@++++++++++++++++@o+%%o%%@+%%%%%+%%%%%+%%%%>tp94",
"-id,+++@@+@+++++++++++++++++++++-ixZKJJJNe@@@+$+++++X++X++++++@@@%@%%%%@%o@%+%%o%%%+%O+%>rp94",
"=dd-++@++@+@+@++++@+@+++++++++++3ixCGJHDNe+@@@+$++++++++++++++++%%@@@o%%@o%@+%%%++%%++%O>rp9<",
"=sd-++@@@+@+++@++@+@+@@+++++++++-ixAJHJKNq@@@+@+@++XX++X+++++@@oo+%%%@%%%%%+%%++%%+%%%+%>rpr4",
"=sd,+++@+++++@++++@++++@++++++++>ixZGGJGNq@@+++@++++X+X+o++++++++@%%o@@@%%%%%%%%+#&+%O&%>rp92",
",su,++@@@+++@@++++++++++++++++X+>ixZGJJGNq@@++@+++++++++@+++++o++@o%@+@o@@o@@@+@&&O+%%O%>rp92",
"-sd,X+@+@+++.@.@+++++++X+++X+++X>ixCHHHGMq+++++@++++++++++++++@@o@o@@@@@o@@++o%+++&##&&#>0p02",
",us,++@++++++@@@+++++++++++++X++>ixZGHHGMq+@++++@++++++++++++@o+@@%+++++%@+++@@@#+O#+O#+<rp0<",
"=sd:X+##++++++.@+++++X+++X++++++>ixCGHHHMr%%%++@+++@++@o+o+++@+++@+++@@+++++++++++#++#++:ta02",
"=sd-#+#+@++++++@+++++++++$+++X++>ixCHHHGMr++%@++@++@+++@@@+@+o++o@@+++++@+@+@+@+#+#+#++#>tp02",
",du,++#+@++++@@@+++++++++XX++X++>ixZGHHGMq%++++++++o+oo@o+oo@@+o@+@o+++++++@+++@#++##++#>rp02",
"-dd,++##+++++.@.++++++X+$X$++++X>ixCHHHHMq+++@+++++++@@@@@@@oo@@o@@@+@+@@+++@++++##O++#+>rp02",
"-dd,X++++++++++++++++++++X+++XX+>ixZGHHGBq+%+++@+@++o@+o++++@+++@@@@@o++++@+@++@+#+#+@$+>rp02",
"-di>+++#@+++++++++++++X++++X++++>ixZGHHGMq++++++++++@@@+++++@+++o@o@@@+@++++++++++#+++++>rp02",
"-sd>++#+@++++++++++++++++++++X++>ixZHHHHMq%++%+@++++o@+@+@@+@+++++@o@+++++@+@+++++++++++>0p02",
"-sd-+++#+@+@+++++++++++++X+X++X+>ixZHHHHBq%+++++++@+@++++++++++@+@@@+++@+@+++++@+++@@++@>rp0<",
">ss>++++@++++++++++++++++#X#++++<yzZHHHFMq++@+@o@+@++++++@++++++++@+@+@+++++++++&OO####O1tg51",
">ss>+++@@++++++++++++++++X#XX+X+<ycZHHHHM7@++@@++++++@@+++@+@++@+@++++++++++++++##&##O##,taa1",
"-ss>++@@+++++++++++++++++++XX+++<ycZHHHHMq+@++@++@@+++++++++@+++++++@++++@@++@@+O#O&O###:5a51",
"-ss<++++@++++++++X#++++XX#X#++++<yzZHHHHMq++@++++++++@++@+@++++@+@++++@+++++++++###&O#O#1aa55",
"-ss>++@@@@++++++++++#+#X#++X++X#<izAHHHHMq@@@@+++@@++++@++@+++++++@+O@@++@+++@@+########,aa55",
"-sf>++@+@@o@++o++X++X+++++++X+++<izAHHFHMq@@@o+@+++++@++@++++@+@+@++@@O+++@+++++O##O#OX#:5aa1",
">ss<O++++++o++++++###++#XX#X+X+X<icAHHGHMq@@@@@@+++++@+@++@+@+++@+O@+@@++++++++@######&O,aa51",
"-ss<+++++@+++++++++X+++##+++++++<ycAHGGHMq@@@o@o@++@++++@++++++@O@@++++@@+@+@++@+#O#&O#&,5ft1",
"-dd,OO+@@+++o++o+++#+++X+++OO+o+;qknBBBBx7@@@@@@+@+@+@+@+++@+@+++++++@@@++++##X##X##X#O#,5ft5",
">ii,@+@@++++@++@++X#X+++++++++++%;4qqqqq3@@@@@@o++++++++@+++++@+@+@++++++++########O####,aa51",
"-sd-O+O@++++@.++X+++#++++XO++O++%@@%%;%%++@+o@o@+++++@+++@+@++++++@++++++###X####+X##X##,5g55",
">sd-O+@@@+++@+++++++++X#++++O+++%@@@@@%%+@++@@@@+@@+++@+++++++@+++++@++@++#X###X+######O55fa1",
"-ss>++++@++++++++++++X++++++++++++@@@%%@@+++@+@+++++++++++++@+@++++++@+@++++######X#####:5f54",
">ss>+++@++o++++++++++++++X+Xo+++++@@%%@@@++@+++++@+@@+@++@+@+++++@+++++++$$+##X#X####XX#4ta54",
"-ss1+@+@@++++++.X++++++++X++++o+++@o@o@o+@++++@+@+++++++@+++++@+++@+++++++++############45a54",
">ss>.+@@@++++++@+++++++++++Oo+@+++@o@@@@++@++@+++++@+@+@+++@+@+++++++@@++$++X##X###X##X#55a54",
"-fs>++@@@@..@@@@@@@.+++++.+X+++++++.@@@@@+++@@.@@++++@@@@@.@+@+@.@@@@@@@+$++$++$#+#####X,wuw,",
"-sf>++@+@@@@.@.@.@@@++++@@++++++@@+++@.@+@.@@@@@.@@+@.@+@@@@++++@@@.o@@.+++++++$#+$X#X##=wu7,",
"-ss<+++@.@@.@@@@@.@@+++++++X+++X+.+@.@@+@@@@@.@@@@.@@@++@.@++@@@@.@@@@@@+$++$++++#######,wuw5",
">ss>O+@+@@@@@.@.@@@.@.+++XX@+++++++@@@++@.@@+@@.@@@@@.@++++@@.@++@@@@o+@++++++++++++#X#X=wuw,",
"-ss<O+@@@@@@@@@@.@@.@@@+++X@X++++++..@@@@+@.@@@@@@@@@@@+@@@@@@@@+++++++@#+#++#X##++#X###=wuw1",
"-ss>++@+@@@..@..@@@@.@@.++++++++@@++@+@.@.@@.@@@.@.@.@@..@.@+@.@+++++++++#++##$+#++#####=wu95",
">ss<O++@@.@@@@@@.@..@@@@++++@X+++.@.@.@+@.@.@.@.@@.@.@@+@@@..@@.++++++++X#+#X#+++##+####,tuw,",
"-ss-+++@@@@@.@@.@@@@@..@++X+++++++@@@@@.++@@@@@+.++@@@@..@@++@@@++++++.+#+++###+#X#+X#X#=tuw,",
"-ff-++@+@@@o@@@@+++X+#+#+X++X+++@.@++.@@@.@..@.@@.@@@.@@@@@.@.@.++++++++++++##++O#O#####,tu7,",
"-ff<+o@@@o@@.@.@+++++X+#++++++++@@@+@@@.@@@@@@@@@@@.@@@.@.@@@.@@+++.++++++++#X#+#####X#X=tuw,",
"-ff-@@o@@@@@@@+++++++++X++++++X++..@+.@+@..@@+@..@@@@.+@@.@.@@@.++++X++++++++#++#O#O#X##,tu75",
"-id<o@@@@@o@.++++++++++#+++++++++@@@++@+@@@@@.@@@@@.@@.@@@@@@.@@++++++++++++++##########=tuw,",
"<sf-@@@@@@@o@@+++++++++#+++#X+++.@@@.+@@.@.@@.@.@.@@@.@..@@.@@@@++++++X@++#+++####O#####,wu7,",
"-sf-o@@@@@@@@o++++++$X+XX++X++++@@+.@++.@@+@@.@@@@.@@@@@@@@@@..@++++X+@@++++X##XO######O=tuw5",
"-if<@+@oo@@o@@+++++++++##+++#+#X.@@@@+++@@.@@@@.@@+@.@....@.@@@@+@+++++X++++#X#+O#O&#X##,tu9,",
"-fi<o@+@@@@@@@+++++++++X+#+++++++++.+++++.@@@.@@.@.@@@@@@@@@@..@+.++++++++X#++#+#&O#####:tuw5",
"-ii3X+@@@+@+++++++++++X+++++++++o@@+++@@+@@+@@@@@.@..+++++++O++O++X#X##O#OO#O##OOO&&O&&&:tp02",
"-id-+@X@+++++++++++++++++++++++++@o@o@.++.++.@.@@@@@@+++o+++++++++#+#O##O##O#O#&&#&O&&%O<tp92",
"-di-+++@@++@++++++++++++X++X+#+++o+@@+++@..@.@.@.@.@@@++@+++++++++X####O####O#&O&&O&%O%&>ra02",
"-di-.+++@++++++++++++++X+++++#X++++o+@++@++@@@@@@@@@@.@.++++++++++###XO##OX#X#O&OOO&&&O&:tpr2",
"-ss-X+@@@@@++++++++++X++++X+X++X+++++o++@.@@.@@..+.@+++++@+++++++#++##O#O##O&O&OOOO&&&&O;rf9<",
"-ss<+XX+@@+++X++X+++++++X##+##+#++++++++@@.@@@@@@@@@++++o@+++++++X++O&#O#OO#O&O&&OO&&&&O;rp94",
">ss<X+X+@@++++++++++++++####+++#+++++++++@@@..@..+.@++++++++@++++++X#OO#O#&O&O&&OOO&&&&O:pf9:",
">dd<X+@+@+++++++++++++++++X+++#X@o++++++.@.@@@@@@++@++++.+++O++O++##O##O&O#&O&OO&O&OO&O&4ff4&",
">sd4*###X###X##++#+++#++X#+++#++o@++++++@o++@@@@@+.@@@@@+++++++X+X+++#++&&O&O&&O%o&o%%%;4ff4o",
"-qs02=#####X##X#+#X+X#X++#+#X##X+++++++++++++o+o.+++@.@.+++++++++#+++X++O&&O&OO&%%%%%%<4rft4 ",
"@60aw,#####XX+##X#++#++++++X+##++++++o++++o@o@++@++@@.@.O+++++++++++X+X#&O&O&O&O%&%o%;4taa9& ",
"+>6hg6=#X###++X#+##X#+++X#+#+#X++++@++++++@@o@++@+.@@@@@+++++++++++X#++#OO&&O&O&%&%o%49fht4o ",
"X#,ugt5,-=##++X#X+#+$+++X##+X++X+++o++@@o+++@@@@o@@@.++++++++++##X####X#&O&O&&%%%&;;45pff4&o ",
"XX#1tdddw,==X+XXX+#XX$X+#+X##++#@@+++++@++++@@+o+@o@@@@.++O++++XX#XXX+#XOOO&oooo&;49pfft4;oo ",
"X X#,tddiw33,--,---,,,,--,,,,,-,<-2---3--3--<-3----33---,,,>>,-,,,=,,,,,<<<<1<<<489afat4;o   ",
"  XXO=19iddidiidjjdddddddddddiddddddddiddiddddidddddidddidddddddddddddddfffffffffffa94;&%o   ",
"X     X,3uuuissdddddiddiddddddddidddduddddddddiddddddidddddddddddddddddddudddddagau55& o     ",
" X  XXX##===,-,=,=--==,=-====-=--===,-=-==-=====-:====--=-==-====:========::=:::::=&OOOOo o  "
};
