/* XPM */
static char *result[] = {
/* columns rows colors chars-per-pixel */
"93 98 85 1 ",
"  c #15161A",
". c #161A1C",
"X c #191C1E",
"o c #201E1F",
"O c #1C1E21",
"+ c #211F20",
"@ c #1E2122",
"# c #242525",
"$ c #282727",
"% c #262827",
"& c #252728",
"* c #282728",
"= c #262829",
"- c #2B2D2C",
"; c #2E302F",
": c #2E2F31",
"> c #312F30",
", c #2E3131",
"< c #333535",
"1 c #383637",
"2 c #353738",
"3 c #383638",
"4 c #363939",
"5 c #3C3D3D",
"6 c #403E3E",
"7 c #3D413F",
"8 c #3C3F41",
"9 c #403F40",
"0 c #3E4141",
"q c #424344",
"w c #484747",
"e c #454749",
"r c #494748",
"t c #47494A",
"y c #4B4D4D",
"u c #504E4F",
"i c #4E504F",
"p c #50504F",
"a c #4C4E51",
"s c #4E5052",
"d c #545655",
"f c #585657",
"g c #545856",
"h c #555758",
"j c #575A5A",
"k c #5A5D5D",
"l c #605E5F",
"z c #5D5E60",
"x c #5E6162",
"c c #686767",
"v c #626568",
"b c #666868",
"n c #6C6C6C",
"m c #706E6F",
"M c #737373",
"N c #787777",
"B c #777978",
"V c #7D7E7D",
"C c #807F7F",
"Z c #81837F",
"A c #7F8080",
"S c #828381",
"D c #888787",
"F c #868887",
"G c #8C8D8C",
"H c #939393",
"J c #9D9D9D",
"K c #A09F9F",
"L c #A5A6A4",
"P c #A7A9A9",
"I c #ABABAB",
"U c #AEB0B0",
"Y c #B5B6B5",
"T c #B8B7B8",
"R c #BCBCBC",
"E c #C5C5C5",
"W c #C8C6C7",
"Q c #C7C8C7",
"! c #C7C9C8",
"~ c #CCCDCC",
"^ c #D0CFCF",
"/ c #CED0CE",
"( c #D0D1CE",
") c #CFD1D0",
"_ c #D1D2D2",
/* pixels */
"....   O&:8&8:::,,,,,,;;;;;,;;,7%-7%-7%;<;>>,,>,>::,,,,,,,,,,,,,;;;<;;<;;;;;;;;<;;7;;;%%XXXX.",
".XOOO O89hzzhhzzzkkkkkkkkkkkkkkkkjkkgkkgkkkkkkzkzzkzzkzkkzxjjkkkkkxggxgxgbxgxgxgkkggg7<%@..XX",
"O.OO&&89hvvjzhzzxkxkkkxxkgxkggkgkgggkgxxklkzzzzzzzzzzzxxzxzxkgkkgxxgbgxgxgxggxxkxgxkxg77;%...",
" .O&2azha88828:84<<4<<<<77;77;77777;77;7<<222<2<<2<2<2<4<<<<<7<4<;7;<<7;7;774<<;7;77ggkg7%..X",
"O.&<ezva9:&OOOO&@%@@@@%@X@@#@@@@@#@@X@@@++#+++#+#O+#+#@@@@@@@@#@@@%@@@%@%%@@%@@@@@%%7gggg7%@X",
"OX=azza8:&&&&&O&@%&#%@%@#@@%#%######+#######$##+#####&#@%#%@@%%%@%%@%%@@%%%@@%%%%%%%%;7ggg7%.",
"++2zvd8:&&&&&&&&&&&&&%###%#@%#####%###%#*###$##$##&#&##&%##%###%@%@%%%%%%%%%%%@@%%%%%%%7gxg;@",
"#:9zj9<&O&O&&&&&@%%&@%&#%#%%%#%%%%#%###%+$#$######$#######%###%@%%%%@%@%%@@%%%%%@@%@@%;,7xg<%",
"&9aaa3*&O++&&+&&#&&&@&&%%@#%###$%##########$$+$$###%######@%%###%#%%#%%%@%@%%#@%%%@@@%%%;gg7;",
"*aza8:&OO&&&&&&&&##&&&&@%%#%####%%#%&#$#$###$$$#####%###%#%#####%@@%%@@%%%%%@%%%%%%%%@%@;ygg7",
":zz9:&+&&O&&***+&&#&#&&&%@##%%$$%%####$####$$+$o##%#####%@%#@%##%%%%%%%%%#@%%%@%@%%@#%%#%7yg7",
">zz8&&&&&&&+*&&&&&&&&###%%%##%#$#%########$#$o$$%####%##%%%@%%%%%@%@%@@%@%%%@%%%%%%@@%%@;7ygg",
"3zz3+&&&&&&++*+&##&#&&&#%%@=#####%###$+$##$+$$$$%##%###%#%##%%@%%%@%%%%%%@%%@%%%%%@@@%%#;7ygg",
":fz3*&&+&+****&&&##&&@&%@=%%$$$#%#&**#$$#$$$+$$+####%#######@#@%@%%%@%@%%%%#%%%@%@%@@%%%%7ggi",
":ff3&&&&&+**+***&&&&%%&&&##&#$#######$#$$$+$$$+$#####%######%%%%%%%%%%%@%%@%%@@%%%%@%%%%;7igy",
":fz3+**&&&***&&+#&#&&@&@&&#&#$#$###*$#$+#$$+$$$$%%%#%%##%####%@%@%#@%#%%@@%%#%%%%@@%@%%#;7igy",
":fz3&&&&@==%%#&*#&+*&&#&##%%######$$#$$$$+$++$$$#####$#$###%###%%%%%#%######%%#%####@#%@;0igy",
":fz3&O&&=@==#&##&#&&&&##%##%###$$#$++#$+$$$$$$#%%##$#######%#%##@%@%%@#####%@%%@%###%%%%;7igi",
":fz3&&&&%%&@&&##+&+&###&%#$$$#$###$#$$$#$+$$$$%%######%########%%#%%%######%%%%@@%%@%@%%;7igy",
":zz3&&+&@&&&#&&#**=*##&&#%$$####$####$$$$$+$$+%%#$#####%##%#####%@%@#####%##@%%%#%%@#%%@-7igy",
":zz2&&&&@=&&%%&&##$###&<6wpgfcw>##+$#$#+####%77gpppp6;#####%####%%@%####%###%#%%%%####%%;0igy",
":hh2&+&&%&&&%%@&$$####:tZZZYLZZp###$#####$+#7kZZKLLZM6#%########@%%%%###%##%%#@%@%###%##;0yji",
":hz8&&&+==@=@&&&######<dZY((((Rf###+#$+#$+$#7MKR/(EYZp$######%##%%%%###########%#%####%#-7igy",
"8hh3&&&&@===@%%%######<dZY((((Zp##$$#$$#$###7BJRQ(EYZg%%###%####@%#@%#%##%%##%%@#%@@##%#;qify",
"&hz8&&&&&&&&&@%@%#%###;gZY((((Yp#######$###o7MJR//!YZw###########%#%####%%%%%%%%%##@%%%#-qyfi",
"8ah8&&&&&@&&&%%%##%###;fZY((((Lp+#$#$#######7MKR!/!YZw#%#%##%##%#%###%%##@%@@@%%##%#@%#%>7igy",
":jj8&@@&&&&&%%&%#%###+>fZY//((Zp#####%#%####7MZR//!YZg#####################%######%#%@%@;7igy",
":hh8&&&&&&@&@&&@###%##>fZU/(((Yp##$########o7MLQ!//RZg#%##################%%@%##%##@@%%%;7ifi",
":jj4&&&&&@=&&@&&%#$%#+<gZYQ(((Lp#$%#%%##%###7MJR!!!YZg;%####%%##%###%#%###%#%@%#####%#%@;7igy",
",zx4&&&&&&@&==&&%####+>gZY//((Lp#######%###o7MJR//!YZp%%#######%##%#########%@#######%%%;7igy",
",zz4@&@&&&&&&&&&######<dZY//((Zp###%%##$#%@%7MJR!/!YZp########%######%#%##%#@%%##%#@@%%%;7igp",
",jz4&&&&&&@&&&&@##$##+<dZY//((Yf##$###%#%%@@7MJR//!YZw#########%##%%########%%%######%%@;7igy",
",kj,&@%%%#$$$$#$$#$+##>fZY//((Ly##$#####%##+7MUQ//EYHp%####$####$+$$###%###%##%%########;7igi",
",jk7&&&@####$#####$###>gZY///(Li#$###$#$#%#+7MZR//QYZw#$##+##$#########%#%#######%#####%;7pgy",
",kk7&&%%#%###$#######+<fZY///(Li#####%#%+%#o7MZR!/QYHw##$#+$$###########%+%+#########%%#;7pgp",
",kj7@&%@##$###$##$$###<gZY/(((Li+$#$#$##%###7MIE//QYZw####$#$#$#$#$###%#%%%%####%####%#%;7pgy",
",kx7#%##%#%#$$+######+<gZY//))Pi###%##$%%##o6MJR!/QYZp#####+$$$$$$#$####%++%##########%#-7pgy",
",jk,#######%$+$$#$#$##;gZY//))Li####%#######6MKR//QYZy#%#+$$+$$++$######%%%%###%####o%##-7igy",
",jk7##@######$$######+<pZY//))Ps##%####%%##+6MKRQ/EYHp%###$$$$$$$$$$####+%++#%%+###o####;7ygy",
",jx,@###########$$+$##<gZY//))Py+###%%###%#+6MJR//EYZp%#$$+$+$+$+$$+###+%+%%#++%o###o###;7ygy",
",jk2###########$###$++>gZY//))Py+%+%########6MKRQ(WTZw+$+##$$$$$$+$+#########+$+###o####%7pgw",
",jk2#####+##$##$$#####<gZY//))Ps%%%%###%####1nJR((WTHw$$$$+$+$+$$$$$+#$++$+$######%o####;7pgy",
":jz2#@########$+#$#$$+<gAY/~))Pg##%+##%####o1ZKRQ(WTZp$++#$$$+$$$+$+$#+####+##$####o####%7pgy",
":jk2####$+#$###$+$$#$+<fAY~~/)P0###%%##%####1ZKRQ(WRZp$$#$$#$$$$$$$$##$####$+#+#o#######;7ygy",
">kk1####$+$$$+$+$$$#$+<pAY~~~/Li##%%##%%%%%#7MKR((WYHp$+$$$$+$+$$$+$$+$+$#+$########o%##;7pgw",
">fk1+#+#$+$+$$$$$+#$$$1gAY~!!!Li##o#o#%%%%%#7BLR((~TZw$$$$$$$$$$$$$+$##$+$####+$###o####;7pgy",
">fl1#+##+$+$$$$$$###%%1pBU~!!!Lx;%%o##%%%%%#7ZUE(^WTZp$+$$$$$++$$+$$+$+$$#+$#+######o###%7pgy",
">fl1####$+$$$++$$+$+#%1pMU//~/UBp<#oo#%%%%o%wZYQ~(WYZw+$++$+$$$$$$++$##$+$+$#$+$o##o####;7pgy",
">jk3$#+#+$$$++$$###+#%76cL/!)/RHn8$#+***+o+6lKEW~^RLN6o+#+#$$+$$$$$$+$$+$$$++$#+##@@%@%%,7ygt",
">zk3+$$###+#$$$$##$##$%;pJEQ)_!UFd-*#+##+o6fCYWW~^RDl6+$$o++#$+$+$+$$+#$#+########%%@%%@,7ygy",
">fk3####+#+#$$+$##%###+#pZYR/_(ELmdq533366fCLW^~~WImr>+#oo##$$$$##$+#+$++#####$+##%@@%@%,7ygy",
">jk3##+$$#$$$+$$###+++##7MJR(__/RPHCnkflnCHIEW^^WTHf>$$##o+$$o$$$#$#####$#$++#####@@@%%%,7ygy",
">zz3###+##o#$$#$#%#o@@@%7gZIQ/((~EYLHDSGHLTW^^~~RKM6$$++o###o$$$$###%+%%#####+##@@#@%%@%%7ygy",
":jz3###$o#$$+$$#####@####7kHRQ((/QERTYYTTEEW~~WWICf1$#$#+#+#$+$o#%+#+%+++#$+#$$+####@@%@,7ygy",
":jz3###+$###$#+$######%###7MJYR/^EE~W^~~~~WWWRTLDl6>##++###$$#$$%%%%%++%##+########@@%%@,7ygy",
":jf3+######$+$############%7gZIR~~~~^^^^^^^^EYKmu1$$######$><>>>;;;%#%%+##$#+######@%@%%,7ygt",
";kg;####o$###$$#%%@######%##1lCHPYTRRRRERRTYLHmw>#+###+###->1111<<;%##+%#####@###@#@###@-7ygy",
";gk7###@####$###@%%%##%####$-3qdvVGJJJJJJJHCmu6>+#+#+###$#$-;5777;;%##%%#######%##%@####,7ygy",
";kg7#########%####%#####%#$==##-5dcnmmmmmmcf9>$oo+++#+####$->5777;;%##++#@###@#@#@%@%@%#%7ygy",
";gg7#@##+#######%#######%##$$$$*>35696556661>>$+++#+######$><7777<;%#%%##%@#######@%@#%#,7ygy",
";kk7#############%#%%#####%#$#$$$$$$&$$#$+$$$$$$#+####+##%=;<5557;;%%#######%##%@%%@@%%@,7ygi",
";kj<#@#@######%#############$##+#+$$####$$$+$+$o##$+#+###%%$-;;;;%%%%######@%@#@%@%%%@@%%7ygy",
";jk<####@%###%####@##%#######+###+$++#+$$++$o$$$$$#+###%%%%%%%%%%%%%%%######%%@%%@%@@%%%,7ygy",
";gj7####%@#%#####%%%%@########++##+#$$+#$+$+$++$++#$######%%%%%%%%%%########%@%%@%@%@%%@,7ygy",
";kj7@%@%@%%%%%######@%%%%@####@##+#$+$$+$+$+$$+$+$$$+#########%%%##%%%+%%########@##@%%@%7ygy",
",kk4@@%@%@@@%@##%###%%%@%%@##@#@#++$$++$+$+$+$$++$+$##########%%%+####%+###########@#@@%;7igy",
",jk,@#%#%%%@%%%%%#%#%@%#%@%###@###+$$+$+$$$$$+$+$$+$#########%++####%+%+#@@##@#####@####;7igy",
",gk7%###%@%%%@%@##%#%%@%@%%#####+##++$#$++$++$+$+$$++$+######+%%##+#+%+%###########@####%7igy",
",gg7#%@%%@%%%%%%##%%%@@%####@##@+###$+$+$++$$+$+$+$+$#######+##+####%##+######@%#@@#####%7ygy",
",gg7%@@%@%@%%%@%#%@%%%%##############$$#$$$$$$$+$#$##$##+###$######o+###%@##@#%%####@###;7ygy",
",jj7%%%#@%%@%@%@#%%%%%%%#############$#$$$$+$$#$#$$#$##$$###########%o##@%##%##@##@@@@%%;7ig7",
"7kg7#%@%%@%%%%@%%@%@@%@%######@#####$+$#+$#$+$$#$####$+####$############%%@%@##%#####%%@;7igi",
"=gx7%%@%%%@%%@%%@%@%%@%@%####@%#########$$#$$#$#+$####$####$+$###########@####@@%@@@@%@%%7ygy",
",gg7%@%@%%@%%@%@%%%#%%%%%#####%@######$##+$##$#$$#$##$+$$#$+$##$##############%##%%@@@%%;7ygy",
",jj7%%@&%@%@%%%%%@%%%@%%####%%%@###$#####$$$$###$#+$###$$#####$+###########@@#####%@%@@%;7ygy",
",gg7@&%&%%%%%@%@%%@%%%@%#%%#@@#%######$#$++$#$###$###$#+###$$##$%#################@%@%%%;7ygy",
",jx0@@&&%@%%@%%%%%%@%%#%%%%%%%#@#####$$####+%#######$+#$#+$##$##%%%+#############@%@%%@@;7ygy",
"7jj,&&&&%%%@%@%@@%%%@%%@@%@%%@%%######+##$$$%+##$+#######$###+##%+%+#######@#@####%@@@%%;7yg7",
"-jx7&&&&%%%%%%%%@%#%%#%%%%%@#%%######+$#$++#+%%+#####$#$########+%%%##o#######@#@#@#%%%%;7ygg",
",jj0@&&@%%%%%@@%%%%@%@%@%#%@%%@%######+#####%+%%+$+$#+#++$+#+$+$%++%####@#######%#%@@%%%;7ygy",
",xx4=@%@%@%@%@@%%@%%%#%%@%%%@#%@##%#########%+%+@#@#%@%%%@%%@%@@############@#@#%#@@@%%%;7ygy",
",jj4=%%%%@%%%%%%#%%@%@@%%%%@%%%%########o###%++%#####%@%@@%@%%%%########@#####%%@%@%@%%@;7ygy",
",jx4@==%@%%%%@@%@%%%#%%%@%@%%%@%########o#o###+#######%@##@%@%@%###@##@#######%@@#%@@%%@,7ygy",
",jj4%=@=@%%@%%%%%%%@%%@%%%%%%@%%#################@#%%@%@##%@@%%@#@##@#####%@##%@%#%#%@%%,7ygy",
",xx4==%=%%%@%%@%%%#%@%%@%@%@@%@%####o######o%#######%@%%####%@%%######@#@@%###@###%@%%%%=7agy",
",xv7,=@@@@%%%@%%%@%%@%%%%%%%%%#%###########%########@%%@####%@@%#@#@########%@%#%@@%%%%@=7egs",
",jxe4=%@@@%@%%%@%@%@%@%@%@@%%@%@###########o########@%%@%@#@%%@%@%#@##%%@%##&#&&%#@%%%%@,7sgt",
"=sjs7=@@@===%@%%#%%%%%%%%%%#%%%%########o######o####%%@%@%@%@@%%%##%@%@@%%@#&@#@@%@@%%%%40gs7",
"=ejj0,OO@===&@%@%@%@@%%@%@%@%%%%##%###@#####%@%@####@%@%@%@@%%@%@%%@%%@%@&@&@&&#&&&@@&&&4gj00",
"&40jj4&&@&====%@%%%%%@%%%%#%%@%@#########@###%%%##%@%@%@%@%%@%%%%@@%%@%@&&&&@&&@@&@&&&&&4xv0=",
"@,7jv0,=&===@%@%@%%%%%%%#%%%@%%%####@######@##%@@##%%@@%%%@&%@@%###@@%@%&@@&&@&#&&&@@&&40vj4@",
"O@4gvv04==,@=%%%@%@%%@@%%@%@%%%@#%##########@#%%###@%%%@@&&@@%%@##@%%%%@&@&&#&#&&@&@@&,avx04O",
".O,0svx044,=@%%@%@%%%@%%%%%%%%#%%%#####%####%%@@@%%%%%@%&@&&&@&@%@%%%%%@@@&@&&&@&&&,,40zxa0&O",
".OO&4jvvjs7,%%%%%%%@%%%@@@%%@%@@%%##%##%####%@%%%%@%@%%%&&&&@&&&%%%%@%%%@O&&@@&O&@,0axvja,@.O",
"..O.&0jvvgs7444447<<74<7<<74<7<<7<77;<77<7<<7747<47747;444444444;47777;488888828440ajvva8O...",
".OOO@&40sggjjgxggxggxggkkgxggkkgkgggxggxgkkgxggxggkkgxggjxjxjxjxggkggxggjjhzjjxxjxjxja0,@....",
"O.O.OO&,8eahjjjjjjjhjjhjjjjjjjjjjjjjjjjxjjjjzjjjjjjjzjjjjxjjjxjjxgkkgxgggxgxggggkgggy4%@.....",
".O.OOOO@&&&,,,,,,,,,,,::::::::::::::::,,,,,,,,,,,,,,,,,,,,,,,,,,,,,,,,4,,,,,4,,4,,4,,@@@....."
};
