/* XPM */
static char *result[] = {
/* columns rows colors chars-per-pixel */
"95 81 82 1 ",
"  c #1B1D1E",
". c #1F211F",
"X c #20221F",
"o c #1D1E21",
"O c #1E2122",
"+ c #252625",
"@ c #262825",
"# c #282926",
"$ c #262628",
"% c #282729",
"& c #272929",
"* c #2A2B2B",
"= c #2E302E",
"- c #2D2E30",
"; c #302F31",
": c #2F3031",
"> c #333435",
", c #363836",
"< c #393937",
"1 c #353738",
"2 c #383738",
"3 c #363939",
"4 c #3B3C3C",
"5 c #3E403F",
"6 c #40403F",
"7 c #3D3E40",
"8 c #403F41",
"9 c #3E4041",
"0 c #424243",
"q c #454947",
"w c #464749",
"e c #484748",
"r c #474949",
"t c #4B4C4D",
"y c #4E504F",
"u c #4E4E50",
"i c #4F5051",
"p c #535455",
"a c #565857",
"s c #585857",
"d c #555658",
"f c #58575A",
"g c #575959",
"h c #5B5C5C",
"j c #5E605F",
"k c #5D5E60",
"l c #605F61",
"z c #5F6161",
"x c #616363",
"c c #656867",
"v c #676769",
"b c #6B6B6B",
"n c #737373",
"m c #777678",
"M c #7C7B7C",
"N c #838383",
"B c #8B8B8C",
"V c #8E8E90",
"C c #939394",
"Z c #979798",
"A c #9D9D9D",
"S c #9F9EA1",
"D c #A09EA1",
"F c #A3A3A4",
"G c #A6A6A8",
"H c #A8A7A8",
"J c #ADACAD",
"K c #B0B0AF",
"L c #AFAFB1",
"P c #B3B3B3",
"I c #BCBCBC",
"U c #BFBFC0",
"Y c #C1BFC1",
"T c #C4C3C4",
"R c #C8C9C7",
"E c #C7C6C8",
"W c #C9C7CA",
"Q c #CDCCCC",
"! c #D1D1CF",
"~ c #CFCED0",
"^ c #D0CFD1",
"/ c #D2D1D3",
/* pixels */
"OOOOOOO@&:11111:<<;22;<>,,>1>>>>>>>>>:11>>>::::>>>>>=>,=>>,>>,>=<;;<;<<;<<;<;<;<<;<<>>=#$oooooo",
"O+OO@O@&9gccjjjjsllhhhhhhhhhjgjjjjajjjhjjjjjhjhghghhajjjjjsjhshjlsssssllslsslllljjjjjsy5-$ooooo",
"OOOO&=59gzccjhjglsslhllhhhkhjjjjgjjjhjjjjjjjzghaaahhjjjjhjjsjjjsssssssllllllllllllljzjgi7;%%ooo",
"OOOO=99jcg999515<<<<<<<<3,22,>>,>1:>>>>>>155>5>555:5>,>5,,,,>,<<<<<<<<<<<<<66<<6<66<40pgfu1%ooo",
"OO @59cchq5=@&&@###%++#+@@@++X@+@@@XOO@@@@O@##O@OO@@@@@O#X##XX##X#X###X#########*#&##10dll8;%oo",
"&=O5pcjy5=@&&&&&########&&&&####@@@=&@@@@@@@####&@@*&@######X##########%########******:4ufu8%oo",
"@&=9jcy5@@@@@@&=########&@@#####@@@@@@@&@@#@@###@&&@@@@###=##=###################*&#&%%*8ufu2%o",
"O=59jh9=XXX@@@@@####+###X+XX+X+.O@.@@@OO@..@.O.@@@@@@@@OXXXXXX#X###X#####XX#X#X#+++++++%;8ll8;%",
"O=9aj95OX..X@X@@##X#X#XXXXXXXXXX@@.@..X....XOO@@+++++X+XX#+XXX++X#X#X#XX+XXXXXX%++O+%+X%%;flu8%",
"O>jza5&@X@@XX@@OX##X#XX##X#####X@O@X@.@@@@@@#O@@+%%++++X#XX+++X+###X#X#X+X%+X%XXO+O+o+%o%;8ff8;",
"O3jc95&@@@.@@XX@X###X#####X##XX#@.@O@@@@X@@@##&&+++%++++X+++X+++#XX%#X#XXX%X%XX%++%O+++%%;8ffu;",
"O3jj9=@OO@@OXX@@##XX#X#X########@@@@@X@@@@@@O@@O%+++++++#XX#++++X%#XX#X#X%X%X%++++++o++%%;8ul8;",
".>jj5OO@@@O@@X@@#X##X###X#X###XXO@@@O@@@@@@@X@@@#%#++++++++++X++#X%%X##X%X#X%+++X++X++%%%;8ffe;",
" :aj5OX@OX@OX@@@X#X###X#####X###O@O@@@.@@@@@@@@&%+%+++++++XX++++X##X#X##X#X#X%X+++++o+o%%;8ufu;",
".>jj5 O@@O@@X@X@#XX#X#X###X#X#X#@.@@@@@@@X@@@@@&#%#+++++X+++++X#X%%XX##X#X#XXXX%X+++++++%;8ufu;",
".:gj5@@O@@X@XX@@#X##X###XX#####X@@@O.@@@@@@@@@@O++%+++++++X++X++#X##%XX%XX#X%X%X++X+++++%;8uf8;",
".:jj5&@OO@&O@@@@O@X@@X@@#X#X##X#X###+++++##+++++%%%+++++++o%++++X##++X+X++X++X%%%o%oo$o$$-7udu-",
"O3jj3@&@@@O@@O@OO@@@@@X@#####X####XX@+++#+++#*+##+%+%++%++%%++++++X###++++++%XX%%%%%%$%%$-wudw-",
"O>jj3&O&@O@@@@@@@@@@@@@@#X#X#X#X####+@%%+++#++#++##+%+%+%o%o%++XX#X+X+++X+++%%X+%oo%%$o%$-7udw-",
"O3jj3&O@O&@O@OO@@XXXXX@@########X+#X#+##%##+%#%+%%+%+%+++%%%++++++#+##++++++X%%+o%%o$$%%$-wudu-",
"O3zz5&O&&O@@@@@O@@@@@@@@#X####X##+#X+##+%%+#+*++#++%#+++%%++%%+++++++++++++X++X%%o%%$$oo$-7udu-",
"O3zz3&&O@@&OOO@&XX@X@X@@X##XX########++#+#+%%++*+%#%%++%+%o+o%++++X++++%++++++++%%o%$$$$$-7udu-",
"O3zz5O@&O@@O@@@@@@X@@@X@###X###X++##++++@@#%+%+%%%#+++%++%%%%++X+++X+++o++++++++++%+$oo$$-7udw-",
"O3zz3&&OO&&&@@@@@@@@X@X@X####X##+++#+++++%@%++%%%++%%+++++%o%+++++++++++++++++X%++++$$$o$-7udw-",
"O3zc3&&&OO&OO@@&@@@X####XX####XX###++++++%$+++;>;%%%%%%%++%%%%%o++++++++++++%XX++++++o++$-7udu-",
"O3zz3&&&&&&&&&&@@X@@###X##X######++##+++$%++o%0t81;%%O$O%+o%o%%%%%++%o+++++++%%+++++%+%o$-7udw-",
"O3zz3&&&O&&O&&&&@@@@########X####+#+%++%%%++O,xnvp7%%$$$o%%%%o%o%o%+%+o+++%++++++o++%%o%O-7tdw-",
"O3zz7O&&&&&&&&O&X@##=<=#########+%#+%%%%%++%-pVJDBp;%%$$%%o%%%%%%%o%%+%%+XX++++++++++%o+$-7udu-",
"O3zz3&O&&&&&&OO&X@#=5=6<<#####X#%+%++%%%*%*,umLWWHmt2%%$%%$%$%%$+o%+%%+++++++o%%+++++o%%O17udr-",
"O3zz3&&&&&O&&&&OX@#==666<<<##@##%+##%%**%*>uMFU~~UDM8%%%$O$%o%o$++%++%o+++++++%X++++++%oO-7udr-",
"O3zz9&&&&&&&&&O&X@##=<666<<#@@X##+%%#%%;*4pmFUW~~WYSl8*Oo%$o$%%%%+++++X%+++o++++++++++%o&-7idr-",
"O3zz3&&OO&O&&&&O@X##=6666<<##XX#+++++%+%1pNFIWW~~~WICl8$$%%%O%O$%%o%X+++++%%+++%o++++%o%&-7rdi-",
"o1kz7$$$%+%%%%##X+%%%28e82;;%+X+++##+++;imGTW~~~~~~EKVj5=@&&+++++++X%%%%XX%+X%%++X+X%+X+&:9rdr-",
"$7zz7$$$+%%%%%+%XX%%;222222;%++++++%+%%8mGUE~/~~W~~ETJBc5=*&+++++X++%XX+%%X+%%X%%%++++++O:9idi-",
"O7kz1$$$%+%%%%%%%XX%;;%%;2;;%%+X+%*%+;8lZUE~~~~~QQQEQTKCj9>#+++++++++%%+%X%%+X%%X+++X%++&:9idr:",
"o1kk7$$$%+%%%%%#X%%%%%%%%;;;%%%%%%**+4lCUEW~~~~~QQEQRRRKBz5=+O+++++++XX%%+%X+%XX%++++%XXO:9rdr:",
"O1zz2%%$%%%%%%%#%%%%o%%%%%;%%%%%***;6hBKT~~~~QQQQQQQRQ!TKBs4#+++++++++++X%X%%X%+++++++o+O:9igi&",
"$1zz7%$$+%++%%%;%%%X%o.%%%%%%%%%***enCPYEQ~~~Q~QQQQQQQ!RRKNh4*%+++++++++X%++%%X%++++%+o+&-9rd9-",
"O1zx4%+%%%%%%%%%##%+...X%%%%%%;%*;8lZIW^QQ~~QQQ~~Q~QQQQQ!RFMs4*+++++++++%X%%XX%%++++++%+&-9id9-",
"O7zz2$$%%%%+%%%%%%%%%.%+%%%%%%%%*4lNLWYWQQ~~WEQ~~~~!!QQQ!QIFMs2+++++#%++++%X%+%X+++++++XO-9idd-",
"O7kz7$$$%%+%%%+%#;#%%+++++++%+%%2pNHYWYY^^^WWW~~!!!!!!!R!QRIAM65###+%%++X%++%XX%+++%++OO&:9ud97",
"o>kk1$$++++X++%%%##%%%+X+X++%%%2sMHY^^^^//~~W~~QR!R!RR!!!Q!RIFM6<##%%%%+%%X+%%%Xo+X%+&O&O:9thi-",
"o1kk1+O$++%+++++#%#%%%++++X+%%;eMDI^^^^^^^W~QWQQR!!R!R!RQ!RRRICne<##%%#+%X%+X%%%++%++O+OO-9tg9-",
"o1kk1++$+++++++%%#%%++%%%%++.;fMDYY^^^^^~^~WQQWWRRR!R!!RQQ!!!RPZbe;++#+#%%X%%XX%++%O$$O$&-9ug9-",
"o>kk1$+++++++++#%+%+++%%%%+%;8mDYQ///^^^^^WW~WQQ!R!R!R!!!R!RRRRPBb6;%++%++X%%%XX+++++++OO:9idt-",
"o-kk3$+++++X+++%##%++%%#+X+;8vAPY^///Y^Y^^~~~~QWR!!!!!!RR!R!!RRRKCle;#%%++++X%%%++++++O+O:9tdt-",
"o1kk1$+$+++++++%+%##%%#%XX+2lMHIIYYYYYYYYYUUUUUUIIIIIIIIIIIIIIIIKDMs<+%%%+++%X%X++++++oO&:9tdi-",
"o>kk1+$O+++++%++%##%%##;++%2bBCDDDDDDDADDSSSSSZZAAAAAAAAAAAAAAAAACNl<%%%++%+%X%+++++++++&:9td9-",
"o:kk,O@@@+++++++++++%%;#%%;<lnnnnnnnnnnmmmnnnnnnnnnnnnnnnnnnnnnnnnbf2%%%%+++%%X++++++++O&*9tdr:",
"o1hh,+@O++@O++++++++++#;##;;2668888888888888288866664666668666668282;%%%+%++X%%++++O+++++:9tdt*",
" 1hh,O++O@+@O++++++++%%%##%#%%++%oo%$o$o%%%+%++XXXXX++++X###%#**%%o%++XXX%%X%X%X++++++O++*9yar*",
".:hj,+OO@OO@+++++++++++%%%%#%%%%%%%%%%$$%%%+%%+%#@@#%+++##%%##+#X%%%X%%+%++%%X%+++++++++@:9ray=",
".:jh,+@++@O+O+++++++++++%#+%%#%+%$$$%%%$%%%++%+%X###X#++++%%++++%X%X++++X%%++XX%++++++OO@*0tdt*",
".1hh,OO@OO@++++++++++#X+++%+++++$$%oo%%$++%++++X#X##++++++++++++X%X%++XX%XX%%%%%++++%O+++*0tat=",
".1hj3+OO@++.++++#+++++++++++%++%%o%%%%%+++++%+++XX#X+++++++X++X+%XX+X+++X%+%X+XXX++++++++=0tpt*",
".:hj,+@+@O+O+O++X#X++++++++++%%+%$$$o+%+++++X+++####++++o+++X++XXX%X++X+%X+X%+%%+++++++@+*5tpt;",
"O3hz3@@OO@O@@@@@+++++++++++##+%+%%$O%O%%+++++++%++%++++++++++X++++X+X+++X+%XX%+++++X+++X+;6tst=",
"O:kz3O&@+@@@O&@OX+++X++#++##+++%%%%%%%%O+++++++++%#++%++++++++++++++++++%++%%%X++++++++++*6tse*",
"O1zz3&O&O@OO++@+++#X#X#X++#X++%+%%%%%++++++++%+%%%+%%+++++++++++++%++%++++X%++%+++++++X++;6upt*",
"O1zz3O&&@@@@O++++++++++#X+#X++++o%%%%%+++++++++%+##+#%+++++o+%++%+++++++++++++X%+++++++++=6tpt=",
"O1hz3&OO@O@O@@++##X+#X#X++++#++##++%%+%+%+++++++%%#%%+++++%+++++%+%%+%%+++X++++%++++++o++=6tdt:",
"O1zz3&&&@+@+@@+OX+#++@+@++++X+#+%%#+%++++++%#%+##+%++++%%++++%+%+%%%%++++++++++o+++++++++=6tdt*",
"O1kz3&@&@O@@++++#+#XX#@X++X#++++%++%+%%%#+#%%++%#%#+%#+%+%%+%%+%%+%+++%++++++++++++o++o++=6tdt*",
"O1zz5O&O@@O+@+++X@+@++@@@++#+#++%#%+%+%+%+%+#%%+%+#%%+%+%+%%%+%++%+%%+%o+++++++++++++++++=6tpr-",
"O1kz3%$$$$$o$$+++O%++++X#XX##++%@+%%@+%%@+%%%@%%%@%@+@%@@%@%@%@+%%@%@+%+++%++@+++%++++OO%-8upt-",
"O:gh4&$$O$$$O$+++++++#+++#++X#+#%@%@%%+@%@+@%+@+@%@%%%%+%@%+%@%%%@%%++%++++%++@++++%+++%+-8uft-",
"o:gh1$+$$$$$%$$++++X+++++++++%+%%%@%@+%%%+%%%@+@+@%%%%%@+%@%@%@+@%@+@%@%%@%+%%@%@%%%+%++%;7wfu;",
"o1kk1+$O$o$$$O++++++++X++#+++X%++@%%%@%@%@%@@%%%%%@+@+@%%@%@+%%@+%%@%%+@@%@%%@+%+@%@%+$%%-7wfi-",
"o>kk3$$+$$$$$o$O++#+#X++%X+++X##%%@+@%@$@%@+%%%@+@%@%%%@@%+%@%@&@%@%@%@%%@%@%@%@%%@%++%%%-4whi;",
"O:dk9-$+o$$o$$$$++X++#++##+%++%%+@%@%@%%+@%@%@@%%%@%@+@%%@%@%+%+%@%++%+@@%@%@%@%%@%@+++%%-7wfu;",
"o:dkw1*$$$$$$Oo$++X+X#X+X%##++++@%@%+%%$%%@%@%+@%@%@+@+%@%@&@%+&@+@%%+%%%@%@+%%@@%@%%++++;8upt-",
"O-tkpw-$$O$$$$$$++++#+##X#XX+++%%+%@%+$$%@+%+%$$%++$%%@%&+%+$+$&$%%+%@%@+$+%+$@@+%%+%++o+;ufpw*",
"O-9dku7o$$$$$$o$%X#%X++%##%%X%%%$%+%+$$$+%%%+$%%$$$+O&&$$$O*&O&$++$$&@&@&++&@&@+&&&&&+O$%7ikw7$",
"O&1wvk7$-o$o$o$$%%+X%%XXXX%X%XX%$$%+$+$O+O+OO++%+$$%$$O&O&O$&&&&+%$@@#@&@&&++++@#=**&$+&18kd1$o",
"o$&7kkw7-$$o$$$o%%%%%+X+%X%X%X%%%%%%%$$$++O%$$%%$&&&&$&O&O&$O&O&&&@&#&&&#&&&&&&&**=&&&->wdku$oo",
"OOo-wkkdw1-$$o--#%%%+%%%X%%%%#%%%%%%%&$$$$%%$$%%&&&&&&&&&&&&&&-&&&&&&&##&&&&*#&*#&&&*:3rkku7o o",
"ooo$79kkdw71----;;;;;;;;;;;;%;;;----:-------;;;;::-::-::----::::====::==::==>====:>>39idxk7*ooo",
"oooo$7wukkkduw77<66<66<6<666666<77777777777788887799799977777799555545555555555499rydkzzd0-oooo",
"ooooo-77dvkkddwweeeeeeeeeeeeseeettttttwtwwtt8up8rttutwt9ttttttt9rttrrtrtrtrrrtqttyiagkkd0>o   o",
"ooooooo-17wdduddsssssslsslssssssffdddkkdkkkklfffdddddkgkkdkdgggkggaaaaaaaaaaaaaappyr977>*$ooooo",
"oooo. .++;288eeuuuueseseseseseuuuuuuuuuuupupuuuuuuuuuuuuuuusuuuutuyyytytytytytittq54:*&+OoOO o "
};
