/* XPM */
static char *result[] = {
/* columns rows colors chars-per-pixel */
"93 98 70 1 ",
"  c #0F1313",
". c #121516",
"X c #151719",
"o c #17191A",
"O c #191B1D",
"+ c #1E201F",
"@ c #21211F",
"# c #1D1F20",
"$ c #201F20",
"% c #1F2122",
"& c #242525",
"* c #262827",
"= c #282827",
"- c #252728",
"; c #27292A",
": c #2B2B2B",
"> c #2E312F",
", c #2E2E30",
"< c #2F3132",
"1 c #323334",
"2 c #373837",
"3 c #383837",
"4 c #363738",
"5 c #38373A",
"6 c #373939",
"7 c #3B3C3C",
"8 c #3F403D",
"9 c #41413F",
"0 c #3E3F40",
"q c #403F41",
"w c #3F4040",
"e c #434444",
"r c #464847",
"t c #454648",
"y c #47494A",
"u c #4B4C4C",
"i c #4E504F",
"p c #4D4F50",
"a c #4E5152",
"s c #535455",
"d c #565857",
"f c #565758",
"g c #56595A",
"h c #5A5B5C",
"j c #5D605F",
"k c #5D5E60",
"l c #5E6061",
"z c #626363",
"x c #696967",
"c c #666769",
"v c #6C6C6C",
"b c #70706F",
"n c #747474",
"m c #7D7D7C",
"M c #838383",
"N c #888887",
"B c #8C8C8C",
"V c #939393",
"C c #989798",
"Z c #9C9C9B",
"A c #9FA09E",
"S c #A3A3A3",
"D c #ACABAC",
"F c #B5B5B5",
"G c #BBBBBB",
"H c #C1C1BF",
"J c #C4C4C4",
"K c #CCCCCC",
"L c #D0D1CF",
"P c #D1D1D1",
/* pixels */
"OOOOXX.X###-;;;;,,&,===========================,,,======,&,,,,,,=:;;;;====:***@&+@%OOOOO#XXXX",
"OOo..Xo%;,0tppppupuuuuuusuppiuiiiiuuiiuiuuuuuuuppuuuuupuuuqpqqpquuuuuuuuuuriuurrrr8>*OoOX..X#",
"OOo.X%,5wtpghffkkfffffhhfhhhhhhhhhffhhhhfffffsfffffffffffffkkkffsssfsssdddddssssddsr7<*&#XXXX",
"oOOo&0skzkfppppupppuppuuiiiuuuuuuiiiuiuuuuutuutupuuupppppuuqqqaquyuuururrrrruuissddjkst,###XX",
"oO%;6skzkfqqqqqqqqqqqqqq9999qq9999q99999qqqqq55qqqqqqqqqqqqqqqqq777q777538738weetuphklht<-#X.",
"oo;wflktqqq,,,,,,,,,,,,,,,,,:,,,:,:,,,,:,,::,,,,,,,,,,,,,:,,,,:,::::,:,,:>>::::1<1<10alla0###",
"#%4akkp,$$&&&-$:=&==$=$=$=$&==$$&&=&==@==&&&$&=&$&&&$&&&$&-&-&$-&-&&&=;=&=&&**&&&*%%,whclw,#X",
"%<tggw1:-$$&&-:$==$$=====&=&$===&=@==@=@&&&&&=&=&&=&$=&=&&&&&&&&---&&&$=&&&&&&&&&&-%%,0skkw-X",
"=qpfu,==-$$-&&&&==$==$=$=$$====$&=&&&&=&&&&&&=&&&&:&&&&&-&&-&&-&&=$$=&=&=;&==$$=&&&&#-,0slk,#",
",pkuq,=$-$$&-&=&=$=====$====$$==&&&&=$&&=&=&&&&&&&&&&&&:&&&&&&=&&=;=$=$=$$=$==;;&*&*---,0kk<#",
",hzq,===&$$-=&&&==$=$$==$==$=&$==&&=&=&&&&&&=&&=&&&&&:&&&&&&&&&&=$;$;=&;=&;=$==$&-;;-#-%1kk0%",
",hz5,==$&$&&&&&&=$====$=$==$=&==&&&&=$==&=&&&&&&&&&&&&&&-&&-&=&&=$===$=$$=$=&&&&&&&&----1as0,",
"5hh5==$=$=$=&=&&$==$&&&&==&&==$$&&==$==$&&&&&&&&=&&=&&&&&&&&&&&&=&&;=&=;;=&=$=&=&-$----$1agw0",
"5fz5===$=====$=$=$$==&&&=$$=$===&&$=&==$&&&&&=&&&&&&&&&&&=&&&==&$==$$=$$=$;$=;=$&&-&$---<psy1",
"3hk5===$$==$&&$=&=$=$&$=$&=&$====&&=&====&&=&&&&&&&&&&&&&==&&=&&=&$=;=&=;$=$=$=;&&-&----1psy0",
",hk5=$=$$==&&&&$$=$&&&&&==$&==$$&&=$=$$=&&&&&&&=&&=&&&=&&&&&&&&&$=;&=$=$==&=&=$$&-&&-$--1asy<",
"3hk3=&@&=@=@==@@=@=@=@=@@$===$==&&&&&=&&&&=&&&&==&&=&&&&&&&=&&=&&&&=&&=$;=&=;=$=%-------0agy0",
",hz3=&@&@==@=@=@@=@@@=@==@=$==$=&=&&&&&&=&&&=&&&&&&&=&&=&&&&&&&&=&&&&&&&=$;$$==&---%%%--,agy<",
"3hk3=@@@=@@=@=@@@@==@==@@=$=$$==&==&&&&=&&&&&&&&&&&&&&&&=&&&&&&&=&=&=&&&=$=$=&$=--------<ygw<",
",hh3===@@@=@=@=@=@@@=@=@=@=$===$$=&=&=&&&&&=&&==&&=&&&&&===&&&&&$&&&$==&&=&=$=;&%-%--%%-0aa00",
",hz3==@@@@==@=@@@@@==39399993==$&====&=&=&&=&&,,qqqqq5,,&==&&&&&$=&==&&=&=;=$=$=----%---,aaw<",
"3hh3@@=@@@@==@=@==@@3zbnnnbxh3==$=$=&&&=&=&&&&3scvnnvzs5=,=&&&&&&&&$$&&$&$$==&=;%-&&----<ygy,",
",hh3=@@@@=@=@=@=@=@=9mCZZZCVn9=@&&=====&=&=&=,qnVCZCBMcq===&&&&&&&&&&&&&&&&&$$=$&-&--%--0agy0",
",dh3@=@@@@==@==@=@@=9mSFHGGFVu====$==&=====&=5kCFFGGDVv5&==&&$&$&&$&&&&&&&&&;=&=&&&&-%--<agw,",
",dh3=@@@@@===@==@=@=9mSHHKKKSz3==&=&=&==&=&&,ubDJKKKGBk3$&&&&&&$&&$&&&&&=$$==$:$&-------,ysp0",
"3dh3@=@@@==@=@@@=@@=3xCHKKKKDmi3=::====&===&5xBFKKLKDnq,&$$&&$&&&$&&&&&&$:$=$:$:&&$-$-&&0psw0",
",dh3@@@@@@@=@==@@=@=3imFLLKKGCb9=::=:&==&==&qnSGKLKJSk5=$$&&$&$&&&$&&&&&=$:$:$$$----%-&-,ygp<",
",hh3==@@@@=@=@=@=@=@@3hSHLLKHDm9====&==&====qNFJKLKFVi,&$&&&&&$&$&&&$=$&$:$=$::$-&$---&-0pfw0",
",hh3@@@@@=@==@@=@=@=@=uCHLLLKFBu=&&&:&&==&=,sCGJLLHSmq=$$&=&&$&&$=&==$=$$:$:$:$:--&-----00ap,",
"3hz3==@@@======@@====@9NFKLLLKAh,==,,$&&&&,qvDKKKKGVxq,$$&=&&&&&$=&$$=$::$$$:$:$-#--#--#0afw0",
":hh3=@@@@@=@=========@9bAHLLLLDxq,&,,&$:=&3hMFKKJKDns5=&&==&&&&$$=$====$=$:$$;-$-&&#-%-&,ws0,",
"3dh3=@=@@====@=@=@@=@@3hNFLLLLGNh5&==&&,==5bCGKKKJSk5=&$$&=&&&&&;$=$=$$=$:$:-$--&&--%-%-0ps00",
",hz5=&&&&&&=&&&&&=&&$$:qvDKPPPHSnq&&======qMDHKKJGVq=&$$$&=&&&&&&&&$=&&&&&&&=&==$;&$----,yay0",
"3hh3&&$$$&&&&&&&&&&@$$&:sZJKPPJGCq&&&&&$&=qCGJKKHDNq&$$$$&&&&&&&&&&&=$&&$=&&$=$;$=&--$-$0pfq0",
",hh5=&$&$=&=:&&=&&&$&$$&qBFKPPKJZf,==&$$=,fSJJKKGCbq$$$$$$&&&&&&&&&=&&&&&=&&$;$==$;--$--;yfy0",
",hk5&&&&&&=:&&&&&&&=&&&$qmSHPKKJSz5,$$=:5qnDKJKKFNh5=&=&&&&&&&&&&$&$&$&&&$&&=&=;&=&$%--#0pfy0",
"3hh3&&$$$&=&=&&&=&=&=$$&5zBFKKKKDnp,=$=:5zNFKKKKDnq5===&&&&&&&&$&$==$==$$=&&=$=$-$&---%-,ysy0",
",hh3&&&$&&&=&&=&&&&=&&=$:qbDPKKKGBz5$==$qnZHKKJJAf,:===&&&&&&&&&;$=$;$==&&&&=;&=&-&-%-%-0usy<",
"3hz3=&&&&&&=&=&&&&&&&&$&=,hZHJKKHSmq&&$$qMFJLKJGBq=&&&=&&&&&&&&=&====$=$&&&&$=$$&--#-$--;ufu0",
",hh3=&$$$&=&==&&&=&&&==&==uBFGJKJFBq$&=$qVHJLLHSmq==&&&==&&&=&&&&=$$=;;$=&&==&;=&&--%--%0pfq<",
",hh3=&&@$&=&=&=&&&&&&==$=$qnZFJKJHCf,::,hSKKKKFBz5&&&&&&&&&&&&=&=$=$;$===&=;=$$=&-&$-#-%<asy<",
"3hz3=@&@&&&===&=&=&==$===$5zBFKKKKDbq55smFKLKKDbq,==&&=&&&=&&&&&;$&==;$=$=$$&=;&-&&--#--1aky0",
",hh3=@@@&&=&&=$$&=&&$=&&==,tnDPKKKFMh5qvCGLKKHZh3==&=&&&&&&&&&&&&=;$$$;=;=&==$$=&&&-----,pat0",
",hh3==$=$&===&==&&&&==$=$=,5zSJKKPGCbqqMSHKKGDMq,=&=&&=&&=&&&&=&=$=====$=$=$=;=;&--$%-%#<asy<",
",hk3&&&$$=&&=&&&&=&&&=&&=&=,pCGJKKHDmqqCGJKJFCbq&&=&&&=&&&=&&&&&$;=&&&==&;=$=$=$&-&&$---<aat0",
",hk3&&&&$==&&=&=&&&&=$$=&&==tMDHKKJGCffSJKKJFBx3$&&=&&&&=&&&&=&&=&$===$$=$&=;$&=&&--$--%<aky<",
"1hh3=&$$$=&&=&&&&&&=&&=&&&==qvCGKKJHSnnFPPKKDni,$====&&=&&&&&&&&$==&$;;=$==$&=;$&&&$----<psy<",
"1hk3&&$&&$===&&&&==$==$=&&&&,smFPKJKGCSGKPPJSf,=====&&&&&&&=&&&==;$=$=$=;&&==$==;&&&-$%-1psq0",
",hh3&%&+&*&***&&=&&=&&&&&&&$:qxDKKJKJFGJPPKGVr$=====&&=&&=&&&&&&$=&$;=;=$=$;==$&%----%--0yga<",
"1hj3**%*%%&***&&&&&&&&&&&===,,sCGJKKKKJKPKHDM9=:=&&&&&&&&&&=&==&==&==$$==&$=$==&---%%-%%,pgw<",
"1hh3&%&&*&**&&&*&&&&=&&&=&====qMDHKKKKKPKKFCvq===&$&=&&&&=&&=&&&=$;$&;=&$==&$;=&---%----,wsw0",
">hj3*&%%+*&***&&=&&&&&&=&&=$&=qvCGKJKPPPPKFnp3=&&&&&&&&&&&&&&&&&;$===$$==;$==;$&$--%-%-%0aa0<",
"1hj6*&&+%&&&&=&&=&&=&=&&&&&$=&5fMFKJKPPPKKDzq:=&$&&&&&&&&&&=&&&&&=$&$==&&=&=$;$=--$-%---0agw0",
">hl3&&&%&&===&&&&&&&&&&&&&=&=&,qxDJKKKPPKJCp==&$&&&&&&&&&&&&&&&==$=&=;$=;$=$$==&$-$--%%-;wgw<",
"1hh3*%*&&&===&&=&&&&&&&&&&==,$=,hZHKKKKPKFBq&&@&&&&&&&&&&&&&&&&&;==$&==$=&===$;=-$--%--%0pgw<",
"1hh3%*%%&%&&&=&&=&&=&&=&=&=,=$=,pBGJKJKKGZbq$&&&$&$&&&&&&&&&&=&&$=&=;$;$$=$;&==$---$-%--;pfp0",
"<hk6-%&%%***&&&&&&&&&&&&&==:=&$=tmSGJHJJDMf3$$&$=$$&$&$&&$&&&&&==$;=&=&=$==&;$&=$;$;$$;-1aaw0",
"<hh6-&&&%*&*&=&&=&&=&&&&&$===$$=5xNDGGGGCxq,&&&$$&&&&&==&&&&&&&&&&=$;$=$=;$===&$$--;;;$-1ygw0",
"1kh6-&%%&&&***&==&&&=&&&&====$$=,uxmBVVVmu,=&&$&&&&&&&&$&&&&&&&&&&=$=&==&==$$=&=:$:$$---,agw<",
"<hk6-%&&%**&&&&&$=&&&&&==$&=$=$&=,5quruuq,&&$&&&&$$&&&&&&&&&&&=&&=&=$=$;;$;$=&&=$:$;----0aga<",
"<hk1&&$$&&&-*=&&&&&=&&&&&&&&&&&$&$&&=====$$$&$&$&$&&$&&&&$&&=&&&&&&&&==;==&&=$;=$-------1asw1",
"1kk6-&&&&&=*&&*&=&&&&&&&&$&$$=&&$&&=$=&=&&$&&&&&&&&&&&&&&&&&&&&&&&&&&&$$$&=$=$&$--$$-$--1psw1",
"<hk4&&&&&&&&&&&&&&=$&&&&&&&&&&&==&&$&&$&&&&&&&$=$&&&$=$&&&&&&&&&&&&&$==&=$&$=&$--$------1agy1",
"<kk1&&$&&&&=&&&=&=&&=$&&&&$&&=$$=$&=$&&&&$&&&&&&=&&&&&=&&&&&$&&&&&&$&&$&&&&=$&;$--$-#--$1asw1",
"1kk1&$--$;==$;=$;=$=&&&$=&=&&&&&&&&&&&&&&&&&&&&&&&&&&&$&&&$&&&&&&&&&&&&&&&&&&&=$=$==&---1paw0",
"<gk4%--&=:$=$==$$;=$&&&&&$$&$&&&&&$&&&&&&@&&$&&&@&&&&&&&&&&&&&&&&@&&&$&&&@&&&@$=$==$&---1pkw<",
"<gk4$-&&=$:$====&==$&&&=&&&&&&&&@&&&&&$&&&&$&&&&&&&&&&&&&&$&&$&&&$&&&&&&&&&&&&@$$==$----1akt<",
"1kk1-$&-==$==$$;=$==&$&$&&&&$=$&&&&&&&&&&&&&&&&&&&&$$&&&&&&&&&&&&&&&&&&&&&&&&&$==$==&;--1ast<",
",hf0$-$;$:$=:$=$$;$=$=&&&&&&=$&&&&$&&&&&&&$&&&&$&&&=&&&&&&&&=$=$=$&&&&&&=&&&$&$&$=&-----<akt<",
"0hh1;-$;:$:$$:$:$==&;$=$&&&&&&&&&&&&&&$&$&&&&&&&&$&$&&&&&&&&&&&&$@&&&&@&$&&&=&=&&&&&----0aay0",
",fk0$-;;$:====:$=$;&$&$&$=$&$&&&&&$&&&&&&&&&&@&&&&&&&&@&&$-$&$=&=$&&&&&&&&&&&&&&$&&&&---,aaq,",
"0kk0--:$==$$:$$:&==$=&=&&&&&=&&&&&&&&&@&&&&&&&&&&&=$&&&&&&&&&=$&$=@&&&&&&&&&&$&&=&&&----<akt<",
",fk0---&---$:$:$&&&&&&&@$&$=&&&&&&$&&&&&&&&&&&&&&=&&&&&&&&&&-$-==$=&&$&&&&&$&&&$--%-----0ysy0",
",kf0--&--$-&$:$:&&&&$&&&&&&=&$&&&&&&&&&&&&&&&@&&&$=$&&&&&&&&=$&$$=$&&&&&&&&&&&&@$#------0agy,",
",fk0-#-&&&&&:$=$&=&&&&&&&&&$-$&&&&&&&$&&&@@&&&&&&&&&&&=$&@&&$=$=&&=&-&=$&&&&&&&&---%----,asy,",
"0kk,--&&&-&&$:$:&&&&&&&&&&&&&&&&@&&&&&&&&&&&&&&&&&&$$&&&&&&&=$==$=$&$&&&&&&&&&&&-$-%----<asw0",
",kf0#&&---:$$==$&&&&$&&&&&&$&$--&$&&&@&&&&&$&&&&&&&$=&&&&&$=$==$=&=$=$=&$&&&&$&&&-&-----0agp,",
"0fs0---&-$=$$==$&=&&&&&&&&&&&&-$&&&&&&&&&&&&&&@&&&&=$&&&&&=$=$$=$&$=$=$&&&&&&&&&&$&&%---,agw,",
",fk0&&---:$:==$:=&&&&&&&&&&&&&&&&&&$&&&&&&&&&&@&@&&$=$&&@&&@$==$=$===-&&&&&&&&&$$&&-----0wsw,",
",kk0&&&&-$:$=$:$&&&&&&&$&&&&&&$&&&&&&&&$&&&&&&&&&&&&&&&&&&&&=$$=&&&$-$$=&&@&&&&&-&&&---%0as00",
"<gj2****&*&*&=&&&&=$&&&&&&&&&&&&&&&&&&&&&&&&&&&&&&&&&&$&&&&&&&&&&&&$&&&&&&$&&&&&&&&&----1ast<",
"<jj2*+*+&&*&&&&&&&&=&@&&@&&$&&&@&&&&&@@&&&@&&@&&&$&&&&-&&&&&&&$&&&&&$&&&&&&&&&&&&&&&----1aft1",
"<jj2%****&*&&&&==&&&&&&&&&&&&$&&&+*@&&&&&&&&&&&&&&$-$-&&$&&&&&&&&&&&&&&&&&&&$&&&&&&---;-0aat1",
">jj2****&&&&&=&&&&&&&&&&&&&&&&&&&&&&&&&&&&&&&&&&&&&&&&&&&&$&&&&&&&&&&&&$&&&&&&$&&&%--;;-1aft1",
">dj2**%+@&&*&&&&&&$=&&&&&&&&&&&&&&@&&&@*&&&&&&&&&$&&&&$&&&&&&&$&$&&&&&&&&&&&&&&&&&&--;;-<pgy0",
":dd<****&&&&&&*&=&=&&&@&&*%&&&&&*+*&%&*+&@&&&+@&&&&&&&&&&&$&&&&&-&&$&&&&$&&&&&&&&$&&;;,$<pky0",
">dj>+**%*%&&*&&*$$==&&&&%*&&&%&@*****+**&&&&&&&&&$&&&&&$&&&&&&$&&&&&$&&&&&&&&$&&&&&;;:--1akw,",
">jj<++*&**&%@*&&===$&&&&+*%&&&&&+*++**+*&%&&&&&&&&&&&&&&&&&&&&&&&&&&&&&&&&$&&&&&&&-;;---1kk0,",
">jj8%%***%*%**&*%*****%**%+***+*%*&&%*+*&&&&&&&&&&$&&&&&-&&&&&&&$&&&&&&&&&&&&&&&%-;;;---0kk0#",
">dlw<*%*;%%***&***+%*%*****++**+&*%*%&*+&%&&&&&$&&&&&&&&%-$&&&&&&&&&&&&@&&&&&$&$-%;<<--;0kk0#",
">idw8*****;;%&&&*+%**%*%+***+**+*%%&**&*%*&&&&&&&@&&&&&$--%-&$&&&&&$&&&&&$&&&&&&%%-;;-;<0kk,.",
";8adw8%**;;;**&&****%*%%*++**+**%**&*+%*&&&&$&&&&&&&&&&&%%--&&&&&&&&&$&&&&&&&&&&%;%--%<waka-.",
"%<wjlw8;;;;;%;%****%%%--%*%**%*%-%&-&&&&%*%*&&&&&$&&&&&&%-%%%-%-&&&-&&&&-&&&%&&;;;;%-;wgga0%.",
"%%4aclaw>;%%*%*%+%*%%%%%%%%%+%&%%%%%%%%%%%%%#&#&&&$$$&&$#O%--%--&$&$&$&&$&#&&&%%%%%#<walg0-X.",
"oo-wdcjww81<21<1<1<<<8>>8><<<<<<<<<<<<<1<1<<,1,,,,111111<0<0<<<<,11111,1111111111<11wagaw;#..",
"oO%-<wgclgdssadaaaasaaaaaiaaaaaaaaaaaaaaaaaaapsaasaaaaaaaaaaaaaaaaaaaaaaaaaaaaaaaasklcw0-#...",
"oOoo%<wagjlljjjgljgjggjggggggggggggggggggggggggggggggggggkgggggkhfgggggfggggkfgkfkfkfp0# ....",
"Oooo%%;>4wwwwawwwgwaawawwaawawwawayyyyyyyyyyyyyyyyyyayyyyyyyayyyuuuutuuuuututuutut0,-;%#  ..."
};
