/* XPM */
static char *result[] = {
/* columns rows colors chars-per-pixel */
"93 98 87 1 ",
"  c #131616",
". c #151718",
"X c #16191A",
"o c #1C1D1D",
"O c #21211F",
"+ c #1C1F20",
"@ c #1E2122",
"# c #242525",
"$ c #282727",
"% c #272826",
"& c #282927",
"* c #252628",
"= c #292728",
"- c #27292A",
"; c #2A2C2C",
": c #2E302F",
"> c #30302E",
", c #2D2E30",
"< c #2E3132",
"1 c #323434",
"2 c #393737",
"3 c #363837",
"4 c #383837",
"5 c #353738",
"6 c #393738",
"7 c #37393A",
"8 c #3B3D3E",
"9 c #403F3F",
"0 c #40403E",
"q c #3D3E40",
"w c #413F40",
"e c #3F4142",
"r c #424343",
"t c #474946",
"y c #454749",
"u c #494748",
"i c #46494A",
"p c #4A4C4D",
"a c #51524F",
"s c #4C4F50",
"d c #4D5051",
"f c #535555",
"g c #575856",
"h c #555758",
"j c #57595A",
"k c #5A5C5D",
"l c #5E605F",
"z c #61625F",
"x c #5D5F60",
"c c #5E6061",
"v c #626363",
"b c #686867",
"n c #636768",
"m c #656869",
"M c #6B6B6B",
"N c #71716F",
"B c #747473",
"V c #787877",
"C c #7B7B7B",
"Z c #807F7F",
"A c #838383",
"S c #888787",
"D c #888986",
"F c #8C8C8C",
"G c #939393",
"H c #999797",
"J c #989897",
"K c #9C9C9C",
"L c #A1A19F",
"P c #9F9FA0",
"I c #A4A4A4",
"U c #A9A9A7",
"Y c #ACACAB",
"T c #AFAFB0",
"R c #B4B4B3",
"E c #B8B7B7",
"W c #B7B8B6",
"Q c #B8B9B7",
"! c #BCBCBC",
"~ c #C0C0BF",
"^ c #C1BFC0",
"/ c #C4C4C4",
"( c #C8C6C7",
") c #C8C8C7",
"_ c #CCCCCC",
"` c #D0CFCF",
"' c #D1D1D1",
/* pixels */
".   X++@@--,;,----;-,-,-;-;;--;;-;--,<--,*,,*-**,---------------*,**,**,**,,==,=,,*+......XXX",
".  X@@@@<7eissssssssssssssddsdddddddehjessssssssssddddddddddddddsssssssssssssssssyq,+XX.X..X.",
". X+@<5qeidhjjjjjjjhjjjjjjjjxhhxjcjjkncchkkkkjjkjjjjxjjxjjjjjjjjhkkkjjjjkkjjhxxxkhsw5,**+XXXX",
"..o*<ehcxjhfssssspppsiiiiiiiiiiieddseehesspssssissisessedidiididssyysyssyyssysshshhkhhw<*++.X",
"X+@1ehccxfsywqqq8eq8e8e8qqqq7qqqqqqqeeeewqqqqwwwqqqqqqqqqe7eeqq7wqqqqqqqqqwqqwwwwyshkkhwq*+X.",
"@@<ejcdeq5,,,,;;,<<,,<;<;-,<--,,-,-,q---,==,=,==,-,,,-,,--<<-<-<==,==,==,,,=,,,,q5qqqwxxsq*.X",
"@;edcce<-#*+#@#**-*-@--@@--@@-@@*@*****@###**@@=@@**@*@@-@-@-@-@##***=*#*************qhxkw,+.",
"@1dcde<**+@@#***-*---*%--@@-@--***@*@*****@****=***@****@-@-@-@-#**@**#**************,qsxhq*.",
"@8cci1-*@#@***----%-@-%@@%%*##@#@@**######@*@=*@@%%*%*@#-@@--@-**####*+**@#*##*+***@@=,wxxw,.",
"5icc8;*@*****;-*%%@-@*%@**@@@###***@######@**=@*%*@@@@%#@-@-@-*@#*#**+*#*###*****@*****5shwq+",
"ehcd5*@-****-*-*%@%@%%@%%@*#####****####@#***@@#@%@%%@O%-@-@-@@*+**#*###*#*###**@*@*@**,wshw*",
"pjfi<-*%********%@%%@%%@@%*@####*+**####*##*=@=O%@%@%%%%@*@-@-@**####*#*##**@#+#**@****,qyxx,",
"dlse<-**@%@%#*@*@*@@*@%O%@%%####@*######*#**##O=%%%@###O####@-@-*#######*#*+####**@*@**=,qnx<",
"sjpe<-**-%%*##**%%%%%%##%########**###*#*#@*=@==%@%%%O###%##-@*-###**#*#*#*=*#***********qxkq",
"sjpe:@%-%@@*%%@*%@%%%@%##%#######*##**#####**=@@#####%########**######**#******=**@***+#*qxx,",
"shpq<-@@%-%%@@%%%*@@%%###%O###%###########**@===##########*#####=####=#**#**#*##*****#*+*qnx,",
"pjsq;***%%@*@%@%%@%%@%@%%O&&O&%%##$##$#####%$O$O#%##%%%%%%%%@######=###=#==#*#***#*****+*qxx<",
"sjsq,@*#%@%%%%%%%%@%%%%%%O%O&O%O########$###$$$$O%O%&OO%%O%O%%###=####=#=+=#*##***###*@*-qxx1",
"ijsq:**@@%**@%@@@@%%%%@%%%%O&O&%O$$###$$O$$#%#$OO%%%O&&&%%%%%%##=O=O####*##*#**=#****@+*-qxx<",
"sjiq;****%@*%%%%%%%@O%O%%O%%O&%%$$$O#$O$$#O$##$O%%%O&&OOO%O%%O##=O==#=##**#***##*##******qxx<",
"dhpe:*@-@%%%%%%@O%%O%&30000003&&$$$$$$#$##O$=2990000>>&&O%%%OO%#=O==#==#=#*=#*#***#####+-qxx,",
"php8;***%%@%@@%%%%O%@3gnNNNVNl0&=;$$$OO$$$$&9abBBBVba0>O%%O%%%%#=O=O=###=*#=#=**#######*;qxx,",
"pjpe<-*@@%@%%%#O%%%O%3zDGLLKJAl02==$$$$$$$O1aBGLLKKDz0>&%%%O%%%#==O=###=#*##**=#*#***#+*+qxx,",
"sjpe:@%%%%%%@%%%%O%O%3zDUQ!~~UDz9$$$$O$$OO$9ZLR^!WRGl4>O%O$O#O#%O==O===##==*=##*#**#*****qxx,",
"pjsq,##**@*%%%@@%%@%%:aVU~)''~YZw>==$$$$O=9kH!_`_~TDa1&O%O%O%O%%O===$$===**##*=**#===@=@*qxh;",
"pjpq<**@*%@%@%%%O%@%%&3gGW))'~~Lbw=$$=$O#2gAT(__~RFz9O%%%%%O%%#%==O=O$O=##====##**=@@=@=*qxx,",
"pjpe,@##%@%%@*%%%@%%@%%eNKQ___)RAg2O==#$;uCI^``(~LNt&OO%#%O%$$##=O=O====*=#**##***@=@*=**qxh,",
"sjpq,*#*%%%@%%O*%%%@%%&3tVU)_`'~YZ9O==$=2kGE(``^RDa>&O%%O%%%OO$#=O===O==##=*#=*****@==@@*qxx,",
"pjpq,**#**#***##%OO%%%&&3aFW)`'_^Hh9=$$9fCU/)``QGb9O$$%O#%O%$$$$=O===#====#=*#**===+**+**qxh,",
"pjpq;******##%##%%%%%@&:&tNJ~''_^RSk9$$wZU!(``~LM0&OO$%###%#$O$O##=O###=#####=##*@**+=+**qxx,",
"sjpq,**#*#######@%O%%%&&&3aVU))_'^UZw29gP^(_`/RDp>OO%##$####O$%##==###=+==#+*+=@@*@***@=*qxx,",
"pjsq,###*##*###*%%%@@&&&&:3gDY~)`'^PbavZY/(__RFb6$OOO##$O##%$######=###=+=+==+**@**=@@*@+qxx,",
"shuq=*=**@***########%==##=9MFT(^''RACFP!(_(!PNu;O###O#$##$##$O$$%###$#$O#O#######@**+#@*qxx*",
"shsq,********#=*#####%;#OO%1uNI/^`'^YIT^(_(!IZf1=##O######O$##%#O###$O##$%###@@####*@*+*+qxx,",
"shsw,**@*@#*#*#######$$$OO#%1fSY^^'^^^^'_(/TAk8;####O%$#####$######$##$##$#O#####*#@*@+**qxh,",
"shsw=***==#**#####$###$%####%9vS!`'`_^_`_(^Px5;#####%$O#$###O###%##$##########O##@@*@*@++qxx,",
"shsw,=**=*==##########$$=#@##=rbP^_'`_``_^TAu$#O###########%$######O$O####O$####**#***+*+qxh,",
"shsq=***=@=@#**#%####%%%$###$%>pST/```''`ESvw;####%########$###$#%###$##$###O###@*@@@*@*+qxh,",
"shuw,*@*=@=@#**####$##$########9BP^`_`''_YNp5;#O#####O$##$#O###OO$######O#######**@*@****qhx,",
"skyw===*=*==***#%#$O###$##$####6xSE`_```/Px6=O##O####$%#$O$###%$$###$##%$#O#####*@*@#*-*+<xx,",
"yksw,****###=#######O########$=rMJ!_____(Ime;@OO###$###$###$##O$O$##$#O$######@#**#@@****5xh,",
"skyq,****###==#####$$%####$##%,fGE(''____!Jm6OO$#O%O#$O##%#####$$#############**#@@******5xx,",
"yksq,@*@#**####=#$####$#$#%##>uNY__''____(RFd,-@#O#$$#####$#$O#%#####$########@*##*@*@**#5hx,",
"shsq,*****#***##$O###%$O#####9MGR((_''''_(/INp,###########O$%#####%$O$#%##+####*###*+***#<xh<",
"shuq,*@**#*#$$$###$O#$O$#=#;1fFT!(_(!!(____!Gmq*#$$##%###$#########OO#$########*##+*****#5xh;",
"shsw,=****#######%#$###$=*=1sVY//(_!KGT!(_'_!Gf<#O$$$%####O########$$##########@*+***+*+#5xf,",
"shsw=******#$O##########-;,eNJ!_((/YBBFU!__'_TBe>O%$$$###OO$#O$O%#$#%########*##***+****+1xx<",
"shsw=*****###$##$######O#;1hJE/(_/YSjexZR_''_!Pm9###O$#########$$O############*#*+***+***qxh<",
"shsw,*=**@=**==*##$###OO#,uVT`_(`EGMw19zK/'''/WGg2=O######O##O#####$###$O#######*@*@****@<jx<",
"shsq=***==@**@=@######OOO6NP('`_(TVp1==uCU/'_(/YAg,OoOO#O#########O$#%##$%####*#****@*@@@qxj<",
"shsq,*==*@=*=@=@$#####O%;aGE`'`/EHk6=#O1jAR))__~PVr$#O####O#O#####O$#O$##$######@*@***@*-qxjq",
"shuq,=@***=*=*==#######1pBY_``_!GNr;$Oo$1kP/_'_(!Hj2=O######$####%$###$#%O$#####*****@**@5jj<",
"shuq,***#****@==##$#$=;wMH!`_(/UVa1%#Ooo+8CY('___YCf1####O$O###$#$#####$########@@***@*@*5jx5",
"shsq,*@**=##*==@#$$==>2fGE/__/WGh1;=##+o+1fAR____^ICr#%######O########%$##%##$##**@#-@@**qxj<",
"shsq,***#*#*****OO#$=6pBT(_((EPBw=%$#OOO#=8vK!(_'_!Hk2=#########O$###O#O#$O#####@***-*-@@5jj5",
"shsw=***#***#=++ooO#=wVK!```/UBi;O=#OOoO#=1uCK^`'`(YAk6#$O#O#O$#%###$$####$####$**@*@-@@*5jx<",
"shsq,*@****#*##oooo#;aFR^(_/RFf1#O#=OOO@#;%6fCY(_((EKB9#####O###$#O#%########*****@-**@*@qjk<",
"shsq,==**#*###=+XXO;9zHREEEYFM9$OO#=*###=###1fFTR!QRUAu##O$O###$##$####$######*@*@*%@**@@qjj5",
"shuq=*=*##=*===+oo@=2fZGFFGAbp1O+O#===$===OO#8MAFGGFFB9O#O##O##O##O##$##%#####****@@@*@*@qkk<",
"shuq,*=@**#*=+==O#$$#>wpuupu92$O@#$$###===##%>9uuuuuu9>$####$##$#%$#$O########*@@-****@*@qkk5",
"uhsq,@****+*#==+$##OOO$$%%;=&$#O######%====#%%=%;####%#####O####$$%##%##%##%####*@***@@*@qjjq",
"shuq,===@==*=+==#$###O####%%#$###%######%%###%%%####$$###$#$##O$O####O%#########***@*%**@qkk<",
"uhsq,=**====+=+=#OO######O###OO########%$#$O###%%#####$O##$##$$#########%##%%#-@****%*@**qck<",
"shuq,****@@====+#####OO#######%####################%###$##O#######$#########**-%%@**@***@qkk5",
"uhyw,*****##*###+=+=###O######O###O######$O##O$##############O$#####$##########*##**@**@#8xj5",
"shyq,***#***=###=+##O=#####OO=####O$O#O##O#####$##$$#$##$O#$#$O$$###O$#######$*#***#*****7cj1",
"uhyq,****#*#*########OO#OO#####O#O#$O#O#O##OO###$##O##O$#$#$####O#####$O%#####$#*@#******7cl5",
"shsq,***=#**#####=+####==####O#=###O$$##$$O$$O######O##$###$$###$##$$##$#####$$#**#**@%@*7kj1",
"yhyq,***#*###=#=#######O##O#####O##OO###O$$O$$$#####$######O###$#%####O$#%#####******@***7xk5",
"shsq,*******###+o##O=O##O###O#=O########O#O+####O###$#$#$########$O####$####*#*****-*-***7xk<",
"shuq=****##*####=O##O###=###O##O#######O$####+##$$#$$O####O#$######$$O###%####*#@**@***@*7xj5",
"yhuq,***=#***#=+#######O#OO#=####O##O############$##$####$$####$$####$#######*#******@***7ck1",
"shyq,********###=O#####=####OO#######$#####$O#O$##$####O$######$O####%###$$###=*-@**@**@*7jx<",
"uhyq,*******=######O##OOO###=####OO##O###O#O##$###O#$###$#$#$$#O$##$#$###O##*#*#*********7xx1",
"shsq,**@***@*###O###O=####OO=OO####OO####O######$O$$##$#$#O$#O##O$##$O#####$##****@******7xj5",
"yhyq,***@**=########O#####=######O$####O#$##O####$###$O########$$########%$O*###@**#***@*7xx1",
"shsq,***==**@=######O##OO##OO##O$#O####$#######$$O#O$###########%#%##O%#####$##*-*@-*@*#*5xj5",
"uhyq,*****==*=#*O#=O#=#########=O####O#OO##O##$O$#$###$O###$$O#######$$O########****#****5xx1",
"shyq,****=*@*=@+O##O#OO###O=#OO###O##O#######O###$#####$#$##$##$#O$#$##$#$%##$##******#**7xh5",
"yhsq,***@=**@=**=######=O########O$#####O$O#$O######$###O$####O$##$#####$O####$$***@**@*@qxx1",
"phpq,*****###########O=#####OO#####O#####$$OO$#####$#$########%%######%%%@%%**%@****--@--7xj1",
"phuq,**###*#####O##O###OO###=##########OOO#####$$####O$#$##%###O####%##O%%%@@*%*@--@@--@@qxx1",
"phuq,*****#####OO###O###=##O##O=O$##O####O######O$O$####O$O$####%#O%###%%@@%%%***-**--@--qxj5",
"uhuq,****#**#####=O####OO#####O#$OO#O$####$OO####%###$#$%###$######%####%%%%@****@**@--@*7xj1",
"phyq,***##*#%#######O=O=O##OO##O####O######O$##$##$###$###$##%####$O#%##%###***%*@--@-@-@qxh1",
"pxpq1*********##O###O###=######=###O#$O##O##O##OO#O###O##O#########$########*%*@%-@-@-,@@5jx<",
"ixsq<****##*@*##=##O##O##OO=#OO#O$####O##O$###O#####O#O##OO#####O#####%O%###@--@@-@@--@--qxh<",
"sxfw,@*@**#*#####O##############O##O#######O##$##O####$#####O#%#$#$#########-@*--@---@@-<exx<",
"wxdw<+**@-*@-*%#$O###O#####O=####O##O$O$####***O####OO###O##O###%####$$#-@--@-@--@--@-@-qech<",
"qixsq+***-****@####O###O#O###OO##$#########O#O##$O##$#############$##O##-@-@@---@-@@---<ejke-",
",qxxq***@-*****%O########O=##=###OO#O###O######@######O$##@######$######@-@@-@-@--@----eccde-",
"*qxxqq-*%%@*@%%@#####O#O###OOO########O#####O###O##O#O######O#######$##%----****-@--@-7enne-+",
"@<sxsyq*-****%#%##O%###%##$##O######@#######*#####$O########*%*%#######%--@@--@-@----5ehnjq+X",
"+@qdxxeq:&&-&*#%O%O###O%##O#######O#####O###@#*####$#######**@%@****#%#$----@@--@@@-7ejche@X ",
"X+;qhxfi073331>>>>>>1>11>>w2,w=21111<<1111,<111111111111111<<31111111111<<<<<<<<<<7eejnce<+  ",
"XX+*<qhxclfadppaapaauaupsuwfwhwwppppsspsppssssssssssssapdddssdddssssssssddddddddddjjnnee<@+XX",
"XXXX+-ejcclfffffggggagggaggggggggggfgggggfjjhjhhjhhhhhhhhhhhhhhhjhhhhhhhhhhhhhfhhxxjjde<-+XXX",
"+X+XXX-<7eeeeeiiti0pttpttt0teaeaeddedeeddedeedepddppppppppippppppppppusisiiiiisisieq<;--@+X+X"
};
