/* XPM */
static char *result[] = {
/* columns rows colors chars-per-pixel */
"93 98 77 1 ",
"  c #131619",
". c #161A1C",
"X c #191D1E",
"o c #1E201F",
"O c #1B1E20",
"+ c #211F20",
"@ c #1E2121",
"# c #242525",
"$ c #282627",
"% c #262826",
"& c #282827",
"* c #252628",
"= c #282728",
"- c #262929",
"; c #2A2C2C",
": c #2E302F",
"> c #2C2F31",
", c #302F30",
"< c #2E3032",
"1 c #313435",
"2 c #353937",
"3 c #363739",
"4 c #37393A",
"5 c #3A3B3C",
"6 c #3C3F41",
"7 c #413F40",
"8 c #3E4142",
"9 c #434444",
"0 c #464847",
"q c #444648",
"w c #47494A",
"e c #4A4B4C",
"r c #504F4F",
"t c #4E504F",
"y c #4C4F50",
"u c #4E5151",
"i c #535555",
"p c #545659",
"a c #565A5B",
"s c #5A5C5D",
"d c #5D5E61",
"f c #5E6162",
"g c #636565",
"h c #636568",
"j c #676968",
"k c #6B6C6B",
"l c #727373",
"z c #777978",
"x c #7C7C7C",
"c c #848484",
"v c #868887",
"b c #868888",
"n c #8B8C8C",
"m c #8E908F",
"M c #8F9191",
"N c #939393",
"B c #969898",
"V c #9B9C9C",
"C c #A09F9F",
"Z c #9FA1A0",
"A c #A3A3A3",
"S c #AAABAB",
"D c #AEB0AF",
"F c #AFB0B0",
"G c #B4B5B5",
"H c #B6B8B7",
"J c #B7B9B8",
"K c #BBBCBC",
"L c #BFC0BF",
"P c #BFC0C0",
"I c #C4C5C5",
"U c #C7C8C7",
"Y c #C6C8C8",
"T c #CCCCCC",
"R c #CED0CF",
"E c #CFD1D0",
"W c #D1D2D1",
/* pixels */
"XXOX.o@@<1121211<11111<11<113,1,1111121,2:22:22:222:222222222222<<11116>66>6,3,33>>>>*O  OOO ",
"OXOO@@>4uaaaaaaaaadddddaddddssddddssssssssaaaafaaaaaaaaaaasaaaaadddddddpppppddddddddy6>OOOOOO",
".OO#-28uaffaaaafddddddddddddssdddsssssssssafffaffsssfaafaaffsfafdddddpddddddddddddhddy63**OOO",
".XO-8isau88182223133143314413333333222222222222222222222222222223333666<6>663333336ypddp6>*OO",
"X@@4pfsi81;-O@-@@*@*###**#######%###%o%%%@%o@%@%%%%o%%%o-@-@%%o%*+***+*+OO*+*****>>3qpddp6*OO",
".@4yfa81<>-@-@@-#***##****#*#***####%%o%%@%%%%%@o%%oo%%o----%%-@*******************>366pdd3*O",
".>yffy>@-----@--###**#***#******%%###%%%%%%%%@%%%%o%%%o%@-@----@***********+***+***>*>3qhhq>*",
"@4ffw1-@---@---@*#*#**+*#**#*#+*##%##%o%%@%@%-%@%%%%%%%%%---@@--*+***+*$****+********>>6pdy7*",
"-8jf8%%%%%%%%%##$#*#*#**#$##+$$+######%###%#%%@%@%#%#%%#@--%%--%#*+****++**$*$##*****>*3qppy>",
"2efs2%oo@@@%@%%##$******#$$#$$$$#%#%%##%%##%%@%%-##-###%#-@%@--@****+******+*##$*O**>>*>36dp<",
"8yai2%oo%o%%#%###$$###*+$##$$$$$########o%#%%%%@%##@%#####--*--***+*****$***#*##********>3hd3",
"8yi02%%o##@%########**#*##$$$+$+%#%#####%%%o-@%%%###%#%#-#@-*-@**$****+***#*#*$$*********3dd<",
"8uu8:%o%#%#####o+###$$$$$###+$$$###%#%%#%%o%%%%%@#%##$#####$#*#***+**+$$+***#$##*O**O**O*3pd>",
"yiy8:%%%%##%##o%##$#+$+$##$$$$$$%%#%$++%%o%%%o@%-%#%$$###*$##*##*$$$$$$$$$$+###$*********3dd>",
"wiw8:%%%%%#+#%%#####$$$++$+$+$+$%###%%+%%%%%%%%%###%#######$#**#+$*$$$$+$$$*#$$#***OO****3dd>",
"wi08&%%%%#%o#oo##+##$+$+$=+$$$$$%#$#%#%%%o%o%@%@%%##$###$###$###$##$$+##########**O****O*3dd<",
"yie5:%%%%%%+%+%+o%%+&&+&$+$+$$&$##%%##%#%%####+$o%######$##$#$#$+$$###$+&&&+#$+#*+*+****#4fs1",
"wie5:%%%%++%%++%%++%+&&+$+$$&++$#%###%###%%%#$$+%%%#$##$$#$#$#$+%$$#&#&&&+&&##$%****+*++#4fs>",
"yie8;%%%%%o%+%+++%+%&++&+$$$&&&&###%%#########$$%#####&#$###$#$$+$+%+$++$$$+$###*#******#3fs1",
"8ae5;%%%%%%+o%+%%+%++&+%$+$$$++&###%#%%#o%####$$##%#$##&###$#$$+$$$$&&&&%+$$##%%#*+**++*+4ss>",
"ei05:%%%%%+%%+%+o+&+&&+&27rrrrrrrrrrttttttttrrrrtt07;$&##$$$++$$$$#$##$#+$$%##+$**#**##*$3dd:",
"eie8;%%%&o%o%%+%%%&&&+&2sxVCAAAAAAAAAAAAAAAAAAASSANl5#$&#+$+$$+$+$$+$$#$%%+$##$#+**##**@$5da<",
"tie5;%o%%%+%+%o%%+%&&&&7lVKRRRRTRRTTRTTRTTTTTWTWWUJn9#&&#+$#+$$#+$$#######$#$#$##*#**#*#*5ds<",
"ei02;o%%%o%%%o%++%++&&+2kBLTRRRRRRRRRRRRRTUTTTTWWUHv9+#++#+$$+$+$+#$#$#&###########*###*#4da>",
"ti02:%%%oo%o%%%%%o+o%%o2kNGUUUULUUUUUUUUUIUUTTWWTIGv7++#+##$+$+$$+$$+$####%#%###*#*@-*@-*4ss>",
"ei08%%o%%%%%o%+%o&&&+%%2kmSHGLGLHHHHHHHHGJLIUTTWTLDc7+#++++#$+$+##$#####%%#%##%%#******--4ds<",
"ti05&%%o%oo%%+%++%&&%%%:alcmmmnnnmmmnmnnnBFLUTWTTGVk7+####+$$+$++$$#$#####@%%@%%#***@#*@#4ss<",
"eie5:o%%o%o%%+%%&&&&%&+&27000000000000000jCLUTWTISk7,#+$&$$#+$+$$#####$##%%#%%@%***@-*--#4fs>",
"eie2:%%%%%o%%o+%%%&&&++%&&%%%%%%%#%%$&#;7dCPUTWUFnr,$$$$&&$$$$+$###$##%%@%@%#%@#%-*--@--*4ds>",
"tie5%%o%o%%+%%%%%+%%%%%++%%%##o%%###$$#4jNJTUUTGvd7$$$$$&&+++$$+##$###%@%%%%%%%%#@*-*****4fs1",
"0i05:###%o%%oo%oo%o&+%+%&%+%##%%####%;1rnFUTTILCj7,$$$$$&$$$$$+$#####%#%%%@%%@@%-@*@-@@-*4ds>",
"ti05;###+%%+%%%%%o&o+%%++%%o##o%@%%%%1izSITTTLScr,$$$$$$$$+$++$+##%####%#@%%#%-#%-#*-**-#4fs1",
"ri07&%%&+%o%%%%+#++%######%%##%#%%%%;9lBLRTUUGnf2#$$$$$$+$+$+$+$$$######%%#%%o%o%%#%%%-%*4fd1",
"rr02&%++%%%+++%%%##+++#+#%ooo##%%@@%<iMJURTILVg5&#$$$$+$$+$+$++$+$#$##%#######%%#%#%%@-@*4fs<",
"rr07&&&%%+%%%oo%+%########%%%%##%@@:tlDURWRLAx0&+#$$$$$$$+$$+$$+%+$+$#%%%o%o#%%###%#*---*4fd1",
"rr07&&+%%%+%%%%+##+##+####o#%o##%%;9zZLRWWRDxr1$++#$$$+++$+$$$+$$+$$####%%%%%##%#%%#*-@#*4dd1",
"ri07&&&%++%%%%%%#+%+o###o#%%#%%#%:8gBLUERUJNa1;########$$$$+++$++$$##$#$%###%#####--@*@**3dd<",
"ti02&%&+%%%+o%+%+%+%%+###%:%#%o#@2gNHTRRRLmj9:%@#+##$#$+++#$$$$$#########%%#%#%#**#@-*@**3fd1",
"rir2&&+%%%%+%+%%+%%%%####%%;%o%&:tbDYERTLAk0:%%#####+#+##$+$+$#++$$###############*#-@-*#3dd>",
"ri07&%%%++%%%+%o%+%+%o####%%%%&20kAPYREPDvi1&%@%######$#$+##$##$#####$#$##%####$#**@**-@#5dd,",
"rrr2:%##+%%%+%+%+###+######+%%:0gmHRTTUDng8%%o%-%#+#%+##+$+$++$####$########+$#$**##-*@@*4fs1",
"ri05&%$#%%+%+%%%######+###+#%&2imGPTTLLNf2:o###@#%%########$$$+#$+##$##$##$#$######*@*-**3fs,",
"ta05:++&%+%%%%++########$+$+%:tlSYTTTLAz9@o%@%%%+%+$##+#+%#$#$$####$##$#$##$####*##@@-*-#4ds1",
"tr07&%&+%+%oo%%%#+##+###&+++#7zCLYYTTDca1oo%%-@o%+###+##$$$+#+#####+#########$#$#*****@@*4fs>",
"ri05:%+&%+%%%o%++%+#####$++&,sVKPTTYLBf2%o%%@-%%#####+%%$&+&#&+&#$#$###$$##$##$##**@**-*#1fs<",
"rs05&&+%%+%+%&o%&+&%##+#+$+,scSTRRRLZl8%oo@%%-%%%%%%+##%$&&&&+#$#####$#++$##########*@@**4ds1",
"rr05&+%%%%%oo%+&+%$+##$#+$$rxCLTRTYSxi:oo%%%%%@-%#%#+++%$$&+#######$$##$$####$##**##**@-*4fd<",
"ri07:%%++%%%%o+%%++####++,7kCKUTYLDni1-ooo@%%%%@##%+%#%+$$#&##$#$##########$##$###*#@*-@*1dd1",
"ri07%%#%ooo%o%%++%+&%++&&7gnGTTUIDnj5%%%ooooo%%o#+####+#####$#$######$$##$##+$###*#***-@@3ff1",
"rr05:o%%%%%%&o+&$+%+##%&2amDUTUILVs2;o%-%o%%%%o%######$##+#######$$#######$#$##$##*-@@**@3da<",
"ra07:%o%###o%%%o####+#+:rlSUTWUILBf98w88880wwwww0005&####+###$#$########$+######*##@-*@--4fd<",
"eie2%%%%##o%oo%%#+##%++5jNHTTTUILSBvnmnvmmMMMMmmNmnl7###$&#######$#$#$#$#$##$##$*##*-@*-@4ff<",
"0i05:#o%o%%+%%%o+%###+#7xSLTTUTULLDDLLDDLLLDLLLLLHHN0###$&&+####$##+#####$$#######*#-*@@-4fd<",
"0r05:#%%%+%%%o%%##%%##+0nGITUTTTUILUPPLLLUPLUPLLIIUCr####$#$#$#$###$#$#$####$##$#**@@*-#-4dd<",
"ti05:##%%+%%%%%+##$$+##0mKITTUTTTTTTRTTTRRRTTUTYUUUAr###########$##$#$#######$###**#@***#4dd1",
"ist2%#%o%%o%+%o%##+++#+0nGITUTTTTTTRRRUURRTTTUTTTULB0###$###$#$#########$##$#####*@**-@@*4fa<",
"ast2%%%oo%%%%%+%##++##+7lMCCCCAAAAAAAAAAAAAZAAAZZCBz7##&$$##$#$######$#$$#######*####*@*-4ff<",
"iat8:o%%%oo%o%+%+$&&#+#,7errrrrirtrrirttiiittttttrr0&#&&&&$######$$#$+#####$##$#*#*#@*@*@2fa<",
"ia02%%o%%%o%%%%%##$$++#$+$$$+$$$%&%&&&&%;-%@%%##%%&&++#&;&&##$#$#######$####$##$##*#-@**-2fa<",
"aa02:%%%o%%ooo%+#+#$###++++$$+$$&&#&&%#%---####%#%&#+##%#########$###$#####$####*###**-@-2fa1",
"ast2&%%%&oo+%o%%+#++$+$+++$$+$$$$###%%##-%%#%########+##+++###$##$#$####$###$#####-@@@**-2ff:",
"iat2&%%%o&%&%++%#####$++++$+$+$##$#$#%%#%-#%#%o######+#+#+#####+#####$#####$###$***--*-@-2fa:",
"tat2&%%%%%o&&o%+##+#+#+$++$++$##########%@@%#%#####o##%+#++#$+#####$$#$#####*#####*@*-*@-2fa2",
"tat2&%o%%o&&o+%%####+#$+$$+$$#+###$##%#%#%%%%o#%o##%#%++#################$#######***@@*--2fa:",
"ta02:o%%%%oo%###o##o+%+++&&+&+$++$$$+$%%%####%@%######o##+#######+#####$$######$#$##@-**@4fs<",
"0at2:%o%o%%%%o######%+%+%+$++$$$$#+$%%%o+%###%%@%@#######+####$+#$#$$######$$#######*-@**4fa<",
"0i08-%%%%o%%%%o###o#+%%+++&$$++$+$$##+$%####@-#*%####+X###+#+####+$#$##$###$+####$##-@@*#4fd<",
"ti02:%@%%%ooo%%#o###%++%&+&++&$+#$+$#%%%#%%%*##@@%######+#$#############$###$%#$####@*--@5da<",
"yuw2-@%%o%%%%%o%%##o##%+&+&+&+&&+$##$##############+###++####$##+##$#$####$#$##%#####**@#4ss<",
"wiw8:%@%%%o%oo%%%o####+%%+&&+&&+$$$#+########################+#$#####+##$++%+%+$####*@#*#4ss>",
"yuw2-%%%%oo%%o%o#%##o+%++%%+&+++#+$+####o%##############+$#####+###+########%##+####**@@#4ds;",
"yiw8-%%@o%%%o%o%%o+#%%+%o++&+&+&##+####$%%####*#$+####+######+#####$+$+####+###$####@--*#4sa<",
"ya88;*#@%%@%%%oo%%+%o%%+%%+%%o%%###+###+*+*+***+#$######+####+#####+###+$##+###+##@*@**-*1da>",
"yu82>@#%@%@#o#%%oo%%%+%%o%%%+%+%#+#######****+***+###+##########+$#$#+#####$#####**---@@*4ss;",
"yau8;*@%#%##o%#o%%%+%%+%%%%+%%%%#####+###++*+*+*$++*#####++$$#########+######+####*@*@@-@1da>",
"ya82;%-%#@#####%%+%+%+%%%++%++%+###+#####***+****######+####+######+##$###+##%+$##*@*****4da>",
"yiw6>@@-@%%%o%o%oo%%&+oo+%%+%+%+####+##*#+***+***+*##+######+#+##+#+$#####$##+#+##@#**@@#3sa;",
"yiw5<@--@#@#@#%o%%%++%&%%%+%+%%%#+##*##+##+#*+*+**#########$#####$######$++##$######@***#4sa>",
"8i82:-----#%%%#%&o+%&+o&+%&++%+%######**##*****+++*+##+####+##+##+##+##########%###@@*###3ss>",
"uay8;@%@-@#@%o@%o%+%+&&+&++%&+%+###+##+##*+#*+*#***#####+$####$#####$##+#+##+%#+###**####3ss;",
"eiq6>--@-@@#%%%@&%o&+$#%##+&#%####+######+$$+***#$##############%o@%@o@%%%@%@@@%####@*#*@4sa>",
"eiq6>@--#%%%@@#%o&+%###++##$#++########+##+$**+*#+##+###+##+###+%%%@%%%@@@%@%%%@@**@*-@-*4da;",
"epq6>O--@-%@%@@%o%%++%%+###++#######+###+#***+**#######+$###+###%o@%%@%%%%@%%@%%*@*@*@*-*4ds>",
"epq6>*@;@*@%#%##%%+&########&####+######$#*+**++#+##############o%%%@%o%%o%%@%@%******@@@4aa>",
"epy6>@@@@@-**@*-%++%%+##%+%+#&#####**+*+*#**+***###+#########+##%%%o@%@%@%%@%%@%@---*#**#3dd>",
"qpp8>@@-@**@-@#@o&%++%%+#####+#++#*+*#***+*++*+*###$####+#######%oo%%%%@%@@%@%%@%#@*@*@*-3dp>",
"8udy<@@--@@--*@*&%%%%+%%##$#&+###**+#++*********+$##+###+##+####%o%%%o@%%o%@%@@%@-----*->6ds1",
"6edp6@;-@@@*@*-*%o%++%%+$++#####+*#******++**++*$$+########$##o#@%%o%@%o%%%%@%%%-@@*@@*->6dd1",
">8ff8>---@--@-*@###+######+$#&#####****+*++**+*+**+*##+####+####%%%@%@%@-@-@-@%@@--@@@@;6ydi>",
"@8ff8<>>-@-@@*-@*#######%+###+%+*+#+*+***********+##############%o%@@%%@@-@-@-@-@@---@@>eddq>",
"@<af881>--*#--**#####+###+##+####*#***+++**++*+***+##########+##@o%%@%@%-@@---@@-------6pdy3O",
" @8aka8>;@@#*@@-#+##########%$+#*+#++***#***+**#+**###+#########%%@%%%@%O--@@-@--@---18yhd3*O",
".O28hh883<--****#*####$###$$#####*****+****+**#*#*$#$*#*#*####**@---%@-@@--@-@-@@@1268yady*OO",
".O-28ahhu81>>-***##*$$#$$$#$&%&&**$***-***--****$**$$$**--*****----:-----------@>>88pdfa6>O O",
"XXO-28ahaiq665443333555555555222535555353563535355454445445445142222222282888282888adfdq>O OO",
"XXOO--28iffffddadaddssssssfsssffsddaddddddddsddsdddsddsdsddsddddffafffafaaafaafaafffi86>*OOOO",
"XXXXXO@>8paaaaaaaaaaaaaaaaaaasssaaassassasssadaadaadpdddpdpddpddaaaaaaaaaaaaaaaaaaay82-XXXXX.",
"XXXXXXX@->>>>>>22>>><1<<11<<<<<<<<<<<<<>,>,,>,,,1>,,>>,,>,>>,,>>::>22>>>>2>>2>2>>>2---XXXXXXX"
};
