/* XPM */
static char *result[] = {
/* columns rows colors chars-per-pixel */
"110 20 187 2 ",
"   c black",
".  c #010101",
"X  c #020202",
"o  c gray1",
"O  c #040404",
"+  c gray2",
"@  c #060606",
"#  c #070707",
"$  c gray3",
"%  c #090909",
"&  c gray4",
"*  c #0B0B0B",
"=  c #0C0C0C",
"-  c gray5",
";  c #0E0E0E",
":  c gray6",
">  c #101010",
",  c #111111",
"<  c gray7",
"1  c #131313",
"2  c gray8",
"3  c #151515",
"4  c #161616",
"5  c gray9",
"6  c #181818",
"7  c #191919",
"8  c gray10",
"9  c #1B1B1B",
"0  c gray11",
"q  c #1D1D1D",
"w  c #1E1E1E",
"e  c gray12",
"r  c #202020",
"t  c gray13",
"y  c #222222",
"u  c #232323",
"i  c gray14",
"p  c #252525",
"a  c gray15",
"s  c #272727",
"d  c #282828",
"f  c gray16",
"g  c #2A2A2A",
"h  c gray17",
"j  c #2C2C2C",
"k  c #2D2D2D",
"l  c gray18",
"z  c #2F2F2F",
"x  c #313131",
"c  c #323232",
"v  c gray20",
"b  c #343434",
"n  c gray21",
"m  c #373737",
"M  c gray22",
"N  c #393939",
"B  c #3A3A3A",
"V  c gray23",
"C  c #3C3C3C",
"Z  c gray24",
"A  c #3E3E3E",
"S  c #3F3F3F",
"D  c gray25",
"F  c #414141",
"G  c #434343",
"H  c #444444",
"J  c gray27",
"K  c #464646",
"L  c gray28",
"P  c #484848",
"I  c #494949",
"U  c gray29",
"Y  c gray30",
"T  c #4E4E4E",
"R  c #505050",
"E  c #515151",
"W  c gray32",
"Q  c gray33",
"!  c #555555",
"~  c #565656",
"^  c gray34",
"/  c #585858",
"(  c gray35",
")  c #5A5A5A",
"_  c #5B5B5B",
"`  c #5D5D5D",
"'  c gray38",
"]  c #626262",
"[  c #646464",
"{  c #656565",
"}  c #676767",
"|  c #686868",
" . c #6A6A6A",
".. c gray42",
"X. c #6C6C6C",
"o. c #6D6D6D",
"O. c gray43",
"+. c #6F6F6F",
"@. c #717171",
"#. c #727272",
"$. c gray45",
"%. c gray46",
"&. c #767676",
"*. c gray47",
"=. c gray48",
"-. c #7C7C7C",
";. c gray49",
":. c #7E7E7E",
">. c #808080",
",. c #818181",
"<. c gray51",
"1. c #838383",
"2. c #848484",
"3. c gray52",
"4. c #868686",
"5. c gray53",
"6. c #898989",
"7. c #8D8D8D",
"8. c #8E8E8E",
"9. c gray57",
"0. c #929292",
"q. c #939393",
"w. c gray58",
"e. c #959595",
"r. c gray59",
"t. c #989898",
"y. c gray60",
"u. c #9B9B9B",
"i. c gray61",
"p. c gray62",
"a. c #9F9F9F",
"s. c gray63",
"d. c #A2A2A2",
"f. c #A5A5A5",
"g. c gray65",
"h. c #A7A7A7",
"j. c gray66",
"k. c gray67",
"l. c #AEAEAE",
"z. c #B4B4B4",
"x. c gray71",
"c. c #B6B6B6",
"v. c gray72",
"b. c #BBBBBB",
"n. c #BCBCBC",
"m. c gray",
"M. c gray76",
"N. c #C3C3C3",
"B. c gray77",
"V. c gray78",
"C. c #C8C8C8",
"Z. c gray79",
"A. c #CACACA",
"S. c #CBCBCB",
"D. c gray80",
"F. c #CDCDCD",
"G. c #CECECE",
"H. c gray81",
"J. c #D0D0D0",
"K. c #D2D2D2",
"L. c LightGray",
"P. c #D5D5D5",
"I. c gray84",
"U. c gray85",
"Y. c gainsboro",
"T. c #DDDDDD",
"R. c gray87",
"E. c gray88",
"W. c #E1E1E1",
"Q. c #E4E4E4",
"!. c #E6E6E6",
"~. c #E9E9E9",
"^. c gray93",
"/. c #EFEFEF",
"(. c gray94",
"). c #F1F1F1",
"_. c gray95",
"`. c #F6F6F6",
"'. c gray97",
"]. c #F8F8F8",
"[. c gray98",
"{. c #FBFBFB",
"}. c gray99",
"|. c #FDFDFD",
" X c #FEFEFE",
".X c white",
"XX c None",
/* pixels */
"XXXXXXXXXXXXXXXXXXXXXXXXXXXXXXXXXXXXXXXXXXXXXXXXXXXXXXXXXXXXXXXXXXXXXXXXXXXXXXXXXXXXXXXXXXXXXXXXXXXXXXXXXXXXXXXXXXXXXXXXXXXXXXXXXXXXXXXXXXXXXXXXXXXXXXXXXXXXXXXXXXXXXXXXXXXXXXXXXXXXXXXXXXXXXXXXXXXXXXXXXXXXXXXXXXXXXXXXXXXX",
"XXXXXXXXXXXXXXXXXXXXXXXXXXXXXXXXXXXXXXXXXXXXXXXXXXXXXXXXXXXXXXXXXXXXXXXXXXXXXXXXXXXXXXXXXXXXXXXXXXXXXXXXXXXXXXXXXXXXXXXXXXXXXXXXXXXXXXXXXXXXXXXXXXXXXXXXXXXXXXXXXXXXXXXXXXXXXXXXXXXXXXXXXXXXXXXXXXXXXXXXXXXXXXXXXXXXXXXXXXXX",
"XXXXXXXXXXXXXXXXXXXXXXXXXXXXXXXXXXXXXXXXXXXXXXXXXXXXXXXXXXXXXXXXXXXXXXXXXXXXXXXXXXXXXXXXXXXXXXXXXXXXXXXXXXXXXXXXXXXXXXXXXXXXXXXXXXXXXXXXXXXXXXXXXXXXXXXXXXXXXXXXXXXXXXXXXXXXXXXXXXXXXXXXXXXXXXXXXXXXXXXXXXXXXXXXXXXXXXXXXXXX",
"XXXXXXXXXXXXXXXXXXXXXXXXXXXXXXXXXXa u XXXXXXXXXXXX= $ p g 4 8 $ % > XXXXXXXXXX* > r f e i X u ; XXXXXXXXXXXXXXXXXX= . 2 x ; + < XXXXXXXX% r l r & XXXXXXXXXXq XXXXXXXXXX% 6 h < - XXXX5 h 8 f A t XXXXXXXXXXXXXXXXXXXXXXXXXX",
"XXXXXXXXXXXXXXXXXXXXXXXXXXXXXXXXXXu ' XXXXXXXXXXXXXXXXb .XY 8 u h.h.N XXXXXXXXXX$ f.L.k y g T.$.b XXXXXXXXXXXX2 #.5 3 ; 3 a w.l.$ XXXXXXXXp  X0.  XXXXXXXXXXW y XXXXXXXXXXf y.< XXXX0 X.q - , x L XXXXXXXXXXXXXXXXXXXXXXXXXX",
"XXXXXXXXXXXXXXXXXXXXXXXXXXXXXXXX2 r.H., XXXXXXXXXXXXXXO .X: XXXX, f.R.t XXXXXXXXXX@.z.6 XXXX@ .XO.XXXXXXXXXXw x.5 XXXXXXXXXX6 s..Xk XXXXXX3 k.N.7 XXXXXXXX1 S.9 XXXXXXXXXXS Z XXXXXX] Y XXXXXXXX1 XXXXXXXXXXXXXXXXXXXXXXXXXX",
"XXXXXXXXXXXXXXXXXXXXXXXXXXXXXXXXX e./.d XXXXXXXXXXXXXX- .X: XXXXXXx .Xf XXXXXXXXXX&.z.6 XXXX& u.x.q XXXXXX> j.Q XXXXXXXXXXXXXX; M.{.X XXXXXXK .X+ XXXXXXXX0 .X0.& XXXXXXXX' , XXXXXXp.} XXXXXXXX3 XXXXXXXXXXXXXXXXXXXXXXXXXX",
"XXXXXXXXXXXXXXXXXXXXXXXXXXXXXXXXU % 5.i.< XXXXXXXXXXXXX .X: XXXXXXp R.- XXXXXXXXXXo.z.6 XXXXXX2.O.XXXXXXXXT {.@ XXXXXXXXXXXXXXXXm .X6.XXXXXXX {.K XXXXXX= ~ E {.X XXXXXX3 ` XXXXXXXXF }.s XXXXXXXXXXXXXXXXXXXXXXXXXXXXXXXXXX",
"XXXXXXXXXXXXXXXXXXXXXXXXXXXXXX1 ^   0 .Xa XXXXXXXXXXXXy .X: XXXXXXe f.= XXXXXXXXXX>.z.6 XXXX& r.Z XXXXXX  ,.U.- XXXXXXXXXXXXXXXX& ~.j.4 XXXX> g.y.1 XXXX$ p & R.` XXXXXXl 7 XXXXXXXX8 }.{.N XXXXXXXXXXXXXXXXXXXXXXXXXXXXXXXX",
"XXXXXXXXXXXXXXXXXXXXXXXXXXXXXXu * XX1 D.] XXXXXXXXXXXXX .X; XXXX; } 1 XXXXXXXXXXXX..z.5 XXXXw Y XXXXXXXX3 k.v.i XXXXXXXXXXXXXXXX< B.U.1 XXXXXXJ !., XXXXv , XX+.H., XXXXH , XXXXXXXXXXt .X.X~ XXXXXXXXXXXXXXXXXXXXXXXXXXXXXX",
"XXXXXXXXXXXXXXXXXXXXXXXXXXXX2 | , XXXX} K.> XXXXXXXXXXX .X,.r q [ a XXXXXXXXXXXXXX..^.z t r ..XXXXXXXXXXw C.F.; XXXXXXXXXXXXXXXXa f.G., XXXXXXX {.s XX> I XXXX+ .Xj XX4 T XXXXXXXXXXXXXXv .X.XG XXXXXXXXXXXXXXXXXXXXXXXXXXXX",
"XXXXXXXXXXXXXXXXXXXXXXXXXXXX. a.o + o _ .Xk XXXXXXXXXX3 .X~ O c '.R XXXXXXXXXXXXXX*.U.g ; 6._.@ XXXXXXXX& r.).# XXXXXXXXXXXXXXXX3 n.d.> XXXXXX> f.3.* o - XXXX< a.d.> o 4 XXXXXXXXXXXXXXXXV .X.Xq XXXXXXXXXXXXXXXXXXXXXXXXXX",
"XXXXXXXXXXXXXXXXXXXXXXXXXXXX( z * * * 0 J.s.> XXXXXXXXo .X, XXXXx .XB XXXXXXXXXXXXO.x.5 XX1 y.M.y XXXXXXXX=..Xn XXXXXXXXXXXXXXXX- E.,.XXXXXXXXXXJ P.& D < XXXXXXa .XO S , XXXXXXXXXXXXXXXXXXu |.:.XXXXXXXXXXXXXXXXXXXXXXXXXX",
"XXXXXXXXXXXXXXXXXXXXXXXXXX1 @.= XXXXXXXXJ .X+ XXXXXXXXo .X6 XXXX> %.].y XXXXXXXXXX@.c.5 XXXX= W.t.q XXXXXX+ `.k.= XXXXXXXXXXXXXXg `.+ XXXXXXXXXXX {.K G XXXXXXXX1 A.8.Y XXXXXXXXXX, XXXXXXXX& q.p.XXXXXXXXXXXXXXXXXXXXXXXXXX",
"XXXXXXXXXXXXXXXXXXXXXXXXXXp y XXXXXXXXXX# (.-.XXXXXXXXp .XC XXXXXX1 b.A.s XXXXXXXX4.m.y XXXXXXw .X .XXXXXXXXH .X .XXXXXXXXXXXX; f.N XXXXXXXXXXXX> f.Q.* XXXXXXXXXX/ .X6 XXXXXXXXXX@ 9 XXXXXXXX{ P XXXXXXXXXXXXXXXXXXXXXXXXXX",
"XXXXXXXXXXXXXXXXXXXXXXXX< 5.g XXXXXXXXXX= 7.[.X XXXXXXg .XG XXXXXXXX5 I.Y.< XXXXXX8.Z.0 XXXXXXXXF .X;.XXXXXXXXM .XE q XXXXXX1 $.x XXXXXXXXXXXXXXXXJ &.> XXXXXXXXXXO V., XXXXXXXXXX6 B   XXXX5 v.9 XXXXXXXXXXXXXXXXXXXXXXXXXX",
"XXXXXXXXXXXXXXXXXXXXXX1 U <.4 7 XXXXXXXXXXn 9.*.1 - - ) e.+.: 2 XXXXXX4 $.#.: 5 7 1.9.j * XXXXXXXXH 6.F - 7 XXXX8 T W Z u 7 k $ XXXXXXXXXXXXXXXXXX8 q XXXXXXXXXXXXXXH XXXXXXXXXXXXp -.! i i ) y XXXXXXXXXXXXXXXXXXXXXXXXXXXX",
"XXXXXXXXXXXXXXXXXXXXXX  XXXXXXXXXXXXXXXXXXXXXX    XX  XXXXXX  XXXXXXXXXXXXXX      XXXX    XXXXXXXXXXXXXX  XXXXXXXXXX  7 6   XXXXXXXXXXXXXXXXXXXXXXXXXXXXXXXXXXXXXXXXe XXXXXXXXXXXXXX- 7 r 8 XXXXXXXXXXXXXXXXXXXXXXXXXXXXXXXX",
"XXXXXXXXXXXXXXXXXXXXXXXXXXXXXXXXXXXXXXXXXXXXXXXXXXXXXXXXXXXXXXXXXXXXXXXXXXXXXXXXXXXXXXXXXXXXXXXXXXXXXXXXXXXXXXXXXXXXXXXXXXXXXXXXXXXXXXXXXXXXXXXXXXXXXXXXXXXXXXXXXXXXXXXXXXXXXXXXXXXXXXXXXXXXXXXXXXXXXXXXXXXXXXXXXXXXXXXXXXXX",
"XXXXXXXXXXXXXXXXXXXXXXXXXXXXXXXXXXXXXXXXXXXXXXXXXXXXXXXXXXXXXXXXXXXXXXXXXXXXXXXXXXXXXXXXXXXXXXXXXXXXXXXXXXXXXXXXXXXXXXXXXXXXXXXXXXXXXXXXXXXXXXXXXXXXXXXXXXXXXXXXXXXXXXXXXXXXXXXXXXXXXXXXXXXXXXXXXXXXXXXXXXXXXXXXXXXXXXXXXXXX"
};
