/* XPM */
static char *result[] = {
/* columns rows colors chars-per-pixel */
"26 40 8 1 ",
"  c #A73B3B",
". c #A73C3C",
"X c #A83A3A",
"o c #A83B3B",
"O c #A93B3B",
"+ c #A83C3C",
"@ c #A93C3C",
"# c None",
/* pixels */
"##########################",
"########################o@",
"#######################ooo",
"######################oooO",
"####################XooooO",
"###################OoooooO",
"##################+ooooooO",
"#################ooooooooO",
"###############ooooooooooO",
"##############oooooooooooO",
"#############ooooooooooooO",
"###########ooooooooooooooO",
"##########oooooooooooooooO",
"#########ooooooooooooooooO",
"########OooooooooooooooooO",
"######+ooooooooooooooooooO",
"#####@oooooooooooooooooooO",
"####oooooooooooooooooooooO",
"### oooooooooooooooooooooO",
"#ooooooooooooooooooooooooO",
"#ooooooooooooooooooooooooO",
"### oooooooooooooooooooooO",
"####oooooooooooooooooooooO",
"#####@oooooooooooooooooooO",
"######+ooooooooooooooooooO",
"########oooooooooooooooooO",
"#########ooooooooooooooooO",
"##########oooooooooooooooO",
"###########.oooooooooooooO",
"#############ooooooooooooO",
"##############oooooooooooO",
"###############ooooooooooO",
"#################ooooooooO",
"##################+ooooooO",
"###################ooooooO",
"####################XooooO",
"######################oooO",
"#######################Xoo",
"########################o@",
"##########################"
};
