/* XPM */
static char *result[] = {
/* columns rows colors chars-per-pixel */
"110 20 178 2 ",
"   c black",
".  c #010101",
"X  c #020202",
"o  c gray1",
"O  c #040404",
"+  c gray2",
"@  c #060606",
"#  c #070707",
"$  c gray3",
"%  c #090909",
"&  c gray4",
"*  c #0B0B0B",
"=  c #0C0C0C",
"-  c gray5",
";  c #0E0E0E",
":  c gray6",
">  c #101010",
",  c #111111",
"<  c gray7",
"1  c #131313",
"2  c gray8",
"3  c #151515",
"4  c #161616",
"5  c gray9",
"6  c #181818",
"7  c #191919",
"8  c gray10",
"9  c #1B1B1B",
"0  c gray11",
"q  c #1D1D1D",
"w  c #1E1E1E",
"e  c gray12",
"r  c #202020",
"t  c gray13",
"y  c #222222",
"u  c #232323",
"i  c gray14",
"p  c #252525",
"a  c gray15",
"s  c #272727",
"d  c #282828",
"f  c gray16",
"g  c #2A2A2A",
"h  c gray17",
"j  c #2C2C2C",
"k  c #2D2D2D",
"l  c #2F2F2F",
"z  c gray19",
"x  c #313131",
"c  c #323232",
"v  c gray20",
"b  c #343434",
"n  c #353535",
"m  c gray21",
"M  c #373737",
"N  c gray22",
"B  c #393939",
"V  c #3A3A3A",
"C  c gray23",
"Z  c #3C3C3C",
"A  c gray24",
"S  c #3E3E3E",
"D  c #3F3F3F",
"F  c gray25",
"G  c #414141",
"H  c gray26",
"J  c #444444",
"K  c gray27",
"L  c #484848",
"P  c #494949",
"I  c gray29",
"U  c #4B4B4B",
"Y  c #4C4C4C",
"T  c gray30",
"R  c #4E4E4E",
"E  c #505050",
"W  c #515151",
"Q  c gray32",
"!  c #535353",
"~  c gray33",
"^  c #565656",
"/  c gray34",
"(  c #585858",
")  c gray35",
"_  c gray36",
"`  c gray37",
"'  c #606060",
"]  c gray38",
"[  c gray39",
"{  c #656565",
"}  c DimGray",
"|  c #6A6A6A",
" . c gray42",
".. c #6C6C6C",
"X. c #6D6D6D",
"o. c #6F6F6F",
"O. c #717171",
"+. c #727272",
"@. c gray45",
"#. c #747474",
"$. c #767676",
"%. c #777777",
"&. c #797979",
"*. c gray48",
"=. c #7E7E7E",
"-. c gray50",
";. c #818181",
":. c gray51",
">. c #838383",
",. c #848484",
"<. c #898989",
"1. c gray54",
"2. c #8B8B8B",
"3. c gray55",
"4. c #8D8D8D",
"5. c #8E8E8E",
"6. c #909090",
"7. c gray57",
"8. c #939393",
"9. c #959595",
"0. c gray59",
"q. c #979797",
"w. c gray62",
"e. c gray63",
"r. c #A2A2A2",
"t. c #A4A4A4",
"y. c #A5A5A5",
"u. c gray65",
"i. c #A7A7A7",
"p. c gray66",
"a. c #A9A9A9",
"s. c gray67",
"d. c #ACACAC",
"f. c #AEAEAE",
"g. c gray69",
"h. c #B1B1B1",
"j. c #B2B2B2",
"k. c gray71",
"l. c #B6B6B6",
"z. c gray72",
"x. c #BBBBBB",
"c. c #BCBCBC",
"v. c #C1C1C1",
"b. c gray76",
"n. c #C3C3C3",
"m. c gray77",
"M. c gray78",
"N. c #C8C8C8",
"B. c #CACACA",
"V. c gray80",
"C. c #CDCDCD",
"Z. c #CECECE",
"A. c LightGray",
"S. c #D5D5D5",
"D. c #D8D8D8",
"F. c gray85",
"G. c gray88",
"H. c gray89",
"J. c gray90",
"K. c #E7E7E7",
"L. c #E9E9E9",
"P. c #EAEAEA",
"I. c gray92",
"U. c #ECECEC",
"Y. c gray93",
"T. c #EFEFEF",
"R. c gray94",
"E. c #F1F1F1",
"W. c #F3F3F3",
"Q. c gray96",
"!. c #F6F6F6",
"~. c gray97",
"^. c #F8F8F8",
"/. c #FBFBFB",
"(. c gray99",
"). c #FDFDFD",
"_. c white",
"`. c None",
/* pixels */
"`.`.`.`.`.`.`.`.`.`.`.`.`.`.`.`.`.`.`.`.`.`.`.`.`.`.`.`.`.`.`.`.`.`.`.`.`.`.`.`.`.`.`.`.`.`.`.`.`.`.`.`.`.`.`.`.`.`.`.`.`.`.`.`.`.`.`.`.`.`.`.`.`.`.`.`.`.`.`.`.`.`.`.`.`.`.`.`.`.`.`.`.`.`.`.`.`.`.`.`.`.`.`.`.`.`.`.`.`.`.",
"`.`.`.`.`.`.`.`.`.`.`.`.`.`.`.`.`.`.`.`.`.`.`.`.`.`.`.`.`.`.`.`.`.`.`.`.`.`.`.`.`.`.`.`.`.`.`.`.`.`.`.`.`.`.`.`.`.`.`.`.`.`.`.`.`.`.`.`.`.`.`.`.`.`.`.`.`.`.`.`.`.`.`.`.`.`.`.`.`.`.`.`.`.`.`.`.`.`.`.`.`.`.`.`.`.`.`.`.`.`.",
"`.`.`.`.`.`.`.`.`.`.`.`.`.`.`.`.`.`.`.`.`.`.`.`.`.`.`.`.`.`.`.`.`.`.`.`.`.`.`.`.`.`.`.`.`.`.`.`.`.`.`.`.`.`.`.`.`.`.`.`.`.`.`.`.`.`.`.`.`.`.`.`.`.`.`.`.`.`.`.`.`.`.`.`.`.`.`.`.`.`.`.`.`.`.`.`.`.`.`.`.`.`.`.`.`.`.`.`.`.`.",
"`.`.`.`.`.`.`.`.`.`.`.`.`.`.`.`.`.`.`.`.`.q i `.`.`.`.`.`.`.`.`.h `.`.`.`.`.`.`.`.`.= . 5 z ; + < `.`.`.`.`.$ y j u = 4 `.`.`.- 1 0 i % `.`.`.`.1 y i i u i `.`.: - q r     t 3 k `.`.`.`.`.`.`.`.`.`.`.`.`.`.`.`.`.`.`.`.`.",
"`.`.`.`.`.`.`.`.`.`.`.`.`.`.`.`.`.`.`.`.`.> V `.`.`.`.`.`.`.`.< ..  `.`.`.`.`.`.2 +.5 3 ; 3 a 0.f.# `.`.`.`.`.p _.9.  `.`.`.`.`.@ a.I `.`.`.`.3 :.r `.q &.t `.`.`.% 7.Q.C ; 8 9  .`.`.`.`.`.`.`.`.`.`.`.`.`.`.`.`.`.`.`.`.`.",
"`.`.`.`.`.`.`.`.`.`.`.`.`.`.`.`.`.`.`.`.`.b n.< `.`.`.`.`.`.`.K i.4 `.`.`.`.`.w k.3 `.`.`.`.`.4 e._.h `.`.`.`.@ W.{ `.`.`.`.`.`.`.%.0 `.`.`.  q.f `.`.`.% - `.`.`.`.Y U.& `.`.`.* `.`.`.`.`.`.`.`.`.`.`.`.`.`.`.`.`.`.`.`.`.",
"`.`.`.`.`.`.`.`.`.`.`.`.`.`.`.`.`.`.`.`.`.[ _.c `.`.`.`.`.`.: B.C.; `.`.`.`.4 p.~ `.`.`.`.`.`.`.; b.~.O `.`.`.1 R...`.`.`.`.`.`.`.*.s `.`.`.y M.N `.`.`.`.6 `.`.`.`.W U.& `.`.`.`.`.`.`.`.`.`.`.`.`.`.`.`.`.`.`.`.`.`.`.`.`.",
"`.`.`.`.`.`.`.`.`.`.`.`.`.`.`.`.`.`.`.`.  5.^.x.3 `.`.`.`.`.v l.W.@ `.`.`.`.R /.@ `.`.`.`.`.`.`.`.M _.,.`.`.`.% Y.] `.`.`.`.`.`.`.O.7 `.`.`.`.&.F.t `.`.`.`.`.`.`.`.L U.& `.`.`.`.`.`.`.`.`.`.`.`.`.`.`.`.`.`.`.`.`.`.`.`.`.",
"`.`.`.`.`.`.`.`.`.`.`.`.`.`.`.`.`.`.`.`.5 E , _.h `.`.`.`.2 ! o _.: `.`.`.  ;.F.- `.`.`.`.`.`.`.`.& L.u.4 `.`.f Y.%.`.`.`.`.`.`.`.>.S `.`.`.`.D _.H.d `.`.`.`.`.`.`.` U.$ `.`.`.`.`.`.`.`.`.`.`.`.`.`.`.`.`.`.`.`.`.`.`.`.`.",
"`.`.`.`.`.`.`.`.`.`.`.`.`.`.`.`.`.`.`.`.= U % h.j.7 `.`.`.j   % P.c `.`.`.3 s.z.i `.`.`.`.`.`.`.`.< m.D.2 `.`.& I.' `.`.`.`.`.`.`.o.7 `.`.`.`.`.) _.).0 `.`.`.`.`.`.L ).~ 7 m Y l `.`.`.`.`.`.`.`.`.`.`.`.`.`.`.`.`.`.`.`.`.",
"`.`.`.`.`.`.`.`.`.`.`.`.`.`.`.`.`.`.`.`.X x `.T _.e `.`.1 ( - , M._ `.`.`.w N.V.: `.`.`.`.`.`.`.`.a y.Z., `.`.& I.' `.`.`.`.`.`.`.%.A `.`.`.`.`.`.R _._.e `.`.`.`.`.L E.h 3 0 r 8 `.`.`.`.`.`.`.`.`.`.`.`.`.`.`.`.`.`.`.`.`.",
"`.`.`.`.`.`.`.`.`.`.`.`.`.`.`.`.`.`.`.`.e 1 `.< v.a.; `.w + `.> t.1.  `.`.& 0.T.$ `.`.`.`.`.`.`.`.3 c.r.> `.`.u K.$.`.`.`.`.`.`.`.#.& `.`.`.`.`.`.`.*._.J.2 `.`.`.`.^ U.& `.`.`.; `.`.`.`.`.`.`.`.`.`.`.`.`.`.`.`.`.`.`.`.`.",
"`.`.`.`.`.`.`.`.`.`.`.`.`.`.`.`.`.`.`.`.F o `.`.D _.6 = _ = `.  ;.g.8 `.`.`.*._.n `.`.`.`.`.`.`.`.- G.;.`.`.`.< v.3.  `.`.`.`.`.`.4.0 `.`.`.`.`.`.`.`.! _.L `.`.`.`.P U.& `.`.`.`.`.`.`.`.`.`.`.`.`.`.`.`.`.`.`.`.`.`.`.`.`.",
"`.`.`.`.`.`.`.`.`.`.`.`.`.`.`.`.`.`.`.`.{ - `.`.r C.i.p * `.`.`./ S.: `.`.`.+ !.a.- `.`.`.`.`.`.`.g !.+ `.`.`.< w.d.r `.`.`.`.`.9 2.y `.`.`.% `.`.`.`.2 M.{ `.`.`.`.I U.& `.`.`.`.`.`.`.`.`.`.`.`.`.`.`.`.`.`.`.`.`.`.`.`.`.",
"`.`.`.`.`.`.`.`.`.`.`.`.`.`.`.`.`.`.`.< O.5 `.`.`.B _.0.2 `.`.`.z (.w `.`.`.`.J _.| `.`.`.`.`.`.; y.B `.`.`.`.`.~ _.; `.`.`.`.`.d } `.`.`.`.@ `.`.`.`.`.8.3 `.`.`.`.X.I.g `.`.`.`.2 `.`.`.`.`.`.`.`.`.`.`.`.`.`.`.`.`.`.`.`.",
"`.`.`.`.`.`.`.`.`.`.`.`.`.`.`.`.`.`.`.0 ,.; `.`.`.< b.< `.`.`.`.s _.H `.`.`.`.`.N _.W q `.`.`.1 @.x `.`.`.`.`.`.2 <.A.6 `.`.`.* ;.1 `.`.`.`.l : `.`.`.t d.6 `.`.`.`.-._.D `.`.`.t e `.`.`.`.`.`.`.`.`.`.`.`.`.`.`.`.`.`.`.`.",
"`.`.`.`.`.`.`.`.`.`.`.`.`.`.`.`.`.`.> S ;.1 : `.`.`.j 4 `.`.`.`.l *.=.; : `.`.`.`.8 R Q A s 7 k $ `.`.`.`.`.`.`.`.r Y *.A b k K 0 `.`.`.`.`.x 9.Z u n G i `.`.`.`.5 -.6.;.Y L I } 9 `.`.`.`.`.`.`.`.`.`.`.`.`.`.`.`.`.`.`.`.",
"`.`.`.`.`.`.`.`.`.`.`.`.`.`.`.`.`.`.`.`.`.`.`.`.`.`.`.`.`.`.`.`.`.`.`.  `.`.`.`.`.`.`.  7 6   `.`.`.`.`.`.`.`.`.`.`.`.& 6 9 & `.`.`.`.`.`.`.`.= 3 w 6 `.`.`.`.`.`.  `.`.        `.`.`.`.`.`.`.`.`.`.`.`.`.`.`.`.`.`.`.`.`.`.",
"`.`.`.`.`.`.`.`.`.`.`.`.`.`.`.`.`.`.`.`.`.`.`.`.`.`.`.`.`.`.`.`.`.`.`.`.`.`.`.`.`.`.`.`.`.`.`.`.`.`.`.`.`.`.`.`.`.`.`.`.`.`.`.`.`.`.`.`.`.`.`.`.`.`.`.`.`.`.`.`.`.`.`.`.`.`.`.`.`.`.`.`.`.`.`.`.`.`.`.`.`.`.`.`.`.`.`.`.`.`.",
"`.`.`.`.`.`.`.`.`.`.`.`.`.`.`.`.`.`.`.`.`.`.`.`.`.`.`.`.`.`.`.`.`.`.`.`.`.`.`.`.`.`.`.`.`.`.`.`.`.`.`.`.`.`.`.`.`.`.`.`.`.`.`.`.`.`.`.`.`.`.`.`.`.`.`.`.`.`.`.`.`.`.`.`.`.`.`.`.`.`.`.`.`.`.`.`.`.`.`.`.`.`.`.`.`.`.`.`.`.`."
};
