/* XPM */
static char *result[] = {
/* columns rows colors chars-per-pixel */
"26 40 7 1 ",
"  c #A74040",
". c #A64141",
"X c #A74141",
"o c #A64242",
"O c #A74242",
"+ c #A84141",
"@ c None",
/* pixels */
"@@@@@@@@@@@@@@@@@@@@@@@@@@",
"X+@@@@@@@@@@@@@@@@@@@@@@@@",
"XXX@@@@@@@@@@@@@@@@@@@@@@@",
"XXXX@@@@@@@@@@@@@@@@@@@@@@",
"XXXXXo@@@@@@@@@@@@@@@@@@@@",
"XXXXXX @@@@@@@@@@@@@@@@@@@",
"XXXXXXXO@@@@@@@@@@@@@@@@@@",
"XXXXXXXXX@@@@@@@@@@@@@@@@@",
"XXXXXXXXXXX@@@@@@@@@@@@@@@",
"XXXXXXXXXXX.@@@@@@@@@@@@@@",
"XXXXXXXXXXXXX@@@@@@@@@@@@@",
"XXXXXXXXXXXXX.O@@@@@@@@@@@",
"XXXXXXXXXXXXXXXX@@@@@@@@@@",
"XXXXXXXXXXXXXXXXX@@@@@@@@@",
"XXXXXXXXXXXXXXXXXX@@@@@@@@",
"XXXXXXXXXXXXXXXXXXX.@@@@@@",
"XXXXXXXXXXXXXXXXXXXXX@@@@@",
"XXXXXXXXXXXXXXXXXXXXXX@@@@",
"XXXXXXXXXXXXXXXXXXXXXXX@@@",
"XXXXXXXXXXXXXXXXXXXXXXXX+@",
"XXXXXXXXXXXXXXXXXXXXXXXX+@",
"XXXXXXXXXXXXXXXXXXXXXXX@@@",
"XXXXXXXXXXXXXXXXXXXXXX@@@@",
"XXXXXXXXXXXXXXXXXXXXX@@@@@",
"XXXXXXXXXXXXXXXXXXX.@@@@@@",
"XXXXXXXXXXXXXXXXXX@@@@@@@@",
"XXXXXXXXXXXXXXXXX@@@@@@@@@",
"XXXXXXXXXXXXXXXX@@@@@@@@@@",
"XXXXXXXXXXXXX..@@@@@@@@@@@",
"XXXXXXXXXXXXX@@@@@@@@@@@@@",
"XXXXXXXXXXX.@@@@@@@@@@@@@@",
"XXXXXXXXXXX@@@@@@@@@@@@@@@",
"XXXXXXXXX@@@@@@@@@@@@@@@@@",
"XXXXXXXO@@@@@@@@@@@@@@@@@@",
"XXXXXXX@@@@@@@@@@@@@@@@@@@",
"XXXXXo@@@@@@@@@@@@@@@@@@@@",
"XXXX@@@@@@@@@@@@@@@@@@@@@@",
"XXO@@@@@@@@@@@@@@@@@@@@@@@",
"X+@@@@@@@@@@@@@@@@@@@@@@@@",
"@@@@@@@@@@@@@@@@@@@@@@@@@@"
};
