/* XPM */
static char *result[] = {
/* columns rows colors chars-per-pixel */
"29 45 131 2 ",
"   c #1D110E",
".  c #1D120F",
"X  c #1E130F",
"o  c #1E1310",
"O  c #1F1410",
"+  c #1F1411",
"@  c #201512",
"#  c #211512",
"$  c #211612",
"%  c #211613",
"&  c #221714",
"*  c #231714",
"=  c #231815",
"-  c #251A17",
";  c #261B18",
":  c #271C19",
">  c #271C1A",
",  c #281D1A",
"<  c #281E1B",
"1  c #291E1B",
"2  c #291F1C",
"3  c #2A1F1C",
"4  c #2B201D",
"5  c #2B201E",
"6  c #2C221F",
"7  c #2D2320",
"8  c #2F2522",
"9  c #302522",
"0  c #302623",
"q  c #312724",
"w  c #322825",
"e  c #352B29",
"r  c #372D2A",
"t  c #382E2B",
"y  c #382F2C",
"u  c #392F2D",
"i  c #3A302D",
"p  c #3B312F",
"a  c #3B322F",
"s  c #3C322F",
"d  c #3C3330",
"f  c #3D3330",
"g  c #3D3331",
"h  c #3E3431",
"j  c #3F3533",
"k  c #3F3633",
"l  c #403734",
"z  c #413835",
"x  c #423936",
"c  c #443B38",
"v  c #453C39",
"b  c #463C3A",
"n  c #473E3C",
"m  c #49403E",
"M  c #4A413E",
"N  c #4A413F",
"B  c #4B4240",
"V  c #4C4340",
"C  c #4D4442",
"Z  c #4E4542",
"A  c #504745",
"S  c #514946",
"D  c #524946",
"F  c #524947",
"G  c #534B48",
"H  c #554C4A",
"J  c #564E4B",
"K  c #564E4C",
"L  c #58504E",
"P  c #5B5351",
"I  c #5F5755",
"U  c #635B59",
"Y  c #645D5B",
"T  c #675F5D",
"R  c #68615F",
"E  c #696260",
"W  c #6B6462",
"Q  c #6C6563",
"!  c #6F6866",
"~  c #716A68",
"^  c #726B69",
"/  c #726B6A",
"(  c #756E6D",
")  c #7A7371",
"_  c #7B7573",
"`  c #7C7573",
"'  c #7C7574",
"]  c #7F7977",
"[  c #8E8987",
"{  c #8F8987",
"}  c #8F8A88",
"|  c #979291",
" . c #A19D9B",
".. c #A9A4A3",
"X. c #ACA8A7",
"o. c #AFABAA",
"O. c #B7B3B2",
"+. c #B8B5B4",
"@. c #C0BDBC",
"#. c #C1BEBD",
"$. c #C1BEBE",
"%. c #C2BFBE",
"&. c #C9C6C6",
"*. c #CAC7C7",
"=. c #CAC8C7",
"-. c #CCCAC9",
";. c #CDCBCA",
":. c #CECCCB",
">. c #CFCDCC",
",. c #D0CDCD",
"<. c #D0CECD",
"1. c #D1CECE",
"2. c #D2CFCF",
"3. c #D2D0CF",
"4. c #D3D0D0",
"5. c #D3D1D0",
"6. c #D4D1D1",
"7. c #D4D2D2",
"8. c #D5D3D2",
"9. c #D5D3D3",
"0. c #D6D4D4",
"q. c #D7D5D4",
"w. c #D8D7D6",
"e. c #D9D7D7",
"r. c #DAD8D8",
"t. c #DBD9D8",
"y. c #DBD9D9",
"u. c #DFDEDD",
"i. c #E2E1E0",
"p. c #E4E2E2",
"a. c None",
/* pixels */
"a.a.a.a.a.a.a.a.a.a.a.a.a.7 P U U U L 5 a.a.a.a.a.a.a.a.a.",
"a.a.a.a.a.a.a.a.a.a.a.a.a.I i.-.=.6.q.j a.a.a.a.a.a.a.a.a.",
"a.a.a.a.a.a.a.a.a.a.a.a.< o. .q 9 K 5.z a.a.a.a.a.a.a.a.a.",
"a.a.a.a.a.a.a.a.a.a.a.# ) 8.v @ @ m 2.z a.a.a.a.a.a.a.a.a.",
"a.a.a.a.a.a.a.a.a.a.- ( t.E % = $ M 2.z a.a.a.a.a.a.a.a.a.",
"a.a.a.a.a.a.a.a.  y | w.Q & = = $ M 2.z a.a.a.a.a.a.a.a.a.",
"a.a.a.a.a.a.a.8 ! =.@.F % = = = $ M 2.z a.a.a.a.a.a.a.a.a.",
"a.a.a.a.a.a.. ` u.] 0 @ = = = = $ M 2.z a.a.a.a.a.a.a.a.a.",
"a.a.a.a.a.a.  } X.@ & = = = = = $ M 2.z a.a.a.a.a.a.a.a.a.",
"a.a.a.a.a.a.  [ ..o + @ = = = = $ M 2.z a.a.a.a.a.a.a.a.a.",
"a.a.a.a.a.a.  { ,._ ' W 4 * = = $ M 2.z a.a.a.a.a.a.a.a.a.",
"a.a.a.a.a.a.O R +.O.*.e.r & = = $ M 2.z a.a.a.a.a.a.a.a.a.",
"a.a.a.a.a.a.a.- > = J 1.t & = = $ M 2.z a.a.a.a.a.a.a.a.a.",
"a.a.a.a.a.a.a.a.a.a.H <.t & = = $ M 2.z a.a.a.a.a.a.a.a.a.",
"a.a.a.a.a.a.a.a.a.a.H <.t & = = $ M 2.z a.a.a.a.a.a.a.a.a.",
"a.a.a.a.a.a.a.a.a.a.H <.t & = = $ M 2.z a.a.a.a.a.a.a.a.a.",
"a.a.a.a.a.a.a.a.a.a.H <.t & = = $ M 2.z a.a.a.a.a.a.a.a.a.",
"a.a.a.a.a.a.a.a.a.a.H <.t & = = $ M 2.z a.a.a.a.a.a.a.a.a.",
"a.a.a.a.a.a.a.a.a.a.H <.t & = = $ M 2.z a.a.a.a.a.a.a.a.a.",
"a.a.a.a.a.a.a.a.a.a.H <.t & = = $ M 2.z a.a.a.a.a.a.a.a.a.",
"a.a.a.a.a.a.a.a.a.a.H <.t & = = $ M 2.z a.a.a.a.a.a.a.a.a.",
"a.a.a.a.a.a.a.a.a.a.H <.t & = = $ M 2.z a.a.a.a.a.a.a.a.a.",
"a.a.a.a.a.a.a.a.a.a.H <.t & = = $ M 2.z a.a.a.a.a.a.a.a.a.",
"a.a.a.a.a.a.a.a.a.a.H <.t & = = $ M 2.z a.a.a.a.a.a.a.a.a.",
"a.a.a.a.a.a.a.a.a.a.H <.t & = = $ M 2.z a.a.a.a.a.a.a.a.a.",
"a.a.a.a.a.a.a.a.a.a.H <.t & = = $ M 2.z a.a.a.a.a.a.a.a.a.",
"a.a.a.a.a.a.a.a.a.a.H <.t & = = $ M 2.z a.a.a.a.a.a.a.a.a.",
"a.a.a.a.a.a.a.a.a.a.H <.t & = = $ M 2.z a.a.a.a.a.a.a.a.a.",
"a.a.a.a.a.a.a.a.a.a.H <.t & = = $ M 2.z a.a.a.a.a.a.a.a.a.",
"a.a.a.a.a.a.a.a.a.a.H <.t & = = $ M 2.z a.a.a.a.a.a.a.a.a.",
"a.a.a.a.a.a.a.a.a.a.H <.t & = = $ M 2.z a.a.a.a.a.a.a.a.a.",
"a.a.a.a.a.a.a.a.a.a.H <.t & = = $ M 2.z a.a.a.a.a.a.a.a.a.",
"a.a.a.a.a.a.a.a.a.a.H <.t & = = $ M 2.z a.a.a.a.a.a.a.a.a.",
"a.a.a.a.a.a.a.a.a.a.H <.t & = = $ M 2.z a.a.a.a.a.a.a.a.a.",
"a.a.a.a.a.a.a.a.a.a.G <.t & = = $ M 2.k a.a.a.a.a.a.a.a.a.",
"a.a.a.a.a.a.a.6 h p T 4.t & = = # M 0.H d u ; a.a.a.a.a.a.",
"a.a.a.a.a.a.a.Y r.<.e.;.e & = = % b y.9.8.%.t a.a.a.a.a.a.",
"a.a.a.a.a.a.a./ :.S V c : = = = = 3 n M ~ 7.f a.a.a.a.a.a.",
"a.a.a.a.a.a.a./ #.: @ % = = = = = = % X Z <.g a.a.a.a.a.a.",
"a.a.a.a.a.a.a.^ $.2 = = = = = = = = = @ Z 2.k a.a.a.a.a.a.",
"a.a.a.a.a.a.a.^ $.2 = = = = = = = = = @ C 3.l a.a.a.a.a.a.",
"a.a.a.a.a.a.a./ #., % % % % % % % % % + B 3.l a.a.a.a.a.a.",
"a.a.a.a.a.a.a.^ &.z a s s s s s s s s i I 9.x a.a.a.a.a.a.",
"a.a.a.a.a.a.a.E p.1.,.,.,.,.,.,.,.,.,.>.0.3.j a.a.a.a.a.a.",
"a.a.a.a.a.a.a.w A D F F F F F F F F F F D N 1 a.a.a.a.a.a."
};
