/* XPM */
static char *result[] = {
/* columns rows colors chars-per-pixel */
"29 45 221 2 ",
"   c #1B100D",
".  c #1C100D",
"X  c #1C110E",
"o  c #1D110E",
"O  c #1D120E",
"+  c #1F1310",
"@  c #1F1411",
"#  c #201411",
"$  c #201512",
"%  c #211512",
"&  c #211612",
"*  c #211613",
"=  c #221613",
"-  c #221714",
";  c #231714",
":  c #231815",
">  c #241916",
",  c #251A17",
"<  c #261B18",
"1  c #261B19",
"2  c #271C19",
"3  c #271D1A",
"4  c #281D1A",
"5  c #281D1B",
"6  c #291E1B",
"7  c #2A1F1C",
"8  c #2A1F1D",
"9  c #2A201D",
"0  c #2B201D",
"q  c #2B211E",
"w  c #2C221F",
"e  c #2D2220",
"r  c #2E2421",
"t  c #2F2421",
"y  c #2F2422",
"u  c #302523",
"i  c #312623",
"p  c #312724",
"a  c #332826",
"s  c #332926",
"d  c #342927",
"f  c #342A27",
"g  c #352B28",
"h  c #362C29",
"j  c #362C2A",
"k  c #372D2A",
"l  c #372D2B",
"z  c #382E2B",
"x  c #392F2C",
"c  c #3A302D",
"v  c #3B312F",
"b  c #3C322F",
"n  c #3E3431",
"m  c #423936",
"M  c #433937",
"N  c #433A37",
"B  c #443A38",
"V  c #443B38",
"C  c #443B39",
"Z  c #453C39",
"A  c #463C3A",
"S  c #463D3A",
"D  c #463D3B",
"F  c #473E3B",
"G  c #473E3C",
"H  c #483E3C",
"J  c #4C4340",
"K  c #4D4441",
"L  c #4E4543",
"P  c #4E4643",
"I  c #4F4644",
"U  c #4F4744",
"Y  c #504745",
"T  c #504845",
"R  c #514846",
"E  c #524A47",
"W  c #534B48",
"Q  c #544B49",
"!  c #554C4A",
"~  c #554D4A",
"^  c #554D4B",
"/  c #564D4B",
"(  c #564E4B",
")  c #564E4C",
"_  c #574E4C",
"`  c #5A524F",
"'  c #5A5250",
"]  c #5B5350",
"[  c #5C5451",
"{  c #5C5452",
"}  c #5D5553",
"|  c #5E5654",
" . c #5F5754",
".. c #5F5755",
"X. c #605855",
"o. c #605856",
"O. c #615957",
"+. c #635B59",
"@. c #635C59",
"#. c #665F5D",
"$. c #675F5D",
"%. c #68615F",
"&. c #6A6361",
"*. c #6C6563",
"=. c #6E6664",
"-. c #706967",
";. c #726B69",
":. c #736C6A",
">. c #746D6B",
",. c #746D6C",
"<. c #756E6C",
"1. c #756E6D",
"2. c #766F6D",
"3. c #77706E",
"4. c #77706F",
"5. c #797270",
"6. c #7A7371",
"7. c #7A7472",
"8. c #7B7472",
"9. c #7E7876",
"0. c #7F7877",
"q. c #807977",
"w. c #807A78",
"e. c #827C7A",
"r. c #837C7B",
"t. c #847E7C",
"y. c #857F7D",
"u. c #86807E",
"i. c #86807F",
"p. c #87817F",
"a. c #898382",
"s. c #8B8684",
"d. c #8C8684",
"f. c #8E8987",
"g. c #908A89",
"h. c #908B89",
"j. c #948E8D",
"k. c #95908E",
"l. c #969190",
"z. c #979190",
"x. c #979291",
"c. c #989291",
"v. c #989391",
"b. c #9A9593",
"n. c #9A9594",
"m. c #9B9694",
"M. c #9B9695",
"N. c #9C9795",
"B. c #9C9796",
"V. c #9D9896",
"C. c #9D9897",
"Z. c #A19C9B",
"A. c #A19D9B",
"S. c #A5A19F",
"D. c #A7A3A1",
"F. c #A9A5A4",
"G. c #AAA6A5",
"H. c #ABA7A6",
"J. c #ADA9A8",
"K. c #AEAAA9",
"L. c #B2AEAD",
"P. c #B3B0AF",
"I. c #B5B2B1",
"U. c #B8B4B4",
"Y. c #B8B5B4",
"T. c #B9B6B5",
"R. c #BAB6B5",
"E. c #BAB7B6",
"W. c #BBB8B7",
"Q. c #BCB8B7",
"!. c #BCB9B8",
"~. c #BEBBBA",
"^. c #BFBBBA",
"/. c #BFBCBB",
"(. c #C0BCBC",
"). c #C0BDBC",
"_. c #C3C0BF",
"`. c #C7C4C3",
"'. c #C9C7C6",
"]. c #CBC8C8",
"[. c #CCC9C9",
"{. c #CCCAC9",
"}. c #CDCBCA",
"|. c #CECCCB",
" X c #CFCDCC",
".X c #D0CDCD",
"XX c #D0CECD",
"oX c #D0CECE",
"OX c #D1CECE",
"+X c #D1CFCE",
"@X c #D1CFCF",
"#X c #D2CFCF",
"$X c #D2D0CF",
"%X c #D3D0D0",
"&X c #D3D1D0",
"*X c #D4D2D2",
"=X c #D5D2D2",
"-X c #D5D3D3",
";X c #D6D3D3",
":X c #D6D4D3",
">X c #D6D4D4",
",X c #D7D5D5",
"<X c #D7D6D5",
"1X c #D8D6D5",
"2X c #D8D6D6",
"3X c #D8D7D6",
"4X c #D9D7D6",
"5X c #D9D7D7",
"6X c #DAD8D7",
"7X c #DAD8D8",
"8X c #DBD9D8",
"9X c #DBD9D9",
"0X c #DBDAD9",
"qX c #DCDADA",
"wX c #DCDBDA",
"eX c #E2E0E0",
"rX c #E2E1E1",
"tX c #E3E1E1",
"yX c #E7E6E5",
"uX c #ECECEB",
"iX c None",
/* pixels */
"iXiXiXiXiXiX9 I ~ ! ! ! ! ! ! ! ! ! ! ! ^ J 2 iXiXiXiXiXiX",
"iXiXiXiXiX7 h.8X X X X X X X X X X X X X X7Xw., iXiXiXiXiX",
"iXiXiXiX7 j.&X' z c c c c c c c c c c c z #.4Xr., iXiXiXiX",
"iXiXiX9 k.&XR $ - - - - - - - - - - - - = $ ..4Xt.< iXiXiX",
"iXiX0 l.$XY $ : : : : : : : : : : : : : : : & | 3Xy.< iXiX",
"iXq c.#XI $ : : : : : : : : : : : : : : : : : % } 2Xi.1 iX",
"w z.OXL $ : : : : : * * * * * * * * - : : : : : % { ,Xu.3 ",
"/ qX~ $ : : : : : - v G F F F F F G k * : : : : : $ $.3XM ",
"{  Xh - : : : : $ Q #X*X$X$X$X$X#X;X].I $ : : : : * B #XG ",
"[ .Xl - : : : * N |.z.M V V V V V Z B.$XU - : : : * Z #XG ",
"[ .Xk * : : - t E.F.e iXiXiXiXiXiXiX0 D.I.< : : : * Z #XG ",
"[ XXv < 2 2 , A 1XK iXiXiXiXiXiXiXiXiX:./.4 : : : * Z #XG ",
"` yX_.!.!.!.Q.`.eXD iXiXiXiXiXiXiXiXiX<.~.4 : : : * Z #XG ",
"j =.<.1.1.1.1.1.&.u iXiXiXiXiXiXiXiXiX<.~.4 : : : * Z #XG ",
"iXiXiXiXiXiXiXiXiXiXiXiXiXiXiXiXiXiXiX<.~.4 : : : * Z #XG ",
"iXiXiXiXiXiXiXiXiXiXiXiXiXiXiXiXiXiXiX>.~.4 : : : * Z #XG ",
"iXiXiXiXiXiXiXiXiXiXiXiXiXiXiXiXiXiX. q.).4 : : : * Z #XG ",
"iXiXiXiXiXiXiXiXiXiXiXiX= @ @ @ @ + ) =Xp.: : : : * Z #XG ",
"iXiXiXiXiXiXiXiXiXiXiXiXY m.C.C.V.Z.1Xg.4 - : : : * V @XG ",
"iXiXiXiXiXiXiXiXiXiXiXiX7.rXN.b.n.M.4.5 - : : : : # W 1XA ",
"iXiXiXiXiXiXiXiXiXiXiXiX8.E.> $ $ $ $ : : : : : * k (.S.w ",
"iXiXiXiXiXiXiXiXiXiXiXiX8.W.2 : : : : : : : : - i K.T.k iX",
"iXiXiXiXiXiXiXiXiXiXiXiX8.W.2 : : : : : : : : $ -.uX(   iX",
"iXiXiXiXiXiXiXiXiXiXiXiX8.W.2 : : : : : : : : - g L.R.x iX",
"iXiXiXiXiXiXiXiXiXiXiXiX8.E.: @ @ @ $ : : : : : * k Q.J.y ",
"iXiXiXiXiXiXiXiXiXiXiXiX8.:X<.;.;.:...2 - : : : : # Y <XD ",
"iXiXiXiXiXiXiXiXiXiXiXiX../.~.~.~./.wXp.< ; : : : * C @XG ",
"iXiXiXiXiXiXiXiXiXiXiXiX< 0 0 0 0 6  .,Xw.: : : : * Z #XG ",
"iXiXiXiXiXiXiXiXiXiXiXiXiXiXiXiXiXiXX r.).4 : : : * Z #XG ",
"iXiXiXiXiXiXiXiXiXiXiXiXiXiXiXiXiXiXiX>.~.4 : : : * Z #XG ",
"* o X X X X X X O iXiXiXiXiXiXiXiXiXiX<.~.4 : : : * Z #XG ",
"b r.d.d.d.d.d.d.9.s iXiXiXiXiXiXiXiXiX<.~.4 : : : * Z #XG ",
"] yXP.G.H.H.G.Y.tXH iXiXiXiXiXiXiXiXiX<.~.4 : : : * Z #XG ",
"[ .Xk * ; ; % m %XS iXiXiXiXiXiXiXiXiX:.^.4 : : : * Z #XG ",
"[ .Xl - : : * n 5X<.$ iXiXiXiXiXiXiX4 A.U.1 : : : * Z #XG ",
"[ .Xl - : : : , 3.8Xe.T E E E E E R x.-X/ - : : : * Z #XG ",
"{  Xh - : : : : - %.|.oX.X.X.X.X.X+X'./ $ : : : : * B #XG ",
"_ wX! $ : : : : : - s x x x x x x x p - : : : : : # +.5XB ",
"r v.%X( $ : : : : : - - - - - - - - - : : : : : % ' >Xs.6 ",
"iX8 f.1XO.* : : : : : : : : : : : : : : : : : * ..2Xa.4 iX",
"iXiX2 e.8X*.- ; : : : : : : : : : : : : : : * @.6Xt.< iXiX",
"iXiXiX> 2.0X5.> * - - - - - - - - - - - - * %.8X0., iXiXiX",
"iXiXiXiX* &.7Xu.g d f f f f f f f f f f a -.9X6.> iXiXiXiX",
"iXiXiXiXiX# ..$XXX[.{.{.{.{.{.{.{.{.{.{.}.5X,.: iXiXiXiXiX",
"iXiXiXiXiXiX$ Z X.......................o.P > iXiXiXiXiXiX"
};
