/* XPM */
static char *result[] = {
/* columns rows colors chars-per-pixel */
"29 43 208 2 ",
"   c #1B100D",
".  c #1D120F",
"X  c #1E1310",
"o  c #1F1411",
"O  c #201411",
"+  c #201512",
"@  c #211512",
"#  c #211612",
"$  c #211613",
"%  c #221613",
"&  c #221713",
"*  c #221714",
"=  c #231815",
"-  c #241916",
";  c #251A17",
":  c #251A18",
">  c #251B18",
",  c #261B18",
"<  c #261C19",
"1  c #271C19",
"2  c #271D1A",
"3  c #281D1A",
"4  c #291E1B",
"5  c #291F1C",
"6  c #2A1F1D",
"7  c #2A201D",
"8  c #2B201D",
"9  c #2C211E",
"0  c #2C211F",
"q  c #2C221F",
"w  c #2D221F",
"e  c #2E2320",
"r  c #2E2421",
"t  c #2F2522",
"y  c #302522",
"u  c #302623",
"i  c #312624",
"p  c #312724",
"a  c #332826",
"s  c #332926",
"d  c #342927",
"f  c #342A27",
"g  c #352B28",
"h  c #372C2A",
"j  c #372D2A",
"k  c #382E2B",
"l  c #382E2C",
"z  c #39302D",
"x  c #3B312F",
"c  c #3B322F",
"v  c #3C322F",
"b  c #3C3330",
"n  c #3E3432",
"m  c #3E3532",
"M  c #3F3633",
"N  c #403634",
"B  c #413735",
"V  c #413835",
"C  c #423836",
"Z  c #423936",
"A  c #433A37",
"S  c #443B38",
"D  c #453B39",
"F  c #453C39",
"G  c #473E3B",
"H  c #473E3C",
"J  c #493F3D",
"K  c #4A413F",
"L  c #4B4240",
"P  c #4E4543",
"I  c #4E4643",
"U  c #4F4643",
"Y  c #4F4744",
"T  c #504745",
"R  c #504845",
"E  c #514846",
"W  c #514946",
"Q  c #524947",
"!  c #554C4A",
"~  c #564E4C",
"^  c #574F4D",
"/  c #59504E",
"(  c #59514E",
")  c #605856",
"_  c #605956",
"`  c #615957",
"'  c #635C5A",
"]  c #645C5A",
"[  c #655D5B",
"{  c #665E5C",
"}  c #675F5D",
"|  c #67605E",
" . c #68605E",
".. c #6A6361",
"X. c #6B6462",
"o. c #6C6563",
"O. c #6D6664",
"+. c #6E6765",
"@. c #6F6866",
"#. c #706866",
"$. c #706967",
"%. c #716A68",
"&. c #726B69",
"*. c #736C6A",
"=. c #746D6B",
"-. c #746E6C",
";. c #756E6C",
":. c #756E6D",
">. c #766F6D",
",. c #77706E",
"<. c #7A7372",
"1. c #7C7573",
"2. c #7E7776",
"3. c #827C7A",
"4. c #847E7C",
"5. c #857F7D",
"6. c #86807E",
"7. c #86807F",
"8. c #888280",
"9. c #888381",
"0. c #898381",
"q. c #8C8684",
"w. c #8C8685",
"e. c #8C8785",
"r. c #8E8887",
"t. c #918B8A",
"y. c #948F8D",
"u. c #948F8E",
"i. c #958F8E",
"p. c #95908E",
"a. c #969190",
"s. c #979291",
"d. c #9B9694",
"f. c #9C9795",
"g. c #9C9796",
"h. c #9D9896",
"j. c #9D9897",
"k. c #9F9A99",
"l. c #A39F9E",
"z. c #A49F9E",
"x. c #A4A09E",
"c. c #A4A09F",
"v. c #A5A09F",
"b. c #A7A2A1",
"n. c #A9A5A4",
"m. c #ACA8A6",
"M. c #ADA9A8",
"N. c #B0ACAB",
"B. c #B1ADAC",
"V. c #B3AFAE",
"C. c #B4B0AF",
"Z. c #B5B1B0",
"A. c #B7B3B2",
"S. c #B7B4B3",
"D. c #B8B4B3",
"F. c #B8B5B4",
"G. c #B9B5B4",
"H. c #B9B5B5",
"J. c #B9B6B5",
"K. c #BAB6B5",
"L. c #BAB7B6",
"P. c #BBB7B6",
"I. c #BBB8B7",
"U. c #BCB8B7",
"Y. c #BCB9B8",
"T. c #BDBAB9",
"R. c #BEBBBA",
"E. c #BFBBBB",
"W. c #BFBCBB",
"Q. c #C0BCBC",
"!. c #C1BDBD",
"~. c #C1BEBD",
"^. c #C2BFBE",
"/. c #C3C0C0",
"(. c #C4C2C1",
"). c #C5C2C1",
"_. c #C6C3C3",
"`. c #C8C5C4",
"'. c #CAC7C6",
"]. c #CAC8C7",
"[. c #CBC9C8",
"{. c #CCC9C8",
"}. c #CCCAC9",
"|. c #CDCACA",
" X c #CECBCB",
".X c #D0CECD",
"XX c #D1CECE",
"oX c #D1CFCE",
"OX c #D2D0CF",
"+X c #D3D0D0",
"@X c #D3D1D0",
"#X c #D4D2D1",
"$X c #D5D2D2",
"%X c #D5D3D2",
"&X c #D5D3D3",
"*X c #D6D3D3",
"=X c #D8D6D5",
"-X c #D8D6D6",
";X c #D9D7D6",
":X c #DDDBDA",
">X c #DEDCDB",
",X c #DFDEDD",
"<X c #E0DEDE",
"1X c #E0DFDE",
"2X c #E2E1E0",
"3X c #E5E3E3",
"4X c gray97",
"5X c None",
/* pixels */
"5X5X5X5X5X5X5X5X5X5X5X5X5X5X5X5X5Xu P T T T T T Y c = 5X5X",
"5X5X5X5X5X5X5X5X5X5X5X5X5X5X5X5X5 g.*X'.].].].'.:Xs.$ 5X5X",
"5X5X5X5X5X5X5X5X5X5X5X5X5X5X5X+ 1. XP j l l l g i.v.$ 5X5X",
"5X5X5X5X5X5X5X5X5X5X5X5X5X5X5X/ %X_ o * * * * X 8.c.$ 5X5X",
"5X5X5X5X5X5X5X5X5X5X5X5X5X5Xn `.7.* = = = = = o 9.x.$ 5X5X",
"5X5X5X5X5X5X5X5X5X5X5X5X5X0 n.M.8 * = = = = = o 9.x.$ 5X5X",
"5X5X5X5X5X5X5X5X5X5X5X5X& 4.'.b $ = = = = = = o 9.x.$ 5X5X",
"5X5X5X5X5X5X5X5X5X5X5X5X) &X( + = = = = = = = o 9.x.$ 5X5X",
"5X5X5X5X5X5X5X5X5X5X5XA }.2.$ = = = = = = = = o 9.x.$ 5X5X",
"5X5X5X5X5X5X5X5X5X5Xt B.v.3 * = = = = = = = = o 9.x.$ 5X5X",
"5X5X5X5X5X5X5X5X5X= w.).k $ = = = = * = = = = o 9.x.$ 5X5X",
"5X5X5X5X5X5X5X5X5X| $XQ + = = = = 1 W 1 = = = o 9.x.$ 5X5X",
"5X5X5X5X5X5X5X5XJ .X:.$ = = = = + X.M.2 = = = o 9.x.$ 5X5X",
"5X5X5X5X5X5X5Xs F.h., * = = = @ G 1XT.< = = = o 9.x.$ 5X5X",
"5X5X5X5X5X5X: i.W.s % = = = * i S.,XD.< = = = o 9.x.$ 5X5X",
"5X5X5X5X5XX @.@XL + = = = = ; a.L.3.D.1 = = = o 9.x.$ 5X5X",
"5X5X5X5X5XU +XO.+ = = = = + +.@XH @.H.1 = = = o 9.x.$ 5X5X",
"5X5X5X5Xj E.y.- = = = = + L @X#.  *.G.1 = = = o 9.x.$ 5X5X",
"5X5X5X3 j.F.y * = = = & a R.p.> 5X*.G.1 = = = o 9.x.$ 5X5X",
"5X5Xo ,..XF @ = = = = > d.J.s 5X5X&.G.1 = = = o 9.x.$ 5X5X",
"5X5X! $X[ + = = = = # &.oXK 5X5X5X&.G.1 = = = o 9.x.$ 5X5X",
"5Xx (.q.= = = = = + I #X... 5X5X5X&.G.1 = = = o 9.x.$ 5X5X",
"9 l.N.q * = = = $ g !.y.1 , 1 1 $ =.J.1 = = = o 9.b.; 1 - ",
"v @X` o = = = = 2 f.4X~.Z.C.C.C.V.OXJ.< = = = o 5.2XZ.B.~ ",
"- x.u.$ = = = * w { $.&.*.*.*.*.*.*.^ - = = = * D %.>.+X-.",
"5X' ].f * = = = = + o o o o o o o o + = = = = = $ o = A.;.",
"5Xf _. .O = = = = = = = = = = = = = = = = = = = = = 1 F.;.",
"5XX r.m.- = = = = = = = = = = = = = = = = = = = = = 1 F.;.",
"5X5XR XXV o $ $ $ $ $ $ $ $ $ $ $ $ * = = = = = * $ ; D.;.",
"5X5X7 A.e.n B B B B B B B B B B B B h = = = = = y N D ^.;.",
"5X5X5X@.=X[.{.{.{.{.{.{.{.{.{.{.{.;Xn., = = = + <.>X|.-X| ",
"5X5X5X8 C S S S S S S S S S S S M 6.L.1 = = = o 0.V.B Z r ",
"5X5X5X5X5X5X5X5X5X5X5X5X5X5X5X5X5X%.G.1 = = = o 9.z.X 5X5X",
"5X5X5X5X5X5X5X5X5X5X5X5X5X5X5X5X5X$.G.1 = = = o 9.z.. 5X5X",
"5X5X5X5X5X5X5X5X5X5X5X5X5X5Xp E Y t.I.1 = = = o 0.P.E E s ",
"5X5X5X5X5X5X5X5X5X5X5X5X5X5X] 2X].oXk., = = = + *.@X].<Xo.",
"5X5X5X5X5X5X5X5X5X5X5X5X5X5XX./.z d r = = = = = 6 s k R.;.",
"5X5X5X5X5X5X5X5X5X5X5X5X5X5XX.R.3 * * = = = = = = * , D.;.",
"5X5X5X5X5X5X5X5X5X5X5X5X5X5XX.R.4 = = = = = = = = = 1 F.;.",
"5X5X5X5X5X5X5X5X5X5X5X5X5X5XX.R.4 * = = = = = = = * 1 F.;.",
"5X5X5X5X5X5X5X5X5X5X5X5X5X5XX.Q.e 2 3 3 3 3 3 3 3 3 9 K.;.",
"5X5X5X5X5X5X5X5X5X5X5X5X5X5X} 3XY.L.L.L.L.L.L.L.L.L.U.2X$.",
"5X5X5X5X5X5X5X5X5X5X5X5X5X5Xx %.;.;.;.;.;.;.;.;.;.;.;.$.m "
};
