/* XPM */
static char *result[] = {
/* columns rows colors chars-per-pixel */
"29 45 205 2 ",
"   c #180C09",
".  c #1A0F0C",
"X  c #1B0F0C",
"o  c #1C100D",
"O  c #1E120F",
"+  c #1E1310",
"@  c #1F1310",
"#  c #1F1411",
"$  c #201411",
"%  c #201512",
"&  c #211612",
"*  c #211613",
"=  c #221613",
"-  c #221713",
";  c #221714",
":  c #231714",
">  c #231815",
",  c #241916",
"<  c #251A17",
"1  c #251B18",
"2  c #261B18",
"3  c #271C19",
"4  c #271D1A",
"5  c #281D1A",
"6  c #291E1B",
"7  c #2A1F1C",
"8  c #2A201D",
"9  c #2B201D",
"0  c #2B211E",
"q  c #2C211F",
"w  c #2C221F",
"e  c #2D2220",
"r  c #2F2422",
"t  c #302522",
"y  c #302623",
"u  c #312624",
"i  c #312724",
"p  c #322724",
"a  c #322825",
"s  c #332826",
"d  c #342A27",
"f  c #352B28",
"g  c #362C29",
"h  c #372D2A",
"j  c #372D2B",
"k  c #382E2B",
"l  c #392F2C",
"z  c #392F2D",
"x  c #3A302D",
"c  c #3A302E",
"v  c #3B312E",
"b  c #3B322F",
"n  c #3C322F",
"m  c #3C3330",
"M  c #3D3330",
"N  c #3D3331",
"B  c #3E3432",
"V  c #3F3533",
"C  c #403734",
"Z  c #413734",
"A  c #413735",
"S  c #413835",
"D  c #433A38",
"F  c #443A38",
"G  c #443B38",
"H  c #453C39",
"J  c #453C3A",
"K  c #473E3C",
"L  c #483F3D",
"P  c #49403D",
"I  c #4C4341",
"U  c #4C4441",
"Y  c #4D4442",
"T  c #4F4744",
"R  c #524946",
"E  c #524947",
"W  c #534A48",
"Q  c #534B48",
"!  c #544C49",
"~  c #574F4C",
"^  c #574F4D",
"/  c #58504D",
"(  c #5B5351",
")  c #5C5452",
"_  c #605856",
"`  c #615956",
"'  c #615957",
"]  c #625A58",
"[  c #635B59",
"{  c #645C5A",
"}  c #655D5B",
"|  c #665F5D",
" . c #68605E",
".. c #69615F",
"X. c #696260",
"o. c #6A6260",
"O. c #6A6361",
"+. c #6B6462",
"@. c #6E6765",
"#. c #6F6866",
"$. c #736C6A",
"%. c #756E6D",
"&. c #766F6D",
"*. c #77706F",
"=. c #77716F",
"-. c #787270",
";. c #797270",
":. c #7B7573",
">. c #7C7573",
",. c #7E7775",
"<. c #7E7876",
"1. c #7F7877",
"2. c #807A78",
"3. c #817A79",
"4. c #817B79",
"5. c #827C7A",
"6. c #837D7B",
"7. c #87817F",
"8. c #878180",
"9. c #888281",
"0. c #8A8482",
"q. c #8B8584",
"w. c #8D8786",
"e. c #8D8886",
"r. c #8E8987",
"t. c #8F8987",
"y. c #908B89",
"u. c #938D8C",
"i. c #938E8C",
"p. c #948E8D",
"a. c #96918F",
"s. c #989391",
"d. c #989392",
"f. c #999492",
"g. c #999493",
"h. c #9A9593",
"j. c #9C9796",
"k. c #9D9997",
"l. c #9E9997",
"z. c #9E9998",
"x. c #9F9A99",
"c. c #ACA8A7",
"v. c #AFABAA",
"b. c #B2AEAD",
"n. c #B4B0AF",
"m. c #B5B1B0",
"M. c #B6B2B1",
"N. c #B6B3B2",
"B. c #B7B4B3",
"V. c #B8B5B4",
"C. c #B9B6B5",
"Z. c #BAB6B5",
"A. c #BAB7B6",
"S. c #BBB7B6",
"D. c #BBB8B7",
"F. c #BCB8B7",
"G. c #BCB8B8",
"H. c #BCB9B8",
"J. c #BDB9B8",
"K. c #BDBAB9",
"L. c #BEBBBA",
"P. c #C0BDBC",
"I. c #C1BDBD",
"U. c #C2BEBE",
"Y. c #C2BFBE",
"T. c #C3C0BF",
"R. c #C3C1C0",
"E. c #C5C2C1",
"W. c #C6C3C2",
"Q. c #C7C4C3",
"!. c #C7C4C4",
"~. c #C8C5C4",
"^. c #CAC8C7",
"/. c #CBC8C7",
"(. c #CBC8C8",
"). c #CBC9C8",
"_. c #CDCBCA",
"`. c #CFCDCC",
"'. c #D0CDCD",
"]. c #D0CECD",
"[. c #D1CECE",
"{. c #D1CFCE",
"}. c #D2CFCF",
"|. c #D2D0CF",
" X c #D2D0D0",
".X c #D3D1D1",
"XX c #D4D2D2",
"oX c #D5D3D2",
"OX c #D6D4D3",
"+X c #D6D4D4",
"@X c #D7D5D4",
"#X c #D7D5D5",
"$X c #D8D6D5",
"%X c #D8D7D6",
"&X c #D9D7D6",
"*X c #D9D8D7",
"=X c #DAD8D7",
"-X c #DAD9D8",
";X c #DBD9D8",
":X c #DCDADA",
">X c #DDDBDA",
",X c #DEDCDC",
"<X c #DEDDDC",
"1X c #E2E1E0",
"2X c None",
/* pixels */
"< D E E E E E E E E E E E E E E E E E E E E E E E E R T f ",
"0 N.:X`.'.'.'.'.'.'.'.'.'.'.'.'.'.'.'.'.'.'.'.'.'.'.[.1X&.",
"w U.>.l n n n n n n n n n n n n n n n n n n n n n n C E.2.",
"w P.X.O * * * * * * * * * * * * * * * * * * * * * * 2 J.2.",
"w P.O.# > > > > > > > > > > > > > > > > > > > > > > 5 K.2.",
"w P.O.# > > > > > > > > > > > > > > > > > > > > > > 5 K.2.",
"w P.O.# > > > > - * * * * * * * * * * * * * * * * * 2 H.2.",
"w P.O.# > > > , l G G G G G G G G G G G G G G G G G L ~.2.",
"w P.O.# > > > 2 c.,X{.{.{.{.{.{.{.{.{.{.{.{.{.{.{.{.}.<X$.",
"w P.O.# > > > 3 H.e.Z J H H H H H H H H H H H H H H H F y ",
"w P.O.# > > > 3 D.=.  2X2X2X2X2X2X2X2X2X2X2X2X2X2X2X2X2X2X",
"w P.O.# > > > 3 D.-.2X2X2X2X2X2X2X2X2X2X2X2X2X2X2X2X2X2X2X",
"w P.O.# > > > 3 D.-.2X2X2X2X2X2X2X2X2X2X2X2X2X2X2X2X2X2X2X",
"w P.O.# > > > 3 D.-.2X2X2X2X2X2X2X2X2X2X2X2X2X2X2X2X2X2X2X",
"w P.O.# > > > 3 D.-.2X2X2X2X2X2X2X2X2X2X2X2X2X2X2X2X2X2X2X",
"w P.O.# > > > 3 D.-.2X2X2X2X2X2X2X2X2X2X2X2X2X2X2X2X2X2X2X",
"w P.O.# > > > 3 D.-.2X2X2X2X2X2X2X2X2X2X2X2X2X2X2X2X2X2X2X",
"w P.O.# > > > 3 D.*.X @ @ @ @ @ @ @ @ @ @ + 2X2X2X2X2X2X2X",
"w P.X.# > > > 3 L.W.d.g.g.g.g.g.g.g.g.g.h.u.K 2X2X2X2X2X2X",
"0 Y.1.# > > > < &.z.l.k.k.k.k.k.k.k.k.k.j.G.).I 2X2X2X2X2X",
"> >.%X) % > > > * & * * * * * * * * * * % w z.`.T O 2X2X2X",
"2X2 7.#X~ % > > > > > > > > > > > > > > > ; 8 f.|.Q + 2X2X",
"2X2X3 w.oXE % > > > > > > > > > > > > > > > ; 6 p.XX^ + 2X",
"2X2X2X6 i. XY % > > > > > > > > > > > > > > > ; 4 t.+X( % ",
"2X2X2X2X9 f.`.P + # # # # # # # # # # ; > > > > ; 2 0.oX! ",
"2X2X2X2X2Xw x._.%.@.#.#.#.#.#.#.#.#...s * > > > > ; 8 E.4.",
"2X2X2X2X2X2Xt a.T.P.P.P.P.P.P.P.P.P.OXb.g * > > > > 4 J.2.",
"2X2X2X2X2X2X2X< q q q q q q q q q 8 S G.m.i ; > > > 5 K.2.",
"2X2X2X2X2X2X2X2X2X2X2X2X2X2X2X2X2X2X2XP *XU % > > > 5 K.2.",
"2X2X2X2X2X2X2X2X2X2X2X2X2X2X2X2X2X2X2XB [.Y % > > > 5 K.2.",
"2X2X2X2X2X2X2X2X2X2X2X2X2X2X2X2X2X2X2XV {.Y % > > > 5 K.2.",
", e i i i i i i u 5 2X2X2X2X2X2X2X2X2XV {.Y % > > > 5 K.2.",
"7 x.).Q.Q.Q.Q.!./.] 2X2X2X2X2X2X2X2X2XV {.Y % > > > 5 K.2.",
"w R.s.' { { { | .X,.. 2X2X2X2X2X2X2X2XM {.Y % > > > 5 K.2.",
"w P. .o $ $ # # y.^.S 2X2X2X2X2X2X2XO { >XK * > > > 5 K.2.",
"w P.O.# > > > ; r v.F.H v b b b b z | $X8.3 > > > > 5 K.2.",
"w I...# > > > > * h Z.&X`.`.`.`.`.'.:X5.< ; > > > > 3 H.3.",
"9 P.q.= : > > > > * f E E E E E E W P 1 ; > > > > * k ].:.",
"; +.-X;.> ; > > > > ; % % % % % % % * > > > > > * f m.A.N ",
"2X* o.;X<., ; > > > > > > > > > > > > > > > > * g M.F.m 2X",
"2X2X% } =X6.< ; > > > > > > > > > > > > > > * h B.S.b 2X2X",
"2X2X2X# ` &X9.2 * ; ; ; ; ; ; ; ; ; ; ; ; % j V.C.v 2X2X2X",
"2X2X2X2X# ) @Xr.d p a a a a a a a a a a i A C.V.c 2X2X2X2X",
"2X2X2X2X2X+ / ].'./.(.(.(.(.(.(.(.(.(.(.^.@Xn.x 2X2X2X2X2X",
"2X2X2X2X2X2X% J [ [ [ [ [ [ [ [ [ [ [ [ [ _ g 2X2X2X2X2X2X"
};
