/* XPM */
static char *result[] = {
/* columns rows colors chars-per-pixel */
"29 45 196 2 ",
"   c #1E120F",
".  c #1E1310",
"X  c #1F1310",
"o  c #1F1411",
"O  c #201411",
"+  c #201512",
"@  c #211512",
"#  c #211612",
"$  c #211613",
"%  c #221613",
"&  c #221713",
"*  c #221714",
"=  c #231814",
"-  c #231815",
";  c #241916",
":  c #251A17",
">  c #261B18",
",  c #271C19",
"<  c #291E1C",
"1  c #291F1C",
"2  c #2A1F1D",
"3  c #2A201D",
"4  c #2B201D",
"5  c #2B201E",
"6  c #2B211E",
"7  c #2C211F",
"8  c #2D221F",
"9  c #2D2320",
"0  c #2E2421",
"q  c #2F2421",
"w  c #2F2522",
"e  c #302522",
"r  c #302623",
"t  c #312623",
"y  c #312724",
"u  c #322825",
"i  c #332826",
"p  c #332926",
"a  c #332927",
"s  c #342927",
"d  c #342A27",
"f  c #362C29",
"g  c #382E2B",
"h  c #392F2C",
"j  c #392F2D",
"k  c #39302D",
"l  c #3A302D",
"z  c #3B312F",
"x  c #3D3330",
"c  c #3D3331",
"v  c #413835",
"b  c #433937",
"n  c #433A37",
"m  c #443B38",
"M  c #443B39",
"N  c #463D3A",
"B  c #473D3B",
"V  c #473E3B",
"C  c #473E3C",
"Z  c #483E3C",
"A  c #493F3D",
"S  c #4B423F",
"D  c #4C4341",
"F  c #4D4442",
"G  c #4E4543",
"H  c #4E4643",
"J  c #4F4643",
"K  c #4F4644",
"L  c #4F4744",
"P  c #504845",
"I  c #514846",
"U  c #514946",
"Y  c #524947",
"T  c #524A47",
"R  c #534A48",
"E  c #554C4A",
"W  c #554D4A",
"Q  c #564D4B",
"!  c #58504E",
"~  c #59514F",
"^  c #5A514F",
"/  c #5A524F",
"(  c #5B5250",
")  c #5B5351",
"_  c #5C5451",
"`  c #5C5452",
"'  c #5E5654",
"]  c #5F5755",
"[  c #605855",
"{  c #605856",
"}  c #615956",
"|  c #615957",
" . c #625A58",
".. c #655D5B",
"X. c #665E5C",
"o. c #675F5D",
"O. c #68615F",
"+. c #6A6260",
"@. c #6B6462",
"#. c #6D6563",
"$. c #6D6664",
"%. c #6E6765",
"&. c #6F6765",
"*. c #706967",
"=. c #716A68",
"-. c #726B69",
";. c #746D6B",
":. c #756E6C",
">. c #76706E",
",. c #77706F",
"<. c #78716F",
"1. c #787170",
"2. c #797270",
"3. c #7A7472",
"4. c #7C7674",
"5. c #7D7775",
"6. c #7E7776",
"7. c #7F7977",
"8. c #807978",
"9. c #837D7B",
"0. c #847E7C",
"q. c #86807E",
"w. c #8D8886",
"e. c #8E8987",
"r. c #8F8A88",
"t. c #908A88",
"y. c #908A89",
"u. c #938D8C",
"i. c #96918F",
"p. c #969190",
"a. c #979291",
"s. c #999492",
"d. c #999493",
"f. c #9A9594",
"g. c #9B9694",
"h. c #9C9796",
"j. c #9E9998",
"k. c #A09B9A",
"l. c #A19D9B",
"z. c #A29E9D",
"x. c #A49F9E",
"c. c #A5A09F",
"v. c #A5A19F",
"b. c #A6A2A0",
"n. c #A7A2A1",
"m. c #A7A3A2",
"M. c #A8A3A2",
"N. c #A8A4A2",
"B. c #AAA5A4",
"V. c #B6B2B1",
"C. c #BDB9B9",
"Z. c #C1BEBD",
"A. c #C3C0C0",
"S. c #C4C1C0",
"D. c #C5C2C1",
"F. c #C5C2C2",
"G. c #C6C3C2",
"H. c #C8C5C5",
"J. c #C9C6C5",
"K. c #CAC7C6",
"L. c #CAC8C7",
"P. c #CBC8C7",
"I. c #CBC9C8",
"U. c #CCC9C8",
"Y. c #CCC9C9",
"T. c #CCCAC9",
"R. c #CDCAC9",
"E. c #CDCACA",
"W. c #CDCBCA",
"Q. c #CECBCB",
"!. c #CECCCB",
"~. c #CFCCCC",
"^. c #CFCDCC",
"/. c #D0CDCD",
"(. c #D0CECD",
"). c #D1CECE",
"_. c #D1CFCE",
"`. c #D1CFCF",
"'. c #D2CFCF",
"]. c #D2D0CF",
"[. c #D3D1D0",
"{. c #D4D2D1",
"}. c #D4D2D2",
"|. c #D5D3D3",
" X c #D6D4D3",
".X c #D7D5D4",
"XX c #D7D5D5",
"oX c #D9D8D7",
"OX c #DAD8D8",
"+X c #DAD9D8",
"@X c #DBD9D8",
"#X c #DBD9D9",
"$X c #DBDAD9",
"%X c #DCDAD9",
"&X c #DCDBDA",
"*X c None",
/* pixels */
"*X*X*X*X*X*X* S { ] ] ] ] ] ] ] ] ] ] ] ] ~ 0 *X*X*X*X*X*X",
"*X*X*X*X*X$ +..X!.T.T.T.T.T.T.T.T.T.T.T.Y.#Xj.0 *X*X*X*X*X",
"*X*X*X*X* &.#X3.p s d d d d d d d d d d u P Q.l.q *X*X*X*X",
"*X*X*X* ;.%X;.* * * * * * * * * * * * * * + A W.z.w *X*X*X",
"*X*X- 1.$X%.* - - - - - - - - - - - - - - - + Z R.x.e *X*X",
"*X: 5.@X+.% - - - - - - - - - - - - - - - - - + B U.v.r *X",
"> 8.oX..$ - - - - - * * * * * * * * * - - - - - + N P.x.t ",
"l {.*.+ - - - - - % w h h h h h h h s - - - - - - + D @X` ",
"x (.J + - - - - + F A.]./././././.(./.O.% - - - - * u T. .",
"x (.P + - - - * U _.j.Y T T T T T P 9.+X%.- - - - * p E.| ",
"x (.P + - - * 0 D.h.2 *X*X*X*X*X*X*X$ 7.].u . O O X r T.| ",
"x (.P + - - * s ^.^ *X*X*X*X*X*X*X*X*XI &X=.[ } } { #.OX| ",
"x (.P + - - * p Q.) *X*X*X*X*X*X*X*X*XV S.L.J.J.J.J.K.G.Y ",
"x (.P + - - * p Q.) *X*X*X*X*X*X*X*X*X> y i i i i i i y , ",
"x (.P + - - * p Q.) *X*X*X*X*X*X*X*X*X*X*X*X*X*X*X*X*X*X*X",
"x (.P + - - * p Q.) *X*X*X*X*X*X*X*X*X*X*X*X*X*X*X*X*X*X*X",
"x (.P + - - * p Q.) *X*X*X*X*X*X*X*X*X*X*X*X*X*X*X*X*X*X*X",
"x (.P + - - * p Q./   * * * * * * * * * * $ *X*X*X*X*X*X*X",
"x (.P + - - * p |.Z.b.n.n.n.n.n.n.n.n.n.M.d.v *X*X*X*X*X*X",
"x (.P + - - = 3 2.t.r.r.r.r.r.r.r.r.r.r.e.C.S.m *X*X*X*X*X",
"x (.P + - - - - + O O O O O O O O O O O o r B.H.V *X*X*X*X",
"x (.P + - - - - - - - - - - - - - - - - - $ 0 c.I.S *X*X*X",
"x (.P + - - - - - - - - - - - - - - - - - - $ 8 k.!.H *X*X",
"x (.P + - - - - - - - - - - - - - - - - - - - * 4 g._.Y + ",
"x (.P + - - - - + o o o o o o o o o O * - - - - * 1 p.~.M ",
"x (.P + - - - < +.5.5.5.5.5.5.5.5.6.*.w $ - - - - $ f '. .",
"x (.P + - - * p }.Y.V.V.V.V.V.V.V.V. XN.y * - - - * p T.| ",
"x (.P + - - * p !.` * , , , , , , : N F.m.2 * - - * p E.| ",
"x (.P + - - * p Q.) *X*X*X*X*X*X*X*X*X_  Xh * - - * p E.| ",
"x (.P + - - * p Q.) *X*X*X*X*X*X*X*X*XY ).h * - - * p E.| ",
"x (.P + - - * p Q.) *X*X*X*X*X*X*X*X*XR ).h * - - * p E.| ",
"x (.P + - - * p Q.) *X*X*X*X*X*X*X*X*XR ).h * - - * p E.| ",
"x (.P + - - * p Q.) *X*X*X*X*X*X*X*X*XR ).h * - - * p E.| ",
"x (.P + - - * a !.~ *X*X*X*X*X*X*X*X*XI `.j * - - * p E.| ",
"x (.P + - - * w L.y.: *X*X*X*X*X*X*X- q.).d * - - * p E.| ",
"x (.P + - - - * ' XXw.n m m m m m b q.oXX.- - - - * p E.| ",
"c (.J + - - - - @ ~ /.}.].].].].].{.[.| $ - - - - * u T. .",
"h [.>.# - - - - - * j C V V V V V C z * - - - - - + U #X( ",
": <.@X$.* - - - - - & $ $ $ $ $ $ $ $ - - - - - + D ^.d.9 ",
"*X- :.%X-.* - - - - - - - - - - - - - - - - - + F (.f.7 *X",
"*X*X* *.#X,.- * - - - - - - - - - - - - - - + G ).s.6 *X*X",
"*X*X*X$ @.#X4.; $ * * * * * * * * * * * * + K `.a.5 *X*X*X",
"*X*X*X*X+ o.OX0.j k l l l l l l l l l l g ! '.i.4 *X*X*X*X",
"*X*X*X*X*XO  .[._.^.^.^.^.^.^.^.^.^.^.^.~.+Xu.3 *X*X*X*X*X",
"*X*X*X*X*X*X$ n Q E E E E E E E E E E E W L 4 *X*X*X*X*X*X"
};
