/* XPM */
static char *result[] = {
/* columns rows colors chars-per-pixel */
"29 45 226 2 ",
"   c #170B08",
".  c #1B0F0C",
"X  c #1D110E",
"o  c #1D120F",
"O  c #1E120F",
"+  c #1E1310",
"@  c #1F1310",
"#  c #1F1411",
"$  c #201411",
"%  c #201511",
"&  c #201512",
"*  c #211512",
"=  c #211613",
"-  c #221613",
";  c #221714",
":  c #231815",
">  c #241916",
",  c #241A17",
"<  c #251A17",
"1  c #261B18",
"2  c #261C19",
"3  c #281D1A",
"4  c #281E1B",
"5  c #291E1B",
"6  c #291F1C",
"7  c #2A1F1C",
"8  c #2A1F1D",
"9  c #2A201D",
"0  c #2B201D",
"q  c #2B211E",
"w  c #2C211E",
"e  c #2C221F",
"r  c #2D2220",
"t  c #2E2421",
"y  c #302623",
"u  c #312724",
"i  c #322724",
"p  c #322725",
"a  c #322825",
"s  c #332926",
"d  c #332927",
"f  c #342A27",
"g  c #352B28",
"h  c #352B29",
"j  c #362C29",
"k  c #372D2A",
"l  c #382E2B",
"z  c #392F2C",
"x  c #3A302D",
"c  c #3A312E",
"v  c #3B312E",
"b  c #3B312F",
"n  c #3B322F",
"m  c #3C322F",
"M  c #3C3330",
"N  c #3D3330",
"B  c #3E3432",
"V  c #3E3532",
"C  c #3F3533",
"Z  c #3F3633",
"A  c #403734",
"S  c #413835",
"D  c #423836",
"F  c #433937",
"G  c #433A37",
"H  c #443A38",
"J  c #443B38",
"K  c #453B39",
"L  c #453C39",
"P  c #463D3A",
"I  c #463D3B",
"U  c #473E3B",
"Y  c #473E3C",
"T  c #483F3C",
"R  c #483F3D",
"E  c #49403E",
"W  c #4A413E",
"Q  c #4A413F",
"!  c #4B423F",
"~  c #4B4240",
"^  c #4C4340",
"/  c #4D4441",
"(  c #4E4542",
")  c #4E4543",
"_  c #4F4744",
"`  c #504745",
"'  c #514846",
"]  c #544B49",
"[  c #554C4A",
"{  c #564D4B",
"}  c #564E4B",
"|  c #574E4C",
" . c #584F4D",
".. c #59514E",
"X. c #5A524F",
"o. c #5A5250",
"O. c #5B5351",
"+. c #5C5452",
"@. c #5D5553",
"#. c #5E5553",
"$. c #5F5755",
"%. c #615957",
"&. c #615A57",
"*. c #645C5A",
"=. c #665F5D",
"-. c #675F5D",
";. c #68605E",
":. c #6A6260",
">. c #6B6462",
",. c #6C6462",
"<. c #6C6563",
"1. c #6D6664",
"2. c #6E6765",
"3. c #6F6866",
"4. c #706967",
"5. c #726A69",
"6. c #736C6B",
"7. c #746D6B",
"8. c #756E6C",
"9. c #766F6E",
"0. c #77706E",
"q. c #7B7573",
"w. c #7E7876",
"e. c #827B7A",
"r. c #837D7B",
"t. c #837D7C",
"y. c #857F7D",
"u. c #86807E",
"i. c #87817F",
"p. c #878180",
"a. c #8A8483",
"s. c #8C8685",
"d. c #8C8785",
"f. c #8D8785",
"g. c #8E8886",
"h. c #8E8987",
"j. c #8F8987",
"k. c #908B89",
"l. c #928D8B",
"z. c #948F8D",
"x. c #95908E",
"c. c #96908F",
"v. c #96918F",
"b. c #979290",
"n. c #9B9695",
"m. c #9C9795",
"M. c #9E9997",
"N. c #9F9B99",
"B. c #A19C9B",
"V. c #A19D9B",
"C. c #A29E9C",
"Z. c #A39E9D",
"A. c #A39F9E",
"S. c #A49F9E",
"D. c #A5A09F",
"F. c #A7A3A2",
"G. c #A9A4A3",
"H. c #A9A5A3",
"J. c #ABA6A5",
"K. c #ABA7A6",
"L. c #ADA9A7",
"P. c #B2AEAD",
"I. c #B2AFAE",
"U. c #B4B0AF",
"Y. c #B4B1B0",
"T. c #B6B2B1",
"R. c #B8B4B3",
"E. c #B8B5B4",
"W. c #B9B6B5",
"Q. c #BAB7B6",
"!. c #BCB9B8",
"~. c #BEBBBA",
"^. c #C0BCBB",
"/. c #C0BDBC",
"(. c #C1BDBD",
"). c #C1BEBD",
"_. c #C2BFBF",
"`. c #C3C0BF",
"'. c #C5C2C1",
"]. c #C6C3C2",
"[. c #C6C4C3",
"{. c #C8C6C5",
"}. c #CAC7C6",
"|. c #CAC7C7",
" X c #CAC8C7",
".X c #CBC8C7",
"XX c #CBC9C8",
"oX c #CCC9C8",
"OX c #CCC9C9",
"+X c #CCCAC9",
"@X c #CECCCB",
"#X c #CFCCCB",
"$X c #CFCCCC",
"%X c #CFCDCC",
"&X c #D0CDCD",
"*X c #D0CECD",
"=X c #D1CECE",
"-X c #D1CFCF",
";X c #D2CFCF",
":X c #D2D0CF",
">X c #D2D0D0",
",X c #D3D0D0",
"<X c #D3D1D0",
"1X c #D3D1D1",
"2X c #D4D1D1",
"3X c #D4D2D1",
"4X c #D4D2D2",
"5X c #D5D2D2",
"6X c #D5D3D2",
"7X c #D6D3D3",
"8X c #D6D4D4",
"9X c #D7D5D4",
"0X c #D7D5D5",
"qX c #D8D6D5",
"wX c #D9D8D7",
"eX c #DBD9D9",
"rX c #DCDAD9",
"tX c #DCDADA",
"yX c #DEDCDC",
"uX c #E1E0DF",
"iX c #E2E0E0",
"pX c #E3E1E1",
"aX c #E4E2E2",
"sX c #E4E3E2",
"dX c #EBEAEA",
"fX c None",
/* pixels */
"q { $.$.$.$.$.$.$.$.$.$.$.$.$.$.$.$.$.$.$.$.$.$.$.+.f fXfX",
"S 9X3XOX+X+X+X+X+X+X+X+X+X+X+X+X+X+X+X+X+X+X+X+X+XsX0.fXfX",
"J 1X} p f f f f f f f f f f f f f f f f f f f f u n.G.: fX",
"J -XU % ; ; ; ; ; ; ; ; ; ; ; ; ; ; ; ; ; ; ; ; @ =. Xd fX",
"J ;XT = : : : : : : : : : : : : : : : : : : : : = S 4X_ fX",
"J ;XT = : : : : : : : : : : : : : : : : : : : : : 9 _.9.. ",
"J ;XT = : : : : ; = = = = = = = = = = = ; : : : : = n.C.= ",
"J ;XT = : : : > k Z Z Z Z Z Z Z Z Z Z C k > : : : # 1.[.y ",
"J ;XT = : : : 5 P.rX:X:X:X:X:X:X:X:X1XsXd.; : : : = P 4X) ",
"J ;XT = : : : 8 '.a.Y ^ ^ ^ ^ ^ ^ R >.iX| & : : : * ~ 0X' ",
"J -XI # = = = 4 `.2.  fXfXfXfXfXfXX s.E.5 : : : : = l.Y.6 ",
"J 6X$.M V V B K XX4.fXfXfXfXfXfXfXx %X,.% : : : ; l =X:.fX",
"A :XqX;X:X:X:X<XaX-.fXfXfXfXfXfXfX0.|.u ; : : : % 0.{.s fX",
"5 P / / / / / / ! y fXfXfXfXfXfXt (.t.& : : : ; w ).r.O fX",
"fXfXfXfXfXfXfXfXfXfXfXfXfXfXfXfX%.5XV = : : : & #.5XD fXfX",
"fXfXfXfXfXfXfXfXfXfXfXfXfXfXfX1 L.m.; : : : : , J.M.; fXfX",
"fXfXfXfXfXfXfXfXfXfXfXfXfXfXfX( qX_ & : : : = T 0X[ fXfXfX",
"fXfXfXfXfXfXfXfXfXfXfXfXfXfX= v.I.2 : : : : = k.T.6 fXfXfX",
"fXfXfXfXfXfXfXfXfXfXfXfXfXfXB ,X*.& : : : ; k *X>.fXfXfXfX",
"fXfXfXfXfXfXfXfXfXfXfXfXfXo w.'.t ; : : : % 8.}.f fXfXfXfX",
"fXfXfXfXfXfXfXfXfXfXfXfXfXp ].q.& : : : ; q /.y.+ fXfXfXfX",
"fXfXfXfXfXfXfXfXfXfXfXfXfX;.:Xx - : : : & +.6XG fXfXfXfXfX",
"fXfXfXfXfXfXfXfXfXfXfXfX5 U.z.= : : : : > H.N.: fXfXfXfXfX",
"fXfXfXfXfXfXfXfXfXfXfXfX] 0XE = : : : = I 9X} fXfXfXfXfXfX",
"fXfXfXfXfXfXfXfXfXfXfX; M.K.< : : : : = j.R.7 fXfXfXfXfXfX",
"fXfXfXfXfXfXfXfXfXfXfXF 6X@.& : : : ; j %X1.fXfXfXfXfXfXfX",
"fXfXfXfXfXfXfXfXfXfX+ u.^.q ; : : : $ 6..Xg fXfXfXfXfXfXfX",
"fXfXfXfXfXfXfXfXfXfXg .X7.% : : : ; 9 ~.i.+ fXfXfXfXfXfXfX",
"fXfXfXfXfXfXfXfXfXfX3.#Xh ; : : : & o.7XJ fXfXfXfXfXfXfXfX",
"fXfXfXfXfXfXfXfXfXq Q.s.* : : : : > F.B.: fXfXfXfXfXfXfXfX",
"fXfXfXfXfXfXfXfXfXX.9XH = : : : = L 9X .fXfXfXfXfXfXfXfXfX",
"fXfXfXfXfXfXfXfX> D.S.: : : : : * f.W.0 fXfXfXfXfXfXfXfXfX",
"fXfXfXfXfXfXfXfXT 9X} & : : : ; g @X3.fXfXfXfXfXfXfXfXfXfX",
"fXfXfXfXfXfXfX# g.W.5 : : : : $ 5.oXj fXfXfXfXfXfXfXfXfXfX",
"fXfXfXfXfXfXfXz %X<.% : : : ; 7 !.p.X fXfXfXfXfXfXfXfXfXfX",
"fXfXfX: a V v e.|.i ; : : : & ..yXO.b m 3 fXfXfXfXfXfXfXfX",
"fXfXfX= h.eX&XuXw.& : : : : : v.dX:X<X*XT fXfXfXfXfXfXfXfX",
"fXfXfX* A.K.W Q r ; : : : : > A ~ ! &.wX` fXfXfXfXfXfXfXfX",
"fXfXfX* Z.z.O * ; : : : : : : = & # c :X` fXfXfXfXfXfXfXfX",
"fXfXfX* Z.c.& : : : : : : : : : : = N >X` fXfXfXfXfXfXfXfX",
"fXfXfX* Z.c.& : : : : : : : : : : = N >X` fXfXfXfXfXfXfXfX",
"fXfXfX* Z.x.@ ; ; ; ; ; ; ; ; ; ; & n :X` fXfXfXfXfXfXfXfX",
"fXfXfX* Z.V.k x x x x x x x x x x l ' 8X` fXfXfXfXfXfXfXfX",
"fXfXfX= b.pX$X%X%X%X%X%X%X%X%X%X%X%X2XtX! fXfXfXfXfXfXfXfX",
"fXfXfX; B [ [ [ [ [ [ [ [ [ [ [ [ [ [ _ e fXfXfXfXfXfXfXfX"
};
