/* XPM */
static char *result[] = {
/* columns rows colors chars-per-pixel */
"15 23 56 1 ",
"  c black",
". c gray2",
"X c #060606",
"o c gray4",
"O c #0B0B0B",
"+ c #191919",
"@ c gray11",
"# c #1E1E1E",
"$ c #2C2C2C",
"% c #2F2F2F",
"& c gray19",
"* c #414141",
"= c #434343",
"- c #464646",
"; c gray33",
": c #565656",
"> c gray35",
", c #686868",
"< c gray42",
"1 c #6D6D6D",
"2 c #7B7B7B",
"3 c #7E7E7E",
"4 c #818181",
"5 c gray59",
"6 c #979797",
"7 c gray62",
"8 c #ACACAC",
"9 c gray68",
"0 c #B1B1B1",
"q c gray76",
"w c #C3C3C3",
"e c #C6C6C6",
"r c gray78",
"t c #DADADA",
"y c gainsboro",
"u c #DDDDDD",
"i c gray87",
"p c #DFDFDF",
"a c #E9E9E9",
"s c #EAEAEA",
"d c gray92",
"f c #ECECEC",
"g c #EEEEEE",
"h c #EFEFEF",
"j c gray94",
"k c #F1F1F1",
"l c #F3F3F3",
"z c #F4F4F4",
"x c gray96",
"c c #F9F9F9",
"v c gray98",
"b c #FBFBFB",
"n c gray99",
"m c #FDFDFD",
"M c white",
"N c None",
/* pixels */
"NNNNNNNNNipsNNN",
"NNNNNNNNNh aNNN",
"NNNNNNNNN7$hNNN",
"NNNNNNNNg-2jNNN",
"NNNNNNNNn tNNNN",
"NNNNNNNN0+xNNNN",
"NNNNNNNh>,dNNNN",
"NNNNNNNbowNNNNN",
"NNNNNNNeXnNNNNN",
"NNNNNNl<:aNNNNN",
"NNNNNNz@9NNNNNN",
"NNNNNNy vNNNNNN",
"NNNNNM3=sNNNNNN",
"NNNNNg%6NNNNNNN",
"NNNNNf fNNNNNNN",
"NNNNN5&gNNNNNNN",
"NNNNj*4NNNNNNNN",
"NNNNc uNNNNNNNN",
"NNNN8#lNNNNNNNN",
"NNNk;1lNNNNNNNN",
"NNNm.rNNNNNNNNN",
"NNNqOvNNNNNNNNN",
"NNNMMNNNNNNNNNN"
};
