/* XPM */
static char *result[] = {
/* columns rows colors chars-per-pixel */
"33 33 13 1 ",
"  c #F4F4F4",
". c gray96",
"X c #F6F6F6",
"o c gray97",
"O c #F8F8F8",
"+ c #F9F9F9",
"@ c gray98",
"# c #FBFBFB",
"$ c gray99",
"% c #FDFDFD",
"& c #FEFEFE",
"* c white",
"= c None",
/* pixels */
"=================================",
"=================oo==============",
"================X@@==============",
"================O#$==============",
"===============o@$%==============",
"===============+#$%==============",
"===============@$%%==============",
"==============+#%$$==============",
"==============@$%$#==============",
"=============@#$%$@==============",
"=============#$%%$@==============",
"============O$$%$#@==============",
"============+$%%$#+==============",
"===========o@$%&%#+ =============",
"===========+#$%&%##+oOOoXoO+@@+==",
"==========O@$%%&%%%$##$#@#$#@@O==",
"==========+#$%&&&&%$$%%$$$#@+o===",
"=========O#$$%&*&%%$%%%$$#@o=====",
"=========@$%%%%&&&&%%$$#@O=======",
"========o#$%&%%&%%%$$#@OX========",
"========@#%%%%%%$$$@@@+==========",
"=======+#$%%&%$$$#@+O============",
"=======@#$$%%$###@O==============",
"======o@$%%%$#@+O================",
"======O#%%$$#+X==================",
"=====.@$$#@Oo====================",
"=====+#$@oX======================",
"=====+##O========================",
"=====++==========================",
"=================================",
"=================================",
"=================================",
"================================="
};
