/* XPM */
static char *result[] = {
/* columns rows colors chars-per-pixel */
"33 33 13 1 ",
"  c gray94",
". c #F4F4F4",
"X c gray96",
"o c #F6F6F6",
"O c gray97",
"+ c #F8F8F8",
"@ c #F9F9F9",
"# c gray98",
"$ c #FBFBFB",
"% c gray99",
"& c #FDFDFD",
"* c #FEFEFE",
"= c None",
/* pixels */
"=================================",
"=================================",
"============oO===================",
"============+##==================",
"============+$%==================",
"============@$%==================",
"============@$%&=================",
"============@%%%=================",
"============#%%$#================",
"============#%%$@===========@+===",
"===========+#$%%#=========O@#+===",
"===========@#%&%#@===== .+##@O===",
"===========@$%%$#@===.oO@$$#+====",
"===========+$%&%$@OoO@$$$$#+=====",
"===========O#%&&%#$##$%%%$@o=====",
"===========O#%&*&%&%$%&%$#O======",
"===========O#$%&&&&%%&%%#O=======",
"===========+#%&&*&&&%%$#+========",
"===========+#%%&**&&%$$#=========",
"===========+$$%&&&&%%#@==========",
"===========@%%&%&&%$$@O==========",
"===========#$%&&%%%$#O===========",
"===========@$%&&%$$#+============",
"===========#$&&&%##+=============",
"===========#$%%%$#O==============",
"===========#$%%%$+===============",
"==========O#%&%$@================",
"==========o#%%#+=================",
"==========o#%$+X=================",
"==========o#$@X==================",
"==========+#$@===================",
"==========o@@====================",
"===========+====================="
};
