/* XPM */
static char *result[] = {
/* columns rows colors chars-per-pixel */
"33 33 13 1 ",
"  c gray94",
". c gray95",
"X c #F3F3F3",
"o c #F4F4F4",
"O c gray96",
"+ c #F6F6F6",
"@ c gray97",
"# c #F8F8F8",
"$ c #F9F9F9",
"% c gray98",
"& c #FBFBFB",
"* c gray99",
"= c None",
/* pixels */
"=================================",
"=================================",
"=================================",
"=================================",
"========O+O======================",
"========+@@+=====================",
"=========@##+====================",
"=========@#$#@+==================",
"=========X+#$$#+=================",
"==========X@$%$#@================",
"========== O$%%$#@===============",
"===========o$%%%$$@+=============",
"===========X@$%%%$#@+============",
"============O$$%%%%$#@===========",
"============O#%%&&%$$$@==========",
"===========.O$%%&*&%%$#+=========",
"==========@+@#%&&*&%$$$@@O=======",
"=======#@###$$&&&*&%%%%$$#O======",
"=====&%$$%%$%&&&%&&&&&&%%$@o=====",
"===%&&%%%%&%&&&%&%%&&&&&%%$@O====",
"=O#$%%%%%%%%%%%$%$$%%%%%%&%$##===",
"=o@@@####$#$$$####$$$$$$$$%$$$#==",
"=======O+@@@+O+++++@#@@###@@##@O=",
"=================================",
"=================================",
"=================================",
"=================================",
"=================================",
"=================================",
"=================================",
"=================================",
"=================================",
"================================="
};
