/* XPM */
static char *result[] = {
/* columns rows colors chars-per-pixel */
"33 33 12 1 ",
"  c #F3F3F3",
". c #F6F6F6",
"X c gray97",
"o c #F8F8F8",
"O c #F9F9F9",
"+ c gray98",
"@ c #FBFBFB",
"# c gray99",
"$ c #FDFDFD",
"% c #FEFEFE",
"& c white",
"* c None",
/* pixels */
"*********************************",
"****************# ***************",
"***************@&#***************",
"***************%&#***************",
"**************.$&&o**************",
"**************o%&%+**************",
"**************+%&&%**************",
"**************$&&&%#*************",
"*************X%&&&&$*************",
"*************@&&&&&%+************",
"*************$&&&&&&@************",
"************o%&&&&&&$************",
"************@%&&&&&&%o***********",
"************$&&&&&&&%@***********",
"***********+%&&&&&&&&#***********",
"***********@&&&&&&&&&%X**********",
"***********$&&&&&&&&&%+**********",
"**********O%&&&&&&&&&&$**********",
"**********#%&&&&&&&&&&%@*********",
"**********$&&&&&&&&&&&&$*********",
"*********O%&&&&&&&&&&&&%*********",
"*********X%&&&&%##%&&&&%@********",
"*********#%&&&%+**@%&&&&$********",
"*********$&&&%@****%%&&&%X*******",
"********o%&&$+******$%&&&@*******",
"********+&&%O********&&&&#*******",
"********$&%@**********&&&%.******",
"*******.%&$************&&%o******",
"*******#%&**************&&$******",
"*******X#****************#@******",
"*********************************",
"*********************************",
"*********************************"
};
