/* XPM */
static char *result[] = {
/* columns rows colors chars-per-pixel */
"33 33 12 1 ",
"  c gray96",
". c #F6F6F6",
"X c gray97",
"o c #F8F8F8",
"O c #F9F9F9",
"+ c gray98",
"@ c #FBFBFB",
"# c gray99",
"$ c #FDFDFD",
"% c #FEFEFE",
"& c white",
"* c None",
/* pixels */
"*********************************",
"*********************************",
"*********************************",
"*********************************",
"*********************************",
"*********************************",
"*********************************",
"**************************.o+o***",
"************************O+@##+***",
"*********************O@@#$$%$****",
"******************O@###$%%%%*****",
"***************oo+#$$$$%$$%******",
"************oO+@@#$%%%%$##*******",
"*********oO@##$$$$%&%$$#@********",
"*******+@##$$$$%%%&%$#@@*********",
"****.O@##$%$%%$%&%&%$@+**********",
"**O@##$$$$&%&&%&&&%$#O***********",
"*O##$$%%%%%&%%&&&&&%$O***********",
"**+#@@##%%%%%$%&&&%%$@o**********",
"*****.o+#$$$$$%%&&%$$##X*********",
"********XO@##$$$%%%%%%$@X********",
"***********oO@##$#$%%%$$+ *******",
"**************O++@#$$$$$#@o******",
"*****************O+@@##$$$#+*****",
"*********************oO@####@****",
"************************Xo+@@O***",
"***************************Xo****",
"*********************************",
"*********************************",
"*********************************",
"*********************************",
"*********************************",
"*********************************"
};
