/* XPM */
static char *result[] = {
/* columns rows colors chars-per-pixel */
"50 50 54 1 ",
"  c black",
". c #010101",
"X c #020202",
"o c gray1",
"O c #040404",
"+ c gray2",
"@ c #060606",
"# c #070707",
"$ c gray3",
"% c #090909",
"& c gray4",
"* c #202020",
"= c #222222",
"- c #232323",
"; c #252525",
": c #272727",
"> c #282828",
", c gray17",
"< c #2C2C2C",
"1 c #2D2D2D",
"2 c gray19",
"3 c #3C3C3C",
"4 c gray24",
"5 c gray25",
"6 c #414141",
"7 c gray27",
"8 c #464646",
"9 c #484848",
"0 c gray30",
"q c #555555",
"w c gray34",
"e c #606060",
"r c #626262",
"t c gray39",
"y c #656565",
"u c #A5A5A5",
"i c #A7A7A7",
"p c #B1B1B1",
"a c #B6B6B6",
"s c gray74",
"d c #C1C1C1",
"f c #C6C6C6",
"g c gray79",
"h c #CACACA",
"j c gray80",
"k c #CDCDCD",
"l c #D0D0D0",
"z c LightGray",
"x c gray84",
"c c #D8D8D8",
"v c gray85",
"b c #E4E4E4",
"n c white",
"m c None",
/* pixels */
"mmmmmmmmmmmmmmmmmmmm@+oo..oo+@mmmmmmmmmmmmmmmmmmmm",
"mmmmmmmmmmmmmmmm#OX.          .XO#mmmmmmmmmmmmmmmm",
"mmmmmmmmmmmmmm+X    .XoX  XoX.    X+mmmmmmmmmmmmmm",
"mmmmmmmmmmmm@X   XO#mmmm  mmmm#OX   X@mmmmmmmmmmmm",
"mmmmmmmmmmmo   o#mmmmmmm  mmmmmmm#o   ommmmmmmmmmm",
"mmmmmmmmm@.  X$mmmmmmmmm..mmmmmmmmm#X  .@mmmmmmmmm",
"mmmmmmmm+  .@mmmmmmmmmmm++mmmmmmmmmmm+.  +mmmmmmmm",
"mmmmmmmO  Xmmmmmmmmmmmmm@@mmmmmmmmmmmmmX  Ommmmmmm",
"mmmmmm+  XmmmmmmmmmmmmmmoommmmmmmmmmmmmmX  +mmmmmm",
"mmmmm@  XmmmmmmmmmmmmmmmXXmmmmmmmmmmmmmmmX  @mmmmm",
"mmmmm. Xmmmmmmmmmmmmmmmm@@mmmmmmmmmmmmmmmmX .mmmmm",
"mmmmX .mmmmmmmmmmmmmmmmm@@mmmmmmmmmmmmmmmmm. Xmmmm",
"mmm@  @mmmmmmmmmmmmmmmmm@@mmmmmmmmmmmmmmmmm@  @mmm",
"mmm. ommmmmmmmmmmmmmmmmm++mmmmmmmmmmmmmmmmmmo .mmm",
"mm+ .mmmmmmmmmmmmmmmmmmmXXmmmmmmmmmmmmmmmmmmm. +mm",
"mmX ommmmmmmmmmmmmmmmmmm@@mmmmmmmmmmmmmmmmmmmo Xmm",
"m#  #mmmmmmmmmmmmmmmmmmm@@mmmmmmmmmmmmmmmmmmm#  #m",
"mo Xmmmmmmmmmmmmmmmmmmmm@@mmmmmmmmmmmmmmmmmmmmX om",
"mX Ommmmmmmmmmmmmmmmmmmm@+mmmmmmmmmmmmmmmmmmmmO Xm",
"$. #mmmmmmmmmmmmmmmmmmm*oX-mmmmmmmmmmmmmmmmmmm# .%",
"@ .mmmmmmmmmmmmmmmmmm3ug55jp9mmmmmmmmmmmmmmmmmm. @",
"O Xmmmmmmmmmmmmmmmmm4hnnrrnnv0mmmmmmmmmmmmmmmmmX O",
"X ommmmmmmmmmmmmmmmminnneennns:mmmmmmmmmmmmmmmmo o",
"X Xmmmmmmmmmmmmmmmm=knnneennnx1mmmmmmmmmmmmmmmmX o",
".  ..X$%o+%%%$O%%%%O7ytt;;tty7o$%%&O$%%%+O%$X..  .",
".  ..X$%o+%%%$O%%%%O7ytt;;tty7o$%%%O$%%%+O%$X..  .",
". Xmmmmmmmmmmmmmmmm;lnnneennnc2mmmmmmmmmmmmmmmmX o",
"X ommmmmmmmmmmmmmmmmpnnneennnf,mmmmmmmmmmmmmmmmo o",
"O Xmmmmmmmmmmmmmmmmm8xnnrrnnbwmmmmmmmmmmmmmmmmmX +",
"@ .mmmmmmmmmmmmmmmmmm9al66zdqmmmmmmmmmmmmmmmmmm. @",
"$. #mmmmmmmmmmmmmmmmmm=:oo<>mmmmmmmmmmmmmmmmmm# .%",
"mX Ommmmmmmmmmmmmmmmmmmm@@mmmmmmmmmmmmmmmmmmmmO Xm",
"mo Xmmmmmmmmmmmmmmmmmmmm@@mmmmmmmmmmmmmmmmmmmmX om",
"m#  #mmmmmmmmmmmmmmmmmmm@@mmmmmmmmmmmmmmmmmmm#  #m",
"mmX ommmmmmmmmmmmmmmmmmm@@mmmmmmmmmmmmmmmmmmmo Xmm",
"mm+ .mmmmmmmmmmmmmmmmmmmXXmmmmmmmmmmmmmmmmmmm. +mm",
"mmm. ommmmmmmmmmmmmmmmmm++mmmmmmmmmmmmmmmmmmo .mmm",
"mmm@  @mmmmmmmmmmmmmmmmm@@mmmmmmmmmmmmmmmmm@  @mmm",
"mmmmX .mmmmmmmmmmmmmmmmm@@mmmmmmmmmmmmmmmmm. Xmmmm",
"mmmmm. Xmmmmmmmmmmmmmmmm@@mmmmmmmmmmmmmmmmX .mmmmm",
"mmmmm@  XmmmmmmmmmmmmmmmXXmmmmmmmmmmmmmmmX  @mmmmm",
"mmmmmm+  XmmmmmmmmmmmmmmoommmmmmmmmmmmmmX  +mmmmmm",
"mmmmmmmO  Xmmmmmmmmmmmmm@@mmmmmmmmmmmmmX  Ommmmmmm",
"mmmmmmmm+  .@mmmmmmmmmmm++mmmmmmmmmmm@.  +mmmmmmmm",
"mmmmmmmmm@.  X$mmmmmmmmm..mmmmmmmmm$o  .@mmmmmmmmm",
"mmmmmmmmmmmo   o#mmmmmmm  mmmmmmm#o   ommmmmmmmmmm",
"mmmmmmmmmmmm@X   XO#mmmm  mmmm#OX   X@mmmmmmmmmmmm",
"mmmmmmmmmmmmmm+X    .XoX  XoX.    X+mmmmmmmmmmmmmm",
"mmmmmmmmmmmmmmmm#OX.          .XO#mmmmmmmmmmmmmmmm",
"mmmmmmmmmmmmmmmmmmmm@+oo..oo+@mmmmmmmmmmmmmmmmmmmm"
};
