/* XPM */
static char *result[] = {
/* columns rows colors chars-per-pixel */
"64 64 14 1 ",
"  c #141413",
". c #2F1C17",
"X c #28221F",
"o c #382B2F",
"O c #2F3233",
"+ c #373F40",
"@ c #383F40",
"# c #3F4748",
"$ c #454D4F",
"% c #464C4F",
"& c #464D4F",
"* c #536265",
"= c #62797E",
"- c None",
/* pixels */
"&&&&&&&&&&&&&&&&&@&&&&@@OOO ------------------------------------",
"@@@@@@@@@@@@@@@@@@@@@@@OOOO ------------------------------------",
"@@@@@@@@@@@@@@@@@@@@@@@OOOX ------------------------------------",
"@@@@......o.ooooooo@@@@OOOO ------------------------------------",
"@@@.o@@@@@@@@@@@@@@@@@@OOOX ------------------------------------",
"@@@.@@@@@@@@@@@@@@@@&@@OOOX ------------------------------------",
"@@@.@@@@@@@@@@@@@@@@&@@OOOX ------------------------------------",
"&&&o&&&&&&&&&&&&&&&&*&&@@@OX------------------------------------",
"@@@.@@@@@@@@@@@@@@@@&@@OOOX ------------------------------------",
"&&&o&&&&&&&&&&&&&&&&*&&@@@OX------------------------------------",
"&&&o&&&&&&&&&&&&&&&&=&&@@@O ------------------------------------",
"&&&o&&&&&&&&&&&&&&&&*&&@@@O ------------------------------------",
"&&&o&&&&&&&&&&&&&&&&=&&@@@OX------------------------------------",
"&&&o&&&&&&&&&&&&&&&&=&&@@@OX------------------------------------",
"&&&o&&&&&&&&&&&&&&&&=&&@@@OX------------------------------------",
"&&&@&&&&&&&&&&&&&&&&=&&@@@O ------------------------------------",
"&&&@&&&&&&&&&&&&&&&&=&&@@@OX------------------------------------",
"&&&&&&&&&&&&&&&&&&&*=&&+@@@ ------------------------------------",
"&&&&&*****=*=*======&&&@@@OX------------------------------------",
"&&&&&&&&&&&&&&&&&&&&&&&@@@@X------------------------------------",
"&&&&&&&&&&&&&&&&&&&&&&&@@@@OXXXXXXXX X X   ---------------------",
"&&&&oooooo@o@@@@@@@&&&&@@@@@@@@@@@@@@@@@@X ---------------------",
"&&&o@&&&&&&&&&&&&&&&&&&#@@@@@@@@@@@@@@@@@@ ---------------------",
"&&&o&&&&&&&&&&&&&&&&*&&&@@@@@@@@@@@@@@@@@O ---------------------",
"&&&o&&&&&&&&&&&&&&&&&=&&%#@@@@@@@@@@@@@@@@ ---------------------",
"&&&o&&&&&&&&&&&&&&&&&&*&&&&&&&&&&&&&&&@@@O ---------------------",
"&&&@&&&&&&&&&&&&&&&&&&&*&&&&&&&&&&&&&&@@@O ---------------------",
"&&&o&&&&&&&&&&&&&&&&&&&&@oooooo@@@&&&&@@@O ---------------------",
"&&&@&&&&&&&&&&&&&&&&&&&&&&&&&&&&&&&&&&@@@O ---------------------",
"&&&o&&&&&&&&&&&&&&&&&&&&&&&&&&&&&&&*&&@@@O ---------------------",
"&&&@&&&&&&&&&&&&&&&&&&&&&&&&&&&&&&&*&$@@@O ---------------------",
"&&&o&&&&&&&&&&&&&&&&&&&&&&&&&&&&&&&*&&@@@O ---------------------",
"&&&o&&&&&&&&&&&&&&&&&&&&&&&&&&&&&&&*&&@@@OX---------------------",
"&&&o&&&&&&&&&&&&&&&&&&&&&&&&&&&&&&&=&&@@@O ---------------------",
"&&&o&&&&&&&&&&&&&&&&&&&&&&&&&&&&&&&=&&@@@OX---------------------",
"&&&o&&&&&&&&&&&&&&&&&&&&&&&&&&&&&&*=&&@@@O ---------------------",
"&&&o&&&&&&&&&&&&&==================&&&@@@@X---------------------",
"&&&@&&&&&&&&&&&&=&&&&&&&&&&&$&&&&&&&&&@@@O ---------------------",
"&&&o&&&&&&&&&&&=&&&&%&&&&&&&&&&&&&&&&&@@@@X---------------------",
"&&&@&&&&&&&&&&=&&&#@@@@@@@@@@@@@@@@@@@@@@O ---------------------",
"&&&@&&&&&&&&&=&&&@@@@@@@@@@@@@@@@@@@@@@@@@X---------------------",
"&&&&&&&&&&&&=&&&#@@@@@@@@@@@@@@@@@@@@@@@@@ ---------------------",
"&&&&&**=====&&&&@@@@@@@&&&&&&&&&&&&@&@&@@XX---------------------",
"&&&&&&&&&&&&&&&&@@@@O  XXXXXX X X X X X XXX---------------------",
"&&&&&&&&&&&&&&&&@@@@ -------------------------------------------",
"&&&&oooo@@@@&&&&@@@@ -------------------------------------------",
"&&&o@&&&&&&&&&&%@@@O -------------------------------------------",
"&&&o&&&&&&&&&*&&@@@@ -------------------------------------------",
"&&&o&&&&&&&&&*&&@@@O -------------------------------------------",
"&&&o&&&&&&&&&*&&@@@O -------------------------------------------",
"&&&@&&&&&&&&&=&&@@@O -------------------------------------------",
"&&&o&&&&&&&&&=&&@@@OX-------------------------------------------",
"&&&@&&&&&&&&&=&&@@@O -------------------------------------------",
"&&&@&&&&&&&&&=&&@@@OX-------------------------------------------",
"&&&@&&&&&&&&&=&&@@@O -------------------------------------------",
"&&&o&&&&&&&&&*&&@@@XX-------------------------------------------",
"&&&@&&&&&&&&&=&&@@@OX-------------------------------------------",
"&&&@&&&&&&&&&=&&@@@XX-------------------------------------------",
"&&&@&&&&&&&&&=&&@@@X -------------------------------------------",
"&&&&&&&&&&&&*=&&@@@XX-------------------------------------------",
"&&&&&****====&&&@@@X -------------------------------------------",
"&&&&&&&&&&&&&&&&@@@XX-------------------------------------------",
"&&&&&&&&&&&&&&&&@@@XX-------------------------------------------",
"o......o.o.ooooo...  -------------------------------------------"
};
