/* XPM */
static char *result[] = {
/* columns rows colors chars-per-pixel */
"64 64 15 1 ",
"  c black",
". c #141413",
"X c #2F1C17",
"o c #28221F",
"O c #382A2F",
"+ c #382B2F",
"@ c #2F3233",
"# c #383F40",
"$ c #3F4748",
"% c #464C4F",
"& c #464D4F",
"* c #474D4F",
"= c #536265",
"- c #62797E",
"; c None",
/* pixels */
";;;;;;;;;;;;;;;;;;;;;;;;;;;; ####&&&&&&&&&&&&&&&&&&&&&&&&&&#&#&&",
";;;;;;;;;;;;;;;;;;;;;;;;;;;; #@@@###############################",
";;;;;;;;;;;;;;;;;;;;;;;;;;;; #@@@###############################",
";;;;;;;;;;;;;;;;;;;;;;;;;;;; #@@@###XXXXXXXXXXXX+X++++XXX++#####",
";;;;;;;;;;;;;;;;;;;;;;;;;;;; #@@@##X+###########################",
";;;;;;;;;;;;;;;;;;;;;;;;;;;; #@@@##X########################&###",
";;;;;;;;;;;;;;;;;;;;;;;;;;;; #@@@##X########################&###",
";;;;;;;;;;;;;;;;;;;;;;;;;;;;.=###&&+&&&&&&&&&&&&&&&&&&&&&&&&=&&&",
";;;;;;;;;;;;;;;;;;;;;;;;;;;; #@@@##X########################&###",
";;;;;;;;;;;;;;;;;;;;;;;;;;;;.=###&&#&&&&&&&&&&&&&&&&&&&&&&&&=&&&",
";;;;;;;;;;;;;;;;;;;;;;;;;;;; =###&&#&&&&&&&&&&&&&&&&&&&&&&&&-&&&",
";;;;;;;;;;;;;;;;;;;;;;;;;;;; =###&&&&&&&&&&&&&&&&&&&&&&&&&&&=&&&",
";;;;;;;;;;;;;;;;;;;;;;;;;;;;.=###&&&&===-=----=&&&&&&&&&&&&&-&&&",
";;;;;;;;;;;;;;;;;;;;;;;;;;;;.=###&&&&&&&&&&&&&&=&&&&&&&&&&&&-&&&",
";;;;;;;;;;;;;;;;;;;;;;;;;;;;.=###&&&&&&&&&&&&&&%=&&&&&&&&&&&-&&&",
";;;;;;;;;;;;;;;;;;;;;;;;;;;;.&###############$&&&=&&&&&&&&&&-&&&",
";;;;;;;;;;;;;;;;;;;;;;;;;;;;.=#################&&&=&&&&&&&&&-&&&",
";;;;;;;;;;;;;;;;;;;;;;;;;;;;.&#################$&&&=&&&&&&&=-&&&",
";;;;;;;;;;;;;;;;;;;;;;;;;;;;.&&&&&&&&#&#&#######&&&&=-------&&&&",
";;;;;;;;;;;;;;;;;;;;;;;;;;;;ooooooooo.o... @####&&&&&&&&&&&&&&&&",
";;;;;;;;;;;;;;;;;;;;;;;;;;;;;;;;;;;;;;;;;;; ####&&&&&&&&&&&&&&&&",
";;;;;;;;;;;;;;;;;;;;;;;;;;;;;;;;;;;;;;;;;;; &###&&&++++####&&&&&",
";;;;;;;;;;;;;;;;;;;;;;;;;;;;;;;;;;;;;;;;;;; =###&&+&&&&&&&&&&&&&",
";;;;;;;;;;;;;;;;;;;;;;;;;;;;;;;;;;;;;;;;;;; =###&&+&&&&&&&&&=&&&",
";;;;;;;;;;;;;;;;;;;;;;;;;;;;;;;;;;;;;;;;;;; =###&&+&&&&&&&&&=&&&",
";;;;;;;;;;;;;;;;;;;;;;;;;;;;;;;;;;;;;;;;;;; =###&&+&&&&&&&&&=&&&",
";;;;;;;;;;;;;;;;;;;;;;;;;;;;;;;;;;;;;;;;;;; =###&&+&&&&&&&&&-&&&",
";;;;;;;;;;;;;;;;;;;;;;;;;;;;;;;;;;;;;;;;;;; =###&&+&&&&&&&&&=&&&",
";;;;;;;;;;;;;;;;;;;;;;;;;;;;;;;;;;;;;;;;;;; =###&&+&&&&&&&&&-&&&",
";;;;;;;;;;;;;;;;;;;;;;;;;;;;;;;;;;;;;;;;;;; &###&&+&&&&&&&&&-&&&",
";;;;;;;;;;;;;;;;;;;;;;;;;;;;;;;;;;;;;;;;;;;.=###&&#&&&&&&&&&-&&&",
";;;;;;;;;;;;;;;;;;;;;;;;;;;;;;;;;;;;;;;;;;;o&###&&+&&&&&&&&&-&&&",
";;;;;;;;;;;;;;;;;;;;;;;;;;;;;;;;;;;;;;;;;;;.&###&&#&&&&&&&&&=&&&",
";;;;;;;;;;;;;;;;;;;;;;;;;;;;;;;;;;;;;;;;;;;o&###&&+&&&&&&&&&-&&&",
";;;;;;;;;;;;;;;;;;;;;;;;;;;;;;;;;;;;;;;;;;;.&###&&#&&&&&&&&&-&&&",
";;;;;;;;;;;;;;;;;;;;;;;;;;;;;;;;;;;;;;;;;;;o&###&&#&&&&&&&&&-&&&",
";;;;;;;;;;;;;;;;;;;;;;;;;;;;;;;;;;;;;;;;;;;o&###&&#&&&&&&&&&-&&&",
";;;;;;;;;;;;;;;;;;;;;;;;;;;;;;;;;;;;;;;;;;;o&###&&#&&&&&&&&&-&&&",
";;;;;;;;;;;;;;;;;;;;;;;;;;;;;;;;;;;;;;;;;;;o&###&&#&&&&&&&&&-&&&",
";;;;;;;;;;;;;;;;;;;;;;;;;;;;;;;;;;;;;;;;;;;o####&&#&&&&&&&&&-&&&",
";;;;;;;;;;;;;;;;;;;;;;;;;;;;;;;;;;;;;;;;;;;o&###&&#&&&&&&&&&-&&&",
";;;;;;;;;;;;;;;;;;;;;;;;;;;;;;;;;;;;;;;;;;;o####&&&&&&&&&&&=-&&&",
";;;;;;;;;;;;;;;;;;;;;;;;;;;;;;;;;;;;;;;;;;;o&###&%&&===-----&&&&",
";;;;;;;;;;;;;;;;;;;;;;;;;;;;;;;;;;;;;;;;;;;o####&&&&&&&&&&&&&&&&",
";;;;;;;;;;;;;;;;;;;;; .ooooo.o.o.o.o.o.oooo@####&&&&&&&&&&&&&&&&",
";;;;;;;;;;;;;;;;;;;;; ##########################&&&&+++####&&&&&",
";;;;;;;;;;;;;;;;;;;;; #########################$&&&+&&&&&&&&&&&&",
";;;;;;;;;;;;;;;;;;;;; &########################&&&+&&&&&&&&&=&&&",
";;;;;;;;;;;;;;;;;;;;; #######################$&&&+&&&&&&&&&&=&&&",
";;;;;;;;;;;;;;;;;;;;; &###&&&&&&&&&&&&&&&&&&&&&&+&&&&&&&&&&&=&&&",
";;;;;;;;;;;;;;;;;;;;; =###&&&&&&&&&&&&&&&&&&&&&#&&&&&&&&&&&&-&&&",
";;;;;;;;;;;;;;;;;;;;;.=###&&&++++++++++#+######&&&&&&&&&&&&&=&&&",
";;;;;;;;;;;;;;;;;;;;; =###&&+#&&&&&&&&&&&&&&&&&&&&&&&&&&&&&&-&&&",
";;;;;;;;;;;;;;;;;;;;;.&###&&+&&&&&&&&&&&&&&&&&&&&&&&&&&&&&&&-&&&",
";;;;;;;;;;;;;;;;;;;;; =###&&+&&&&&&&&&&&&&&&&&&&&&&&&&&&&&&&-&&&",
";;;;;;;;;;;;;;;;;;;;;.####&&+&&&&&&&&&&&&&&&&&&&&&&&&&&&&&&&-&&&",
";;;;;;;;;;;;;;;;;;;;;.&###&&#&&&&&&&&&&&&&&&&&&&&&&&&&&&&&&&-&&&",
";;;;;;;;;;;;;;;;;;;;;.####&&#&&&&&&&&&&&&&&&&&&&&&&&&&&&&&&&-&&&",
";;;;;;;;;;;;;;;;;;;;;.####&&#&&&&&&&&&&&&&&&&&&&&&&&&&&&&&&&-&&&",
";;;;;;;;;;;;;;;;;;;;;.####&&&&&&&&&&&&&&&&&&&&&&&&&&&&&&&&&=-&&&",
";;;;;;;;;;;;;;;;;;;;;.####&&&&======-----=-=----------------&&&&",
";;;;;;;;;;;;;;;;;;;;;.####&&&&&&&&&&&&&&&&&&&&&&&&&&&&&&&&&&&&&&",
";;;;;;;;;;;;;;;;;;;;;o####&&&&&&&&&&&&&&&&&&&&&&&&&&&&&&&&&&&&&*",
";;;;;;;;;;;;;;;;;;;;;..X....+.++++++++++X+X++X+X+XXXXXX+X+X++++O"
};
