/* XPM */
static char *result[] = {
/* columns rows colors chars-per-pixel */
"73 50 186 2 ",
"   c #040302",
".  c #080705",
"X  c #0B0A06",
"o  c #04090A",
"O  c #0D0D0A",
"+  c #100E07",
"@  c #110E0B",
"#  c #0E100D",
"$  c #13120D",
"%  c #19150E",
"&  c #1B180E",
"*  c #0D1515",
"=  c #071619",
"-  c #081518",
";  c #0C1A1C",
":  c #071315",
">  c #161511",
",  c #191612",
"<  c #1C1A14",
"1  c #131D1D",
"2  c #1E1E19",
"3  c #211E16",
"4  c #211F19",
"5  c #3A1F1B",
"6  c #371B16",
"7  c #1E221E",
"8  c #252215",
"9  c #24231C",
"0  c #29251D",
"q  c #2C291D",
"w  c #39231F",
"e  c #322E1F",
"r  c #0E2226",
"t  c #152122",
"y  c #1B2422",
"u  c #14262A",
"i  c #152A2E",
"p  c #1E2D2E",
"a  c #142E33",
"s  c #1B2E32",
"d  c #1D353A",
"f  c #193135",
"g  c #262620",
"h  c #292721",
"j  c #2C2B23",
"k  c #222D2B",
"l  c #2F2E28",
"z  c #272923",
"x  c #312420",
"c  c #312E25",
"v  c #322F28",
"b  c #3B2A25",
"n  c #2F3129",
"m  c #343126",
"M  c #383525",
"N  c #34332A",
"B  c #39372C",
"V  c #3A392E",
"C  c #383A29",
"Z  c #233233",
"A  c #293533",
"S  c #253739",
"D  c #203A3F",
"F  c #293A3B",
"G  c #2B3836",
"H  c #303A36",
"J  c #3D3C32",
"K  c #343B36",
"L  c #461B17",
"P  c #4C2822",
"I  c #423D2D",
"U  c #423730",
"Y  c #413E33",
"T  c #30413F",
"R  c #3D423B",
"E  c #49442F",
"W  c #434136",
"Q  c #4B4534",
"!  c #4F4A35",
"~  c #45453A",
"^  c #49463B",
"/  c #46493F",
"(  c #4B4A3E",
")  c #524D37",
"_  c #534E3C",
"`  c #56513C",
"'  c #58523D",
"]  c #5E593F",
"[  c #1D3C42",
"{  c #233D41",
"}  c #254045",
"|  c #2C4244",
" . c #2F4749",
".. c #2A484D",
"X. c #334241",
"o. c #3B4641",
"O. c #3A4A44",
"+. c #334A4B",
"@. c #3C4F4C",
"#. c #3E524F",
"$. c #2A5158",
"%. c #3E5451",
"&. c #335E66",
"*. c #434A42",
"=. c #4B4D43",
"-. c #514E43",
";. c #4B5146",
":. c #4E5249",
">. c #46544E",
",. c #535244",
"<. c #5B5542",
"1. c #5D5943",
"2. c #565648",
"3. c #585649",
"4. c #565A4C",
"5. c #5C5B4C",
"6. c #455C55",
"7. c #485B55",
"8. c #5E5F50",
"9. c #635E44",
"0. c #625E4B",
"q. c #7C5E4F",
"w. c #615E51",
"e. c #5F6051",
"r. c #6A644C",
"t. c #6E694D",
"y. c #666146",
"u. c #646454",
"i. c #6A6655",
"p. c #6B6854",
"a. c #6B6B5B",
"s. c #736C53",
"d. c #786F56",
"f. c #756E5A",
"g. c #736455",
"h. c #6F705F",
"j. c #767253",
"k. c #70705F",
"l. c #7B735A",
"z. c #7D7858",
"x. c #6E6C60",
"c. c #737362",
"v. c #797865",
"b. c #767568",
"n. c #7C7D6B",
"m. c #787366",
"M. c #83594B",
"N. c #807251",
"B. c #83795C",
"V. c #827B62",
"C. c #857E69",
"Z. c #7F806D",
"A. c #8B8165",
"S. c #82826E",
"D. c #8B856B",
"F. c #8F896F",
"G. c #918569",
"H. c #93896C",
"J. c #9C8E6F",
"K. c #848571",
"L. c #878974",
"P. c #898A76",
"I. c #8E8D7A",
"U. c #9B8E71",
"Y. c #928F79",
"T. c #948E74",
"R. c #8F907B",
"E. c #9F9070",
"W. c #90927D",
"Q. c #999379",
"!. c #A29373",
"~. c #A79877",
"^. c #AB9C7B",
"/. c #989683",
"(. c #979983",
"). c #9B9C86",
"_. c #9D9F88",
"`. c #949781",
"'. c #A29D85",
"]. c #9FA189",
"[. c #A6A88F",
"{. c #A0A28B",
"}. c #ADAB94",
"|. c #B8B39B",
" X c #BCB8A2",
".X c None",
/* pixels */
".X.X.X.X.X.X.X.X.X.X.X.X.X.X.X.X.X.X.X.X.X.X.X.X.X.X.X.X.X.X.X.X.X.X.X.X.X.X.X.X.X.X.X.X.X.X.X.X.X.X.X.X.X.X.X.X.X.X.X.X.X.X.X.X.Xd..X.X.X.X.X.X.X",
".X.X.X.X.X.X.X.X.X.X.X.X.X.X.X.X.X.X.X.X.X.X.X.X.X.X.X.X.X.X.X.X.X.X.X.X.X.X.X.X.X.X.X.X.X.X.X.X.X.X.X.X.X.X.X.X.X.X.X.X.X.X.X.X.XN.r..X.X.X.X.X.X",
".X.X.X.X.X.X.X.X.X.X.X.X.X.X.X.X.X.X.X.X.X.X.X.X.X.X.X.X.X.X.X.X.X.X.X.X.X.X.X.X.X.X.X.X.X.X.X.X.X.X.X.X.X.X.X.X.X.X.X.X.X.X.X.Xl.l.B..X.X.X.X.X.X",
".X.X.X.X.X.X.X.X.X.X.X.X.X.X.X.X.X.X.X.X.X.X.X.X.X.X.X.X.X.X.X.X.X.X.X.X.X.X.X.X.X.X.X.X.X.X.X.X.X.X.X.X.X.X.X.X.X.X.X.X.X.X.XH.H.G.C._ .X.X.X.X.X",
".X.X.X.X.X.X.X.X.X.X.X.X.X.X.X.X.X.X.X.X.X.X.X.X.X.X.X.X.X.X.X.X.X.X.X.X.X.X.X.X.X.X.X.X.X.X.X.X.X.X.X.X.X.X.X.X.X.X.X.X.X0 V d.0.Q M 4 < .X.X.X.X",
".X.X.X.X.X.X.X.X.X.X.X.X.X.X.X.X.X.X.X.X.X.X.X.X.X.X.X.XC.p..X.X.X.X.X.X.X.X.X.X.X.X.X.X.X.X.X.X.X.X.X.X.X.XN j 0 9 2 , , $ > < > $ > , < 3 h .X.X",
".X.X.X.X.X.X.X.X.X.X.X.X.X.X.X.X.X.X.X.X.X.X.X.X.X.X.XH.E.t.C .X.X.X.X.X.X.X.X.X.X.X.X.X.X.X.X.X.XB j v h 4 < > @ @ @ > , , < < > 4 9 h c V Y .X.X",
".X.X.X.X.X.X.X.X.X.X.X.X.X.X.X.X.X.X.X.X.X.X.X.X.X.XU.!.E.s.C .X.X.X.X.X.X.X.X.X.X.X.X.X.Xm j j 4 < > @ $ , > @ > > > < < 2 0 v J ( ( J ~ U Y .X.X",
".X.X.X.X.X.X.X.X.X.X.X.X.X.X.X.X.X.X.X.X.X.X.X.Xf.G.U.E.J.g.Y Y .X.X.X.X.X.X.XV v l 9 9 < > > O O $ $ > > < 2 8 h c N J R W W Y V c 9 3 < < 9 q .X",
".X.X.X.X.X.X.X.X.X.X.X.X.X.X.X.X.X.X.X.X.X.X.XU.l.G.G.H.D.q.! Q .X.X.XN v z g 4 > @ @ > > , , > < 9 9 j B K J W ~ ~ J m q 9 < 3 2 8 9 j m V j 3 .X",
".X.X.X.X.X.X.X.X.X.X.X.X.X.X.X.X.X.X.X.X.X.X.XU.G.U.!.~.!.r.Y M j 9 < > > > @ @ @ > , 2 8 g j N J W ^ ( ^ V m q 8 < < 2 9 h N V J J V N m j 0 % .X",
".X.X.X.X.X.X.X.X.X.X.X.X.X.X.X.X.X.X.X.X.X.X.X~.^.^.~.J.V.E > $ @ @ $ > , , 4 9 j l N J ~ ^ W V V c 0 3 3 2 7 0 l m J J J V N m c j m c V ^ W .X.X",
".X.X.X.X.X.X.X.X.X.X.X.X.X.X.X.X.X.X.X.X.XU 0.C.s.9.U 0 3 % % 9 4 > 2 h l V ,.,./ W Y N c 9 2 2 < 9 z l N J J J V N m j j m B W ` ,.( ,.i.a.0..X.X",
".X.X.X.X.X.X.X.X.X.X.X.X.X.X.X.X.X.X5.*.U < 3 3 , , 3 3 0 8 c M > @ J Y J V W V 4 3 2 9 j V V J J Y J m c j j m V J ~ 2.i.a.a.a.u.a.5.a.v.c.u..X.X",
".X.X.X.X.X.X.X.X.X.X.X.X.X.X.X.X.X.X-.Y J v 0 9 e M M U V C ! Q s 1 9 4 4 4 4 h c V J J W ( W V l m m J ( 5.u.c.v.5.5.h.a.5.8.4.( c.n.Z.n.h.1..X.X",
".X.X.X.X.X.X.X.X.X.X.X.X.X.X.X.X.X.Xn.( -.=.M I Q ) ' ' <.` ' E k u 0 V ~ =.Y J B N l h c V / 3.w.u.u.u.i.S.P.R.W.K.S.a.5.<.4.5.;.Z.S.K.Z.a.3..X.X",
".X.X.X.X.X.X.X.X.X.X.X.X.X.X.X.X.X3.-.-.5.Y ) _ ' ) ! ] t.9.y.] t Z v N c c c N J W ( ,.3.5.0.5.,.( ~ ~ R a.Q.(.(.(.(.a.e.4.4.8.2.L.L.K.S.h.<..X.X",
".X.X.X.X.X.X.X.X.X.X.X.X.X.X.X.X.X=.J ,.-.<.) E ' ] y.N.j.] j.y.% X > > < J 3.4.3.( ^ W Y Y ~ W W Y W W / Z.].].).].].e.a.8.8.i.u.R.R.P.Z.i.<..X.X",
".X.X.X.X.X.X.X.X.X.X.X.X.Xx..X.X~ ( ~ <._ 1.t.d.j.j.t.r.] E E E 4 u j j c V W Y Y V Y Y Y Y ~ ^ ( ,.5.u.Z.].}.[.].].].c.Z.Z.Z.P.Z.n.k.u.,.( ` .X.X",
".X.X.X.X.X.X.X.X.X.X.X.X.X.XY.w.V J J ^ J W ) ! I e e 8 C q 8 8 9 d V V V M J V Y W ^ -.3.u.a.a.c.b.a.c.n.P.).].(.R.P.v.h.u.8.5.1.;.^ W ~ E .X.X.X",
".X.X.X.X.X.X.X.X.X.X.X.X.X.Xm.=.N 9 0 q q q q 8 e M I M 0 3 3 8 < d J J V J ,.2.5.u.a.a.a.a.g.i.a.^ i.c.a.i.a.u.5.2.=.( / ~ W ~ ;.=.J V c B .X.X.X",
".X.X.X.X.X.X.X.X.X.X.X.X.X.X-.Y c $ $ < < , & e e 0 8 & & % + $ $ O B V N ( 8.u.i.5.5.a.a.q.M.i.u.N ( ;.( ~ ~ ( ,.,.5.t.p.W # 1 F F k k 0 .X.X.X.X",
".X.X.X.X.X.X.X.X.X.X.Xw.,.-.^ Y N % . X X + + + + X X + + + > < 9 9 N N m / 5.5.5.4.2.;.=.~ J Y / R R O.;.r.p.j.l.l.z.B.V.Q # .X.X.X.X.X.X.X.X.X.X",
".X.X.X.X.X.X.X.X.X-.-.*.Y U U B M 9 X       . X + 3 q c V W ~ Y Y J Y / W J ^ R J V B J J *.=.*.k G G Z =.Z.D.D.T.F.J.Q.'.k.W .X.X.X.X.X.X.X.X.X.X",
".X.X.X.X.X.X.X.X.Xl m m l g g h c c 0 @ @ < 9 v Y ~ *.^ ^ ^ / Y ~ J 9 9 9 B W ~ ~ *.>.>.%.@.@. .Z .X.X.X.X'.}.|. X X|.}.).a.I .X.X.X.X.X.X.X.X.X.X",
".X.X.X.X.X.X.X.X.X.Xl < < 4 g 4 4 0 g , < < 9 V ~ ~ =.K o.{ S A K Y J B H T +.+. . ...| | { .X.X.X.X.X.X.X/.I.n.h.u.4.;.*.R n .X.X.X.X.X.X.X.X.X.X",
".X.X.X.X.X.X.X.X.X.X.Xz 2 2 z z 9 9 9 4 > O O 1 1 < * ; f d .X.X.X( ~ j t f } .X.X.X.X.X.X.X.X.X.X.X.X.X.X7.7.6.%.#.#.O.O..X.X.X.X.X.X.X.X.X.X.X.X",
".X.X.X.X.X.X.X.X.X.X.X.Xv z l g h 4 O       - u 1 < .X.X.X.X.X.X.X.XV @ # .X.X.X.X.X.X.X.X.X.X.X.X.X.X.X.X.X.X.X.X.X.X.X.X.X.X.X.X.X.X.X.X.X.X.X.X",
".X.X.X.X.X.X.X.X.X.X.X.Xg h j g h O .       - 1 * , .X.X.X.X.X.X.X.X0 % .X.X.X.X.X.X.X.X.X.X.X.X.X.X.X.X.X.X.X.X.X.X.X.X.X.X.X.X.X.X.X.X.X.X.X.X.X",
".X.X.X.X.X.X.X.X.X.X.XW 4 h j g > O X .     .   O 9 .X.X.X.X.X.X.X( 9 & .X.X.X.X.X.X.X.X.X.X.X.X.X.X.X.X.X.X.X.X.X.X.X.X.X.X.X.X.X.X.X.X.X.X.X.X.X",
".X.X.X.X.X.X.X.X.X.XY.J g h j g O .           .X.X9 J .X.X.X.X.X.X( h < .X.X.X.X.X.X.X.X.X.X.X.X.X.X.X.X.X.X.X.X.X.X.X.X.X.X.X.X.X.X.X.X.X.X.X.X.X",
".X.X.X.X.X.X.X.X/.8.l g 9 g g 9 2 > O .     .X.X.X.X.X.X.X.X.X.X,.=.~ c .X.X.X.X.X.X.X.X.X.X.X.X.X.X.X.X.X.X.X.X.X.X.X.X.X.X.X.X.X.X.X.X.X.X.X.X.X",
".X.X.X.X.X.X.XC.J z j g 9 < 2 < 2 y y y y y H .X.X.X.X.X.X.X.X=.=.=.,.^ .X.X.X.X.X.X.X.X.X.X.X.X.X.X.X.X.X.X.X.X.X.X.X.X.X.X.X.X.X.X.X.X.X.X.X.X.X",
".X.X.X.X.X.Xb.v z g g > O o : r i f f d d { } X.=.;.:.:.:.=.=.=.=.;.7.T 0 .X.X.X.X.X.X.X.X.X.X.X.X.X.X.X.X.X.X.X.X.X.X.X.X.X.X.X.X.X.X.X.X.X.X.X.X",
".X.X.X.X.Xb.v h z g $       = a [ [ S S F F .X.X.X.X.X.X.X.X.X.X.X*.%....X.X.X.X.X.X.X.X.X.X.X.X.X.X.X.X.X.X.X.X.X.X.X.X.X.X.X.X.X.X.X.X.X.X.X.X.X",
".X.X.X.XC.B b h g >       o ; a .X.X.X.X.X.X.X.X.X.X.X.X.X.X.X.X.X.X.X.X.X.X.X.X.X.X.X.X.X.X.X.X.X.X.X.X.X.X.X.X.X.X.X.X.X.X.X.X.X.X.X.X.X.X.X.X.X",
".X.X.XL.U P L 5 4 O . .     ; .X.X.X.X.X.X.X.X.X.X.X.X.X.X.X.X.X.X.X.X.X.X.X.X.X.X.X.X.X.X.X.X.X.X.X.X.X.X.X.X.X.X.X.X.X.X.X.X.X.X.X.X.X.X.X.X.X.X",
".X.X.X~ w w 6 5 4 @ o       .X.X.X.X.X.X.X.X.X.X.X.X.X.X.X.X.X.X.X.X.X.X.X.X.X.X.X.X.X.X.X.X.X.X.X.X.X.X.X.X.X.X.X.X.X.X.X.X.X.X.X.X.X.X.X.X.X.X.X",
".X.X5.g x L 6 9 9 2 >     . .X.X.X.X.X.X.X.X.X.X.X.X.X.X.X.X.X.X.X.X.X.X.X.X.X.X.X.X.X.X.X.X.X.X.X.X.X.X.X.X.X.X.X.X.X.X.X.X.X.X.X.X.X.X.X.X.X.X.X",
".X.Xv g h h 4 g 4 > O O ; t .X.X.X.X.X.X.X.X.X.X.X.X.X.X.X.X.X.X.X.X.X.X.X.X.X.X.X.X.X.X.X.X.X.X.X.X.X.X.X.X.X.X.X.X.X.X.X.X.X.X.X.X.X.X.X.X.X.X.X",
".X=.g g g g g g #     o r i .X.X.X.X.X.X.X.X.X.X.X.X.X.X.X.X.X.X.X.X.X.X.X.X.X.X.X.X.X.X.X.X.X.X.X.X.X.X.X.X.X.X.X.X.X.X.X.X.X.X.X.X.X.X.X.X.X.X.X",
".X*.g g g g h 1 .       ; .X.X.X.X.X.X.X.X.X.X.X.X.X.X.X.X.X.X.X.X.X.X.X.X.X.X.X.X.X.X.X.X.X.X.X.X.X.X.X.X.X.X.X.X.X.X.X.X.X.X.X.X.X.X.X.X.X.X.X.X",
".X;.j g g j g $ X .     .X.X.X.X.X.X.X.X.X.X.X.X.X.X.X.X.X.X.X.X.X.X.X.X.X.X.X.X.X.X.X.X.X.X.X.X.X.X.X.X.X.X.X.X.X.X.X.X.X.X.X.X.X.X.X.X.X.X.X.X.X",
".X.XN g g g 8 O X       .X.X.X.X.X.X.X.X.X.X.X.X.X.X.X.X.X.X.X.X.X.X.X.X.X.X.X.X.X.X.X.X.X.X.X.X.X.X.X.X.X.X.X.X.X.X.X.X.X.X.X.X.X.X.X.X.X.X.X.X.X",
".X.X*.l g 7 2 > .       < .X.X.X.X.X.X.X.X.X.X.X.X.X.X.X.X.X.X.X.X.X.X.X.X.X.X.X.X.X.X.X.X.X.X.X.X.X.X.X.X.X.X.X.X.X.X.X.X.X.X.X.X.X.X.X.X.X.X.X.X",
".X.X.XR j g 2 g < $ O . 9 .X.X.X.X.X.X.X.X.X.X.X.X.X.X.X.X.X.X.X.X.X.X.X.X.X.X.X.X.X.X.X.X.X.X.X.X.X.X.X.X.X.X.X.X.X.X.X.X.X.X.X.X.X.X.X.X.X.X.X.X",
".X.X.X.X.XN g , # X O : 1 k .X.X.X.X.X.X.X.X.X.X.X.X.X.X.X.X.X.X.X.X.X.X.X.X.X.X.X.X.X.X.X.X.X.X.X.X.X.X.X.X.X.X.X.X.X.X.X.X.X.X.X.X.X.X.X.X.X.X.X",
".X.X.X.X.X.Xz O O ; i [ ...X.X.X.X.X.X.X.X.X.X.X.X.X.X.X.X.X.X.X.X.X.X.X.X.X.X.X.X.X.X.X.X.X.X.X.X.X.X.X.X.X.X.X.X.X.X.X.X.X.X.X.X.X.X.X.X.X.X.X.X",
".X.X.X.X.X.X.Xy { $.&.&..X.X.X.X.X.X.X.X.X.X.X.X.X.X.X.X.X.X.X.X.X.X.X.X.X.X.X.X.X.X.X.X.X.X.X.X.X.X.X.X.X.X.X.X.X.X.X.X.X.X.X.X.X.X.X.X.X.X.X.X.X",
".X.X.X.X.X.X.X.X.X.X.X.X.X.X.X.X.X.X.X.X.X.X.X.X.X.X.X.X.X.X.X.X.X.X.X.X.X.X.X.X.X.X.X.X.X.X.X.X.X.X.X.X.X.X.X.X.X.X.X.X.X.X.X.X.X.X.X.X.X.X.X.X.X"
};
