/* XPM */
static char *result[] = {
/* columns rows colors chars-per-pixel */
"50 50 50 1 ",
"  c #AFAFAF",
". c #B1B1B1",
"X c #B2B2B2",
"o c gray70",
"O c gray72",
"+ c #B9B9B9",
"@ c gray73",
"# c #BBBBBB",
"$ c gray75",
"% c gray76",
"& c gray79",
"* c #CDCDCD",
"= c #D5D5D5",
"- c gray84",
"; c #D7D7D7",
": c gray85",
"> c #DADADA",
", c gray86",
"< c #DDDDDD",
"1 c #DFDFDF",
"2 c gray88",
"3 c #E2E2E2",
"4 c gray89",
"5 c #E4E4E4",
"6 c gray90",
"7 c #E6E6E6",
"8 c #E7E7E7",
"9 c gray91",
"0 c #E9E9E9",
"q c #ECECEC",
"w c gray93",
"e c #EEEEEE",
"r c #EFEFEF",
"t c gray94",
"y c #F1F1F1",
"u c gray95",
"i c #F3F3F3",
"p c #F4F4F4",
"a c gray96",
"s c #F6F6F6",
"d c gray97",
"f c #F8F8F8",
"g c #F9F9F9",
"h c gray98",
"j c #FBFBFB",
"k c gray99",
"l c #FDFDFD",
"z c #FEFEFE",
"x c white",
"c c None",
/* pixels */
"cccccccccccccccccccccccccccccccccccccccccccccccccc",
"cccccccccccccccccccccccccccccccccccccccccccccccccc",
"ccccccccccccccccccccccccllcccccccccccccccccccccccc",
"cccccccccccccccccccccccczzcccccccccccccccccccccccc",
"cccccccccccccccccccccccczzcccccccccccccccccccccccc",
"cccccccccccccccccccccccczzcccccccccccccccccccccccc",
"cccccccccccccccccccccccczzcccccccccccccccccccccccc",
"ccccccccccccccccccccccccxxcccccccccccccccccccccccc",
"cccccccccccccccccccccccckkcccccccccccccccccccccccc",
"cccccccc%r@cccccccccccccccccccccccccccc@r%cccccccc",
"ccccccccc5p+cccccccccccccccccccccccccc+p5ccccccccc",
"cccccccccc5p+cccccccccccccccccccccccc+p5cccccccccc",
"ccccccccccc5p@cccccccccccccccccccccc@p5ccccccccccc",
"cccccccccccc4=cccccccccccccccccccccc-4cccccccccccc",
"cccccccccccccccccccccqtfttftwccccccccccccccccccccc",
"cccccccccccccccccccwjse=99=wsjwccccccccccccccccccc",
"ccccccccccccccccc6aftcccccccctfs8ccccccccccccccccc",
"cccccccccccccccc5kfccccccccccccdk7cccccccccccccccc",
"ccccccccccccccccjjccccccccccccccjjcccccccccccccccc",
"cccccccccccccccriccccccccccccccccutccccccccccccccc",
"cccccccccccccc,z8cccccccccccccccc5z<cccccccccccccc",
"ccccccccccccccyaccccccccccccccccccfucccccccccccccc",
"ccccccccccccccf1ccccccccccccccccccygcccccccccccccc",
"ccccccccccccc2gccccccccccccccccccc6k3ccccccccccccc",
"cclzzzzzdcccc#gcccccccccccccccccccch$ccccdzzzzzlcc",
"ccxxxxxxfcccc jccccccccccccccccccccjXccccfxxxxxxcc",
"ccccccccccccc&gcccccccccccccccccccch*ccccccccccccc",
"ccccccccccccccg;ccccccccccccccccccejcccccccccccccc",
"ccccccccccccccf4ccccccccccccccccccigcccccccccccccc",
"cccccccccccccc8jccccccccccccccccccj0cccccccccccccc",
"ccccccccccccccck9cccccccccccccccc8kccccccccccccccc",
"ccccccccccccccc4f5cccccccccccccc3f6ccccccccccccccc",
"ccccccccccccccccdxrccccccccccccexfcccccccccccccccc",
"cccccccccccccccccdj,cccccccccc:jfccccccccccccccccc",
"cccccccccccccccccc9kgqccccccqgk0cccccccccccccccccc",
"ccccccccccccccccccc3tklassallt4ccccccccccccccccccc",
"cccccccccccc.occcccccc3q;;q3ccccccccoXcccccccccccc",
"ccccccccccc+p;cccccccccccccccccccccc;p+ccccccccccc",
"cccccccccc+p5cccccccccccccccccccccccc6p+cccccccccc",
"ccccccccc+p5cccccccccccccccccccccccccc6p+ccccccccc",
"ccccccccOp5cccccccccccccccccccccccccccc6pOcccccccc",
"cccccccc+>ccccccccccccccttcccccccccccccc>+cccccccc",
"ccccccccccccccccccccccccxxcccccccccccccccccccccccc",
"cccccccccccccccccccccccczzcccccccccccccccccccccccc",
"cccccccccccccccccccccccczzcccccccccccccccccccccccc",
"cccccccccccccccccccccccczzcccccccccccccccccccccccc",
"cccccccccccccccccccccccczzcccccccccccccccccccccccc",
"cccccccccccccccccccccccczzcccccccccccccccccccccccc",
"cccccccccccccccccccccccccccccccccccccccccccccccccc",
"cccccccccccccccccccccccccccccccccccccccccccccccccc"
};
