/* XPM */
static char *result[] = {
/* columns rows colors chars-per-pixel */
"50 50 37 1 ",
"  c #1B1016",
". c #1E1219",
"X c #23151C",
"o c #25181E",
"O c #281D1F",
"+ c #271720",
"@ c #271820",
"# c #2C1B23",
"$ c #301D27",
"% c #321F29",
"& c #2D2221",
"* c #312325",
"= c #332925",
"- c #382E27",
"; c #36232B",
": c #39232E",
"> c #362928",
", c #3C2D2D",
"< c #3A3327",
"1 c #3D322B",
"2 c #3E2532",
"3 c #3E2B31",
"4 c #402E2F",
"5 c #40332F",
"6 c #402734",
"7 c #422935",
"8 c #462D38",
"9 c #482F3A",
"0 c #443333",
"q c #483637",
"w c #463139",
"e c #4B343C",
"r c #4C393B",
"t c #4F3640",
"y c #4F3840",
"u c #503740",
"i c #523A42",
/* pixels */
"iiiiiiiiiiie;oX;wyiiiiiiiii7&o@:tiiiiq11<<1qriiiii",
"iiiiiiiiiiie;oX;wyiiuuiiiit3$X&:eiiirq11<<10rriiii",
"eeeeueeutue8;+X*3titttttiut2*.@;9uuue011<110qrreue",
"e99e99999997&XX$28ee988tt982#.@;8999w871371550qwe9",
"688688778862#XX#27886866786;@.@*27666677777,114788",
"666677776666#XX#27666622672;@++$277277667777,1,466",
"866866766872$XX#:2886222222:@.+$272222767668747768",
"866667676622#XX#:26662%%:22:#.+$222%%%227766777366",
"22::;:::::%%@.X@;::::$$#$%;$+.+#;;%##%;26%6%:%:;:%",
"###+######$$o..X+####++X++++.. +@#++X++#####$#####",
"XXXXXXXXX.X... .XXXXXX..X.X.   ..o....XXXXX.XXXXXX",
"..XXooooXX...oooX.XXX+@@+++++++X .oo@@@@oXoooXoXX#",
"X+#$;;;;%o..#*;;&&&;::>>;;;;:;*@..#;;;:;%:;;:::;::",
"+#%7weee7#Xo;3w1,-13wqtwwwtwtw3#.o;3eeeeeewe99eewe",
"%%28eyitw;X@;wyq111yyyytyytttt3*Xo;eriuuuuruttttei",
"::66ette7&XX;3eww01qqewtyytttt3$X@;8eueueeuet9ttee",
"266868tt2$XX$2t2371055888888982#X+$288888888888888",
"68666226:+XX#:2283311147776876%#.+$277626666776766",
"66668622:#XX#22t7731<447686676%$XX#262226668666668",
"688668t2:#XX#22t87311,47666888%#.X$272;;2666868666",
"66662222:+XX#:2223,---:6622266%#.X$22;%$%262626666",
"%%%%%%:%++.XX#%%%$******%%%$%%#+..+$$#@##%;%%%%%%%",
"+++++++XX.  .X+@oooooooo++++++X.. .X+XX.X++++++++X",
"..X...XXX.XXXXXXXX...X.XX.XX..X.X.XXX.X.......X.XX",
"$$&@oO&@#$#*#**$&#o..X@##$##OOOO*#*&#&$#o   XXo$#$",
"622>==,32228333332&o.@;3867,>=>-7877373,$XXXO$;647",
"tt81111yttttytyyyq2@o&3eeueq5110euueyytw:oXX$:79er",
"tte011qrtttttttttt;@X#7uiuer5150euueyitw:oXo$47eer",
"ew00110qtttt8t7tt7;+X#29e990511089999996*oXO%67899",
"777111337722676t22$+.+%68874111578888882$XX#:67788",
"7741,,332666677722$+X#%66677411766666862$XX#:68777",
"7777732;2267777772$+.#266877753786868672$XXo268777",
"677732;%;226666672$XX#%68666737777277772#X.#:26666",
"%22%2;$##$::2::2:%#X.X$%2:%2:2::%2%2;22%#..#$:22::",
"+#####@@++###+####o. .+#+###############+. .++#+##",
"XXXXX......XXXXXXX.....X+XXXXX.o.XXXXXX.. ..XXXXXX",
"+++....XoOoo+XXooooooooo++oo....X+@@ooo..@@@++++Xo",
":;&o..#;::;;$#&&*;:>:6%2::;#o.o@;;;;>&&&=;:::;;;:2",
"e82#.@;wqqww1<-,weeeew99eew,#.o>7wee01,-13qwywqwe9",
"ir3&@@:qiyir0110euuureuueie7#o@:eiiye0110ytttytyie",
"rq,#Xo:8ttte01109eeetet9ee96#X#%9eeeeq77wqttttttee",
"51-OXo%688883111889888879982#Xo%789877773888686688",
"<1=OXX%67776,11367767666777%oXX$677677767776866666",
"51*O.o$67867751777777622277%oX+%667%67677776668686",
"77;OXX$786677777777772%%276%#XX%26:%%2677777866766",
"4:%oXX$%6666222,222222%$%%6%o.X$:2:%%%226226666666",
"%%$X.X#$%%%%%%%%%%%%%$#+#$%#XXXo%%#++$%%%%%%%%%%%%",
"ooXX .XXo#o+++o#++++++XXX+++...XXoXXX++++++o++++XX",
"....  ..... ......  ... ... .  ......... ..... ...",
"     .                        .                   "
};
